<svg width="68" height="68" viewBox="0 0 68 68" fill="none" xmlns="http://www.w3.org/2000/svg">
<path d="M22.8153 25.9503L18.3961 30.4385C17.5791 31.271 17.0312 32.3556 17.0312 33.5647V35.5781C17.0312 36.3611 17.6558 36.9939 18.4253 36.9939H25.1699C25.9394 36.9939 26.564 36.3964 26.564 35.6602C26.564 34.9211 25.9394 34.3236 25.1685 34.3236H21.5035C20.7339 34.3236 20.1094 34.1537 20.1094 33.9456C20.1094 33.7346 20.1094 33.5661 20.1094 33.5661C20.1094 33.1131 20.2823 32.6841 20.5806 32.4066L24.9998 27.9197C25.8182 27.0872 26.3395 26.0026 26.3395 24.7935V22.6244C26.3395 20.4327 24.3042 18.6416 21.7962 18.6416C19.2897 18.6416 17.2543 20.4312 17.2543 22.6244V23.5065C17.2543 23.995 17.8775 24.39 18.6484 24.39H18.9384C19.7079 24.39 20.3324 23.995 20.3324 23.5065C20.3324 23.0194 20.3324 22.6244 20.3324 22.6244C20.3324 21.9193 21.003 21.3133 21.7962 21.3133C22.6159 21.3133 23.2614 21.9193 23.2614 22.6244V24.7935C23.2614 25.2452 23.0885 25.6487 22.8153 25.9503Z" fill="#F2A602"/>
<path d="M37.8349 18.8418H37.5463C36.7754 18.8418 35.8302 19.3855 35.4329 20.0566L29.7673 29.6547C29.3728 30.3258 29.0508 31.4684 29.0508 32.2061C29.0508 32.9423 29.6739 33.5412 30.4449 33.5412H34.754C35.5263 33.5412 36.1481 34.1741 36.1481 34.9571V35.5786C36.1481 36.3616 36.7712 36.9945 37.5421 36.9945H37.8335C38.6044 36.9945 39.2276 36.363 39.2276 35.5786V34.9571C39.2276 34.1741 39.4478 33.5412 39.7211 33.5412C39.9971 33.5412 40.2174 32.9437 40.2174 32.2061C40.2174 31.467 39.9971 30.8681 39.7225 30.8681C39.4506 30.8681 39.2276 30.2352 39.2276 29.4522V20.2577C39.229 19.4747 38.6072 18.8418 37.8349 18.8418ZM36.1494 29.4522C36.1494 30.2352 35.5277 30.8681 34.7554 30.8667H33.7962C33.0267 30.8667 32.7214 30.3216 33.1131 29.649L35.4399 25.6563C35.8316 24.9852 36.1508 25.0716 36.1508 25.8545L36.1494 29.4522Z" fill="#F2A602"/>
<path d="M43.8179 16.3896C43.2868 16.3896 42.8574 17.0225 42.8574 17.8055V27.1997C42.8574 27.9827 43.2882 28.6156 43.8179 28.6142C44.3491 28.6142 44.7799 27.9813 44.7799 27.1983V22.383C44.7799 21.9242 45.2148 21.5674 45.7348 21.5674C46.252 21.5674 46.6884 21.9242 46.6884 22.383V27.1983C46.6884 27.9813 47.1191 28.6142 47.6489 28.6142C48.1772 28.6142 48.608 27.9813 48.608 27.1983V22.383C48.608 21.0591 47.3213 19.9888 45.7334 19.9888C45.5619 19.9888 45.3988 20.01 45.2427 20.0454C44.9764 20.1077 44.7785 19.5767 44.7785 18.7938V17.8055C44.7799 17.0225 44.3477 16.3896 43.8179 16.3896Z" fill="#F2A602"/>
<path d="M66.1754 36.2663L63.4193 35.3927C63.6911 32.7068 63.6424 29.9926 63.2395 27.2926C60.6325 9.79543 44.4974 -2.28466 27.2666 0.364408C10.0413 3.01348 -1.85304 19.4034 0.755291 36.9006C1.05362 38.8941 1.52761 40.8211 2.15774 42.6617C2.66658 44.1385 3.81112 45.1367 4.57508 44.9512C5.33764 44.7657 5.40874 43.4716 4.88875 42.0005C4.26559 40.2392 3.80136 38.3915 3.51418 36.473C1.13448 20.5234 11.979 5.58043 27.6862 3.16639C43.3933 0.750938 58.1037 11.7649 60.4834 27.7174C60.8193 29.987 60.8974 32.2708 60.712 34.5347C60.712 34.5347 59.5605 34.1694 58.1385 33.7192C56.7152 33.2689 55.8411 34.1425 56.1784 35.666L58.0033 43.9148C58.3407 45.4382 59.534 45.8177 60.6632 44.7586L66.786 39.0286C67.918 37.9682 67.642 36.7321 66.1754 36.2663Z" fill="#233F8C"/>
<path d="M64.9038 58.8959C64.9791 58.491 64.9415 58.062 64.7616 57.6486C63.5544 54.8791 59.7318 48.1821 50.3594 45.8488C46.0628 44.7756 39.6459 43.4971 33.4798 43.4971L32.8483 43.5013C23.685 43.6401 15.4739 45.5288 15.2132 45.5925C14.926 45.6393 8.1368 46.8229 3.60742 51.7544L3.62415 51.7713C2.84068 52.4354 2.11576 53.6417 1.79233 54.2321L1.76445 54.2137C1.1636 55.2232 0.713308 56.2143 0.387093 57.2436C0.256049 57.6585 0.261626 58.079 0.367576 58.4712C0.172404 58.8124 0.049725 59.2032 0.0469369 59.6223L0.00790256 64.6302C-0.0032501 65.9228 1.02279 66.9861 2.30117 67.0003L17.5357 67.1277H17.5482C18.8155 67.1277 19.8527 66.0828 19.8638 64.7972L19.9029 59.7879C19.9056 59.3957 19.8039 59.0304 19.638 58.702C19.7119 58.5944 19.7997 58.4896 19.8568 58.3791C20.0688 57.9671 21.0864 56.598 25.2589 56.3375C26.5972 56.2525 28.2018 56.2115 30.0281 56.2115C35.2963 56.2115 40.7541 56.5654 40.8085 56.5697L40.9786 56.5711C41.546 56.5711 44.3885 56.673 44.5698 58.685C44.5907 58.9158 44.6492 59.1295 44.7217 59.3363C44.4596 59.7313 44.3077 60.207 44.323 60.7196L44.4861 65.7359C44.5321 67.0045 45.5498 67.9999 46.7989 67.9999L63.1724 67.4534C64.4438 67.4052 65.4447 66.3179 65.4029 65.0294L65.2398 60.0187C65.2259 59.6039 65.1004 59.2258 64.9038 58.8959ZM17.077 64.2918L2.79886 64.1728L2.82953 60.1291L17.1077 60.2481L17.077 64.2918ZM41.0009 53.7422C40.9967 53.7422 40.9911 53.7422 40.987 53.7422C40.9326 53.7394 35.3883 53.3783 30.0267 53.3783C28.1433 53.3783 26.4801 53.4222 25.0861 53.51C20.0701 53.8257 18.1296 55.6182 17.3837 57.0695C17.3614 57.112 17.2987 57.1714 17.3614 57.1714L3.39552 57.1587C3.60324 56.6688 3.85418 56.1817 4.14833 55.6834C4.34211 55.4044 5.31936 54.0848 5.5912 53.7479L5.64975 53.6856C9.51694 49.4734 15.6105 48.3959 15.7541 48.3676C15.8363 48.3478 24.0196 46.4647 32.8901 46.3316L33.4812 46.3274C39.3698 46.3274 45.5484 47.562 49.6972 48.5984C56.8168 50.3725 60.242 54.9853 61.6947 57.7194L47.298 58.0436C46.7836 54.8806 43.6274 53.7422 41.0009 53.7422ZM47.2561 65.1512L47.1237 61.1075L62.4684 60.5978L62.6008 64.6386L47.2561 65.1512Z" fill="#233F8C"/>
</svg>
