<svg width="25" height="25" viewBox="0 0 25 25" fill="none" xmlns="http://www.w3.org/2000/svg">
<path d="M18.672 20.4331H6.72957C6.11711 20.4595 5.50863 20.3224 4.96661 20.036C4.42457 19.7496 3.96849 19.3243 3.64508 18.8036C3.32168 18.2828 3.1426 17.6853 3.12623 17.0725C3.10987 16.4596 3.25682 15.8536 3.55197 15.3163L9.52315 4.93866C9.85418 4.39221 10.3206 3.94039 10.8772 3.6268C11.4338 3.3132 12.0618 3.14844 12.7007 3.14844C13.3396 3.14844 13.9677 3.3132 14.5243 3.6268C15.0809 3.94039 15.5474 4.39221 15.8784 4.93866L21.8496 15.3163C22.1447 15.8536 22.2917 16.4596 22.2753 17.0725C22.259 17.6853 22.0799 18.2828 21.7565 18.8036C21.4331 19.3243 20.9769 19.7496 20.4349 20.036C19.8929 20.3224 19.2844 20.4595 18.672 20.4331Z" stroke="#FF543E" stroke-width="1.25" stroke-linecap="round" stroke-linejoin="round"/>
<path d="M11.625 16.4971C11.625 16.3551 11.6531 16.2145 11.7078 16.0834C11.7624 15.9523 11.8424 15.8334 11.9433 15.7334C12.0441 15.6335 12.1638 15.5545 12.2954 15.501C12.427 15.4475 12.5677 15.4207 12.7098 15.4219C12.9193 15.4257 13.123 15.4911 13.2955 15.6101C13.4679 15.729 13.6015 15.8962 13.6796 16.0906C13.7575 16.2851 13.7765 16.4983 13.734 16.7034C13.6915 16.9086 13.5894 17.0966 13.4406 17.2442C13.2918 17.3916 13.1028 17.492 12.8973 17.5327C12.6918 17.5734 12.4788 17.5525 12.2851 17.4728C12.0913 17.3931 11.9254 17.258 11.808 17.0844C11.6906 16.911 11.6269 16.7067 11.625 16.4971ZM11.9706 13.8763L11.8362 8.86512C11.8234 8.74466 11.8361 8.62286 11.8735 8.50764C11.9109 8.39241 11.972 8.28632 12.0531 8.19627C12.1341 8.10622 12.2332 8.03422 12.3438 7.98492C12.4544 7.93563 12.5742 7.91016 12.6954 7.91016C12.8166 7.91016 12.9364 7.93563 13.047 7.98492C13.1576 8.03422 13.2566 8.10622 13.3376 8.19627C13.4187 8.28632 13.4799 8.39241 13.5173 8.50764C13.5546 8.62286 13.5674 8.74466 13.5546 8.86512L13.4298 13.8763C13.4298 14.0697 13.3529 14.2554 13.2161 14.3922C13.0792 14.529 12.8936 14.6059 12.7002 14.6059C12.5067 14.6059 12.3211 14.529 12.1843 14.3922C12.0475 14.2554 11.9706 14.0697 11.9706 13.8763Z" fill="#FF543E"/>
</svg>
