<svg width="87" height="56" viewBox="0 0 87 56" fill="none" xmlns="http://www.w3.org/2000/svg">
<path fill-rule="evenodd" clip-rule="evenodd" d="M7.09655 22.5493C8.55405 22.5493 9.40659 21.6693 9.40659 20.4593C9.40659 19.2768 8.55409 18.5618 6.79409 18.5618H5.30905V15.3443H6.27155C7.94905 15.3443 8.63658 14.4643 8.63658 13.2268C8.63658 12.1543 7.89408 11.4118 6.71158 11.4118C5.61158 11.4118 4.86905 11.9343 4.34655 12.7868L1.92654 10.5043C2.80654 9.2393 4.53905 8.1943 6.82155 8.1943C10.039 8.1943 12.184 10.0368 12.184 12.8418C12.184 14.4093 11.469 15.7568 10.1765 16.3893V16.4993C10.479 16.5543 10.8091 16.6643 11.1116 16.8293H11.139C11.194 16.8843 11.2491 16.9118 11.3041 16.9393C12.0466 17.3243 12.8166 17.4893 13.5041 17.4893C14.4666 17.4893 15.1816 17.2968 15.7041 17.0218V11.3293H13.559V8.3318H43.7816C42.1316 7.4243 40.399 5.8293 38.8041 4.0143L36.4665 1.3743L40.8116 0.466797L47.384 8.3318H76.6991V11.3293H73.8115V26.7843H69.934V22.4118H69.8241C69.109 23.1543 67.789 23.7043 66.1115 23.7043C62.4266 23.7043 59.649 21.0368 59.484 16.4993C61.6015 16.0868 63.1415 15.3443 63.1415 13.6118C63.1415 13.0618 62.8666 11.9893 62.3441 11.3293H56.679V22.1643H52.9941C51.3441 20.9818 50.7665 18.9468 50.7665 17.6268L52.884 16.0593V11.3293H47.714V26.7843H43.8366V11.3293H39.8765V15.5643C39.8765 18.2593 38.2816 19.3593 36.3566 19.6068C36.2741 19.6068 36.1915 19.6343 36.109 19.6343V19.7443C36.6865 20.3218 37.2366 20.8993 38.3366 22.2193L40.8665 25.2443L37.704 27.2243L29.7566 17.4343L32.6715 15.1243C33.524 16.3618 34.1016 16.8293 34.8991 16.8293C35.5316 16.8293 36.0265 16.4718 36.0265 15.4818V11.3293H27.584V26.7843H23.7066V11.3293H19.5816V26.7843H15.7041V20.2943C15.3466 20.4043 14.9341 20.4868 14.4666 20.4868C13.9716 20.4868 13.5316 20.3768 13.1191 20.2118V20.3768C13.1191 23.4843 10.7816 25.7668 7.04156 25.7668C3.43906 25.7668 1.56909 23.8143 0.881592 22.7968L3.54908 20.3493C4.12658 21.3668 5.30905 22.5493 7.09655 22.5493ZM66.689 20.4593C68.834 20.4593 69.934 19.1668 69.934 17.2968V11.3293H65.809V11.4393C66.7165 12.2093 66.9915 13.2818 66.9915 14.1343C66.9915 16.1143 65.424 17.4893 63.6366 17.8193C63.8566 19.3868 64.9015 20.4593 66.689 20.4593ZM10.1215 35.4743C11.0565 35.4743 11.9091 35.5568 12.6791 35.7218C13.4491 35.8868 14.109 36.1572 14.659 36.533C15.209 36.9089 15.6353 37.4085 15.9378 38.0318C16.2403 38.6551 16.3916 39.4251 16.3916 40.3418C16.3916 41.3318 16.167 42.1568 15.7178 42.8168C15.2687 43.4768 14.6041 44.0176 13.7241 44.4393C14.9341 44.7876 15.8369 45.3972 16.4328 46.268C17.0286 47.1389 17.3265 48.1885 17.3265 49.4168C17.3265 50.4068 17.1341 51.2639 16.7491 51.988C16.3641 52.7122 15.8461 53.3035 15.1953 53.7618C14.5444 54.2201 13.802 54.5593 12.9678 54.7793C12.1337 54.9993 11.2765 55.1093 10.3965 55.1093H0.881592V35.4743H10.1215ZM9.57155 43.4218C10.3415 43.4218 10.9741 43.2385 11.4691 42.8718C11.9641 42.5051 12.2116 41.9093 12.2116 41.0843C12.2116 40.626 12.129 40.2501 11.964 39.9568C11.799 39.6635 11.5791 39.4343 11.3041 39.2693C11.0291 39.1043 10.7128 38.9897 10.3553 38.9255C9.99782 38.8614 9.62656 38.8293 9.24156 38.8293H5.19908V43.4218H9.57155ZM9.81909 51.7543C10.2408 51.7543 10.6441 51.713 11.0291 51.6305C11.4141 51.548 11.7532 51.4105 12.0465 51.218C12.3399 51.0255 12.5736 50.7643 12.7478 50.4343C12.922 50.1043 13.009 49.6826 13.009 49.1693C13.009 48.161 12.7249 47.4414 12.1566 47.0105C11.5883 46.5797 10.8365 46.3643 9.90153 46.3643H5.19908V51.7543H9.81909ZM23.734 35.4743V42.8718H23.8166C24.3116 42.0468 24.944 41.4464 25.714 41.0705C26.484 40.6947 27.2357 40.5068 27.9691 40.5068C29.0141 40.5068 29.8711 40.6489 30.5403 40.933C31.2095 41.2172 31.7365 41.6114 32.1215 42.1156C32.5065 42.6197 32.7769 43.2339 32.9328 43.958C33.0886 44.6822 33.1666 45.4843 33.1666 46.3643V55.1093H29.2616V47.0793C29.2616 45.906 29.0782 45.0306 28.7116 44.4531C28.3449 43.8755 27.694 43.5868 26.759 43.5868C25.6957 43.5868 24.9257 43.903 24.4491 44.5355C23.9724 45.168 23.734 46.2085 23.734 47.6568V55.1093H19.8291V35.4743H23.734ZM35.9715 45.2643C36.0265 44.3476 36.2557 43.5868 36.659 42.9818C37.0624 42.3768 37.5757 41.891 38.1991 41.5243C38.8224 41.1576 39.5236 40.8964 40.3028 40.7406C41.082 40.5847 41.8657 40.5068 42.654 40.5068C43.369 40.5068 44.0932 40.5572 44.8265 40.658C45.5599 40.7589 46.229 40.956 46.834 41.2493C47.439 41.5426 47.9341 41.9505 48.3191 42.473C48.7041 42.9955 48.8965 43.6876 48.8965 44.5493V51.9468C48.8965 52.5885 48.9332 53.2026 49.0066 53.7893C49.0799 54.376 49.2082 54.816 49.3915 55.1093H45.4316C45.3582 54.8893 45.2986 54.6647 45.2528 54.4355C45.207 54.2064 45.1749 53.9726 45.1566 53.7343C44.5332 54.376 43.7999 54.8251 42.9566 55.0818C42.1132 55.3385 41.2515 55.4668 40.3715 55.4668C39.6932 55.4668 39.0607 55.3843 38.4741 55.2193C37.8874 55.0543 37.374 54.7976 36.934 54.4493C36.494 54.101 36.1503 53.661 35.9028 53.1293C35.6553 52.5976 35.5316 51.9651 35.5316 51.2318C35.5316 50.4251 35.6736 49.7606 35.9578 49.238C36.2419 48.7155 36.6086 48.2985 37.0578 47.9868C37.5069 47.6751 38.0203 47.4414 38.5978 47.2855C39.1753 47.1297 39.7574 47.006 40.3441 46.9143C40.9307 46.8226 41.5082 46.7493 42.0765 46.6943C42.6449 46.6393 43.149 46.5568 43.589 46.4468C44.029 46.3368 44.3774 46.1764 44.634 45.9655C44.8907 45.7547 45.0099 45.4476 44.9915 45.0443C44.9915 44.6226 44.9228 44.2881 44.7853 44.0406C44.6478 43.7931 44.4645 43.6005 44.2353 43.4631C44.0061 43.3256 43.7403 43.2339 43.4378 43.188C43.1353 43.1422 42.8099 43.1193 42.4616 43.1193C41.6916 43.1193 41.0865 43.2843 40.6465 43.6143C40.2065 43.9443 39.9499 44.4943 39.8765 45.2643H35.9715ZM44.9915 48.1518C44.8265 48.2985 44.6203 48.413 44.3728 48.4955C44.1253 48.578 43.8595 48.6468 43.5753 48.7018C43.2912 48.7568 42.9932 48.8026 42.6816 48.8393C42.3699 48.876 42.0582 48.9218 41.7465 48.9768C41.4532 49.0318 41.1645 49.1051 40.8803 49.1968C40.5961 49.2885 40.3487 49.4122 40.1378 49.568C39.927 49.7239 39.7574 49.921 39.629 50.1593C39.5007 50.3976 39.4366 50.7001 39.4366 51.0668C39.4366 51.4151 39.5007 51.7085 39.629 51.9468C39.7574 52.1851 39.9315 52.373 40.1515 52.5105C40.3715 52.648 40.6282 52.7443 40.9215 52.7993C41.2149 52.8543 41.5174 52.8818 41.829 52.8818C42.599 52.8818 43.1949 52.7535 43.6165 52.4968C44.0382 52.2401 44.3499 51.933 44.5515 51.5756C44.7532 51.218 44.877 50.856 44.9228 50.4893C44.9686 50.1226 44.9915 49.8293 44.9915 49.6093V48.1518ZM55.634 40.8918V43.5318H55.689C55.8723 43.0918 56.1199 42.6839 56.4316 42.308C56.7432 41.9322 57.1007 41.6114 57.504 41.3455C57.9074 41.0797 58.3382 40.8735 58.7965 40.7268C59.2549 40.5801 59.7315 40.5068 60.2265 40.5068C60.4832 40.5068 60.7674 40.5526 61.079 40.6443V44.2743C60.8957 44.2376 60.6757 44.2056 60.4191 44.1781C60.1624 44.1506 59.9148 44.1368 59.6765 44.1368C58.9615 44.1368 58.3566 44.256 57.8616 44.4943C57.3666 44.7326 56.9678 45.058 56.6653 45.4705C56.3628 45.883 56.1474 46.3643 56.0191 46.9143C55.8907 47.4643 55.8265 48.0601 55.8265 48.7018V55.1093H51.9215V40.8918H55.634ZM62.454 45.2643C62.509 44.3476 62.7382 43.5868 63.1415 42.9818C63.5449 42.3768 64.0582 41.891 64.6816 41.5243C65.3049 41.1576 66.0061 40.8964 66.7853 40.7406C67.5645 40.5847 68.3482 40.5068 69.1366 40.5068C69.8515 40.5068 70.5757 40.5572 71.309 40.658C72.0424 40.7589 72.7115 40.956 73.3165 41.2493C73.9215 41.5426 74.4165 41.9505 74.8015 42.473C75.1865 42.9955 75.379 43.6876 75.379 44.5493V51.9468C75.379 52.5885 75.4157 53.2026 75.489 53.7893C75.5623 54.376 75.6907 54.816 75.874 55.1093H71.914C71.8407 54.8893 71.7811 54.6647 71.7353 54.4355C71.6895 54.2064 71.6573 53.9726 71.639 53.7343C71.0157 54.376 70.2823 54.8251 69.439 55.0818C68.5957 55.3385 67.734 55.4668 66.854 55.4668C66.1757 55.4668 65.5432 55.3843 64.9566 55.2193C64.3699 55.0543 63.8565 54.7976 63.4165 54.4493C62.9765 54.101 62.6328 53.661 62.3853 53.1293C62.1378 52.5976 62.014 51.9651 62.014 51.2318C62.014 50.4251 62.1561 49.7606 62.4403 49.238C62.7244 48.7155 63.0911 48.2985 63.5403 47.9868C63.9894 47.6751 64.5028 47.4414 65.0803 47.2855C65.6578 47.1297 66.2398 47.006 66.8265 46.9143C67.4132 46.8226 67.9907 46.7493 68.559 46.6943C69.1274 46.6393 69.6315 46.5568 70.0715 46.4468C70.5115 46.3368 70.8599 46.1764 71.1165 45.9655C71.3732 45.7547 71.4924 45.4476 71.4741 45.0443C71.4741 44.6226 71.4053 44.2881 71.2678 44.0406C71.1303 43.7931 70.947 43.6005 70.7178 43.4631C70.4886 43.3256 70.2228 43.2339 69.9203 43.188C69.6178 43.1422 69.2924 43.1193 68.9441 43.1193C68.1741 43.1193 67.569 43.2843 67.129 43.6143C66.689 43.9443 66.4324 44.4943 66.359 45.2643H62.454ZM71.4741 48.1518C71.3091 48.2985 71.1028 48.413 70.8553 48.4955C70.6078 48.578 70.3419 48.6468 70.0578 48.7018C69.7736 48.7568 69.4757 48.8026 69.164 48.8393C68.8523 48.876 68.5407 48.9218 68.229 48.9768C67.9357 49.0318 67.647 49.1051 67.3628 49.1968C67.0787 49.2885 66.8311 49.4122 66.6203 49.568C66.4094 49.7239 66.2399 49.921 66.1115 50.1593C65.9832 50.3976 65.9191 50.7001 65.9191 51.0668C65.9191 51.4151 65.9832 51.7085 66.1115 51.9468C66.2399 52.1851 66.414 52.373 66.634 52.5105C66.854 52.648 67.1107 52.7443 67.404 52.7993C67.6974 52.8543 67.9999 52.8818 68.3116 52.8818C69.0816 52.8818 69.6774 52.7535 70.0991 52.4968C70.5207 52.2401 70.8324 51.933 71.034 51.5756C71.2357 51.218 71.3595 50.856 71.4053 50.4893C71.4511 50.1226 71.4741 49.8293 71.4741 49.6093V48.1518ZM86.214 40.8918V43.5043H83.354V50.5443C83.354 51.2043 83.464 51.6443 83.684 51.8643C83.904 52.0843 84.344 52.1943 85.004 52.1943C85.224 52.1943 85.4349 52.1851 85.6365 52.1668C85.8382 52.1485 86.0307 52.121 86.214 52.0843V55.1093C85.884 55.1643 85.5173 55.201 85.114 55.2193C84.7107 55.2376 84.3166 55.2468 83.9316 55.2468C83.3266 55.2468 82.7536 55.2055 82.2128 55.123C81.672 55.0405 81.1953 54.8801 80.7828 54.6418C80.3703 54.4035 80.0449 54.0643 79.8066 53.6243C79.5682 53.1843 79.449 52.6068 79.449 51.8918V43.5043H77.084V40.8918H79.449V36.6293H83.354V40.8918H86.214Z" fill="#220D6D"/>
<path d="M79.4491 47.8361V51.8924C79.4491 52.6074 79.5683 53.1849 79.8066 53.6249C80.0449 54.0649 80.3703 54.404 80.7828 54.6424C81.1953 54.8807 81.672 55.0411 82.2129 55.1236C82.7537 55.2061 83.3266 55.2474 83.9316 55.2474C84.3166 55.2474 84.7107 55.2382 85.1141 55.2199C85.5174 55.2015 85.8841 55.1649 86.2141 55.1099V52.0849C86.0307 52.1216 85.8383 52.149 85.6366 52.1674C85.4349 52.1857 85.2241 52.1949 85.0041 52.1949C84.3441 52.1949 83.9041 52.0849 83.6841 51.8649C83.4641 51.6449 83.3541 51.2049 83.3541 50.5449V43.5049L79.4491 47.8361Z" fill="#F2A602"/>
<path d="M79.4491 51.135V51.8913C79.4491 52.6063 79.5683 53.1838 79.8066 53.6238C80.0449 54.0638 80.3703 54.403 80.7828 54.6413C81.1953 54.8796 81.672 55.04 82.2129 55.1225C82.7537 55.205 83.3266 55.2463 83.9316 55.2463C84.3166 55.2463 84.7107 55.2371 85.1141 55.2188C85.5174 55.2005 85.8841 55.1638 86.2141 55.1088V52.0838C86.0307 52.1205 85.8383 52.148 85.6366 52.1663C85.4349 52.1846 85.2241 52.1938 85.0041 52.1938C84.3441 52.1938 83.9041 52.0838 83.6841 51.8638C83.4641 51.6438 83.3541 51.2038 83.3541 50.5438V46.79L79.4491 51.135Z" fill="#FAFCFA"/>
<path d="M80.7821 54.6415C81.1946 54.8799 81.6713 55.0403 82.2121 55.1228C82.753 55.2053 83.3259 55.2465 83.9309 55.2465C84.3159 55.2465 84.71 55.2374 85.1133 55.219C85.5167 55.2007 85.8833 55.164 86.2133 55.109V52.084C86.03 52.1207 85.8375 52.1482 85.6359 52.1665C85.4342 52.1849 85.2234 52.194 85.0034 52.194C84.3434 52.194 83.9033 52.084 83.6833 51.864C83.4633 51.644 80.3696 54.4078 80.7821 54.6415Z" fill="#69B82D"/>
</svg>
