<svg width="18" height="18" viewBox="0 0 18 18" fill="none" xmlns="http://www.w3.org/2000/svg">
<path d="M0.952148 7.40134C0.952148 5.72486 0.952148 4.88751 1.47305 4.3666C1.99395 3.8457 2.8313 3.8457 4.50779 3.8457H13.3969C15.0734 3.8457 15.9107 3.8457 16.4316 4.3666C16.9525 4.88751 16.9525 5.72486 16.9525 7.40134H0.952148Z" fill="#504D4D"/>
<path d="M15.1747 3.8457H2.72997C1.74811 3.8457 0.952148 4.64166 0.952148 5.62352V15.4015C0.952148 16.3834 1.74811 17.1793 2.72997 17.1793H15.1747C16.1566 17.1793 16.9525 16.3834 16.9525 15.4015V5.62352C16.9525 4.64166 16.1566 3.8457 15.1747 3.8457Z" stroke="#504D4D"/>
<path d="M4.50781 1.17969V3.84642M13.3969 1.17969V3.84642" stroke="#504D4D" stroke-linecap="round"/>
</svg>
