<svg width="27" height="26" viewBox="0 0 27 26" fill="none" xmlns="http://www.w3.org/2000/svg">
<path d="M8.7596 20.6599C9.81999 20.6599 10.6796 21.5196 10.6796 22.5799C10.6796 23.6403 9.81999 24.4999 8.7596 24.4999C7.69921 24.4999 6.8396 23.6403 6.8396 22.5799C6.8396 21.5196 7.69921 20.6599 8.7596 20.6599Z" stroke="#F2A602" stroke-width="1.25"/>
<path d="M20.2797 20.6599C21.3401 20.6599 22.1997 21.5194 22.1997 22.5799C22.1997 23.6403 21.3401 24.4999 20.2797 24.4999C19.2194 24.4999 18.3597 23.6403 18.3597 22.5799C18.3597 21.5194 19.2194 20.6599 20.2797 20.6599Z" stroke="#F2A602" stroke-width="1.25"/>
<path d="M2.03843 0.554607C1.53825 0.378748 0.990219 0.641672 0.814373 1.14184C0.638514 1.64203 0.901438 2.19006 1.40161 2.36591L2.03843 0.554607ZM25.602 10.2702L26.5421 10.464L26.5434 10.4581L25.602 10.2702ZM6.46636 10.113V6.62935H4.54636V10.113H6.46636ZM2.37278 0.672149L2.03843 0.554607L1.40161 2.36591L1.73596 2.48346L2.37278 0.672149ZM13.16 18.4202H19.9477V16.5002H13.16V18.4202ZM6.46636 6.62935C6.46636 5.72419 6.46766 4.96886 6.40122 4.35506C6.33244 3.7197 6.18344 3.14022 5.82251 2.61204L4.23728 3.6953C4.35281 3.86437 4.44203 4.09659 4.49237 4.56168C4.54506 5.04835 4.54636 5.68221 4.54636 6.62935H6.46636ZM1.73596 2.48346C2.5905 2.7839 3.1521 2.98301 3.56534 3.18577C3.95347 3.37621 4.12456 3.53036 4.23728 3.6953L5.82251 2.61204C5.45876 2.07974 4.97511 1.73882 4.4111 1.46209C3.8722 1.19767 3.18428 0.957461 2.37278 0.672149L1.73596 2.48346ZM4.54636 10.113C4.54636 11.9722 4.56381 13.3129 4.73923 14.3372C4.92652 15.4307 5.30046 16.2136 5.99963 16.951L7.39295 15.6301C6.98314 15.1978 6.7621 14.7745 6.63167 14.0131C6.48939 13.1822 6.46636 12.019 6.46636 10.113H4.54636ZM13.16 16.5002C11.3465 16.5002 10.0882 16.4979 9.14012 16.3635C8.22516 16.2337 7.7418 15.998 7.39295 15.6301L5.99963 16.951C6.75977 17.7528 7.72337 18.1019 8.87055 18.2645C9.98464 18.4225 11.4037 18.4202 13.16 18.4202V16.5002ZM5.50636 6.41385H21.0337V4.49385H5.50636V6.41385ZM24.6617 10.0764L24.0221 13.18L25.9025 13.5676L26.5421 10.464L24.6617 10.0764ZM21.0337 6.41385C22.1299 6.41385 23.0946 6.41513 23.8559 6.50024C24.2343 6.54253 24.5174 6.60128 24.7163 6.67119C24.9229 6.74378 24.9558 6.79947 24.9393 6.77787L26.4611 5.60717C26.1603 5.21623 25.7374 4.99491 25.3529 4.85976C24.9606 4.72192 24.5169 4.64217 24.0693 4.59213C23.1787 4.49257 22.0943 4.49385 21.0337 4.49385V6.41385ZM26.5434 10.4581C26.76 9.37278 26.9439 8.46215 26.989 7.73273C27.0352 6.9824 26.9498 6.24255 26.4611 5.60717L24.9393 6.77787C25.0187 6.88115 25.1064 7.06712 25.0726 7.61445C25.0375 8.18269 24.8882 8.94156 24.6605 10.0823L26.5434 10.4581ZM19.9477 18.4202C20.9227 18.4202 21.7409 18.4219 22.4004 18.3411C23.0861 18.2573 23.7115 18.0739 24.2575 17.6289L23.0445 16.1406C22.8843 16.2711 22.6571 16.3754 22.1672 16.4355C21.6511 16.4986 20.9708 16.5002 19.9477 16.5002V18.4202ZM24.0221 13.18C23.8155 14.182 23.6765 14.8481 23.5105 15.3408C23.3529 15.8084 23.2048 16.01 23.0445 16.1406L24.2575 17.6289C24.8034 17.184 25.1093 16.6085 25.33 15.9539C25.5422 15.3242 25.7057 14.5225 25.9025 13.5676L24.0221 13.18Z" fill="#233F8C"/>
<path d="M15.8001 14.2599V11.6999V14.2599ZM15.8001 11.6999V9.13989V11.6999ZM15.8001 11.6999H18.3601H15.8001ZM15.8001 11.6999H13.2401H15.8001Z" fill="#F2A602"/>
<path d="M15.8001 14.2599V11.6999M15.8001 11.6999V9.13989M15.8001 11.6999H18.3601M15.8001 11.6999H13.2401" stroke="#F2A602" stroke-width="1.25" stroke-linecap="round"/>
</svg>
