<svg width="16" height="10" viewBox="0 0 16 10" fill="none" xmlns="http://www.w3.org/2000/svg">
<path d="M15.423 1.14446C15.3469 0.961289 15.2013 0.815728 15.0182 0.739658C14.928 0.701246 14.8313 0.680872 14.7333 0.679688H10.9851C10.7863 0.679688 10.5956 0.758667 10.455 0.899251C10.3145 1.03984 10.2355 1.23051 10.2355 1.42933C10.2355 1.62814 10.3145 1.81881 10.455 1.9594C10.5956 2.09998 10.7863 2.17896 10.9851 2.17896H12.9267L8.7362 6.36944L6.26989 3.89563C6.2002 3.82537 6.11729 3.7696 6.02594 3.73154C5.93459 3.69349 5.83661 3.67389 5.73765 3.67389C5.63869 3.67389 5.54071 3.69349 5.44936 3.73154C5.35801 3.7696 5.2751 3.82537 5.20541 3.89563L0.707581 8.39346C0.637319 8.46315 0.58155 8.54606 0.543492 8.63741C0.505434 8.72876 0.48584 8.82674 0.48584 8.9257C0.48584 9.02466 0.505434 9.12265 0.543492 9.214C0.58155 9.30535 0.637319 9.38826 0.707581 9.45794C0.77727 9.52821 0.860181 9.58398 0.951531 9.62204C1.04288 9.66009 1.14086 9.67969 1.23982 9.67969C1.33879 9.67969 1.43677 9.66009 1.52812 9.62204C1.61947 9.58398 1.70238 9.52821 1.77207 9.45794L5.73765 5.48487L8.20396 7.95867C8.27365 8.02893 8.35656 8.0847 8.44791 8.12276C8.53926 8.16082 8.63724 8.18041 8.7362 8.18041C8.83516 8.18041 8.93314 8.16082 9.0245 8.12276C9.11584 8.0847 9.19876 8.02893 9.26844 7.95867L13.9837 3.23595V5.17751C13.9837 5.37633 14.0626 5.567 14.2032 5.70759C14.3438 5.84817 14.5345 5.92715 14.7333 5.92715C14.9321 5.92715 15.1228 5.84817 15.2634 5.70759C15.404 5.567 15.4829 5.37633 15.4829 5.17751V1.42933C15.4818 1.33136 15.4614 1.23459 15.423 1.14446Z" fill="black"/>
<path d="M15.423 1.14446C15.3469 0.961289 15.2013 0.815728 15.0182 0.739658C14.928 0.701246 14.8313 0.680872 14.7333 0.679688H10.9851C10.7863 0.679688 10.5956 0.758667 10.455 0.899251C10.3145 1.03984 10.2355 1.23051 10.2355 1.42933C10.2355 1.62814 10.3145 1.81881 10.455 1.9594C10.5956 2.09998 10.7863 2.17896 10.9851 2.17896H12.9267L8.7362 6.36944L6.26989 3.89563C6.2002 3.82537 6.11729 3.7696 6.02594 3.73154C5.93459 3.69349 5.83661 3.67389 5.73765 3.67389C5.63869 3.67389 5.54071 3.69349 5.44936 3.73154C5.35801 3.7696 5.2751 3.82537 5.20541 3.89563L0.707581 8.39346C0.637319 8.46315 0.58155 8.54606 0.543492 8.63741C0.505434 8.72876 0.48584 8.82674 0.48584 8.9257C0.48584 9.02466 0.505434 9.12265 0.543492 9.214C0.58155 9.30535 0.637319 9.38826 0.707581 9.45794C0.77727 9.52821 0.860181 9.58398 0.951531 9.62204C1.04288 9.66009 1.14086 9.67969 1.23982 9.67969C1.33879 9.67969 1.43677 9.66009 1.52812 9.62204C1.61947 9.58398 1.70238 9.52821 1.77207 9.45794L5.73765 5.48487L8.20396 7.95867C8.27365 8.02893 8.35656 8.0847 8.44791 8.12276C8.53926 8.16082 8.63724 8.18041 8.7362 8.18041C8.83516 8.18041 8.93314 8.16082 9.0245 8.12276C9.11584 8.0847 9.19876 8.02893 9.26844 7.95867L13.9837 3.23595V5.17751C13.9837 5.37633 14.0626 5.567 14.2032 5.70759C14.3438 5.84817 14.5345 5.92715 14.7333 5.92715C14.9321 5.92715 15.1228 5.84817 15.2634 5.70759C15.404 5.567 15.4829 5.37633 15.4829 5.17751V1.42933C15.4818 1.33136 15.4614 1.23459 15.423 1.14446Z" fill="#F2A602"/>
</svg>
