<svg width="92" height="92" viewBox="0 0 92 92" fill="none" xmlns="http://www.w3.org/2000/svg">
<path d="M82.8614 46.0257C82.8614 66.7192 66.2593 83.4685 45.8115 83.4685C25.3638 83.4685 8.76172 66.7192 8.76172 46.0257C8.76172 25.3323 25.3638 8.58301 45.8115 8.58301C66.2593 8.58301 82.8614 25.3323 82.8614 46.0257Z" stroke="#F2A602" stroke-width="3" stroke-linecap="round" stroke-linejoin="round"/>
<path d="M63.3141 20.8964C65.9701 22.7807 68.347 25.1082 70.3226 27.8293C69.6562 28.2948 69.4751 29.2107 69.9212 29.893C70.8657 31.338 71.6964 32.8892 72.3952 34.54C73.094 36.1907 73.6303 37.8691 74.012 39.5573C74.1922 40.3544 74.9728 40.8549 75.7664 40.6897C76.3491 44.0125 76.3729 47.3565 75.8867 50.5981C75.0894 50.4607 74.3214 50.9883 74.1608 51.7914C73.4671 55.2605 72.1555 58.5801 70.2953 61.5772C69.8634 62.2729 70.0631 63.1828 70.7386 63.6277C68.8725 66.3299 66.5628 68.7485 63.8592 70.7583C63.3969 70.0929 62.4864 69.9191 61.8073 70.3734C60.3699 71.3348 58.8259 72.1799 57.1821 72.89C55.5384 73.6 53.8669 74.1439 52.1857 74.5296C51.3915 74.7118 50.8868 75.4968 51.0437 76.2941C47.7376 76.8804 44.4108 76.8966 41.1876 76.3928C41.336 75.592 40.8226 74.8176 40.0263 74.6524C36.5962 73.9406 33.3142 72.6053 30.352 70.7154C29.6663 70.2779 28.7581 70.4743 28.3057 71.1515C25.6497 69.2673 23.2728 66.9398 21.2972 64.2187C21.9636 63.7532 22.1446 62.8373 21.6986 62.155C20.7541 60.71 19.9233 59.1587 19.2246 57.508C18.5258 55.8572 17.9895 54.1788 17.6078 52.4907C17.4276 51.6936 16.647 51.1931 15.8534 51.3582C15.2707 48.0354 15.2469 44.6915 15.7331 41.4499C16.5304 41.5872 17.2984 41.0597 17.459 40.2566C18.1527 36.7875 19.4643 33.4678 21.3245 30.4708C21.7564 29.775 21.5567 28.8651 20.8812 28.4203C22.7473 25.7181 25.057 23.2994 27.7606 21.2897C28.2229 21.9551 29.1334 22.1288 29.8125 21.6746C31.2499 20.7131 32.7939 19.868 34.4377 19.158C36.0814 18.4479 37.7529 17.904 39.4341 17.5184C40.2283 17.3362 40.733 16.5512 40.5761 15.7539C43.8822 15.1675 47.209 15.1514 50.4322 15.6552C50.2838 16.4559 50.7971 17.2304 51.5935 17.3956C55.0236 18.1073 58.3056 19.4427 61.2678 21.3326C61.9535 21.7701 62.8617 21.5736 63.3141 20.8964Z" stroke="#233F8C" stroke-width="3" stroke-linecap="round" stroke-dasharray="12 14"/>
<path d="M63 46.0243C63 55.6292 55.2949 63.3981 45.8115 63.3981C36.3281 63.3981 28.623 55.6292 28.623 46.0243C28.623 36.4193 36.3281 28.6504 45.8115 28.6504C55.2949 28.6504 63 36.4193 63 46.0243Z" fill="#F2A602" stroke="#233F8C" stroke-width="2"/>
<path d="M45.8063 27.6504C50.0146 27.6492 54.093 29.1221 57.3467 31.8182C60.6003 34.5143 62.8279 38.2667 63.6497 42.4359C64.4716 46.6052 63.8368 50.9334 61.8537 54.6829C59.8706 58.4324 56.6618 61.3712 52.7741 62.9985C48.8864 64.6259 44.5604 64.841 40.5332 63.6074C36.5061 62.3737 33.027 59.7675 30.6889 56.233C28.3507 52.6984 27.2982 48.4542 27.7106 44.2235C28.1231 39.9928 29.9749 36.0375 32.9507 33.0316C34.6366 31.3229 36.6403 29.9677 38.8466 29.0442C41.0529 28.1207 43.4181 27.647 45.8063 27.6504ZM42.2077 48.9809C42.2846 48.3292 40.364 45.8299 40.0148 44.6341C39.2631 43.4383 38.9967 41.507 39.8135 40.2305C40.142 39.7252 40 39.2858 40 38.5832C40 31.6355 52.0447 31.6355 52.0447 38.5832C52.0447 39.4622 51.8464 39.6684 52.317 40.377C53.1042 41.5309 52.6987 43.5818 52.021 44.652C51.5949 45.8867 49.5943 48.2784 49.7334 48.9869C49.8577 52.5504 42.187 52.4338 42.2077 48.9869V48.9809ZM32.4457 55.5681C33.298 54.9152 35.7237 53.8569 37.8189 52.7806C38.6096 52.3761 39.3755 51.9238 40.1124 51.4264C42.5451 54.4398 44.5515 57.7523 43.8945 61.6058C44.5268 61.685 45.1633 61.7249 45.8004 61.7254C45.9632 61.7254 46.123 61.7254 46.2857 61.7254C46.1378 57.1992 48.7657 53.8898 51.5505 51.0736C52.976 52.0279 54.5153 52.7964 56.1316 53.3606C57.4989 53.821 58.3186 54.117 58.7951 54.6461C60.3494 52.2644 61.2322 49.5001 61.3489 46.6499C61.4656 43.7997 60.8117 40.9712 59.4574 38.468C58.1031 35.9648 56.0995 33.8814 53.6618 32.4415C51.2241 31.0016 48.4442 30.2596 45.6205 30.295C42.7969 30.3304 40.036 31.1419 37.6344 32.6425C35.2328 34.1431 33.2811 36.2761 31.9887 38.8124C30.6964 41.3488 30.1122 44.1929 30.2989 47.0393C30.4855 49.8857 31.5131 52.7915 33.1254 55.1334L32.4457 55.5681Z" fill="#233F8C"/>
<path d="M1.912 35.2324C2.09477 35.2324 2.27006 35.3081 2.39931 35.4428C2.52855 35.5775 2.60116 35.7602 2.60116 35.9507C2.60116 41.1572 6.65259 45.289 15.4128 45.289H16.5058L14.9249 43.6426C14.8608 43.5758 14.81 43.4965 14.7753 43.4092C14.7406 43.322 14.7228 43.2285 14.7228 43.134C14.7228 43.0396 14.7406 42.946 14.7753 42.8588C14.81 42.7715 14.8608 42.6922 14.9249 42.6254C15.0543 42.4905 15.2298 42.4148 15.4128 42.4148C15.5034 42.4148 15.5931 42.4334 15.6769 42.4695C15.7606 42.5057 15.8366 42.5586 15.9007 42.6254L18.6574 45.4987C18.7215 45.5655 18.7725 45.6447 18.8072 45.732C18.8419 45.8193 18.8598 45.9128 18.8598 46.0073C18.8598 46.1018 18.8419 46.1953 18.8072 46.2826C18.7725 46.3699 18.7215 46.4492 18.6574 46.5159L15.9007 49.3892C15.8366 49.456 15.7606 49.509 15.6769 49.5451C15.5931 49.5812 15.5034 49.5998 15.4128 49.5998C15.3222 49.5998 15.2324 49.5812 15.1487 49.5451C15.065 49.509 14.9889 49.456 14.9249 49.3892C14.8608 49.3224 14.81 49.2431 14.7753 49.1559C14.7406 49.0686 14.7228 48.9751 14.7228 48.8806C14.7228 48.7862 14.7406 48.6926 14.7753 48.6054C14.81 48.5181 14.8608 48.4388 14.9249 48.372L16.5058 46.7256H15.4128C14.2341 46.7174 8.78492 46.9534 7.6944 47.4197C6.60387 47.8861 5.6131 48.5737 4.7796 49.4424C3.94609 50.3112 3.71453 51.3439 3.26708 52.4806C2.81964 53.6173 2.59328 54.8353 2.60116 56.0639C2.60116 56.2544 2.52855 56.4371 2.39931 56.5718C2.27006 56.7065 2.09477 56.7822 1.912 56.7822C1.72922 56.7822 1.55393 56.7065 1.42469 56.5718C1.29544 56.4371 1.22283 56.2544 1.22283 56.0639C1.21054 53.889 1.83397 51.7617 3.01017 49.9652C4.18637 48.1687 5.4315 46.7882 7.37902 46.0073C5.4315 45.2264 4.18637 43.8459 3.01017 42.0494C1.83397 40.2529 1.21054 38.1257 1.22283 35.9507C1.22283 35.7602 1.29544 35.5775 1.42469 35.4428C1.55393 35.3081 1.72922 35.2324 1.912 35.2324Z" fill="#F2A602" stroke="#F2A602"/>
<path d="M90.5333 36.0127C90.3505 36.0127 90.1752 36.0829 90.046 36.208C89.9168 36.333 89.8442 36.5026 89.8442 36.6794C89.8442 41.5114 85.7927 45.346 77.0325 45.346H75.9395L77.5205 43.818C77.5845 43.756 77.6354 43.6825 77.67 43.6015C77.7047 43.5205 77.7226 43.4337 77.7226 43.346C77.7226 43.2584 77.7047 43.1716 77.67 43.0906C77.6354 43.0096 77.5845 42.936 77.5205 42.874C77.391 42.7488 77.2155 42.6785 77.0325 42.6785C76.9419 42.6785 76.8522 42.6958 76.7685 42.7293C76.6847 42.7629 76.6087 42.812 76.5446 42.874L73.788 45.5407C73.7238 45.6026 73.6729 45.6762 73.6381 45.7572C73.6034 45.8382 73.5855 45.925 73.5855 46.0127C73.5855 46.1004 73.6034 46.1872 73.6381 46.2682C73.6729 46.3492 73.7238 46.4228 73.788 46.4847L76.5446 49.1514C76.6087 49.2134 76.6847 49.2625 76.7685 49.2961C76.8522 49.3296 76.9419 49.3469 77.0325 49.3469C77.1231 49.3469 77.2129 49.3296 77.2966 49.2961C77.3803 49.2625 77.4564 49.2134 77.5205 49.1514C77.5845 49.0894 77.6354 49.0158 77.67 48.9348C77.7047 48.8538 77.7226 48.767 77.7226 48.6794C77.7226 48.5917 77.7047 48.5049 77.67 48.4239C77.6354 48.3429 77.5845 48.2694 77.5205 48.2074L75.9395 46.6794H77.0325C78.2113 46.6717 83.6604 46.8907 84.7509 47.3236C85.8414 47.7564 86.8322 48.3945 87.6657 49.2008C88.4992 50.0071 88.7308 50.9655 89.1782 52.0205C89.6257 53.0754 89.852 54.2058 89.8442 55.346C89.8442 55.5228 89.9168 55.6924 90.046 55.8174C90.1752 55.9425 90.3505 56.0127 90.5333 56.0127C90.7161 56.0127 90.8914 55.9425 91.0206 55.8174C91.1499 55.6924 91.2225 55.5228 91.2225 55.346C91.2348 53.3275 90.6113 51.3533 89.4351 49.686C88.2589 48.0187 87.0138 46.7374 85.0663 46.0127C87.0138 45.288 88.2589 44.0067 89.4351 42.3394C90.6113 40.6721 91.2348 38.6979 91.2225 36.6794C91.2225 36.5026 91.1499 36.333 91.0206 36.208C90.8914 36.0829 90.7161 36.0127 90.5333 36.0127Z" fill="#F2A602" stroke="#F2A602"/>
<path d="M35.0352 2.11397C35.0352 2.29333 35.1088 2.46535 35.2399 2.59218C35.371 2.71901 35.5489 2.79026 35.7343 2.79026C40.8014 2.79026 44.8227 6.76606 44.8227 15.3627V16.4353L43.2204 14.8839C43.1554 14.821 43.0782 14.7711 42.9933 14.7371C42.9084 14.7031 42.8173 14.6856 42.7254 14.6856C42.6335 14.6856 42.5425 14.7031 42.4575 14.7371C42.3726 14.7711 42.2954 14.821 42.2304 14.8839C42.0992 15.0109 42.0254 15.1831 42.0254 15.3627C42.0254 15.4516 42.0435 15.5397 42.0787 15.6218C42.1139 15.704 42.1654 15.7786 42.2304 15.8415L45.0269 18.5467C45.0918 18.6097 45.169 18.6597 45.2539 18.6937C45.3388 18.7278 45.4299 18.7454 45.5219 18.7454C45.6138 18.7454 45.7049 18.7278 45.7898 18.6937C45.8747 18.6597 45.9519 18.6097 46.0168 18.5467L48.8133 15.8415C48.8783 15.7786 48.9298 15.704 48.965 15.6218C49.0002 15.5397 49.0183 15.4516 49.0183 15.3627C49.0183 15.2738 49.0002 15.1857 48.965 15.1036C48.9298 15.0214 48.8783 14.9468 48.8133 14.8839C48.7483 14.821 48.6711 14.7711 48.5862 14.7371C48.5013 14.7031 48.4102 14.6856 48.3183 14.6856C48.2264 14.6856 48.1354 14.7031 48.0504 14.7371C47.9655 14.7711 47.8883 14.821 47.8233 14.8839L46.221 16.4353V15.3627C46.213 14.206 46.4426 8.85858 46.8965 7.78841C47.3504 6.71825 48.0196 5.74597 48.8651 4.92803C49.7107 4.11009 50.7157 3.88285 51.822 3.44376C52.9283 3.00467 54.1137 2.78254 55.3094 2.79026C55.4949 2.79026 55.6727 2.71901 55.8038 2.59218C55.9349 2.46535 56.0086 2.29333 56.0086 2.11397C56.0086 1.93461 55.9349 1.76259 55.8038 1.63576C55.6727 1.50893 55.4949 1.43768 55.3094 1.43768C53.1927 1.42561 51.1224 2.0374 49.3739 3.19164C47.6255 4.34588 46.2818 5.56777 45.5219 7.47893C44.7619 5.56777 43.4182 4.34588 41.6698 3.19164C39.9214 2.0374 37.851 1.42561 35.7343 1.43768C35.5489 1.43768 35.371 1.50893 35.2399 1.63576C35.1088 1.76259 35.0352 1.93461 35.0352 2.11397Z" fill="#F2A602" stroke="#F2A602"/>
<path d="M35.8926 90.762C35.8926 90.5826 35.9662 90.4106 36.0973 90.2838C36.2285 90.157 36.4063 90.0857 36.5917 90.0857C41.6589 90.0857 45.6802 86.1099 45.6802 77.5133V76.4407L44.0778 77.9921C44.0128 78.055 43.9356 78.1048 43.8507 78.1389C43.7658 78.1729 43.6747 78.1904 43.5828 78.1904C43.4909 78.1904 43.3999 78.1729 43.3149 78.1389C43.23 78.1048 43.1529 78.055 43.0879 77.9921C42.9566 77.8651 42.8828 77.6929 42.8828 77.5133C42.8828 77.4243 42.9009 77.3363 42.9361 77.2541C42.9713 77.172 43.0229 77.0973 43.0879 77.0345L45.8843 74.3293C45.9492 74.2663 46.0264 74.2163 46.1113 74.1822C46.1963 74.1481 46.2873 74.1306 46.3793 74.1306C46.4712 74.1306 46.5623 74.1481 46.6472 74.1822C46.7322 74.2163 46.8093 74.2663 46.8743 74.3293L49.6707 77.0345C49.7357 77.0973 49.7873 77.172 49.8224 77.2541C49.8576 77.3363 49.8757 77.4243 49.8757 77.5133C49.8757 77.6022 49.8576 77.6902 49.8224 77.7724C49.7873 77.8546 49.7357 77.9292 49.6707 77.9921C49.6057 78.055 49.5285 78.1048 49.4436 78.1389C49.3587 78.1729 49.2677 78.1904 49.1757 78.1904C49.0838 78.1904 48.9928 78.1729 48.9079 78.1389C48.8229 78.1048 48.7458 78.055 48.6808 77.9921L47.0784 76.4407V77.5133C47.0704 78.67 47.3 84.0174 47.7539 85.0876C48.2078 86.1577 48.877 87.13 49.7225 87.9479C50.5681 88.7659 51.5732 88.9931 52.6794 89.4322C53.7857 89.8713 54.9711 90.0934 56.1669 90.0857C56.3523 90.0857 56.5301 90.157 56.6612 90.2838C56.7923 90.4106 56.866 90.5826 56.866 90.762C56.866 90.9414 56.7923 91.1134 56.6612 91.2402C56.5301 91.367 56.3523 91.4383 56.1669 91.4383C54.0501 91.4504 51.9798 90.8386 50.2313 89.6843C48.4829 88.5301 47.1393 87.3082 46.3793 85.3971C45.6193 87.3082 44.2757 88.5301 42.5272 89.6843C40.7788 90.8386 38.7084 91.4504 36.5917 91.4383C36.4063 91.4383 36.2285 91.367 36.0973 91.2402C35.9662 91.1134 35.8926 90.9414 35.8926 90.762Z" fill="#F2A602" stroke="#F2A602"/>
</svg>
