<svg width="12" height="7" viewBox="0 0 12 7" fill="none" xmlns="http://www.w3.org/2000/svg">
<path d="M11.6129 0.366375C11.5537 0.223906 11.4405 0.110692 11.298 0.0515269C11.2279 0.0216508 11.1527 0.00580403 11.0765 0.00488281H8.16122C8.00659 0.00488281 7.85828 0.0663114 7.74894 0.175655C7.6396 0.284998 7.57817 0.4333 7.57817 0.587934C7.57817 0.742569 7.6396 0.890871 7.74894 1.00021C7.85828 1.10956 8.00659 1.17099 8.16122 1.17099H9.67132L6.41207 4.43024L4.49383 2.50617C4.43962 2.45153 4.37514 2.40815 4.30409 2.37855C4.23304 2.34895 4.15683 2.33371 4.07986 2.33371C4.00289 2.33371 3.92668 2.34895 3.85563 2.37855C3.78458 2.40815 3.72009 2.45153 3.66589 2.50617L0.167583 6.00448C0.112934 6.05869 0.0695586 6.12317 0.0399579 6.19422C0.0103571 6.26527 -0.00488281 6.34148 -0.00488281 6.41845C-0.00488281 6.49542 0.0103571 6.57163 0.0399579 6.64268C0.0695586 6.71373 0.112934 6.77821 0.167583 6.83242C0.221785 6.88707 0.286271 6.93044 0.357322 6.96004C0.428372 6.98964 0.50458 7.00488 0.581549 7.00488C0.658519 7.00488 0.734727 6.98964 0.805777 6.96004C0.876828 6.93044 0.941314 6.88707 0.995516 6.83242L4.07986 3.74224L5.9981 5.66631C6.0523 5.72096 6.11679 5.76434 6.18784 5.79394C6.25889 5.82354 6.3351 5.83878 6.41207 5.83878C6.48903 5.83878 6.56524 5.82354 6.63629 5.79394C6.70734 5.76434 6.77183 5.72096 6.82603 5.66631L10.4934 1.99309V3.50319C10.4934 3.65783 10.5549 3.80613 10.6642 3.91547C10.7735 4.02482 10.9218 4.08624 11.0765 4.08624C11.2311 4.08624 11.3794 4.02482 11.4888 3.91547C11.5981 3.80613 11.6595 3.65783 11.6595 3.50319V0.587934C11.6586 0.511743 11.6428 0.436471 11.6129 0.366375Z" fill="black"/>
<path d="M11.6129 0.366375C11.5537 0.223906 11.4405 0.110692 11.298 0.0515269C11.2279 0.0216508 11.1527 0.00580403 11.0765 0.00488281H8.16122C8.00659 0.00488281 7.85828 0.0663114 7.74894 0.175655C7.6396 0.284998 7.57817 0.4333 7.57817 0.587934C7.57817 0.742569 7.6396 0.890871 7.74894 1.00021C7.85828 1.10956 8.00659 1.17099 8.16122 1.17099H9.67132L6.41207 4.43024L4.49383 2.50617C4.43962 2.45153 4.37514 2.40815 4.30409 2.37855C4.23304 2.34895 4.15683 2.33371 4.07986 2.33371C4.00289 2.33371 3.92668 2.34895 3.85563 2.37855C3.78458 2.40815 3.72009 2.45153 3.66589 2.50617L0.167583 6.00448C0.112934 6.05869 0.0695586 6.12317 0.0399579 6.19422C0.0103571 6.26527 -0.00488281 6.34148 -0.00488281 6.41845C-0.00488281 6.49542 0.0103571 6.57163 0.0399579 6.64268C0.0695586 6.71373 0.112934 6.77821 0.167583 6.83242C0.221785 6.88707 0.286271 6.93044 0.357322 6.96004C0.428372 6.98964 0.50458 7.00488 0.581549 7.00488C0.658519 7.00488 0.734727 6.98964 0.805777 6.96004C0.876828 6.93044 0.941314 6.88707 0.995516 6.83242L4.07986 3.74224L5.9981 5.66631C6.0523 5.72096 6.11679 5.76434 6.18784 5.79394C6.25889 5.82354 6.3351 5.83878 6.41207 5.83878C6.48903 5.83878 6.56524 5.82354 6.63629 5.79394C6.70734 5.76434 6.77183 5.72096 6.82603 5.66631L10.4934 1.99309V3.50319C10.4934 3.65783 10.5549 3.80613 10.6642 3.91547C10.7735 4.02482 10.9218 4.08624 11.0765 4.08624C11.2311 4.08624 11.3794 4.02482 11.4888 3.91547C11.5981 3.80613 11.6595 3.65783 11.6595 3.50319V0.587934C11.6586 0.511743 11.6428 0.436471 11.6129 0.366375Z" fill="#F2A602"/>
</svg>
