<svg width="91" height="91" viewBox="0 0 91 91" fill="none" xmlns="http://www.w3.org/2000/svg">
<g clip-path="url(#clip0_1157_6754)">
<path d="M43.5879 70.9465C43.5879 71.4451 43.1709 71.85 42.6571 71.85H39.8684C39.3546 71.85 38.9375 71.4451 38.9375 70.9465C38.9375 70.4459 39.3546 70.043 39.8684 70.043H42.6571C43.1709 70.043 43.5879 70.4459 43.5879 70.9465Z" fill="#233F8C"/>
<path d="M55.428 67.7686C54.7838 67.3946 54.0318 67.1795 53.2275 67.1777H50.7887V60.1881C50.7887 58.9756 50.2805 57.8769 49.4596 57.0801C48.6385 56.2832 47.5066 55.7898 46.2575 55.7898H38.0122V51.0753C38.0122 50.5766 37.5952 50.1719 37.0813 50.1719H1.18869C0.674871 50.1719 0.257812 50.5766 0.257812 51.0753V82.5937C0.257812 83.0923 0.674724 83.4971 1.18869 83.4971H5.1559C5.59531 85.7849 7.66546 87.5232 10.1471 87.5232C12.6305 87.5232 14.7006 85.7849 15.1381 83.4971H38.4796C38.9171 85.7849 40.9872 87.5232 43.4706 87.5232C45.9522 87.5232 48.0224 85.7849 48.4599 83.4971H56.5953C57.111 83.4971 57.5262 83.0923 57.5262 82.5937V71.3556C57.5262 71.3538 57.5281 71.3538 57.5281 71.3521C57.5281 69.8306 56.6846 68.497 55.428 67.7686ZM38.0122 57.597H46.25C46.2519 57.597 46.2537 57.5988 46.2575 57.5988C46.9928 57.5988 47.6612 57.8879 48.1434 58.3578C48.6274 58.8276 48.9271 59.4745 48.9271 60.1882V67.1797H38.0122V57.597ZM5.15575 81.6901H2.11943V80.3728H5.61561C5.40164 80.783 5.24516 81.2258 5.15575 81.6901ZM13.3638 82.5937C13.3638 82.5937 13.3638 82.5937 13.3638 82.5956C13.3638 84.3158 11.921 85.7162 10.1469 85.7162C8.37458 85.7162 6.93178 84.3156 6.93178 82.5937C6.93178 80.8716 8.37458 79.471 10.1469 79.471C11.921 79.471 13.3619 80.8716 13.3638 82.5919C13.3638 82.5937 13.3638 82.5937 13.3638 82.5937ZM13.0697 78.5658C12.2431 77.9984 11.2341 77.6641 10.1469 77.6641C9.05972 77.6641 8.05252 78.0001 7.2259 78.5658H2.11943V51.9789H36.1506V68.0795C36.1506 68.0795 36.1506 68.0814 36.1506 68.0831C36.1506 68.0831 36.1506 68.0849 36.1506 68.0867V78.5656H13.0697V78.5658ZM38.4794 81.6901H15.1381C15.0487 81.2258 14.8924 80.7831 14.6783 80.3728H38.9375C38.7253 80.783 38.5688 81.2258 38.4794 81.6901ZM43.4706 85.7162C41.6965 85.7162 40.2537 84.3156 40.2537 82.5937C40.2537 80.8716 41.6965 79.471 43.4706 79.471C45.243 79.471 46.6857 80.8716 46.6857 82.5937C46.6857 84.3156 45.2428 85.7162 43.4706 85.7162ZM46.3915 78.5658C45.565 78.0001 44.5578 77.6641 43.4706 77.6641C42.3816 77.6641 41.3744 78.0001 40.5478 78.5658H38.0122V68.9868H48.9271V78.5658H46.3915ZM55.6646 81.6901H48.4599C48.3706 81.2258 48.2141 80.7831 48.0019 80.3728H49.8544C49.8563 80.3728 49.8563 80.3746 49.8581 80.3746H55.6646V81.6901ZM55.6646 78.5658H50.7888V68.9849H53.2257L53.2277 68.9868C53.7284 68.9868 54.1957 69.135 54.5849 69.3879C55.2365 69.8127 55.6647 70.5336 55.6647 71.3522V78.5658H55.6646Z" fill="#233F8C"/>
<path d="M46.686 82.5934C46.686 84.3153 45.243 85.7159 43.4708 85.7159C41.6967 85.7159 40.2539 84.3153 40.2539 82.5934C40.2539 80.8713 41.6967 79.4707 43.4708 79.4707C45.243 79.4707 46.686 80.8712 46.686 82.5934Z" fill="#E1E1E5"/>
<path d="M45.7741 82.5927C45.7741 83.8266 44.7406 84.8298 43.4707 84.8298C42.1995 84.8298 41.166 83.8266 41.166 82.5927C41.166 81.3588 42.1995 80.3555 43.4707 80.3555C44.7406 80.3555 45.7741 81.3588 45.7741 82.5927Z" fill="#F2A602"/>
<path d="M13.3637 82.5915C13.3637 82.5934 13.3637 82.5934 13.3637 82.5934C13.3637 82.5934 13.3637 82.5934 13.3637 82.5952C13.3637 84.3154 11.9209 85.7159 10.1468 85.7159C8.37444 85.7159 6.93164 84.3153 6.93164 82.5934C6.93164 80.8713 8.37444 79.4707 10.1468 79.4707C11.9209 79.4707 13.3618 80.8712 13.3637 82.5915Z" fill="#E1E1E5"/>
<path d="M38.0117 68.9863V78.5653H40.5473C41.3739 77.9996 42.3811 77.6636 43.4701 77.6636C44.5575 77.6636 45.5645 77.9996 46.391 78.5653H48.9266V68.9863H38.0117ZM42.6564 71.8504H39.8677C39.3539 71.8504 38.9369 71.4455 38.9369 70.9469C38.9369 70.4463 39.3539 70.0434 39.8677 70.0434H42.6564C43.1702 70.0434 43.5873 70.4463 43.5873 70.9469C43.5875 71.4455 43.1704 71.8504 42.6564 71.8504Z" fill="#E1E1E5"/>
<path d="M55.6648 71.3515V78.5652H50.7891V68.9844H53.226L53.2279 68.9862C53.7286 68.9862 54.196 69.1344 54.5851 69.3873C55.2366 69.812 55.6648 70.533 55.6648 71.3515Z" fill="#E1E1E5"/>
<path d="M48.9285 60.1889V67.1804H38.0137V57.5977H46.2515C46.2534 57.5977 46.2551 57.5995 46.259 57.5995C46.9943 57.5995 47.6626 57.8886 48.1448 58.3585C48.6288 58.8283 48.9285 59.4752 48.9285 60.1889Z" fill="#F9D380"/>
<path opacity="0.2" d="M46.0691 58.5012L46.0735 58.5031H46.2588C46.7232 58.5031 47.1588 58.6782 47.4865 58.9974C47.8159 59.3173 47.9976 59.7405 47.9976 60.189V66.2769H38.9444V58.5012H46.0691ZM46.2515 57.5977H38.0137V67.1804H48.9285V60.1889C48.9285 59.4752 48.6288 58.8283 48.1448 58.3585C47.6626 57.8886 46.9943 57.5995 46.259 57.5995C46.2553 57.5994 46.2534 57.5977 46.2515 57.5977Z" fill="black"/>
<path d="M36.1503 51.9787V68.0793C36.1503 68.0793 36.1503 68.0812 36.1503 68.0829C36.1503 68.0829 36.1503 68.0847 36.1503 68.0865V78.5654H13.0694C12.9708 78.4985 12.8703 78.4335 12.7661 78.3721C12.4068 78.1607 12.0177 77.9909 11.6062 77.8734C11.2283 77.7613 10.8299 77.6927 10.4203 77.671C10.329 77.6656 10.2378 77.6637 10.1466 77.6637C9.84502 77.6637 9.54708 77.6891 9.26046 77.7396C8.84532 77.8119 8.4487 77.9312 8.07458 78.0957C7.77488 78.2257 7.49193 78.383 7.22561 78.5654H2.11914V51.9785L36.1503 51.9787Z" fill="#F9C139"/>
<path d="M71.7628 38.9117H22.0821C17.6421 38.9117 14.0297 35.4055 14.0297 31.0956C14.0297 26.7857 17.6421 23.2796 22.0821 23.2796H62.1634C62.6777 23.2796 63.0943 22.8751 63.0943 22.3761C63.0943 21.8772 62.6777 21.4727 62.1634 21.4727H22.0821C16.6155 21.4727 12.168 25.7894 12.168 31.0956C12.168 36.4018 16.6155 40.7187 22.0821 40.7187H71.7628C80.8959 40.7187 88.3262 47.9308 88.3262 56.7957C88.3262 65.6607 80.8961 72.8728 71.7628 72.8728H65.9978C65.4837 72.8728 65.0671 73.2772 65.0671 73.7763C65.0671 74.2754 65.4837 74.6799 65.9978 74.6799H71.7628C81.9222 74.6799 90.1878 66.6571 90.1878 56.7957C90.1878 46.9344 81.9225 38.9117 71.7628 38.9117Z" fill="#233F8C"/>
<path d="M74.5454 0.164062C68.6775 0.164062 63.9023 4.7991 63.9023 10.4967C63.9023 12.6616 64.5837 14.7324 65.8738 16.4871L73.7375 29.9259C73.9031 30.2078 74.2122 30.3831 74.5473 30.3831C74.8806 30.3831 75.1895 30.2077 75.3553 29.9259L83.217 16.4907C84.509 14.7324 85.1923 12.6616 85.1923 10.4967C85.1922 4.7991 80.4151 0.164062 74.5454 0.164062ZM81.696 15.4479C81.6698 15.4805 81.6457 15.5164 81.6253 15.5546L74.5473 27.6508L67.4673 15.5546C67.4506 15.5256 67.4338 15.4985 67.4134 15.4713C66.3335 14.0185 65.764 12.2964 65.764 10.4966C65.764 5.79645 69.7032 1.97092 74.5454 1.97092C79.3894 1.97092 83.3306 5.79645 83.3306 10.4966C83.3306 12.2856 82.7645 13.9968 81.696 15.4479Z" fill="#233F8C"/>
<path d="M74.5451 1.9707C73.1712 1.9707 71.8681 2.27974 70.7082 2.82916C69.7623 3.27538 68.9135 3.88261 68.195 4.61446C67.7462 5.06981 67.3497 5.57413 67.0147 6.11613C66.6759 6.66184 66.4003 7.24552 66.1937 7.86174C66.0819 8.19234 65.9907 8.53392 65.9219 8.88265C65.8176 9.4048 65.7637 9.94509 65.7637 10.4964C65.7637 11.0763 65.8232 11.6492 65.9404 12.2076C66.1843 13.3804 66.6815 14.4863 67.4131 15.471C67.4337 15.4981 67.4503 15.5252 67.4671 15.5542L74.5471 27.6505L77.1923 23.1292L78.4268 21.0204L78.9051 20.2001L79.8545 18.5809L80.8432 16.8913L81.625 15.5542C81.6456 15.5161 81.6697 15.48 81.6957 15.4476C81.9823 15.0573 82.2337 14.6471 82.446 14.2224C83.0288 13.0695 83.3304 11.8046 83.3304 10.4962C83.3303 5.79624 79.3891 1.9707 74.5451 1.9707ZM78.879 14.9849C78.4154 15.4294 77.8793 15.8036 77.289 16.0909C76.6691 16.391 75.9896 16.5932 75.2728 16.6746C75.0346 16.7016 74.7925 16.7161 74.5468 16.7161C74.3494 16.7161 74.1557 16.7072 73.964 16.6892C71.0281 16.4217 68.6844 14.1465 68.4088 11.297C68.3903 11.1107 68.381 10.9229 68.381 10.7313C68.381 10.4928 68.396 10.258 68.4238 10.0266C68.5075 9.33086 68.716 8.67124 69.0271 8.06958C69.3193 7.4966 69.7047 6.9763 70.1644 6.52623C70.9129 5.79253 71.8548 5.24496 72.9066 4.96318C73.4298 4.8223 73.979 4.74807 74.5468 4.74807C77.9443 4.74807 80.7106 7.43166 80.7106 10.7312C80.7106 11.2823 80.6343 11.8155 80.4891 12.3232C80.199 13.3443 79.6348 14.2585 78.879 14.9849Z" fill="#F2A602"/>
<path d="M74.5467 4.74805C71.1473 4.74805 68.3809 7.43163 68.3809 10.7312C68.3809 14.0308 71.1473 16.7161 74.5467 16.7161C77.9442 16.7161 80.7106 14.0308 80.7106 10.7312C80.7106 7.43163 77.9442 4.74805 74.5467 4.74805ZM74.5467 14.9091C72.1731 14.9091 70.2425 13.0352 70.2425 10.7312C70.2425 8.42898 72.1731 6.55504 74.5467 6.55504C76.9185 6.55504 78.8489 8.42898 78.8489 10.7312C78.8489 13.0352 76.9185 14.9091 74.5467 14.9091Z" fill="#233F8C"/>
<path d="M12.452 82.5927C12.452 83.8266 11.4185 84.8298 10.1485 84.8298C8.87728 84.8298 7.84375 83.8266 7.84375 82.5927C7.84375 81.3588 8.87728 80.3555 10.1485 80.3555C11.4185 80.3555 12.452 81.3588 12.452 82.5927Z" fill="#F2A602"/>
<g opacity="0.1">
<path d="M2.31273 51.9785H2.11914V78.5654H2.31273V51.9785Z" fill="black"/>
<path d="M36.1487 51.9787V68.0793C36.1487 68.0793 36.1487 68.0812 36.1487 68.0829C36.1487 68.0829 36.1487 68.0847 36.1487 68.0865V78.5654H36.1289V51.9785L36.1487 51.9787Z" fill="black"/>
</g>
</g>
<defs>
<clipPath id="clip0_1157_6754">
<rect width="90" height="90" fill="white" transform="translate(0.222656 0.164062)"/>
</clipPath>
</defs>
</svg>
