<svg width="23" height="25" viewBox="0 0 23 25" fill="none" xmlns="http://www.w3.org/2000/svg">
<path d="M18.9141 0.0332031H10.1756C9.52969 0.0332031 8.90812 0.285203 8.445 0.741203L2.57063 6.5252C2.1075 6.9812 1.85156 7.5932 1.85156 8.2292V21.6332C1.85156 22.9532 2.94844 24.0332 4.28906 24.0332H18.9141C20.2547 24.0332 21.3516 22.9532 21.3516 21.6332V2.4332C21.3516 1.1132 20.2547 0.0332031 18.9141 0.0332031ZM11.175 17.6132L7.77469 14.2652C7.38469 13.8812 7.65281 13.2332 8.20125 13.2332H10.3828V9.6452C10.3828 9.32901 10.5095 9.02559 10.7355 8.80089C10.9614 8.57619 11.2683 8.44837 11.5894 8.4452C11.7508 8.44248 11.9111 8.47157 12.0609 8.53076C12.2107 8.58995 12.3469 8.67804 12.4616 8.78986C12.5763 8.90167 12.6671 9.03495 12.7287 9.18185C12.7903 9.32874 12.8215 9.48628 12.8203 9.6452V13.2332H15.0019C15.5503 13.2332 15.8184 13.8812 15.4284 14.2532L12.0281 17.6012C11.7966 17.8412 11.4066 17.8412 11.175 17.6132Z" fill="url(#paint0_linear_1162_17964)"/>
<defs>
<linearGradient id="paint0_linear_1162_17964" x1="6.04633" y1="3.92712" x2="15.1036" y2="18.077" gradientUnits="userSpaceOnUse">
<stop stop-color="#F99211"/>
<stop offset="1" stop-color="#FBB016"/>
</linearGradient>
</defs>
</svg>
