<svg width="25" height="25" viewBox="0 0 25 25" fill="none" xmlns="http://www.w3.org/2000/svg">
<path d="M11.6836 2.5332H9.6836C4.68359 2.5332 2.68359 4.5332 2.68359 9.5332V15.5332C2.68359 20.5332 4.68359 22.5332 9.6836 22.5332H15.6836C20.6836 22.5332 22.6836 20.5332 22.6836 15.5332V13.5332" stroke="#233F8C" stroke-width="2" stroke-linecap="round" stroke-linejoin="round"/>
<path d="M21.5146 3.56666L21.5146 3.56667L21.5182 3.5702C22.4081 4.4512 22.6981 5.16696 22.6918 5.78945L22.6917 5.78945V5.79955C22.6917 6.39448 22.4019 7.10411 21.5182 7.97887L21.5182 7.97884L21.5117 7.9854L20.5671 8.93791C18.5061 8.23601 16.8491 6.58029 16.1454 4.52009L17.0988 3.56666C17.9886 2.67694 18.7192 2.3819 19.319 2.38578C19.9223 2.38968 20.6453 2.69732 21.5146 3.56666Z" fill="#F2A602" stroke="#233F8C" stroke-width="2"/>
<path d="M8.2702 12.3942L13.4981 7.16635L13.7505 7.61744C13.7507 7.61762 13.7508 7.6178 13.7509 7.61798C13.8766 7.8307 14.0334 8.08205 14.1896 8.28397C14.3564 8.53397 14.5353 8.7478 14.6311 8.86243C14.6348 8.86684 14.6384 8.87109 14.6418 8.8752C14.6458 8.88031 14.6503 8.88621 14.6552 8.89263C14.6785 8.92288 14.7106 8.96465 14.7306 8.98966C14.7489 9.01254 14.7777 9.0478 14.8121 9.08485C14.8195 9.09289 14.8308 9.10501 14.8457 9.11989C15.1968 9.53802 15.5796 9.91049 15.9249 10.206C15.9682 10.2483 16.0109 10.2879 16.0505 10.3225C16.0744 10.3435 16.1027 10.3675 16.133 10.391C16.1334 10.3914 16.134 10.3918 16.1347 10.3924C16.1394 10.3961 16.1504 10.4047 16.1663 10.4163C16.3471 10.5675 16.5624 10.74 16.7677 10.8749C16.9891 11.0325 17.2179 11.185 17.4621 11.3293C17.6134 11.4189 17.7655 11.5019 17.916 11.58L12.6867 16.8092C12.6852 16.8101 12.6835 16.8109 12.6817 16.8118C12.6717 16.8168 12.662 16.8209 12.6545 16.8238L8.85224 17.3585L8.83964 17.3602L8.8271 17.3623C8.76068 17.3734 8.69566 17.3787 8.63149 17.3787C8.3303 17.3787 8.09268 17.2761 7.93802 17.1307C7.76987 16.9523 7.65086 16.6421 7.71087 16.2342L7.7117 16.2283L8.24499 12.4459C8.24602 12.4433 8.24721 12.4403 8.24858 12.4371C8.25148 12.4304 8.2548 12.4232 8.25842 12.4159C8.26204 12.4087 8.26558 12.4022 8.26878 12.3966C8.26927 12.3958 8.26975 12.395 8.2702 12.3942Z" stroke="#233F8C" stroke-width="2"/>
</svg>
