<svg width="49" height="49" viewBox="0 0 49 49" fill="none" xmlns="http://www.w3.org/2000/svg">
<rect x="0.48584" y="0.179688" width="47.9999" height="48" rx="8" fill="#233F8C" fill-opacity="0.1"/>
<path d="M16.8681 12.1797C14.4405 12.1797 12.4858 14.1344 12.4858 16.5619V31.7974C12.4858 34.225 14.4405 36.1797 16.8681 36.1797H25.1256V26.7972H22.6446V23.4192H25.1256V20.5332C25.1256 18.2658 26.5915 16.1839 29.9683 16.1839C31.3355 16.1839 32.3466 16.3152 32.3466 16.3152L32.2671 19.4697C32.2671 19.4697 31.2359 19.46 30.1108 19.46C28.8931 19.46 28.6978 20.021 28.6978 20.9525V23.4192H32.3638L32.2041 26.7972H28.6978V36.1797H32.1035C34.5311 36.1797 36.4858 34.225 36.4858 31.7974V16.562C36.4858 14.1344 34.5311 12.1797 32.1035 12.1797H16.8681L16.8681 12.1797Z" fill="#4267B3"/>
</svg>
