<svg width="91" height="18" viewBox="0 0 91 18" fill="none" xmlns="http://www.w3.org/2000/svg">
<path d="M46.8561 8.74239C46.1052 8.74239 45.5639 8.98864 45.015 9.23951V14.9162C45.5407 14.9663 45.8421 14.9663 46.3409 14.9663C48.1434 14.9663 48.3904 14.1409 48.3904 12.9884V10.2771C48.3904 9.42599 48.108 8.74239 46.8561 8.74239ZM34.8856 8.43258C33.635 8.43258 33.3496 9.11913 33.3496 9.96941V10.4472H36.4199V9.96941C36.4199 9.11913 36.1345 8.43258 34.8856 8.43258ZM11.6963 14.3412C11.6963 15.0139 12.0137 15.3633 12.7141 15.3633C13.4655 15.3633 13.9104 15.1183 14.4589 14.8666V13.52H12.816C12.0381 13.52 11.6963 13.6648 11.6963 14.3412ZM58.5005 8.74239C57.2478 8.74239 56.8138 9.42599 56.8138 10.2771V13.3832C56.8138 14.2364 57.2478 14.9221 58.5005 14.9221C59.7498 14.9221 60.1871 14.2364 60.1871 13.3832V10.2771C60.1867 9.42599 59.7494 8.74239 58.5005 8.74239ZM5.5574 17.824H1.87506V8.91118H0.0351562V5.84005H1.87548V3.99551C1.87548 1.48969 2.91393 0 5.86552 0H8.32294V3.07198H6.78695C5.6378 3.07198 5.56203 3.50133 5.56203 4.30237L5.5574 5.83962H8.33978L8.01439 8.91076H5.5574V17.824ZM18.1421 17.8472H15.073L14.9405 17.071C13.5392 17.8472 12.2886 17.9731 11.4635 17.9731C9.21279 17.9731 8.01481 16.4695 8.01481 14.3901C8.01481 11.9369 9.41274 11.0613 11.9135 11.0613H14.4589V10.5309C14.4589 9.27866 14.3154 8.91118 12.3896 8.91118H9.241L9.5487 5.84005H12.9903C17.2156 5.84005 18.1421 7.17483 18.1421 10.5558V17.8472ZM28.5783 9.13638C26.6685 8.8089 26.1201 8.73692 25.2012 8.73692C23.5507 8.73692 23.0519 9.10102 23.0519 10.5027V13.1542C23.0519 14.5559 23.5507 14.9217 25.2012 14.9217C26.1201 14.9217 26.6685 14.8485 28.5783 14.5197V17.5155C26.9055 17.8906 25.8157 17.9891 24.8947 17.9891C20.9413 17.9891 19.3699 15.9101 19.3699 12.9067V10.7553C19.3699 7.74941 20.9413 5.66662 24.8947 5.66662C25.8157 5.66662 26.9055 5.76554 28.5783 6.14228V9.13638ZM40.1018 12.9067H33.3492V13.1542C33.3492 14.5559 33.8484 14.9217 35.4985 14.9217C36.9819 14.9217 37.8873 14.8485 39.7937 14.5197V17.5155C37.9551 17.8906 36.997 17.9891 35.1933 17.9891C31.2395 17.9891 29.6673 15.9101 29.6673 12.9067V10.4468C29.6673 7.81886 30.8337 5.66662 34.8852 5.66662C38.9367 5.66662 40.1018 7.79402 40.1018 10.4468V12.9067ZM52.0719 12.9635C52.0719 15.8663 51.2423 17.9836 46.2163 17.9836C44.4012 17.9836 43.3367 17.8241 41.3335 17.5159V0.922689L45.0145 0.308546V6.11281C45.8101 5.81731 46.8397 5.66704 47.7767 5.66704C51.4582 5.66704 52.0715 7.31753 52.0715 9.96983V12.9635H52.0719ZM63.872 13.0267C63.872 15.5308 62.8382 17.9596 58.5127 17.9596C54.185 17.9596 53.1318 15.5308 53.1318 13.0267V10.6088C53.1318 8.10341 54.185 5.6742 58.5127 5.6742C62.8382 5.6742 63.872 8.10341 63.872 10.6088V13.0267ZM75.6641 13.0267C75.6641 15.5308 74.629 17.9596 70.3043 17.9596C65.9767 17.9596 64.9235 15.5308 64.9235 13.0267V10.6088C64.9235 8.10341 65.9767 5.6742 70.3043 5.6742C74.629 5.6742 75.6641 8.10341 75.6641 10.6088V13.0267ZM87.7655 17.824H83.7755L80.4008 12.1907V17.824H76.7185V0.922267L80.4008 0.308124V11.1889L83.7755 5.84005H87.7655L84.0815 11.6771L87.7655 17.824ZM70.2917 8.74239C69.0411 8.74239 68.6071 9.42599 68.6071 10.2771V13.3832C68.6071 14.2364 69.0411 14.9221 70.2917 14.9221C71.5406 14.9221 71.9826 14.2364 71.9826 13.3832V10.2771C71.9826 9.42599 71.5406 8.74239 70.2917 8.74239ZM89.8672 15.7219C90.4873 15.7219 90.981 16.2274 90.981 16.8588C90.981 17.4999 90.4869 18 89.8626 18C89.2413 18 88.7374 17.4999 88.7374 16.8588C88.7374 16.2274 89.2413 15.7219 89.8626 15.7219H89.8672ZM89.8626 15.8987C89.363 15.8987 88.9542 16.3285 88.9542 16.8588C88.9542 17.3989 89.3634 17.8232 89.8672 17.8232C90.3715 17.8283 90.7744 17.3989 90.7744 16.8639C90.7744 16.3289 90.3715 15.8987 89.8672 15.8987H89.8626ZM89.6509 17.5206H89.4488V16.2519C89.5549 16.2371 89.6559 16.2224 89.8075 16.2224C89.9994 16.2224 90.1248 16.2628 90.2019 16.3179C90.2764 16.3739 90.3164 16.4594 90.3164 16.5802C90.3164 16.7477 90.2061 16.8483 90.0701 16.8892V16.8988C90.1808 16.9195 90.2562 17.0196 90.2819 17.2061C90.3113 17.4035 90.3421 17.4789 90.3618 17.5201H90.1501C90.1202 17.4789 90.0895 17.3631 90.0642 17.196C90.0348 17.0348 89.9531 16.9742 89.7915 16.9742H89.6513V17.5206H89.6509ZM89.6509 16.8184H89.7974C89.9632 16.8184 90.1042 16.7574 90.1042 16.6004C90.1042 16.4893 90.0242 16.3786 89.7974 16.3786C89.7313 16.3786 89.6854 16.3836 89.6509 16.3882V16.8184Z" fill="#3B5998"/>
</svg>
