<svg width="332" height="333" viewBox="0 0 332 333" fill="none" xmlns="http://www.w3.org/2000/svg">
<path fill-rule="evenodd" clip-rule="evenodd" d="M257.513 61.6343C267.179 61.6343 275.992 62.5136 283.953 64.2724C291.913 66.0311 298.737 68.9134 304.423 72.9194C310.109 76.9254 314.517 82.2505 317.645 88.8945C320.772 95.5386 322.334 103.746 322.334 113.517C322.334 124.069 320.012 132.863 315.368 139.898C310.727 146.933 303.856 152.697 294.758 157.192C307.268 160.905 316.6 167.402 322.76 176.684C328.92 185.966 332 197.154 332 210.247C332 220.799 330.01 229.935 326.03 237.653C322.049 245.372 316.695 251.674 309.967 256.56C303.238 261.445 295.564 265.06 286.94 267.405C278.316 269.75 269.453 270.923 260.356 270.923L251.085 270.208L195.655 270.923C195.655 270.923 179.615 267.405 173.01 259.771C160.501 247.841 161.989 61.6343 161.989 61.6343H257.513ZM251.827 146.346C259.787 146.346 266.328 144.392 271.445 140.484C276.563 136.576 279.122 130.225 279.122 121.431C279.122 116.546 278.267 112.54 276.561 109.413C274.855 106.286 272.581 103.844 269.738 102.085C266.895 100.326 263.627 99.1049 259.931 98.421C256.235 97.737 252.395 97.3951 248.415 97.3951H204.629V146.346H251.827ZM254.387 235.162C258.747 235.162 262.914 234.722 266.895 233.843C270.875 232.964 274.381 231.498 277.414 229.446C280.446 227.394 282.863 224.61 284.664 221.092C286.464 217.575 287.365 213.08 287.365 207.609C287.365 196.861 284.429 189.191 278.553 184.599C272.677 180.006 264.905 177.71 255.238 177.71H204.629V235.162H254.387Z" fill="#220D6D"/>
<path d="M93.2832 199.715C93.2832 213.337 83.9548 223.245 68.0064 223.245C48.447 223.245 35.5076 209.932 29.1885 198.477L0 226.031C7.52284 237.486 27.985 259.467 67.4047 259.467C108.329 259.467 133.906 233.771 133.906 198.786V196.929C138.42 198.786 143.235 200.025 148.651 200.025C153.767 200.025 158.281 199.096 162.192 197.858V235.05H204.621V97.8575L250.711 96.9286V61.6345L138.721 61.6345V96.9286H162.192V161.015C156.475 164.111 148.651 166.279 138.119 166.279C130.597 166.279 122.17 164.421 114.046 160.086C113.444 159.777 112.842 159.467 112.241 158.848H111.94C108.63 156.991 105.019 155.752 101.709 155.133V153.895C115.851 146.774 123.675 131.604 123.675 113.956C123.675 82.3775 100.204 61.6345 64.9972 61.6345C40.0214 61.6345 21.0637 73.3992 11.4345 87.6407L37.915 113.337C43.6324 103.74 51.757 97.8575 63.7935 97.8575C76.7328 97.8575 84.8575 106.217 84.8575 118.291C84.8575 132.223 77.3347 142.13 58.979 142.13H48.447V178.353H64.6964C83.9549 178.353 93.2832 186.402 93.2832 199.715Z" fill="#220D6D"/>
<path d="M161.889 173.05V227.196C161.889 236.74 163.455 244.449 166.587 250.323C169.72 256.196 173.997 260.724 179.419 263.905C184.84 267.087 191.105 269.228 198.214 270.329C205.322 271.431 219.401 271.252 219.401 271.252L234.434 270.329L250.804 270.146V235.22H232.688H220.469C220.469 235.22 215.207 234.377 212.651 232.921C205.533 228.864 204.597 222.455 204.597 213.644V115.237L161.889 173.05Z" fill="#F2A602"/>
<path d="M161.889 217.837V227.933C161.889 237.477 163.455 245.186 166.587 251.059C169.72 256.933 173.997 261.46 179.419 264.642C184.84 267.823 189.841 269.871 196.95 270.973C203.433 271.378 219.286 271.2 219.286 271.2L235.682 270.882L250.804 270.474V235.65C248.394 236.139 241.818 235.405 239.167 235.65C236.517 235.894 241.639 235.65 231.221 235.65C220.804 235.65 215.944 234.94 211.852 232.102C205.869 229.164 204.56 221.593 204.56 214.084C204.56 209.668 204.56 163.976 204.56 163.976L161.889 217.837Z" fill="#FAFCFA"/>
<path d="M221.522 235.265H250.804V270.398C250.804 270.398 228.067 271.325 203.475 271.325C178.882 271.325 170.665 257.508 170.665 257.508L204.574 217.044C204.574 217.044 204.714 225.611 209.065 229.962C214.53 234.994 221.522 235.265 221.522 235.265Z" fill="#69B82D"/>
</svg>
