<svg width="332" height="332" viewBox="0 0 332 332" fill="none" xmlns="http://www.w3.org/2000/svg">
<rect width="332" height="332" rx="70" fill="url(#paint0_radial_1929_4509)"/>
<path fill-rule="evenodd" clip-rule="evenodd" d="M226.964 96.1548C233.403 96.1548 239.274 96.7406 244.578 97.9122C249.881 99.0838 254.426 101.004 258.214 103.673C262.002 106.341 264.939 109.889 267.022 114.315C269.106 118.741 270.146 124.209 270.146 130.718C270.146 137.747 268.599 143.605 265.506 148.292C264.988 149.077 264.428 149.838 263.827 150.575C260.38 154.804 261.092 163.308 265.219 166.878C267.226 168.614 268.963 170.588 270.43 172.798C274.534 178.982 276.585 186.435 276.585 195.157C276.585 202.187 275.26 208.272 272.608 213.415C269.957 218.557 266.39 222.755 261.907 226.01C257.425 229.264 252.312 231.672 246.567 233.235C240.822 234.797 234.918 235.578 228.858 235.578L222.682 235.102L186.445 235.569C185.987 235.575 185.533 235.53 185.089 235.418C182.686 234.812 174.409 232.47 170.67 228.149C163.435 221.248 163.229 126.818 163.3 102.062C163.309 98.767 165.985 96.1548 169.28 96.1548H226.964ZM223.176 152.588C228.479 152.588 232.836 151.286 236.245 148.683C239.654 146.079 241.359 141.848 241.359 135.99C241.359 132.735 240.79 130.067 239.653 127.984C238.517 125.901 237.002 124.274 235.108 123.102C233.214 121.93 231.037 121.117 228.575 120.661C226.113 120.206 223.555 119.978 220.903 119.978H197.734C194.42 119.978 191.734 122.664 191.734 125.978V146.588C191.734 149.902 194.42 152.588 197.734 152.588H223.176ZM224.882 211.755C227.786 211.755 230.562 211.462 233.214 210.876C235.865 210.29 238.201 209.314 240.221 207.947C242.242 206.58 243.852 204.725 245.051 202.382C246.251 200.039 246.85 197.044 246.85 193.399C246.85 186.24 244.894 181.13 240.98 178.071C237.066 175.011 231.888 173.482 225.449 173.482H197.734C194.42 173.482 191.734 176.168 191.734 179.482V205.755C191.734 209.069 194.42 211.755 197.734 211.755H224.882Z" fill="white"/>
<path d="M117.558 188.141C117.558 197.216 111.343 203.816 100.719 203.816C91.2497 203.816 84.1095 199.132 79.2985 193.643C76.7133 190.694 72.0799 189.94 69.2279 192.632L59.0722 202.219C56.9564 204.217 56.553 207.47 58.425 209.697C65.0137 217.537 78.1771 227.947 100.318 227.947C127.581 227.947 144.62 210.828 144.62 187.522C144.62 186.932 145.219 186.531 145.773 186.734C148.446 187.718 151.292 188.347 154.443 188.347C154.773 188.347 155.099 188.341 155.422 188.33C159.477 188.189 163.464 191.039 163.464 195.096V205.68C163.464 208.994 166.15 211.68 169.464 211.68H185.729C189.042 211.68 191.729 208.994 191.729 205.68V126.166C191.729 122.9 194.342 120.233 197.608 120.167L222.432 119.667V102.155C222.432 98.8412 219.746 96.1549 216.432 96.1549L153.827 96.1549C150.514 96.1549 147.827 98.8412 147.827 102.155V113.667C147.827 116.981 150.514 119.667 153.827 119.667H157.464C160.777 119.667 163.464 122.353 163.464 125.667V158.786C163.464 160.988 162.274 163.063 160.208 163.826C156.828 165.075 152.622 165.866 147.427 165.866C142.415 165.866 136.802 164.629 131.389 161.741C131.018 161.55 130.646 161.359 130.275 161.004C130.218 160.949 130.142 160.916 130.063 160.916C130.013 160.916 129.963 160.903 129.919 160.879C127.887 159.748 125.688 158.966 123.635 158.534C123.366 158.477 123.171 158.242 123.171 157.968C123.171 157.752 123.293 157.555 123.484 157.456C132.708 152.647 137.804 142.636 137.804 131.011C137.804 109.973 122.168 96.1549 98.7144 96.1549C84.4479 96.1549 73.129 101.917 66.1479 109.541C64.1835 111.686 64.553 114.955 66.6404 116.981L75.2249 125.311C78.0052 128.009 82.5215 127.277 85.4439 124.734C88.7058 121.895 92.7741 120.286 97.9125 120.286C106.532 120.286 111.945 125.854 111.945 133.898C111.945 143.179 106.933 149.779 94.7052 149.779H93.689C90.3753 149.779 87.689 152.465 87.689 155.779V167.91C87.689 171.224 90.3753 173.91 93.689 173.91H98.514C111.344 173.91 117.558 179.272 117.558 188.141Z" fill="white"/>
<path d="M164.435 168.788C163.672 169.821 163.261 171.07 163.261 172.353V206.448C163.261 212.807 164.304 217.942 166.391 221.855C168.478 225.768 171.327 228.784 174.939 230.903C178.551 233.023 182.724 234.449 187.46 235.183C191.854 235.864 200.248 235.81 201.433 235.799C201.531 235.798 201.623 235.794 201.72 235.788L211.589 235.183L216.561 235.127C219.849 235.09 222.494 232.415 222.494 229.127V217.794C222.494 214.48 219.808 211.794 216.494 211.794H210.426H202.763C202.446 211.794 202.129 211.77 201.816 211.711C200.804 211.522 198.398 211.015 197.078 210.262C192.335 207.56 191.712 203.29 191.712 197.421V150.084C191.712 144.296 184.325 141.863 180.886 146.519L164.435 168.788Z" fill="#F2A602"/>
<path d="M164.558 198.577C163.718 199.637 163.261 200.95 163.261 202.303V206.939C163.261 213.297 164.304 218.433 166.391 222.346C168.478 226.258 171.327 229.275 174.939 231.394C178.551 233.513 181.882 234.878 186.618 235.611C190.829 235.875 200.973 235.768 201.478 235.763C201.494 235.763 201.506 235.763 201.522 235.762L212.42 235.551L216.656 235.437C219.905 235.349 222.494 232.69 222.494 229.439V219.421C222.494 215.628 218.951 211.916 215.16 212.054C215.009 212.06 214.869 212.068 214.742 212.08C212.976 212.243 216.389 212.08 209.449 212.08C202.824 212.08 199.573 211.649 196.921 209.966C196.668 209.805 196.408 209.655 196.147 209.505C192.501 207.415 191.688 202.545 191.688 197.713C191.688 196.344 191.688 189.013 191.688 181.568C191.688 175.883 184.515 173.386 180.985 177.842L164.558 198.577Z" fill="#FAFCFA"/>
<path d="M203.104 211.823H216.494C219.808 211.823 222.494 214.509 222.494 217.823V229.468C222.494 232.686 219.957 235.328 216.74 235.426C210.853 235.607 201.148 235.845 190.965 235.845C181.005 235.845 175.076 232.443 171.959 229.775C170.022 228.118 170.204 225.332 171.842 223.378L185.722 206.814C187.785 204.353 192.418 206.019 194.689 208.29C197.992 211.332 202.134 211.762 202.872 211.816C202.95 211.821 203.027 211.823 203.104 211.823Z" fill="#69B82D"/>
<defs>
<radialGradient id="paint0_radial_1929_4509" cx="0" cy="0" r="1" gradientUnits="userSpaceOnUse" gradientTransform="translate(272.571 100.88) rotate(90) scale(231.12 291.803)">
<stop offset="0.100832" stop-color="#233F8C"/>
<stop offset="1" stop-color="#29166F"/>
</radialGradient>
</defs>
</svg>
