<svg width="26" height="25" viewBox="0 0 26 25" fill="none" xmlns="http://www.w3.org/2000/svg">
<path d="M10.1194 6.56934H23.7819M1.92188 17.4993H15.5844" stroke="#233F8C" stroke-width="2.5" stroke-linecap="round"/>
<path d="M1.91969 6.56848C1.91969 8.83215 3.75476 10.6672 6.01844 10.6672C8.28211 10.6672 10.1172 8.83215 10.1172 6.56848C10.1172 4.3048 8.28211 2.46973 6.01844 2.46973C3.75476 2.46973 1.91969 4.3048 1.91969 6.56848Z" stroke="#F2A602" stroke-width="2.5" stroke-linecap="round"/>
<path d="M15.5837 17.4982C15.5837 19.7618 17.4188 21.5969 19.6825 21.5969C21.9462 21.5969 23.7812 19.7618 23.7812 17.4982C23.7812 15.2345 21.9462 13.3994 19.6825 13.3994C17.4188 13.3994 15.5837 15.2345 15.5837 17.4982Z" stroke="#F2A602" stroke-width="2.5" stroke-linecap="round"/>
</svg>
