<svg width="63" height="62" viewBox="0 0 63 62" fill="none" xmlns="http://www.w3.org/2000/svg">
<path d="M56.5794 26.639L56.5795 26.6387C57.0108 25.8927 57.128 25.0059 56.9056 24.1734C56.6831 23.3409 56.1392 22.6308 55.3933 22.1992L55.393 22.1991L50.9927 19.6556V14.5884C50.9927 13.7265 50.6503 12.8998 50.0408 12.2903C49.4313 11.6808 48.6047 11.3384 47.7427 11.3384H42.678L40.1371 6.94069L40.136 6.93889C39.7039 6.19573 38.9965 5.65264 38.1669 5.42716L38.1664 5.42703C37.7535 5.3151 37.3225 5.28624 36.8984 5.34212C36.4747 5.39795 36.0662 5.53726 35.6967 5.75198C35.6963 5.75217 35.696 5.75237 35.6957 5.75256L31.2979 8.29454L26.8983 5.74922L26.8977 5.74889C26.1512 5.31793 25.2642 5.20114 24.4316 5.42421C23.5991 5.64726 22.8894 6.1918 22.4584 6.93809C22.4583 6.93819 22.4582 6.93829 22.4582 6.93839L19.9149 11.3384H14.8502C13.9882 11.3384 13.1616 11.6808 12.5521 12.2903C11.9426 12.8998 11.6002 13.7265 11.6002 14.5884V19.6531L7.20124 22.1958C7.2008 22.196 7.20037 22.1963 7.19993 22.1965C7.19991 22.1966 7.19989 22.1966 7.19987 22.1966C6.82988 22.4096 6.50556 22.6936 6.24551 23.0323C5.98514 23.3713 5.79433 23.7585 5.68405 24.1715C5.57377 24.5846 5.54619 25.0153 5.60289 25.439C5.65955 25.8625 5.79929 26.2706 6.01409 26.64C6.0142 26.6402 6.01432 26.6404 6.01444 26.6406L8.55619 31.0334L6.01353 35.4278L6.01238 35.4298C5.58374 36.1759 5.46744 37.0612 5.68884 37.8926C5.91025 38.7241 6.45139 39.4343 7.19429 39.8685L7.19737 39.8702L11.5977 42.4137V47.4784C11.5977 48.3404 11.9401 49.167 12.5496 49.7765C13.1591 50.386 13.9857 50.7284 14.8477 50.7284H19.9149L22.4584 55.1287L22.4603 55.1321C22.7474 55.6228 23.1573 56.0304 23.6496 56.3147C24.142 56.5989 24.6999 56.7501 25.2684 56.7534H25.2727C25.8398 56.7534 26.4017 56.6035 26.9005 56.3153L26.9008 56.3151L31.2954 53.7723L35.6949 56.3152L35.6955 56.3156C36.4416 56.7459 37.3279 56.8626 38.16 56.6403C38.992 56.418 39.702 55.8747 40.134 55.1296L40.1347 55.1285L42.6757 50.7284H47.7402C48.6021 50.7284 49.4288 50.386 50.0383 49.7765C50.6478 49.167 50.9902 48.3404 50.9902 47.4784V42.4137L55.3905 39.8703C55.7602 39.6566 56.0842 39.3722 56.344 39.0332C56.6038 38.6942 56.7942 38.3074 56.9043 37.8947C57.0145 37.4822 57.0423 37.0519 56.9861 36.6285C56.9299 36.2054 56.7909 35.7975 56.577 35.428C56.577 35.428 56.5769 35.4279 56.5769 35.4279C56.5768 35.4278 56.5768 35.4276 56.5767 35.4275L54.0366 31.0336L56.5794 26.639ZM25.0449 19.2584C25.8409 19.2587 26.6042 19.5751 27.1669 20.1382C27.7295 20.7012 28.0455 21.4647 28.0452 22.2607C28.0449 23.0566 27.7285 23.8199 27.1654 24.3826C26.6024 24.9452 25.8389 25.2612 25.0429 25.2609C24.247 25.2606 23.4837 24.9442 22.921 24.3812C22.3584 23.8181 22.0424 23.0546 22.0427 22.2587C22.043 21.4627 22.3594 20.6994 22.9224 20.1367C23.4855 19.5741 24.249 19.2581 25.0449 19.2584ZM39.745 22.6586L25.645 41.4586L22.8454 39.3607L36.9454 20.5607L39.745 22.6586ZM37.5454 42.7584C37.1513 42.7583 36.7611 42.6805 36.397 42.5296C36.0329 42.3786 35.7021 42.1574 35.4235 41.8787C35.1449 41.5999 34.924 41.2689 34.7733 40.9048C34.6226 40.5406 34.5451 40.1503 34.5452 39.7562C34.5453 39.362 34.6231 38.9718 34.774 38.6077C34.925 38.2436 35.1462 37.9128 35.4249 37.6343C35.7037 37.3556 36.0347 37.1347 36.3988 36.984C36.763 36.8333 37.1533 36.7558 37.5474 36.7559C38.3434 36.7562 39.1067 37.0726 39.6694 37.6357C40.232 38.1987 40.548 38.9622 40.5477 39.7582C40.5474 40.5541 40.231 41.3174 39.6679 41.8801C39.1049 42.4427 38.3414 42.7587 37.5454 42.7584Z" fill="#E67817"/>
<path d="M56.5794 26.639L56.5795 26.6387C57.0108 25.8927 57.128 25.0059 56.9056 24.1734C56.6831 23.3409 56.1392 22.6308 55.3933 22.1992L55.393 22.1991L50.9927 19.6556V14.5884C50.9927 13.7265 50.6503 12.8998 50.0408 12.2903C49.4313 11.6808 48.6047 11.3384 47.7427 11.3384H42.678L40.1371 6.94069L40.136 6.93889C39.7039 6.19573 38.9965 5.65264 38.1669 5.42716L38.1664 5.42703C37.7535 5.3151 37.3225 5.28624 36.8984 5.34212C36.4747 5.39795 36.0662 5.53726 35.6967 5.75198C35.6963 5.75217 35.696 5.75237 35.6957 5.75256L31.2979 8.29454L26.8983 5.74922L26.8977 5.74889C26.1512 5.31793 25.2642 5.20114 24.4316 5.42421C23.5991 5.64726 22.8894 6.1918 22.4584 6.93809C22.4583 6.93819 22.4582 6.93829 22.4582 6.93839L19.9149 11.3384H14.8502C13.9882 11.3384 13.1616 11.6808 12.5521 12.2903C11.9426 12.8998 11.6002 13.7265 11.6002 14.5884V19.6531L7.20124 22.1958C7.2008 22.196 7.20037 22.1963 7.19993 22.1965C7.19991 22.1966 7.19989 22.1966 7.19987 22.1966C6.82988 22.4096 6.50556 22.6936 6.24551 23.0323C5.98514 23.3713 5.79433 23.7585 5.68405 24.1715C5.57377 24.5846 5.54619 25.0153 5.60289 25.439C5.65955 25.8625 5.79929 26.2706 6.01409 26.64C6.0142 26.6402 6.01432 26.6404 6.01444 26.6406L8.55619 31.0334L6.01353 35.4278L6.01238 35.4298C5.58374 36.1759 5.46744 37.0612 5.68884 37.8926C5.91025 38.7241 6.45139 39.4343 7.19429 39.8685L7.19737 39.8702L11.5977 42.4137V47.4784C11.5977 48.3404 11.9401 49.167 12.5496 49.7765C13.1591 50.386 13.9857 50.7284 14.8477 50.7284H19.9149L22.4584 55.1287L22.4603 55.1321C22.7474 55.6228 23.1573 56.0304 23.6496 56.3147C24.142 56.5989 24.6999 56.7501 25.2684 56.7534H25.2727C25.8398 56.7534 26.4017 56.6035 26.9005 56.3153L26.9008 56.3151L31.2954 53.7723L35.6949 56.3152L35.6955 56.3156C36.4416 56.7459 37.3279 56.8626 38.16 56.6403C38.992 56.418 39.702 55.8747 40.134 55.1296L40.1347 55.1285L42.6757 50.7284H47.7402C48.6021 50.7284 49.4288 50.386 50.0383 49.7765C50.6478 49.167 50.9902 48.3404 50.9902 47.4784V42.4137L55.3905 39.8703C55.7602 39.6566 56.0842 39.3722 56.344 39.0332C56.6038 38.6942 56.7942 38.3074 56.9043 37.8947C57.0145 37.4822 57.0423 37.0519 56.9861 36.6285C56.9299 36.2054 56.7909 35.7975 56.577 35.428C56.577 35.428 56.5769 35.4279 56.5769 35.4279C56.5768 35.4278 56.5768 35.4276 56.5767 35.4275L54.0366 31.0336L56.5794 26.639ZM25.0449 19.2584C25.8409 19.2587 26.6042 19.5751 27.1669 20.1382C27.7295 20.7012 28.0455 21.4647 28.0452 22.2607C28.0449 23.0566 27.7285 23.8199 27.1654 24.3826C26.6024 24.9452 25.8389 25.2612 25.0429 25.2609C24.247 25.2606 23.4837 24.9442 22.921 24.3812C22.3584 23.8181 22.0424 23.0546 22.0427 22.2587C22.043 21.4627 22.3594 20.6994 22.9224 20.1367C23.4855 19.5741 24.249 19.2581 25.0449 19.2584ZM39.745 22.6586L25.645 41.4586L22.8454 39.3607L36.9454 20.5607L39.745 22.6586ZM37.5454 42.7584C37.1513 42.7583 36.7611 42.6805 36.397 42.5296C36.0329 42.3786 35.7021 42.1574 35.4235 41.8787C35.1449 41.5999 34.924 41.2689 34.7733 40.9048C34.6226 40.5406 34.5451 40.1503 34.5452 39.7562C34.5453 39.362 34.6231 38.9718 34.774 38.6077C34.925 38.2436 35.1462 37.9128 35.4249 37.6343C35.7037 37.3556 36.0347 37.1347 36.3988 36.984C36.763 36.8333 37.1533 36.7558 37.5474 36.7559C38.3434 36.7562 39.1067 37.0726 39.6694 37.6357C40.232 38.1987 40.548 38.9622 40.5477 39.7582C40.5474 40.5541 40.231 41.3174 39.6679 41.8801C39.1049 42.4427 38.3414 42.7587 37.5454 42.7584Z" fill="url(#paint0_radial_713_45910)"/>
<path d="M56.5794 26.639L56.5795 26.6387C57.0108 25.8927 57.128 25.0059 56.9056 24.1734C56.6831 23.3409 56.1392 22.6308 55.3933 22.1992L55.393 22.1991L50.9927 19.6556V14.5884C50.9927 13.7265 50.6503 12.8998 50.0408 12.2903C49.4313 11.6808 48.6047 11.3384 47.7427 11.3384H42.678L40.1371 6.94069L40.136 6.93889C39.7039 6.19573 38.9965 5.65264 38.1669 5.42716L38.1664 5.42703C37.7535 5.3151 37.3225 5.28624 36.8984 5.34212C36.4747 5.39795 36.0662 5.53726 35.6967 5.75198C35.6963 5.75217 35.696 5.75237 35.6957 5.75256L31.2979 8.29454L26.8983 5.74922L26.8977 5.74889C26.1512 5.31793 25.2642 5.20114 24.4316 5.42421C23.5991 5.64726 22.8894 6.1918 22.4584 6.93809C22.4583 6.93819 22.4582 6.93829 22.4582 6.93839L19.9149 11.3384H14.8502C13.9882 11.3384 13.1616 11.6808 12.5521 12.2903C11.9426 12.8998 11.6002 13.7265 11.6002 14.5884V19.6531L7.20124 22.1958C7.2008 22.196 7.20037 22.1963 7.19993 22.1965C7.19991 22.1966 7.19989 22.1966 7.19987 22.1966C6.82988 22.4096 6.50556 22.6936 6.24551 23.0323C5.98514 23.3713 5.79433 23.7585 5.68405 24.1715C5.57377 24.5846 5.54619 25.0153 5.60289 25.439C5.65955 25.8625 5.79929 26.2706 6.01409 26.64C6.0142 26.6402 6.01432 26.6404 6.01444 26.6406L8.55619 31.0334L6.01353 35.4278L6.01238 35.4298C5.58374 36.1759 5.46744 37.0612 5.68884 37.8926C5.91025 38.7241 6.45139 39.4343 7.19429 39.8685L7.19737 39.8702L11.5977 42.4137V47.4784C11.5977 48.3404 11.9401 49.167 12.5496 49.7765C13.1591 50.386 13.9857 50.7284 14.8477 50.7284H19.9149L22.4584 55.1287L22.4603 55.1321C22.7474 55.6228 23.1573 56.0304 23.6496 56.3147C24.142 56.5989 24.6999 56.7501 25.2684 56.7534H25.2727C25.8398 56.7534 26.4017 56.6035 26.9005 56.3153L26.9008 56.3151L31.2954 53.7723L35.6949 56.3152L35.6955 56.3156C36.4416 56.7459 37.3279 56.8626 38.16 56.6403C38.992 56.418 39.702 55.8747 40.134 55.1296L40.1347 55.1285L42.6757 50.7284H47.7402C48.6021 50.7284 49.4288 50.386 50.0383 49.7765C50.6478 49.167 50.9902 48.3404 50.9902 47.4784V42.4137L55.3905 39.8703C55.7602 39.6566 56.0842 39.3722 56.344 39.0332C56.6038 38.6942 56.7942 38.3074 56.9043 37.8947C57.0145 37.4822 57.0423 37.0519 56.9861 36.6285C56.9299 36.2054 56.7909 35.7975 56.577 35.428C56.577 35.428 56.5769 35.4279 56.5769 35.4279C56.5768 35.4278 56.5768 35.4276 56.5767 35.4275L54.0366 31.0336L56.5794 26.639ZM25.0449 19.2584C25.8409 19.2587 26.6042 19.5751 27.1669 20.1382C27.7295 20.7012 28.0455 21.4647 28.0452 22.2607C28.0449 23.0566 27.7285 23.8199 27.1654 24.3826C26.6024 24.9452 25.8389 25.2612 25.0429 25.2609C24.247 25.2606 23.4837 24.9442 22.921 24.3812C22.3584 23.8181 22.0424 23.0546 22.0427 22.2587C22.043 21.4627 22.3594 20.6994 22.9224 20.1367C23.4855 19.5741 24.249 19.2581 25.0449 19.2584ZM39.745 22.6586L25.645 41.4586L22.8454 39.3607L36.9454 20.5607L39.745 22.6586ZM37.5454 42.7584C37.1513 42.7583 36.7611 42.6805 36.397 42.5296C36.0329 42.3786 35.7021 42.1574 35.4235 41.8787C35.1449 41.5999 34.924 41.2689 34.7733 40.9048C34.6226 40.5406 34.5451 40.1503 34.5452 39.7562C34.5453 39.362 34.6231 38.9718 34.774 38.6077C34.925 38.2436 35.1462 37.9128 35.4249 37.6343C35.7037 37.3556 36.0347 37.1347 36.3988 36.984C36.763 36.8333 37.1533 36.7558 37.5474 36.7559C38.3434 36.7562 39.1067 37.0726 39.6694 37.6357C40.232 38.1987 40.548 38.9622 40.5477 39.7582C40.5474 40.5541 40.231 41.3174 39.6679 41.8801C39.1049 42.4427 38.3414 42.7587 37.5454 42.7584Z" stroke="url(#paint1_radial_713_45910)" stroke-width="1.5" stroke-linecap="square"/>
<defs>
<radialGradient id="paint0_radial_713_45910" cx="0" cy="0" r="1" gradientUnits="userSpaceOnUse" gradientTransform="translate(51.7102 37.8646) rotate(180) scale(32.6436 28.4333)">
<stop offset="0.0376345" stop-color="#FFCC5C"/>
<stop offset="1" stop-color="#F2A602"/>
</radialGradient>
<radialGradient id="paint1_radial_713_45910" cx="0" cy="0" r="1" gradientUnits="userSpaceOnUse" gradientTransform="translate(47.3261 21.238) rotate(90) scale(34.7654 43.8949)">
<stop offset="0.100832" stop-color="#233F8C"/>
<stop offset="1" stop-color="#29166F"/>
</radialGradient>
</defs>
</svg>
