<svg width="69" height="68" viewBox="0 0 69 68" fill="none" xmlns="http://www.w3.org/2000/svg">
<path d="M54.7643 10.5777C54.447 10.2655 54.0865 10.1106 53.6779 10.1106C53.4545 10.1106 53.259 10.1436 53.0966 10.2122C52.9265 10.2858 52.7589 10.4026 52.599 10.565L49.167 13.9869C48.8956 14.2568 48.5381 14.4229 48.1568 14.4563C47.7755 14.4897 47.3946 14.3883 47.0804 14.1696C46.687 13.9183 46.2681 13.6696 45.8239 13.4309C45.3492 13.1771 44.8872 12.9461 44.4328 12.7379C43.9581 12.5222 43.4733 12.3166 42.9859 12.1287C42.5493 11.9586 42.0518 11.7809 41.5034 11.6007C40.813 11.3748 40.3764 10.7326 40.3764 10.0421V4.80021C40.3764 4.56921 40.3408 4.36613 40.2698 4.19352C40.2038 4.03106 40.0921 3.87114 39.9398 3.71629C39.7875 3.56398 39.6275 3.45229 39.4625 3.38629C39.2925 3.31775 39.0868 3.28222 38.8558 3.28222H32.2762C32.063 3.28222 31.8751 3.31522 31.7152 3.38122C31.5426 3.45229 31.37 3.5716 31.1999 3.7366C31.0501 3.88637 30.9384 4.04375 30.8699 4.20367C30.8013 4.37375 30.7683 4.57429 30.7683 4.80021V9.60042C30.7683 10.4076 30.187 11.0753 29.4204 11.2149C28.9102 11.3367 28.4304 11.4662 27.9837 11.6033L27.9075 11.6236C27.448 11.7683 26.9861 11.9282 26.5241 12.1084L26.4403 12.1389C25.9906 12.3153 25.5461 12.5049 25.1076 12.7075C24.6278 12.9309 24.1811 13.1542 23.7698 13.3776C23.1225 13.7305 22.3432 13.5985 21.8432 13.1086L17.9593 9.27296C17.8349 9.15619 17.7029 9.06227 17.5608 9.00134C17.411 8.93534 17.2283 8.89981 17.0125 8.89981C16.8018 8.89981 16.6114 8.93788 16.4464 9.00642C16.2662 9.08511 16.0885 9.2095 15.9184 9.3745L11.3238 13.9792C11.0116 14.2991 10.8567 14.6595 10.8567 15.0708C10.8567 15.2942 10.8897 15.4896 10.9583 15.6521C11.0319 15.8196 11.1487 15.9872 11.3111 16.1471L14.733 19.5791C15.0029 19.8504 15.169 20.2079 15.2024 20.5893C15.2358 20.9706 15.1344 21.3515 14.9157 21.6657C14.6644 22.0591 14.4156 22.4805 14.177 22.9222C13.9232 23.3969 13.6922 23.8614 13.484 24.3133C13.2683 24.788 13.0627 25.2728 12.8748 25.7602C12.7047 26.1968 12.527 26.6943 12.3468 27.2426C12.1209 27.9331 11.4787 28.3697 10.7882 28.3697L5.5463 28.3723C5.3153 28.3723 5.11223 28.4053 4.93961 28.4763C4.76954 28.5449 4.60962 28.654 4.46492 28.8013L4.45731 28.8063C4.31008 28.9536 4.20346 29.1135 4.13239 29.2836C4.06385 29.4562 4.02831 29.6593 4.02831 29.8902V36.4699C4.02831 36.6831 4.06131 36.871 4.12731 37.0309C4.19839 37.2035 4.31515 37.3736 4.47761 37.5411C4.62738 37.6934 4.78731 37.8026 4.95231 37.8737L5.02084 37.9016C5.16807 37.9549 5.34323 37.9803 5.5463 37.9803H10.3465C11.1512 37.9803 11.8214 38.5591 11.961 39.3257C12.0828 39.8359 12.2123 40.3157 12.3493 40.765L12.3697 40.8386C12.5118 41.298 12.6743 41.76 12.8545 42.222C13.0297 42.679 13.2327 43.1638 13.4612 43.669C13.6947 44.1843 13.9206 44.6539 14.1364 45.0676C14.4766 45.7149 14.3344 46.4917 13.8394 46.9816L10.0191 50.7868C9.89974 50.9112 9.80836 51.0457 9.74744 51.1878C9.68144 51.3376 9.6459 51.5204 9.6459 51.7336C9.6459 51.9468 9.68398 52.1372 9.75252 52.2997C9.83121 52.4825 9.95559 52.6601 10.1231 52.8302L14.7025 57.4629C14.8624 57.6101 15.0325 57.7193 15.2051 57.7878C15.3828 57.8564 15.5859 57.8919 15.8169 57.8919C16.0428 57.8919 16.2484 57.8564 16.4286 57.7853L16.487 57.7624C16.6419 57.6964 16.7866 57.5974 16.9236 57.4705L20.3125 54.0284C20.8938 53.4369 21.8127 53.3811 22.46 53.8634C22.8179 54.0918 23.2241 54.3279 23.6683 54.5691C24.143 54.8254 24.6075 55.0539 25.0594 55.2621C25.5341 55.4804 26.0189 55.6834 26.5063 55.8738C26.9429 56.0414 27.4404 56.2191 27.9887 56.3993C28.6792 56.6277 29.1158 57.27 29.1158 57.9579V63.1998C29.1158 63.4308 29.1513 63.6339 29.2224 63.8065C29.2884 63.9715 29.4001 64.1314 29.5524 64.2837C29.7047 64.436 29.8672 64.5477 30.0297 64.6137C30.2023 64.6848 30.4053 64.7203 30.6363 64.7203H37.216C37.4292 64.7203 37.6171 64.6848 37.777 64.6188C37.9496 64.5477 38.1222 64.4284 38.2923 64.2634C38.4395 64.1162 38.5487 63.9588 38.6172 63.7938L38.6477 63.7278C38.6985 63.5806 38.7264 63.4029 38.7264 63.1998V58.3996C38.7264 57.5949 39.3052 56.9247 40.0692 56.7851C40.5795 56.6633 41.0643 56.5338 41.5111 56.3967L41.5847 56.3764C42.0441 56.2343 42.5087 56.0718 42.9681 55.8941C43.4251 55.719 43.9074 55.5159 44.4125 55.2874C44.9304 55.0539 45.3974 54.828 45.8112 54.6097C46.1207 54.4487 46.4734 54.3908 46.8181 54.4442C47.1628 54.4976 47.4815 54.6596 47.7277 54.9067L51.4745 58.6636C51.6166 58.8108 51.7689 58.9225 51.9339 58.9936L52.0126 59.0317C52.1497 59.0774 52.3122 59.1002 52.5026 59.1002C52.7234 59.1002 52.9163 59.0647 53.0788 58.9936C53.2438 58.9225 53.3961 58.8108 53.5382 58.6636L58.209 54.0461C58.3562 53.8837 58.4654 53.7161 58.5339 53.541C58.6024 53.3633 58.638 53.1602 58.638 52.9318C58.638 52.6982 58.6025 52.4926 58.5314 52.3124C58.4571 52.1313 58.3504 51.9653 58.2166 51.8225L54.7719 48.4362C54.4972 48.1648 54.327 47.8053 54.2913 47.4209C54.2555 47.0364 54.3565 46.6517 54.5765 46.3343C54.8303 45.9409 55.0765 45.522 55.3152 45.0778C55.5619 44.6221 55.793 44.1581 56.0082 43.6867C56.2239 43.212 56.4295 42.7272 56.6174 42.2398C56.7875 41.8032 56.9651 41.3057 57.1454 40.7574C57.3738 40.0669 58.0161 39.6303 58.704 39.6303H63.9459C64.1769 39.6303 64.38 39.5947 64.5526 39.5237C64.715 39.4577 64.875 39.346 65.0298 39.1937C65.1821 39.0414 65.2938 38.8814 65.3598 38.7164C65.4309 38.5464 65.4664 38.3433 65.4664 38.1098V31.5301C65.4664 31.3169 65.4309 31.129 65.3649 30.9691C65.2938 30.7965 65.1745 30.6239 65.0095 30.4538C64.8597 30.304 64.7049 30.1949 64.5399 30.1289C64.3723 30.0578 64.1718 30.0222 63.9459 30.0222H59.1457C58.3283 30.0222 57.6531 29.4232 57.5261 28.6439C57.2858 27.6799 56.9875 26.7313 56.6326 25.8033L56.6047 25.7196C56.4219 25.2423 56.2315 24.788 56.0386 24.364C55.8279 23.902 55.6045 23.4553 55.3685 23.0237C55.0156 22.3764 55.1476 21.5971 55.6375 21.0971L59.4097 17.2716C59.5645 17.1244 59.6787 16.9721 59.7473 16.8147C59.8133 16.6649 59.8463 16.4822 59.8463 16.2664C59.8463 16.0532 59.8107 15.8653 59.7397 15.7003C59.6635 15.5201 59.5391 15.3424 59.3716 15.1723L54.7643 10.5777ZM53.6779 6.82843C54.9928 6.82843 56.1224 7.30058 57.0794 8.25758L61.7044 12.8776C62.1614 13.3421 62.5117 13.8574 62.7528 14.4209C63.0016 15.0022 63.126 15.6191 63.126 16.2664C63.126 16.9264 62.999 17.5432 62.7477 18.122C62.499 18.6855 62.1385 19.1907 61.674 19.6349L58.8004 22.5491L59.0137 23.006C59.2472 23.5213 59.4655 24.0391 59.6635 24.557L59.6965 24.6357C59.8945 25.156 60.0824 25.7094 60.2626 26.2907L60.3997 26.74H63.9459C64.6033 26.74 65.2202 26.8619 65.7964 27.103C66.365 27.3391 66.8778 27.6894 67.3347 28.1514L67.3677 28.1844C67.817 28.6489 68.1572 29.1643 68.3907 29.7278C68.6293 30.3015 68.7461 30.9031 68.7461 31.5301V38.1098C68.7461 38.7621 68.6293 39.3739 68.3983 39.9476C68.1597 40.5314 67.8094 41.0518 67.3499 41.5138C66.8879 41.9758 66.365 42.3236 65.7837 42.5597C65.2126 42.7957 64.5983 42.91 63.9459 42.91H59.8641L59.6686 43.4202C59.4579 43.9634 59.2269 44.5066 58.9832 45.0448C58.7268 45.6058 58.4628 46.1363 58.1988 46.6288L57.9881 47.0096L60.5799 49.5607C61.0216 50.0252 61.3567 50.5482 61.5826 51.1193C61.806 51.6905 61.9202 52.2971 61.9202 52.9318C61.9202 53.5638 61.8085 54.1629 61.5826 54.7341C61.3617 55.3001 61.0292 55.818 60.5926 56.2901L55.9015 60.9279C55.4522 61.4 54.942 61.763 54.3734 62.0067C53.7972 62.2555 53.1727 62.3824 52.5026 62.3824C51.9035 62.3824 51.3349 62.2758 50.7967 62.0651L50.6393 62.0067C50.0682 61.7605 49.5554 61.395 49.1036 60.9203L46.2427 58.0493L45.7604 58.2727C45.2629 58.496 44.7247 58.722 44.1485 58.9428C43.6332 59.1433 43.0976 59.3287 42.5442 59.5013L42.0061 59.6637V63.1998C42.0061 63.8039 41.8994 64.3827 41.6888 64.931L41.6431 65.0503C41.407 65.6189 41.0567 66.1317 40.5972 66.5886L40.5617 66.6242C40.0971 67.0709 39.5844 67.4111 39.0208 67.6446C38.4446 67.8832 37.8455 68 37.216 68H30.6363C29.984 68 29.3697 67.8832 28.7985 67.6497C28.2147 67.4136 27.6943 67.0633 27.2323 66.6039C26.7728 66.1419 26.4225 65.6215 26.1864 65.0376C25.9504 64.4665 25.8361 63.8522 25.8361 63.1998V59.1154L25.3259 58.9225C24.7827 58.7118 24.2369 58.4808 23.7013 58.2371C23.1428 57.9807 22.6098 57.7193 22.1173 57.4527L21.7391 57.2421L19.1879 59.8338C18.7462 60.2501 18.2589 60.5725 17.7283 60.7933L17.6344 60.8365C17.0632 61.0599 16.454 61.1741 15.8169 61.1741C15.1823 61.1741 14.5806 61.0624 14.012 60.8365C13.446 60.6131 12.9256 60.2831 12.4585 59.8465L7.79029 55.125C7.33083 54.6579 6.97799 54.1426 6.73937 53.5816C6.49061 53.0003 6.36622 52.3835 6.36622 51.7336C6.36622 51.0736 6.49314 50.4568 6.74699 49.8805C6.97545 49.3576 7.30545 48.8829 7.73699 48.4539L10.6968 45.4966L10.4734 45.0143C10.2501 44.5193 10.0267 43.9812 9.80328 43.4024C9.60528 42.8897 9.41744 42.354 9.24736 41.8007L9.0849 41.26H5.5463C4.94215 41.26 4.36338 41.1534 3.81508 40.9427L3.69577 40.897C3.11955 40.6584 2.59916 40.3004 2.1397 39.8308L2.13209 39.8232C1.6777 39.3536 1.33501 38.8357 1.10148 38.2747C0.862863 37.7011 0.746094 37.0994 0.746094 36.4699V29.8902C0.746094 29.2379 0.862863 28.6236 1.0964 28.0524C1.3274 27.4787 1.6777 26.9583 2.14224 26.4938L2.14986 26.4862C2.61439 26.0217 3.13477 25.6739 3.70846 25.4403C4.27962 25.2068 4.89392 25.09 5.5463 25.09H9.63067L9.82359 24.5798C10.0343 24.0366 10.2653 23.4934 10.5115 22.9552C10.7654 22.3942 11.0294 21.8637 11.2959 21.3712L11.5117 20.9803L9.01383 18.4774C8.54675 18.0154 8.18883 17.495 7.94514 16.9188C7.69792 16.3342 7.57184 15.7055 7.57452 15.0708C7.57452 13.7533 8.04668 12.6237 9.00367 11.6667L13.6237 7.0442C14.0882 6.58474 14.6035 6.23443 15.167 5.99328C15.7483 5.74451 16.3626 5.62013 17.0125 5.62013C17.6725 5.62013 18.2893 5.74959 18.8681 6.0009C19.3885 6.22936 19.8632 6.55936 20.2922 6.99089L23.2926 9.94565L23.7343 9.73496C24.1912 9.52426 24.6989 9.31104 25.265 9.09019L25.3437 9.05719C25.859 8.85665 26.3946 8.67135 26.9454 8.50127L27.4861 8.33881V4.80021C27.4861 4.14529 27.608 3.52591 27.8491 2.94968L27.8542 2.9446C28.0928 2.37599 28.4406 1.86576 28.895 1.41392L28.9305 1.37838C29.395 0.929073 29.9103 0.58892 30.4713 0.355383C31.0476 0.119307 31.6492 0 32.2762 0H38.8558C39.5082 0 40.12 0.116769 40.6937 0.350306C41.2775 0.586382 41.7979 0.936688 42.2599 1.39615C42.7219 1.85815 43.0697 2.38107 43.3083 2.96237C43.5418 3.53352 43.6586 4.14783 43.6586 4.80021V8.88457L44.1663 9.0775C44.7095 9.28819 45.2527 9.51919 45.7909 9.76542C46.3519 10.0218 46.8824 10.2833 47.3749 10.5498L47.7658 10.7656L50.2687 8.26773C50.7307 7.80066 51.2511 7.44274 51.8273 7.20158C52.4137 6.95282 53.0331 6.82843 53.6779 6.82843Z" fill="#233F8C"/>
<path d="M40.3918 31.6275H38.1198C37.9217 30.8784 37.5718 30.178 37.0917 29.5701H40.3918C40.6645 29.5701 40.926 29.4617 41.1188 29.2688C41.3116 29.0759 41.4199 28.8142 41.4199 28.5414C41.4199 28.2686 41.3116 28.0069 41.1188 27.814C40.926 27.6211 40.6645 27.5127 40.3918 27.5127H29.0829C28.8102 27.5127 28.5488 27.6211 28.3559 27.814C28.1631 28.0069 28.0548 28.2686 28.0548 28.5414C28.0548 28.8142 28.1631 29.0759 28.3559 29.2688C28.5488 29.4617 28.8102 29.5701 29.0829 29.5701H32.6812C33.36 29.5725 34.0242 29.7669 34.5973 30.131C35.1703 30.495 35.6288 31.0138 35.9197 31.6275H29.0829C28.8102 31.6275 28.5488 31.7358 28.3559 31.9288C28.1631 32.1217 28.0548 32.3833 28.0548 32.6562C28.0548 32.929 28.1631 33.1906 28.3559 33.3835C28.5488 33.5765 28.8102 33.6848 29.0829 33.6848H36.2795C36.1562 34.5393 35.7303 35.321 35.0792 35.8874C34.4282 36.4539 33.5954 36.7674 32.7326 36.7709H29.0829C29.0351 36.7661 28.9868 36.7661 28.939 36.7709C28.8709 36.7603 28.8015 36.7603 28.7334 36.7709C28.6633 36.7948 28.5974 36.8295 28.538 36.8738L28.4147 36.9458C28.3583 36.9967 28.3098 37.0556 28.2707 37.1207C28.2363 37.1663 28.2054 37.2144 28.1782 37.2647C28.169 37.3261 28.169 37.3885 28.1782 37.4499C28.1049 37.5525 28.0622 37.6737 28.0548 37.7996C28.05 37.8475 28.05 37.8957 28.0548 37.9436C28.0442 38.0118 28.0442 38.0812 28.0548 38.1494C28.0787 38.2195 28.1134 38.2854 28.1576 38.3448C28.1576 38.3448 28.1576 38.4271 28.2296 38.4683L34.3981 45.6691C34.5753 45.8764 34.8276 46.0048 35.0995 46.0261C35.3713 46.0473 35.6405 45.9596 35.8477 45.7822C36.0549 45.6049 36.1833 45.3525 36.2045 45.0805C36.2257 44.8084 36.138 44.5391 35.9608 44.3318L31.3241 38.8283H32.6812C34.0959 38.8342 35.4614 38.3092 36.5082 37.357C37.555 36.4048 38.2071 35.0945 38.3357 33.6848H40.3918C40.6645 33.6848 40.926 33.5765 41.1188 33.3835C41.3116 33.1906 41.4199 32.929 41.4199 32.6562C41.4199 32.3833 41.3116 32.1217 41.1188 31.9288C40.926 31.7358 40.6645 31.6275 40.3918 31.6275Z" fill="#F2A602"/>
<path fill-rule="evenodd" clip-rule="evenodd" d="M34.7459 48.5959C42.8071 48.5959 49.342 42.061 49.342 33.9998C49.342 25.9386 42.8071 19.4037 34.7459 19.4037C26.6847 19.4037 20.1498 25.9386 20.1498 33.9998C20.1498 42.061 26.6847 48.5959 34.7459 48.5959ZM34.7459 51.1343C44.209 51.1343 51.8804 43.4629 51.8804 33.9998C51.8804 24.5366 44.209 16.8652 34.7459 16.8652C25.2827 16.8652 17.6113 24.5366 17.6113 33.9998C17.6113 43.4629 25.2827 51.1343 34.7459 51.1343Z" fill="#233F8C"/>
<path fill-rule="evenodd" clip-rule="evenodd" d="M24.6797 45.2218L42.3495 20.9844L44.811 22.7789L27.1412 47.0163L24.6797 45.2218Z" fill="#233F8C"/>
</svg>
