<svg width="55" height="68" viewBox="0 0 55 68" fill="none" xmlns="http://www.w3.org/2000/svg">
<path d="M0.798828 34.1045C0.798828 20.7693 11.6492 9.91895 24.9855 9.91895C38.3217 9.91895 49.17 20.7693 49.17 34.1045C49.17 47.4398 38.3217 58.2901 24.9855 58.2901C11.6492 58.2901 0.798828 47.4398 0.798828 34.1045ZM4.79875 34.1045C4.79875 45.2553 13.8359 54.2902 24.9855 54.2902C36.1351 54.2902 45.1712 45.2542 45.1701 34.1045C45.1701 22.956 36.1351 13.9189 24.9855 13.9189C13.8359 13.9189 4.79875 22.956 4.79875 34.1045Z" fill="#233F8C" stroke="white" stroke-width="0.25"/>
<path d="M31.5133 18.0801C30.9703 17.8538 30.3498 18.1183 30.1299 18.6634C29.9078 19.2063 30.1692 19.8268 30.7132 20.0478C36.4548 22.3874 40.1629 27.9059 40.1629 34.1044C40.1629 34.6909 40.6378 35.1669 41.2254 35.1669C41.8108 35.1669 42.2879 34.6919 42.2879 34.1044C42.2879 27.0368 38.0592 20.7469 31.5133 18.0801Z" fill="#233F8C"/>
<path d="M24.9893 18.9316C25.7979 18.9316 26.6096 18.9964 27.4022 19.1239C27.4606 19.1335 27.5159 19.1377 27.5722 19.1377C28.0843 19.1377 28.5369 18.7659 28.6198 18.2431C28.7133 17.6641 28.3191 17.119 27.7401 17.0255C26.8338 16.88 25.9084 16.8066 24.9883 16.8066C24.4007 16.8066 23.9258 17.2816 23.9258 17.8691C23.9258 18.4567 24.4028 18.9316 24.9893 18.9316Z" fill="#233F8C"/>
<path d="M28.633 36.2531C29.0081 35.6199 29.2365 34.8921 29.2365 34.1048C29.2365 31.7588 27.3283 29.8506 24.9823 29.8506C22.6364 29.8506 20.7271 31.7588 20.7271 34.1048C20.7271 34.8442 20.9343 35.5306 21.2679 36.1373L13.753 43.6522C13.3375 44.0676 13.3375 44.7391 13.753 45.1545C13.9602 45.3617 14.2322 45.4659 14.5042 45.4659C14.7761 45.4659 15.0481 45.3617 15.2553 45.1545L22.7171 37.6927C23.3748 38.1103 24.1483 38.36 24.9823 38.36C25.7686 38.36 26.4974 38.1305 27.1296 37.7565L29.6041 40.23C29.8113 40.4371 30.0833 40.5413 30.3553 40.5413C30.6273 40.5413 30.9003 40.4371 31.1065 40.23C31.5219 39.8145 31.5219 39.143 31.1065 38.7276L28.633 36.2531ZM24.9823 36.235C24.3937 36.235 23.8603 35.996 23.4757 35.6114C23.4492 35.5774 23.4354 35.5359 23.4045 35.503C23.3929 35.4913 23.378 35.4881 23.3663 35.4775C23.0507 35.1056 22.8531 34.6307 22.8531 34.1048C22.8531 32.9286 23.8051 31.9755 24.9834 31.9755C26.1585 31.9755 27.1126 32.9275 27.1126 34.1048C27.1126 35.282 26.1585 36.235 24.9823 36.235Z" fill="#F2A602"/>
<path d="M50.6914 30.6367C50.6914 29.5327 51.5874 28.6367 52.6914 28.6367C53.7963 28.6367 54.6913 29.5327 54.6913 30.6367V37.0116C54.6913 38.1155 53.7963 39.0115 52.6914 39.0115C51.5874 39.0115 50.6914 38.1155 50.6914 37.0116V30.6367Z" fill="#F2A602" stroke="white" stroke-width="0.25"/>
<path d="M13.2193 10.9398L13.2191 10.9397C12.1825 10.5636 11.6443 9.36306 12.0242 8.32059L12.0249 8.31866L14.2608 1.85735C14.2609 1.85706 14.261 1.85678 14.2611 1.85649C14.4077 1.45278 14.6739 1.01541 15.0095 0.680706C15.3467 0.344493 15.7399 0.125 16.1407 0.125H34.0435C34.4474 0.125 34.8433 0.349616 35.1818 0.692854C35.5188 1.03452 35.7845 1.48003 35.9281 1.88835C35.9282 1.88859 35.9283 1.88883 35.9284 1.88908L38.1643 8.54708L38.1649 8.54884C38.5324 9.59113 37.9857 10.7609 36.944 11.1274L36.9436 11.1275C36.7246 11.2055 36.5008 11.2425 36.28 11.2425C35.8843 11.2425 35.4888 11.0433 35.1495 10.728C34.8115 10.4137 34.5406 9.99384 34.3936 9.57654L32.6569 4.21248L32.6289 4.12598H32.538H17.6282H17.538L17.5096 4.21156L15.7815 9.41176C15.59 9.93643 15.2025 10.4153 14.7331 10.7138C14.2638 11.0121 13.724 11.124 13.2193 10.9398Z" fill="#233F8C" stroke="white" stroke-width="0.25"/>
<path d="M13.2594 58.0931C13.7959 57.9115 14.3468 57.8942 14.8034 58.049C15.2565 58.2026 15.6207 58.5265 15.7954 59.0422L15.7954 59.0422L15.7965 59.0453L17.5454 63.7935L17.5755 63.8753H17.6627H32.5097H32.5972L32.6272 63.7932L34.3781 58.995L34.3782 58.995L34.3792 58.9918C34.5522 58.4749 34.9154 58.1576 35.3676 58.0097C35.8238 57.8605 36.3748 57.8831 36.9103 58.0614C37.9616 58.4121 38.523 59.4921 38.1735 60.5361C38.1734 60.5364 38.1733 60.5367 38.1732 60.537L35.9351 66.923L35.9351 66.923L35.9345 66.925C35.8027 67.3223 35.5549 67.5552 35.232 67.6928C34.9024 67.8332 34.4914 67.8752 34.0387 67.8752H16.138C15.6867 67.8752 15.2769 67.8339 14.9477 67.6948C14.625 67.5584 14.3767 67.3271 14.243 66.9317L14.243 66.9317L14.2424 66.9299L12.0065 60.6291C12.0064 60.6288 12.0063 60.6285 12.0062 60.6282C11.6528 59.5814 12.2138 58.447 13.2594 58.0931ZM13.2594 58.0931L13.2194 57.9747M13.2594 58.0931L13.2194 57.9747M13.2194 57.9747C14.3339 57.5975 15.5377 57.8918 15.9138 59.0021L11.8881 60.6691C11.512 59.5567 12.108 58.3508 13.2194 57.9747Z" fill="#233F8C" stroke="white" stroke-width="0.25"/>
</svg>
