<svg width="47" height="47" viewBox="0 0 47 47" fill="none" xmlns="http://www.w3.org/2000/svg">
<g filter="url(#filter0_d_1162_17604)">
<rect x="2.39453" y="1.0332" width="42" height="42" rx="21" fill="white" shape-rendering="crispEdges"/>
<path d="M22.8084 10.0483C16.4172 10.3489 11.3753 15.6276 11.3946 21.9729C11.3978 23.8407 11.8454 25.6809 12.7005 27.3419L11.4271 33.4755C11.4115 33.5522 11.4156 33.6316 11.4389 33.7063C11.4622 33.781 11.504 33.8486 11.5604 33.9029C11.6168 33.9572 11.6859 33.9964 11.7615 34.0169C11.8371 34.0374 11.9166 34.0386 11.9928 34.0202L18.0517 32.5965C19.6565 33.3888 21.4182 33.8128 23.208 33.8375C29.74 33.9373 35.1851 28.7932 35.3885 22.318C35.6076 15.3739 29.8314 9.71522 22.8084 10.0471V10.0483ZM30.0385 28.5263C29.1652 29.3955 28.1289 30.0841 26.9888 30.5525C25.8487 31.0209 24.6273 31.2599 23.3946 31.2558C21.9442 31.2603 20.5127 30.9276 19.2132 30.2842L18.3695 29.867L14.654 30.74L15.4363 26.9751L15.0199 26.1671C14.3447 24.8597 13.9947 23.4092 13.9992 21.9381C13.9992 19.449 14.9765 17.1079 16.7506 15.3487C18.519 13.6 20.9064 12.6187 23.3946 12.6179C25.9053 12.6179 28.2643 13.5871 30.0385 15.3475C30.9125 16.208 31.6062 17.2339 32.0788 18.3653C32.5514 19.4967 32.7936 20.7109 32.7911 21.9369C32.7911 24.4043 31.7981 26.7827 30.0385 28.5275V28.5263Z" fill="#233F8C"/>
<path d="M29.2175 24.5168L26.8934 23.8555C26.7434 23.8125 26.5846 23.8105 26.4336 23.8499C26.2826 23.8892 26.145 23.9684 26.0352 24.0791L25.4671 24.6539C25.3495 24.7728 25.1995 24.8545 25.0357 24.8887C24.872 24.923 24.7017 24.9082 24.5463 24.8463C23.4474 24.405 21.1341 22.3656 20.5431 21.3448C20.4603 21.2006 20.4224 21.0349 20.4345 20.8691C20.4465 20.7033 20.5078 20.5448 20.6105 20.4141L21.1064 19.7768C21.2019 19.6547 21.2623 19.5089 21.2812 19.3551C21.3 19.2013 21.2767 19.0453 21.2135 18.9038L20.2362 16.7105C20.1809 16.5879 20.0979 16.4798 19.9938 16.3947C19.8896 16.3096 19.7671 16.2497 19.6359 16.2199C19.5046 16.1901 19.3683 16.1911 19.2375 16.2228C19.1067 16.2545 18.9851 16.3161 18.8822 16.4027C18.2334 16.9474 17.4631 17.7735 17.3704 18.691C17.2055 20.3058 17.9036 22.3416 20.5443 24.7874C23.5955 27.6119 26.04 27.9859 27.63 27.6023C28.5327 27.3858 29.2548 26.5165 29.7086 25.8058C29.7812 25.693 29.8262 25.5646 29.8401 25.4312C29.854 25.2978 29.8363 25.1629 29.7886 25.0376C29.7408 24.9122 29.6643 24.7997 29.5651 24.7093C29.4659 24.6189 29.3469 24.5529 29.2175 24.5168Z" fill="#F2A602"/>
</g>
<defs>
<filter id="filter0_d_1162_17604" x="0.394531" y="0.0332031" width="46" height="46" filterUnits="userSpaceOnUse" color-interpolation-filters="sRGB">
<feFlood flood-opacity="0" result="BackgroundImageFix"/>
<feColorMatrix in="SourceAlpha" type="matrix" values="0 0 0 0 0 0 0 0 0 0 0 0 0 0 0 0 0 0 127 0" result="hardAlpha"/>
<feOffset dy="1"/>
<feGaussianBlur stdDeviation="1"/>
<feComposite in2="hardAlpha" operator="out"/>
<feColorMatrix type="matrix" values="0 0 0 0 0.137255 0 0 0 0 0.247059 0 0 0 0 0.54902 0 0 0 0.2 0"/>
<feBlend mode="normal" in2="BackgroundImageFix" result="effect1_dropShadow_1162_17604"/>
<feBlend mode="normal" in="SourceGraphic" in2="effect1_dropShadow_1162_17604" result="shape"/>
</filter>
</defs>
</svg>
