<svg width="24" height="25" viewBox="0 0 24 25" fill="none" xmlns="http://www.w3.org/2000/svg">
<path d="M21.76 13.0379C21.6671 13.1495 21.551 13.2395 21.4197 13.3017C21.2885 13.3639 21.1453 13.3967 21 13.3979C20.7664 13.3984 20.5399 13.317 20.36 13.1679L20 12.8979V19.3979C20 19.9284 19.7893 20.4371 19.4142 20.8121C19.0392 21.1872 18.5305 21.3979 18 21.3979H15C14.7348 21.3979 14.4805 21.2926 14.2929 21.105C14.1054 20.9175 14 20.6631 14 20.3979V16.3979C14 16.1327 13.8947 15.8784 13.7071 15.6908C13.5196 15.5033 13.2652 15.3979 13 15.3979H11C10.7348 15.3979 10.4805 15.5033 10.2929 15.6908C10.1054 15.8784 10 16.1327 10 16.3979V20.3979C10 20.6631 9.89467 20.9175 9.70714 21.105C9.5196 21.2926 9.26525 21.3979 9.00003 21.3979H6.00003C5.4696 21.3979 4.96089 21.1872 4.58582 20.8121C4.21074 20.4371 4.00003 19.9284 4.00003 19.3979V12.8979L3.64003 13.1979C3.43581 13.3677 3.17253 13.4493 2.90811 13.4249C2.64368 13.4006 2.39977 13.2721 2.23003 13.0679C2.06029 12.8637 1.97863 12.6004 2.00301 12.336C2.02739 12.0716 2.15581 11.8277 2.36003 11.6579L10.13 5.11792C10.6496 4.66894 11.3134 4.42188 12 4.42188C12.6867 4.42188 13.3505 4.66894 13.87 5.11792L21.64 11.6579C21.8343 11.828 21.9553 12.0666 21.9777 12.3238C22 12.581 21.922 12.8369 21.76 13.0379Z" fill="#F2A602"/>
<path d="M21.76 13.0379C21.6671 13.1495 21.551 13.2395 21.4197 13.3017C21.2885 13.3639 21.1453 13.3967 21 13.3979C20.7664 13.3984 20.5399 13.317 20.36 13.1679L20 12.8979V19.3979C20 19.9284 19.7893 20.4371 19.4142 20.8121C19.0392 21.1872 18.5305 21.3979 18 21.3979H15C14.7348 21.3979 14.4805 21.2926 14.2929 21.105C14.1054 20.9175 14 20.6631 14 20.3979V16.3979C14 16.1327 13.8947 15.8784 13.7071 15.6908C13.5196 15.5033 13.2652 15.3979 13 15.3979H11C10.7348 15.3979 10.4805 15.5033 10.2929 15.6908C10.1054 15.8784 10 16.1327 10 16.3979V20.3979C10 20.6631 9.89467 20.9175 9.70714 21.105C9.5196 21.2926 9.26525 21.3979 9.00003 21.3979H6.00003C5.4696 21.3979 4.96089 21.1872 4.58582 20.8121C4.21074 20.4371 4.00003 19.9284 4.00003 19.3979V12.8979L3.64003 13.1979C3.43581 13.3677 3.17253 13.4493 2.90811 13.4249C2.64368 13.4006 2.39977 13.2721 2.23003 13.0679C2.06029 12.8637 1.97863 12.6004 2.00301 12.336C2.02739 12.0716 2.15581 11.8277 2.36003 11.6579L10.13 5.11792C10.6496 4.66894 11.3134 4.42188 12 4.42188C12.6867 4.42188 13.3505 4.66894 13.87 5.11792L21.64 11.6579C21.8343 11.828 21.9553 12.0666 21.9777 12.3238C22 12.581 21.922 12.8369 21.76 13.0379Z" stroke="white"/>
<path d="M21.76 13.0379C21.6671 13.1495 21.551 13.2395 21.4197 13.3017C21.2885 13.3639 21.1453 13.3967 21 13.3979C20.7664 13.3984 20.5399 13.317 20.36 13.1679L20 12.8979V19.3979C20 19.9284 19.7893 20.4371 19.4142 20.8121C19.0392 21.1872 18.5305 21.3979 18 21.3979H15C14.7348 21.3979 14.4805 21.2926 14.2929 21.105C14.1054 20.9175 14 20.6631 14 20.3979V16.3979C14 16.1327 13.8947 15.8784 13.7071 15.6908C13.5196 15.5033 13.2652 15.3979 13 15.3979H11C10.7348 15.3979 10.4805 15.5033 10.2929 15.6908C10.1054 15.8784 10 16.1327 10 16.3979V20.3979C10 20.6631 9.89467 20.9175 9.70714 21.105C9.5196 21.2926 9.26525 21.3979 9.00003 21.3979H6.00003C5.4696 21.3979 4.96089 21.1872 4.58582 20.8121C4.21074 20.4371 4.00003 19.9284 4.00003 19.3979V12.8979L3.64003 13.1979C3.43581 13.3677 3.17253 13.4493 2.90811 13.4249C2.64368 13.4006 2.39977 13.2721 2.23003 13.0679C2.06029 12.8637 1.97863 12.6004 2.00301 12.336C2.02739 12.0716 2.15581 11.8277 2.36003 11.6579L10.13 5.11792C10.6496 4.66894 11.3134 4.42188 12 4.42188C12.6867 4.42188 13.3505 4.66894 13.87 5.11792L21.64 11.6579C21.8343 11.828 21.9553 12.0666 21.9777 12.3238C22 12.581 21.922 12.8369 21.76 13.0379Z" stroke="white" stroke-width="1.5"/>
</svg>
