<svg width="25" height="24" viewBox="0 0 25 24" fill="none" xmlns="http://www.w3.org/2000/svg">
<path d="M22.3736 12.14C22.2806 12.2516 22.1645 12.3416 22.0332 12.4037C21.902 12.4659 21.7588 12.4988 21.6136 12.5C21.3799 12.5004 21.1535 12.4191 20.9736 12.27L20.6136 12V18.5C20.6136 19.0304 20.4028 19.5391 20.0278 19.9142C19.6527 20.2893 19.144 20.5 18.6136 20.5H15.6136C15.3483 20.5 15.094 20.3946 14.9065 20.2071C14.7189 20.0195 14.6136 19.7652 14.6136 19.5V15.5C14.6136 15.2348 14.5082 14.9804 14.3207 14.7929C14.1331 14.6053 13.8788 14.5 13.6136 14.5H11.6136C11.3483 14.5 11.094 14.6053 10.9065 14.7929C10.7189 14.9804 10.6136 15.2348 10.6136 15.5V19.5C10.6136 19.7652 10.5082 20.0195 10.3207 20.2071C10.1331 20.3946 9.87877 20.5 9.61356 20.5H6.61356C6.08312 20.5 5.57442 20.2893 5.19934 19.9142C4.82427 19.5391 4.61356 19.0304 4.61356 18.5V12L4.25356 12.3C4.04934 12.4697 3.78606 12.5514 3.52163 12.527C3.25721 12.5026 3.0133 12.3742 2.84356 12.17C2.67382 11.9658 2.59216 11.7025 2.61654 11.438C2.64092 11.1736 2.76934 10.9297 2.97356 10.76L10.7436 4.21997C11.2631 3.77099 11.9269 3.52393 12.6136 3.52393C13.3002 3.52393 13.964 3.77099 14.4836 4.21997L22.2536 10.76C22.4478 10.93 22.5688 11.1686 22.5912 11.4258C22.6136 11.683 22.5356 11.9389 22.3736 12.14Z" stroke="white" stroke-width="1.5"/>
</svg>
