<svg width="65" height="65" viewBox="0 0 65 65" fill="none" xmlns="http://www.w3.org/2000/svg">
<g clip-path="url(#clip0_1155_5328)">
<path d="M34.498 62.7422C26.8295 62.7422 19.5864 59.7581 14.0651 54.3364H6.47062V61.227H9.84048V62.7422H1.62132V61.2291H4.99117V54.3364H1.62132C1.21241 54.3364 0.881592 53.9981 0.881592 53.5799V45.1741C0.881592 44.7559 1.21241 44.4176 1.62132 44.4176H50.552C52.9109 41.0826 54.3041 36.989 54.3041 32.5654C54.3041 21.3962 45.4192 12.3075 34.4959 12.3075C26.6199 12.3075 19.4918 17.0799 16.3357 24.4623L14.9795 23.857C18.372 15.922 26.0322 10.7945 34.498 10.7945C46.237 10.7945 55.7856 20.5599 55.7856 32.5654C55.7856 44.571 46.237 54.3364 34.498 54.3364H16.2638C21.3411 58.7936 27.7459 61.227 34.498 61.227C49.952 61.227 62.5253 48.3704 62.5253 32.5633C62.5253 16.7584 49.9541 3.89961 34.498 3.89961C22.1877 3.89961 11.1391 12.318 7.63158 24.374L6.21377 23.9432C9.90623 11.2526 21.5363 2.38867 34.498 2.38867C50.7678 2.38867 64.0048 15.9262 64.0048 32.5654C64.0048 49.2047 50.7678 62.7422 34.498 62.7422ZM2.36104 52.8234H34.498C40.4178 52.8234 45.7397 50.1545 49.3705 45.9327H2.36104V52.8234Z" fill="#233F8C" stroke="#233F8C" stroke-width="1.5" stroke-linejoin="round"/>
<path d="M37.2117 36.862C37.2117 33.8046 39.5398 31.3301 42.4065 31.3301C45.2699 31.3301 47.6046 33.8046 47.6046 36.862C47.6046 39.9101 45.2699 42.3962 42.4065 42.3962C39.5398 42.3962 37.2117 39.9101 37.2117 36.862Z" fill="#F2A602"/>
<path d="M29.912 31.133H12.5096L2.1615 32.8199V42.3853L7.38362 42.3876C6.96957 41.6744 6.7183 40.8415 6.7183 39.9433C6.7183 37.3618 8.68916 35.2619 11.1134 35.2619H20.6432L28.3683 33.5424L28.7965 35.7272L20.8595 37.4921H11.1134C9.84283 37.4921 8.81261 38.588 8.81261 39.9422C8.81261 41.2836 9.82535 42.369 11.0828 42.3864L29.9524 42.3888C32.8693 42.3643 35.2117 39.8619 35.2117 36.7661C35.2127 33.6576 32.8497 31.133 29.912 31.133Z" fill="#F2A602"/>
<path d="M30.8096 8.81988H38.8096V7.37988H30.8096V8.81988Z" fill="#F2A602" stroke="#F2A602" stroke-width="0.5" stroke-linejoin="round"/>
</g>
<defs>
<clipPath id="clip0_1155_5328">
<rect width="64" height="64" fill="white" transform="translate(0.881592 0.466797)"/>
</clipPath>
</defs>
</svg>
