<svg width="25" height="24" viewBox="0 0 25 24" fill="none" xmlns="http://www.w3.org/2000/svg">
<path d="M12.7461 22C18.2689 22 22.7461 17.5229 22.7461 12C22.7461 6.47715 18.2689 2 12.7461 2C7.22325 2 2.74609 6.47715 2.74609 12C2.74609 17.5229 7.22325 22 12.7461 22Z" stroke="#233F8C" stroke-width="1.25"/>
<path d="M12.7461 17V11V17Z" fill="#F2A602"/>
<path d="M12.7461 17V11" stroke="#F2A602" stroke-width="1.25" stroke-linecap="round"/>
<path d="M12.7461 7C13.2984 7 13.7461 7.44772 13.7461 8C13.7461 8.55228 13.2984 9 12.7461 9C12.1938 9 11.7461 8.55228 11.7461 8C11.7461 7.44772 12.1938 7 12.7461 7Z" fill="#F2A602"/>
</svg>
