<svg width="25" height="25" viewBox="0 0 25 25" fill="none" xmlns="http://www.w3.org/2000/svg">
<path d="M12.9336 22.0332C18.4564 22.0332 22.9336 17.5561 22.9336 12.0332C22.9336 6.51036 18.4564 2.0332 12.9336 2.0332C7.41075 2.0332 2.93359 6.51036 2.93359 12.0332C2.93359 17.5561 7.41075 22.0332 12.9336 22.0332Z" stroke="#233F8C" stroke-width="1.25"/>
<path d="M12.9336 17.0332V11.0332V17.0332Z" fill="#F2A602"/>
<path d="M12.9336 17.0332V11.0332" stroke="#F2A602" stroke-width="1.25" stroke-linecap="round"/>
<path d="M12.9336 7.0332C13.4859 7.0332 13.9336 7.48092 13.9336 8.0332C13.9336 8.58549 13.4859 9.0332 12.9336 9.0332C12.3813 9.0332 11.9336 8.58549 11.9336 8.0332C11.9336 7.48092 12.3813 7.0332 12.9336 7.0332Z" fill="#F2A602"/>
</svg>
