<svg width="49" height="49" viewBox="0 0 49 49" fill="none" xmlns="http://www.w3.org/2000/svg">
<rect x="0.48584" y="0.179688" width="47.9998" height="48" rx="8" fill="#233F8C" fill-opacity="0.1"/>
<mask id="mask0_784_3287" style="mask-type:alpha" maskUnits="userSpaceOnUse" x="12" y="12" width="25" height="25">
<path d="M24.4868 12.1797C21.2279 12.1797 20.8188 12.194 19.5389 12.2522C18.2614 12.3107 17.3894 12.5129 16.6264 12.8097C15.837 13.1162 15.1676 13.5262 14.5006 14.1934C13.8331 14.8605 13.423 15.5299 13.1156 16.3189C12.818 17.0821 12.6156 17.9545 12.5581 19.2314C12.5008 20.5114 12.4858 20.9206 12.4858 24.1797C12.4858 27.4387 12.5002 27.8465 12.5583 29.1264C12.6171 30.4039 12.8193 31.2759 13.1158 32.0389C13.4226 32.8282 13.8326 33.4977 14.4998 34.1647C15.1666 34.8322 15.8361 35.2432 16.6248 35.5497C17.3884 35.8465 18.2605 36.0486 19.5378 36.1072C20.8178 36.1654 21.2266 36.1797 24.4854 36.1797C27.7446 36.1797 28.1524 36.1654 29.4323 36.1072C30.7098 36.0486 31.5828 35.8465 32.3464 35.5497C33.1354 35.2432 33.8039 34.8322 34.4706 34.1647C35.1381 33.4977 35.548 32.8282 35.8556 32.0392C36.1506 31.2759 36.3531 30.4037 36.4131 29.1266C36.4706 27.8467 36.4856 27.4387 36.4856 24.1797C36.4856 20.9206 36.4706 20.5117 36.4131 19.2317C36.3531 17.9541 36.1506 17.0822 35.8556 16.3193C35.548 15.5299 35.1381 14.8605 34.4706 14.1934C33.8031 13.526 33.1356 13.1159 32.3456 12.8098C31.5806 12.5129 30.7081 12.3106 29.4306 12.2522C28.1506 12.194 27.7431 12.1797 24.4831 12.1797H24.4868ZM23.4103 14.3422C23.7298 14.3417 24.0864 14.3422 24.4868 14.3422C27.6909 14.3422 28.0706 14.3537 29.3358 14.4112C30.5058 14.4647 31.1409 14.6602 31.5638 14.8245C32.1239 15.0419 32.5231 15.3019 32.9429 15.7221C33.3629 16.142 33.6228 16.542 33.8408 17.102C34.0051 17.5244 34.2008 18.1595 34.2541 19.3295C34.3116 20.5945 34.3241 20.9744 34.3241 24.1769C34.3241 27.3795 34.3116 27.7595 34.2541 29.0244C34.2006 30.1944 34.0051 30.8294 33.8408 31.2519C33.6234 31.812 33.3629 32.2107 32.9429 32.6305C32.5229 33.0505 32.1241 33.3104 31.5638 33.528C31.1413 33.693 30.5058 33.888 29.3358 33.9415C28.0708 33.9989 27.6909 34.0114 24.4868 34.0114C21.2826 34.0114 20.9028 33.9989 19.6379 33.9415C18.4679 33.8875 17.8329 33.692 17.4095 33.5277C16.8496 33.3102 16.4495 33.0502 16.0295 32.6302C15.6095 32.2102 15.3496 31.8113 15.1316 31.251C14.9673 30.8285 14.7716 30.1934 14.7183 29.0234C14.6608 27.7584 14.6493 27.3785 14.6493 24.1739C14.6493 20.9695 14.6608 20.5915 14.7183 19.3265C14.7718 18.1565 14.9673 17.5214 15.1316 17.0984C15.3491 16.5384 15.6095 16.1384 16.0296 15.7185C16.4496 15.2985 16.8496 15.0384 17.4096 14.8205C17.8326 14.6555 18.4679 14.4605 19.6379 14.4067C20.7449 14.3567 21.1739 14.3417 23.4103 14.3392V14.3422ZM30.8923 16.3346C30.0973 16.3346 29.4524 16.979 29.4524 17.7742C29.4524 18.5691 30.0973 19.2141 30.8923 19.2141C31.6873 19.2141 32.3323 18.5691 32.3323 17.7742C32.3323 16.9792 31.6873 16.3342 30.8923 16.3342V16.3346ZM24.4868 18.0171C21.0836 18.0171 18.3244 20.7764 18.3244 24.1797C18.3244 27.583 21.0836 30.3409 24.4868 30.3409C27.8901 30.3409 30.6484 27.583 30.6484 24.1797C30.6484 20.7765 27.8898 18.0171 24.4866 18.0171H24.4868ZM24.4868 20.1796C26.6959 20.1796 28.4868 21.9704 28.4868 24.1797C28.4868 26.3887 26.6959 28.1797 24.4868 28.1797C22.2776 28.1797 20.4869 26.3887 20.4869 24.1797C20.4869 21.9704 22.2776 20.1796 24.4868 20.1796Z" fill="white"/>
</mask>
<g mask="url(#mask0_784_3287)">
<path d="M32.646 8.82129H16.3261C12.3497 8.82129 9.12622 12.0448 9.12622 16.0212V32.3411C9.12622 36.3175 12.3497 39.541 16.3261 39.541H32.646C36.6224 39.541 39.8459 36.3175 39.8459 32.3411V16.0212C39.8459 12.0448 36.6224 8.82129 32.646 8.82129Z" fill="url(#paint0_radial_784_3287)"/>
</g>
<defs>
<radialGradient id="paint0_radial_784_3287" cx="0" cy="0" r="1" gradientUnits="userSpaceOnUse" gradientTransform="translate(17.2861 41.907) rotate(-90) scale(30.4455 28.3167)">
<stop stop-color="#FFDD55"/>
<stop offset="0.1" stop-color="#FFDD55"/>
<stop offset="0.5" stop-color="#FF543E"/>
<stop offset="1" stop-color="#C837AB"/>
</radialGradient>
</defs>
</svg>
