<svg width="17" height="17" viewBox="0 0 17 17" fill="none" xmlns="http://www.w3.org/2000/svg">
<g clip-path="url(#clip0_893_30750)">
<path d="M9.88895 7.03683V1.32254C9.88895 1.01944 9.76854 0.72875 9.55422 0.514423C9.33989 0.300095 9.0492 0.179688 8.74609 0.179688C8.44299 0.179688 8.1523 0.300095 7.93797 0.514423C7.72364 0.72875 7.60324 1.01944 7.60324 1.32254V7.03683H1.88895C1.58585 7.03683 1.29516 7.15724 1.08083 7.37157C0.866502 7.58589 0.746094 7.87658 0.746094 8.17969C0.746094 8.48279 0.866502 8.77348 1.08083 8.98781C1.29516 9.20214 1.58585 9.32254 1.88895 9.32254H7.60324V15.0368C7.60324 15.3399 7.72364 15.6306 7.93797 15.845C8.1523 16.0593 8.44299 16.1797 8.74609 16.1797C9.0492 16.1797 9.33989 16.0593 9.55422 15.845C9.76854 15.6306 9.88895 15.3399 9.88895 15.0368V9.32254H15.6032C15.9063 9.32254 16.197 9.20214 16.4114 8.98781C16.6257 8.77348 16.7461 8.48279 16.7461 8.17969C16.7461 7.87658 16.6257 7.58589 16.4114 7.37157C16.197 7.15724 15.9063 7.03683 15.6032 7.03683H9.88895Z" fill="#F2A602"/>
</g>
<defs>
<clipPath id="clip0_893_30750">
<rect width="16" height="16" fill="white" transform="translate(0.746094 0.179688)"/>
</clipPath>
</defs>
</svg>
