<svg width="25" height="25" viewBox="0 0 25 25" fill="none" xmlns="http://www.w3.org/2000/svg">
<path d="M8.72119 3.92116C9.15694 3.73705 9.36094 3.23455 9.17683 2.79879C8.99272 2.36304 8.49022 2.15903 8.05446 2.34314C4.05753 4.03187 1.25 7.9893 1.25 12.6044C1.25 18.7541 6.23531 23.7394 12.385 23.7394C18.5347 23.7394 23.52 18.7541 23.52 12.6044C23.52 7.9893 20.7125 4.03187 16.7155 2.34314C16.2797 2.15903 15.7772 2.36304 15.5931 2.79879C15.409 3.23455 15.613 3.73705 16.0488 3.92116C19.434 5.35141 21.8069 8.70179 21.8069 12.6044C21.8069 17.808 17.5885 22.0263 12.385 22.0263C7.18141 22.0263 2.96308 17.808 2.96308 12.6044C2.96308 8.70179 5.33602 5.35141 8.72119 3.92116Z" fill="#233F8C" stroke="#233F8C" stroke-width="0.5"/>
<path d="M13.2443 1.18369C13.2443 0.710638 12.8608 0.327148 12.3878 0.327148C11.9148 0.327148 11.5312 0.710638 11.5312 1.18369V9.17805C11.5312 9.6511 11.9148 10.0346 12.3878 10.0346C12.8608 10.0346 13.2443 9.6511 13.2443 9.17805V1.18369Z" fill="#F2A602" stroke="#F2A602" stroke-width="0.5"/>
</svg>
