<svg width="75" height="24" viewBox="0 0 75 24" fill="none" xmlns="http://www.w3.org/2000/svg">
<path d="M71.7987 14.6672L73.8278 16.0199C73.1693 16.9899 71.5941 18.6542 68.8708 18.6542C65.4891 18.6542 62.9707 16.0378 62.9707 12.7094C62.9707 9.16751 65.5158 6.76465 68.5861 6.76465C71.6741 6.76465 73.187 9.22079 73.6766 10.5468L73.9436 11.2232L65.9876 14.5159C66.5927 15.7085 67.5361 16.3136 68.8708 16.3136C70.2058 16.3136 71.1313 15.6551 71.7987 14.6672ZM65.5604 12.5226L70.8733 10.3155C70.5796 9.57693 69.7076 9.05193 68.6661 9.05193C67.3403 9.05193 65.4981 10.2266 65.5604 12.5226Z" fill="#FF302F"/>
<path d="M59.1367 0.704102H61.6996V18.1112H59.1367V0.704102Z" fill="#20B15A"/>
<path d="M55.097 7.22743H57.571V17.7999C57.571 22.1871 54.9813 23.9937 51.9198 23.9937C49.0365 23.9937 47.3013 22.0537 46.6515 20.4786L48.9208 19.5351C49.3301 20.5051 50.318 21.6533 51.9198 21.6533C53.8865 21.6533 55.097 20.434 55.097 18.1559V17.3016H55.008C54.4205 18.0134 53.2993 18.6541 51.8754 18.6541C48.903 18.6541 46.1797 16.0644 46.1797 12.7273C46.1797 9.37215 48.903 6.75586 51.8754 6.75586C53.2904 6.75586 54.4205 7.38772 55.008 8.08186H55.097V7.22743ZM55.2748 12.7273C55.2748 10.627 53.8777 9.09629 52.0978 9.09629C50.3001 9.09629 48.7873 10.627 48.7873 12.7273C48.7873 14.8007 50.3001 16.3047 52.0978 16.3047C53.8778 16.3137 55.275 14.8007 55.275 12.7273" fill="#3686F7"/>
<path d="M32.1101 12.6831C32.1101 16.1093 29.4404 18.6278 26.1654 18.6278C22.8906 18.6278 20.2207 16.1005 20.2207 12.6831C20.2207 9.23906 22.8906 6.72949 26.1654 6.72949C29.4404 6.72949 32.1101 9.23906 32.1101 12.6831ZM29.5116 12.6831C29.5116 10.5473 27.963 9.07878 26.1654 9.07878C24.3678 9.07878 22.8193 10.5473 22.8193 12.6831C22.8193 14.8011 24.3678 16.2873 26.1654 16.2873C27.9631 16.2873 29.5116 14.8011 29.5116 12.6831Z" fill="#FF302F"/>
<path d="M45.0945 12.7094C45.0945 16.1356 42.4246 18.6541 39.1498 18.6541C35.8748 18.6541 33.2051 16.1355 33.2051 12.7094C33.2051 9.26536 35.8748 6.76465 39.1498 6.76465C42.4246 6.76465 45.0945 9.25651 45.0945 12.7094ZM42.4869 12.7094C42.4869 10.5736 40.9385 9.10508 39.1408 9.10508C37.3432 9.10508 35.7946 10.5736 35.7946 12.7094C35.7946 14.8274 37.3432 16.3136 39.1408 16.3136C40.9474 16.3136 42.4869 14.8185 42.4869 12.7094Z" fill="#FFBA40"/>
<path d="M10.4495 16.0471C6.72068 16.0471 3.80183 13.0391 3.80183 9.31025C3.80183 5.58154 6.72068 2.57354 10.4495 2.57354C12.4608 2.57354 13.9291 3.36554 15.0148 4.38011L16.8037 2.5914C15.2908 1.14082 13.2707 0.0371094 10.4495 0.0371094C5.3414 0.0372522 1.04297 4.20225 1.04297 9.31025C1.04297 14.4185 5.3414 18.5834 10.4495 18.5834C13.2084 18.5834 15.2908 17.6757 16.9194 15.9848C18.5924 14.3117 19.1085 11.9623 19.1085 10.0578C19.1085 9.46154 19.0374 8.84754 18.9573 8.39368H10.4495V10.8677H16.51C16.332 12.4163 15.8425 13.4753 15.1217 14.196C14.2495 15.0771 12.8703 16.0471 10.4495 16.0471Z" fill="#3686F7"/>
</svg>
