<svg width="1024" height="1024" viewBox="0 0 1024 1024" fill="none" xmlns="http://www.w3.org/2000/svg">
<rect width="1024" height="1024" rx="240" fill="url(#paint0_radial_54_49)"/>
<path d="M734.573 257C758.083 257 779.52 259.139 798.881 263.416C818.242 267.694 834.837 274.704 848.666 284.447C862.495 294.19 873.218 307.142 880.824 323.302C888.43 339.461 892.229 359.423 892.229 383.187C892.229 408.852 886.582 430.24 875.288 447.35C863.999 464.459 847.288 478.48 825.161 489.411C855.586 498.441 878.284 514.245 893.266 536.82C908.247 559.396 915.739 586.606 915.739 618.449C915.739 644.114 910.898 666.334 901.218 685.107C891.537 703.881 878.515 719.209 862.15 731.091C845.786 742.973 827.12 751.765 806.146 757.469C785.171 763.172 763.615 766.023 741.488 766.023L718.94 764.285L584.125 766.023C584.068 766.011 545.102 757.455 529.049 738.899C523.035 733.164 518.353 710.865 514.709 678.775H502.739V588.317C493.225 591.329 482.246 593.588 469.805 593.588C456.631 593.588 444.921 590.576 433.943 586.059V590.576C433.943 675.664 371.734 738.162 272.2 738.162C176.325 738.162 126.558 684.7 108.261 656.839L179.252 589.823C194.621 617.684 226.092 650.062 273.663 650.062C312.452 650.062 335.141 625.967 335.141 592.835C335.141 560.456 312.453 540.879 265.613 540.879H226.092V452.778H251.707C296.351 452.778 314.647 428.682 314.647 394.798C314.647 365.431 294.887 345.101 263.417 345.101C234.142 345.101 214.382 359.407 200.477 382.75L136.071 320.252C159.491 285.614 205.599 257.001 266.345 257.001C351.974 257.001 409.06 307.451 409.06 384.256C409.06 427.176 390.031 464.074 355.633 481.393V484.404C363.683 485.91 372.466 488.922 380.517 493.439H381.248C382.711 494.945 384.175 495.698 385.639 496.451C405.399 506.993 425.893 511.512 444.189 511.512C469.805 511.512 488.834 506.241 502.739 498.711V404.615C502.467 382.466 502.305 361.566 502.214 342.842H445.653V257.001L502.243 257H734.573ZM605.951 679.048H726.972C737.574 679.048 747.712 677.978 757.393 675.839C767.073 673.7 775.601 670.136 782.977 665.146C790.352 660.155 796.23 653.382 800.609 644.827C804.989 636.272 807.178 625.341 807.178 612.033C807.178 585.893 800.037 567.238 785.747 556.069C771.457 544.9 752.552 539.315 729.042 539.315H605.951V679.048ZM605.951 345.1V463.033H720.744C740.105 463.033 756.014 458.281 768.46 448.775C780.906 439.27 787.13 423.823 787.13 402.436C787.13 390.554 785.051 380.81 780.902 373.206C776.754 365.602 771.221 359.66 764.307 355.383C757.392 351.105 749.445 348.134 740.456 346.471C731.467 344.807 722.127 343.977 712.446 343.977H661.715L605.951 345.1Z" fill="white"/>
<path d="M502 527.979V659.672C502 682.885 505.809 701.634 513.428 715.92C521.046 730.205 531.449 741.217 544.635 748.954C557.822 756.692 573.059 761.9 590.348 764.579C607.637 767.257 641.878 766.822 641.878 766.822L678.441 764.579L718.255 764.132V679.188H674.196H644.477C644.477 679.188 631.677 677.137 625.463 673.596C608.148 663.73 605.872 648.14 605.872 626.712V387.37L502 527.979Z" fill="#F2A602"/>
<path d="M502 636.912V661.465C502 684.679 505.809 703.428 513.428 717.713C521.046 731.998 531.449 743.01 544.635 750.748C557.822 758.485 569.985 763.467 587.273 766.145C603.043 767.131 641.599 766.698 641.599 766.698L681.476 765.926L718.255 764.933V680.234C712.395 681.424 696.4 679.639 689.954 680.234C683.507 680.829 695.965 680.234 670.628 680.234C645.291 680.234 633.47 678.508 623.518 671.606C608.967 664.46 605.783 646.045 605.783 627.782C605.783 617.042 605.783 505.911 605.783 505.911L502 636.912Z" fill="#FAFCFA"/>
<path d="M647.038 679.296H718.255V764.748C718.255 764.748 662.957 767 603.144 767C543.331 767 523.345 733.395 523.345 733.395L605.817 634.981C605.817 634.981 606.158 655.818 616.739 666.399C630.031 678.638 647.038 679.296 647.038 679.296Z" fill="#69B82D"/>
<defs>
<radialGradient id="paint0_radial_54_49" cx="0" cy="0" r="1" gradientUnits="userSpaceOnUse" gradientTransform="translate(840.702 311.148) rotate(90) scale(712.852 900.02)">
<stop offset="0.100832" stop-color="#233F8C"/>
<stop offset="1" stop-color="#29166F"/>
</radialGradient>
</defs>
</svg>
