<svg width="25" height="19" viewBox="0 0 25 19" fill="none" xmlns="http://www.w3.org/2000/svg">
<path d="M13.7528 9.10092C13.5323 9.2875 13.2458 9.39077 12.9488 9.39077C12.6517 9.39077 12.3653 9.2875 12.1448 9.10092L1.96875 0.426963C2.36806 0.170522 2.84074 0.0332634 3.32475 0.0332031H22.5248C23.0088 0.0332634 23.4814 0.170522 23.8808 0.426963L13.7528 9.10092Z" fill="#233F8C"/>
<path d="M13.7528 9.10092C13.5323 9.2875 13.2458 9.39077 12.9488 9.39077C12.6517 9.39077 12.3653 9.2875 12.1448 9.10092L1.96875 0.426963C2.36806 0.170522 2.84074 0.0332634 3.32475 0.0332031H22.5248C23.0088 0.0332634 23.4814 0.170522 23.8808 0.426963L13.7528 9.10092Z" fill="#F2A602"/>
<path d="M12.9238 13.0376C13.7402 13.0361 14.5369 12.7535 15.1608 12.2298L15.1608 12.2298L15.1674 12.2242L23.9219 4.74563V14.659C23.9219 15.2673 23.6647 15.8648 23.1835 16.316C22.7001 16.7692 22.0315 17.034 21.3219 17.034H4.52188C3.81224 17.034 3.14362 16.7692 2.66024 16.316C2.17905 15.8648 1.92188 15.2673 1.92188 14.659V4.74757L10.6878 12.2463L10.6971 12.2542L10.7065 12.2618C11.3299 12.7694 12.1181 13.0404 12.9238 13.0376ZM12.9238 13.0376L12.9219 12.0377M12.9238 13.0376C12.9245 13.0376 12.9252 13.0376 12.9259 13.0376L12.9219 12.0377M12.9219 12.0377C13.511 12.0365 14.079 11.8323 14.5179 11.4639M12.9219 12.0377C12.3401 12.04 11.7771 11.8441 11.3379 11.4864L14.5179 11.4639M14.5179 11.4639L23.9219 3.43043L14.5179 11.4639Z" stroke="#233F8C" stroke-width="2"/>
</svg>
