<svg width="66" height="56" viewBox="0 0 66 56" fill="none" xmlns="http://www.w3.org/2000/svg">
<rect x="1.56909" y="1.25" width="62.8333" height="53.5" rx="4.75" stroke="#F2A602" stroke-width="2.5"/>
<rect x="1.56909" y="1.25" width="62.8333" height="53.5" rx="4.75" stroke="#233F8C" stroke-width="2.5"/>
<rect x="52.9209" y="45.1558" width="4.45742" height="4.55988" rx="2.22871" fill="#F2A602"/>
<path d="M11.7676 13.6152C11.7676 12.0965 12.9988 10.8652 14.5176 10.8652H47.5738C49.0926 10.8652 50.3238 12.0965 50.3238 13.6152V34.6947C50.3238 36.2135 49.0926 37.4447 47.5738 37.4447H14.5176C12.9988 37.4447 11.7676 36.2135 11.7676 34.6947V24.155V13.6152Z" stroke="#F2A602" stroke-width="2.5"/>
<path d="M11.8574 25.8018H17.4113L20.1882 22.8873L23.8328 29.9655L26.9569 25.8018L28.3453 28.7164L32.8578 18.7236L35.2876 27.6061L38.5851 20.5279L39.9736 28.7164L43.9654 24.6915H50.0398" stroke="#233F8C" stroke-width="2.5" stroke-linecap="round" stroke-linejoin="round"/>
<rect x="32.8621" y="45.1558" width="4.45742" height="4.55988" rx="2.22871" fill="#F2A602"/>
<rect x="42.8914" y="45.1558" width="4.45742" height="4.55988" rx="2.22871" fill="#233F8C"/>
</svg>
