<svg width="76" height="52" viewBox="0 0 76 52" fill="none" xmlns="http://www.w3.org/2000/svg">
<path d="M44.24 48.2529H20.0404C19.237 48.2529 18.5837 48.9155 18.5837 49.7304C18.5837 50.5452 19.237 51.2078 20.0404 51.2078H44.24C45.0434 51.2078 45.6967 50.5452 45.6967 49.7304C45.6967 48.9079 45.0434 48.2529 44.24 48.2529Z" fill="#233F8C"/>
<path d="M68.1321 46.0439V49.014H72.2692C71.661 47.2853 70.0392 46.0439 68.1321 46.0439Z" fill="#E6E6E6"/>
<path d="M68.1321 43.0819C64.6032 43.0819 61.6523 45.6331 60.9766 49.0068H52.2893C51.4109 49.0068 50.7726 48.8316 50.5474 48.527C50.3972 48.3214 50.3972 47.9939 50.3972 47.8416V43.9501H58.649C61.4646 43.9501 63.7472 41.6273 63.7472 38.7791V5.20956C63.7472 2.35371 61.4571 0.0385742 58.649 0.0385742H5.63948C2.82382 0.0385742 0.54126 2.36133 0.54126 5.20956V38.7715C0.54126 41.6273 2.83133 43.9424 5.63948 43.9424H47.4764V47.8416C47.4764 48.2072 47.4764 49.3114 48.2198 50.3091C49.0382 51.4057 50.4047 51.9616 52.2893 51.9616H75.4303V50.4842C75.4303 46.4023 72.1566 43.0819 68.1321 43.0819ZM5.12946 41.5804C3.9206 41.5804 2.94451 40.5827 2.94451 39.3642V4.69687C2.94451 3.47076 3.92811 2.48073 5.12946 2.48073L58.6415 2.99342C59.8503 2.99342 60.8264 3.99106 60.8264 5.20956V38.7715C60.8264 39.9976 59.8428 40.9876 58.6415 40.9876L4.97806 41.5751L5.12946 41.5804ZM68.1321 49.0068H63.995C64.5956 47.2781 66.225 46.0367 68.1321 46.0367C70.0393 46.0367 71.6686 47.2781 72.2693 49.0068H68.1321Z" fill="#233F8C"/>
<path fill-rule="evenodd" clip-rule="evenodd" d="M54.0197 9.12402V34.4517H52.7286V9.12402H54.0197ZM11.5519 9.12402V34.4517H10.2607V9.12402H11.5519ZM15.1738 12.231H35.5039V13.5159H15.1738V12.231ZM15.1738 15.8695H29.5563V17.1544H15.1738V15.8695ZM15.4864 31.6937H44.1222V32.98H15.4864V31.6937ZM15.1738 27.6186H49.0268V28.905H15.1738V27.6186ZM15.4864 22.9552H26.8636L28.3331 21.2002L30.1628 23.4648L32.1589 20.1198L34.3012 23.7261L35.3154 23.0837L35.7588 22.9552H49.0268V24.2401H36L33.7694 25.6549L32.1538 22.9333L30.3547 25.9483L28.311 23.4195L27.6247 24.2401H15.4864V22.9552Z" fill="#F2A602"/>
<path fill-rule="evenodd" clip-rule="evenodd" d="M54.0197 9.12402V34.4517H52.7286V9.12402H54.0197ZM11.5519 9.12402V34.4517H10.2607V9.12402H11.5519ZM44.5996 11.2367H46.1286C46.414 11.2367 46.6484 11.4382 46.6484 11.6835V13.3509H48.5885C48.8739 13.3509 49.1066 13.5524 49.1066 13.7977V15.1103C49.1066 15.3556 48.8722 15.5571 48.5885 15.5571H46.6484V17.1865C46.6484 17.4318 46.414 17.6318 46.1286 17.6318H44.5996C44.3142 17.6318 44.0797 17.4318 44.0797 17.1865V15.5571H42.1397C41.8542 15.5571 41.6215 15.3556 41.6215 15.1103V13.7962C41.6215 13.5509 41.8559 13.3494 42.1397 13.3494H44.0797V11.6835C44.0797 11.4382 44.3142 11.2367 44.5996 11.2367ZM15.4864 22.9552H26.8636L28.3331 21.2002L30.1628 23.4648L32.1589 20.1198L34.3012 23.7261L35.3154 23.0837L35.7588 22.9552H49.0268V24.2401H36L33.7694 25.6549L32.1538 22.9333L30.3547 25.9483L28.311 23.4195L27.6247 24.2401H15.4864V22.9552Z" fill="#233F8C"/>
</svg>
