<svg width="27" height="26" viewBox="0 0 27 26" fill="none" xmlns="http://www.w3.org/2000/svg">
<path d="M25.2153 12.6685C25.2147 10.0634 24.3581 7.53077 22.7771 5.46029C21.1962 3.3898 18.9787 1.89623 16.4658 1.20944C13.9529 0.52265 11.284 0.680702 8.86976 1.65927C6.45551 2.63784 4.42975 4.3827 3.10425 6.6253C1.77876 8.8679 1.22698 11.484 1.53384 14.0708C1.84071 16.6577 2.98921 19.0721 4.80259 20.9424C6.61596 22.8126 8.99372 24.0351 11.5699 24.4217C14.1461 24.8083 16.7779 24.3376 19.0604 23.0819C19.0604 23.0819 20.1525 23.9043 20.9633 24.1923C21.969 24.5496 22.4823 24.7891 23.1953 24.7891C23.9082 24.7891 24.1055 24.5571 24.3144 24.5049C24.5234 24.4527 24.7143 24.3446 24.8666 24.1923C25.0189 24.04 25.127 23.8492 25.1792 23.6402C25.2314 23.4312 25.2258 23.2119 25.163 23.0059C25.163 23.0059 24.0989 22.1572 23.7562 21.3959C23.2726 20.3215 23.7562 18.379 23.7562 18.379C24.7145 16.6282 25.2163 14.6643 25.2153 12.6685Z" fill="url(#paint0_radial_103_4484)"/>
<rect x="7.20654" y="11.418" width="2.5" height="2.5" rx="1.25" fill="white"/>
<rect x="11.7065" y="11.418" width="2.5" height="2.5" rx="1.25" fill="white"/>
<rect x="16.2065" y="11.418" width="2.5" height="2.5" rx="1.25" fill="white"/>
<defs>
<radialGradient id="paint0_radial_103_4484" cx="0" cy="0" r="1" gradientUnits="userSpaceOnUse" gradientTransform="translate(5.70494 8.08159) rotate(90) scale(16.7075 20.887)">
<stop offset="0.100832" stop-color="#233F8C"/>
<stop offset="1" stop-color="#29166F"/>
</radialGradient>
</defs>
</svg>
