<svg width="25" height="25" viewBox="0 0 25 25" fill="none" xmlns="http://www.w3.org/2000/svg">
<path d="M6.83212 17.5733C7.04392 17.6792 7.20504 17.8648 7.28013 18.0894C7.35521 18.3139 7.33812 18.5591 7.2326 18.7711L5.49597 22.2456H19.2901L17.5523 18.7711C17.4988 18.666 17.4666 18.5513 17.4576 18.4337C17.4486 18.316 17.463 18.1978 17.5 18.0857C17.5369 17.9737 17.5957 17.8701 17.6728 17.7808C17.75 17.6916 17.8441 17.6185 17.9497 17.5658C18.0552 17.5131 18.1702 17.4818 18.2879 17.4738C18.4056 17.4657 18.5237 17.481 18.6355 17.5188C18.7472 17.5566 18.8504 17.6162 18.939 17.6941C19.0276 17.7719 19.1 17.8666 19.1519 17.9725L21.5357 22.7402C21.6037 22.8765 21.6358 23.028 21.6289 23.1801C21.622 23.3323 21.5763 23.4802 21.4962 23.6097C21.4161 23.7393 21.3042 23.8462 21.1711 23.9204C21.0381 23.9945 20.8883 24.0335 20.7359 24.0335H4.04897C3.89674 24.0333 3.74709 23.9942 3.61419 23.92C3.4813 23.8457 3.36957 23.7388 3.28958 23.6092C3.2096 23.4797 3.16402 23.3319 3.15716 23.1798C3.1503 23.0278 3.18239 22.8764 3.25038 22.7402L5.63423 17.9725C5.74014 17.7607 5.92576 17.5996 6.15034 17.5245C6.37492 17.4495 6.62012 17.4677 6.83212 17.5733Z" fill="#F2A602"/>
<path d="M9.71094 10.0314C9.71094 9.32017 9.99349 8.63804 10.4964 8.1351C10.9994 7.63216 11.6815 7.34961 12.3928 7.34961C13.104 7.34961 13.7862 7.63216 14.2891 8.1351C14.792 8.63804 15.0746 9.32017 15.0746 10.0314C15.0746 10.7427 14.792 11.4248 14.2891 11.9278C13.7862 12.4307 13.104 12.7133 12.3928 12.7133C11.6815 12.7133 10.9994 12.4307 10.4964 11.9278C9.99349 11.4248 9.71094 10.7427 9.71094 10.0314Z" fill="#F2A602"/>
<path d="M12.195 1.5332H12.1951H12.5812H12.5813C14.6104 1.53328 16.5652 2.29642 18.0577 3.67108C19.5501 5.04575 20.4711 6.9314 20.6376 8.95364C20.8223 11.1922 20.1309 13.4151 18.7091 15.154L18.709 15.154L14.4241 20.3937L14.4238 20.394C14.1771 20.6954 13.8664 20.9383 13.5144 21.105C13.1624 21.2718 12.7777 21.3583 12.3882 21.3583C11.9986 21.3583 11.6139 21.2718 11.2619 21.105C10.9099 20.9383 10.5993 20.6954 10.3525 20.394L10.3522 20.3937L6.06727 15.154L6.0672 15.1539C4.64551 13.415 3.95415 11.1922 4.13871 8.95364L12.195 1.5332ZM12.195 1.5332C10.166 1.53328 8.21111 2.29642 6.71864 3.67108M12.195 1.5332L6.71864 3.67108M6.71864 3.67108C5.22619 5.04573 4.30527 6.93136 4.13872 8.95356L6.71864 3.67108ZM9.75792 7.40048C10.4555 6.70289 11.4016 6.311 12.3882 6.311C13.3747 6.311 14.3208 6.70289 15.0184 7.40048C15.716 8.09806 16.1079 9.04418 16.1079 10.0307C16.1079 11.0172 15.716 11.9634 15.0184 12.6609C14.3208 13.3585 13.3747 13.7504 12.3882 13.7504C11.4016 13.7504 10.4555 13.3585 9.75792 12.6609C9.06034 11.9634 8.66844 11.0172 8.66844 10.0307C8.66844 9.04418 9.06034 8.09806 9.75792 7.40048Z" stroke="#233F8C" stroke-width="1.5"/>
</svg>
