<svg width="22" height="25" viewBox="0 0 22 25" fill="none" xmlns="http://www.w3.org/2000/svg">
<g clip-path="url(#clip0_837_19913)">
<path d="M20.7987 14.9319L20.7987 14.932C21.8405 16.5526 21.0308 18.7319 19.2592 19.233C13.8254 20.77 8.09405 20.77 2.66011 19.233C0.888591 18.7319 0.0788808 16.5526 1.12059 14.932L1.1206 14.9319L2.44952 12.8644C3.04429 11.9391 3.36062 10.8538 3.36062 9.74503V8.9001C3.36062 4.51964 6.77988 1 10.9597 1C15.1394 1 18.5587 4.51964 18.5587 8.9001V9.74503C18.5587 10.8538 18.8751 11.9391 19.4698 12.8643C19.4698 12.8643 19.4698 12.8643 19.4698 12.8643L20.7987 14.9319Z" stroke="#220D6D"/>
<path d="M11.8597 5.30016C11.8597 4.8031 11.4567 4.40015 10.9597 4.40015C10.4627 4.40015 10.0597 4.8031 10.0597 5.30016V10.1002C10.0597 10.5973 10.4627 11.0002 10.9597 11.0002C11.4567 11.0002 11.8597 10.5973 11.8597 10.1002V5.30016Z" fill="#F2A602"/>
<path d="M5.25134 20.3542C6.03248 22.7605 8.29279 24.5001 10.9594 24.5001C13.6261 24.5001 15.8863 22.7605 16.6675 20.3542C12.8928 21.0626 9.02592 21.0626 5.25134 20.3542Z" fill="#29166F"/>
</g>
<defs>
<clipPath id="clip0_837_19913">
<rect width="21.6003" height="24" fill="white" transform="translate(0.159546 0.5)"/>
</clipPath>
</defs>
</svg>
