<svg width="25" height="24" viewBox="0 0 25 24" fill="none" xmlns="http://www.w3.org/2000/svg">
<path d="M14.8274 2.26443C14.612 2.29281 14.4044 2.36358 14.2165 2.47265C14.2161 2.47286 14.2158 2.47307 14.2154 2.47328L12.8716 3.25005L11.5259 2.47153L11.5253 2.4712C11.1461 2.25226 10.6954 2.19293 10.2725 2.30626C9.84962 2.41955 9.48907 2.69614 9.2701 3.0752C9.27005 3.07529 9.26999 3.07539 9.26993 3.07549L8.49188 4.42158H6.94316C6.50527 4.42158 6.08531 4.59554 5.77567 4.90518C5.46603 5.21481 5.29208 5.63477 5.29208 6.07267V7.62138L3.94706 8.39882C3.9468 8.39897 3.94654 8.39912 3.94629 8.39926C3.75827 8.50755 3.59345 8.65187 3.4613 8.82397C3.32897 8.9963 3.23199 9.19308 3.17594 9.403C3.11989 9.61292 3.10587 9.83185 3.13469 10.0472C3.16346 10.2622 3.23437 10.4695 3.34335 10.657C3.34352 10.6573 3.34369 10.6576 3.34386 10.6579L4.12041 12L3.34295 13.3436L3.3418 13.3456C3.12424 13.7243 3.06521 14.1737 3.17758 14.5957C3.28996 15.0177 3.56463 15.3782 3.94171 15.5986L3.94479 15.6004L5.29118 16.3786V17.9273C5.29118 18.3652 5.46513 18.7852 5.77477 19.0948C6.08441 19.4044 6.50437 19.5784 6.94226 19.5784H8.49188L9.27009 20.9248L9.27207 20.9282C9.41759 21.1769 9.62535 21.3835 9.87493 21.5276C10.1245 21.6717 10.4073 21.7483 10.6955 21.75H10.6998C10.9887 21.75 11.274 21.6737 11.5265 21.5277L11.5268 21.5275L12.8707 20.7499L14.2162 21.5277L14.2169 21.5281C14.5958 21.7466 15.046 21.8059 15.4686 21.693C15.8912 21.58 16.2518 21.3041 16.4712 20.9257L16.4719 20.9245L17.2493 19.5784H18.7978C19.2357 19.5784 19.6557 19.4044 19.9653 19.0948C20.2749 18.7852 20.4489 18.3652 20.4489 17.9273V16.3786L21.7952 15.6004C21.7952 15.6004 21.7953 15.6004 21.7953 15.6004C21.9831 15.4918 22.1477 15.3473 22.2796 15.1751C22.4116 15.0029 22.5083 14.8064 22.5643 14.5968C22.6203 14.3872 22.6344 14.1686 22.6058 13.9535L21.8623 14.0522L22.6058 13.9535C22.5773 13.7386 22.5067 13.5315 22.3982 13.3439C22.3981 13.3438 22.3981 13.3438 22.3981 13.3438C22.398 13.3436 22.3979 13.3435 22.3979 13.3434L21.6214 12.0002L22.3989 10.6563L22.3991 10.656C22.6182 10.277 22.6777 9.82651 22.5647 9.40358C22.4517 8.98064 22.1754 8.61989 21.7964 8.40066L21.7962 8.40051L20.4498 7.62228V6.07267C20.4498 5.63477 20.2758 5.21481 19.9662 4.90518C19.6566 4.59554 19.2366 4.42158 18.7987 4.42158H17.2501L16.4727 3.0762L16.4717 3.0744C16.2525 2.69753 15.8938 2.42212 15.4731 2.30777L15.4726 2.30764C15.2625 2.25069 15.0432 2.236 14.8274 2.26443ZM14.698 14.7184L14.1679 14.1879L14.6981 14.7184C14.754 14.6626 14.8204 14.6182 14.8934 14.588C14.9665 14.5578 15.0448 14.5422 15.1238 14.5422C15.2835 14.5423 15.4366 14.6058 15.5495 14.7187C15.6624 14.8317 15.7258 14.9848 15.7257 15.1445C15.7257 15.3042 15.6622 15.4573 15.5492 15.5702L16.0794 16.1007L15.5492 15.5702C15.4363 15.6831 15.2831 15.7464 15.1234 15.7464C15.0444 15.7464 14.9661 15.7308 14.8931 15.7005C14.82 15.6702 14.7537 15.6258 14.6978 15.5699C14.6419 15.514 14.5976 15.4476 14.5673 15.3745C14.5371 15.3015 14.5215 15.2232 14.5216 15.1441C14.5216 15.065 14.5372 14.9868 14.5675 14.9137C14.5978 14.8407 14.6421 14.7743 14.698 14.7184ZM10.6175 8.23556C10.7772 8.23562 10.9303 8.2991 11.0432 8.41205C11.1561 8.525 11.2195 8.67816 11.2194 8.83784C11.2193 8.99752 11.1559 9.15064 11.0429 9.26351C10.93 9.37638 10.7768 9.43977 10.6171 9.43971C10.4574 9.43966 10.3043 9.37618 10.1915 9.26323C10.0786 9.15028 10.0152 8.99712 10.0153 8.83744C10.0153 8.67776 10.0788 8.52464 10.1917 8.41177C10.3047 8.29889 10.4578 8.23551 10.6175 8.23556ZM15.2444 9.07754L10.7379 15.0862L10.4965 14.9053L15.003 8.89666L15.2444 9.07754Z" fill="url(#paint0_radial_975_192)" stroke="white" stroke-width="1.5" stroke-linecap="square"/>
<defs>
<radialGradient id="paint0_radial_975_192" cx="0" cy="0" r="1" gradientUnits="userSpaceOnUse" gradientTransform="translate(20.2287 14.4622) rotate(180) scale(11.7658 10.2483)">
<stop offset="0.0376345" stop-color="#FFCC5C"/>
<stop offset="1" stop-color="#F2A602"/>
</radialGradient>
</defs>
</svg>
