<svg width="24" height="25" viewBox="0 0 24 25" fill="none" xmlns="http://www.w3.org/2000/svg">
<path d="M13.957 3.16287C13.7416 3.19125 13.534 3.26202 13.3461 3.37108C13.3457 3.37129 13.3454 3.37151 13.345 3.37172L12.0011 4.14848L10.6555 3.36997L10.6549 3.36964C10.2757 3.1507 9.82501 3.09137 9.40205 3.20469C8.9792 3.31799 8.61865 3.59458 8.39968 3.97363C8.39962 3.97373 8.39957 3.97383 8.39951 3.97393L7.62145 5.32002H6.07274C5.63484 5.32002 5.21488 5.49397 4.90525 5.80361C4.59561 6.11325 4.42166 6.53321 4.42166 6.9711V8.51982L3.07663 9.29726C3.07638 9.29741 3.07612 9.29755 3.07586 9.2977C2.88784 9.40599 2.72303 9.55031 2.59088 9.72241C2.45855 9.89473 2.36157 10.0915 2.30552 10.3014C2.24947 10.5114 2.23545 10.7303 2.26427 10.9456C2.29304 11.1607 2.36395 11.3679 2.47293 11.5555C2.4731 11.5558 2.47327 11.556 2.47344 11.5563L3.24999 12.8984L2.47253 14.2421L2.47138 14.2441C2.25381 14.6228 2.19478 15.0721 2.30716 15.4941C2.41954 15.9162 2.69421 16.2767 3.07129 16.497L3.07437 16.4988L4.42075 17.277V18.8257C4.42075 19.2636 4.59471 19.6836 4.90435 19.9932C5.21398 20.3029 5.63394 20.4768 6.07184 20.4768H7.62145L8.39967 21.8232L8.40165 21.8266C8.54716 22.0754 8.75493 22.2819 9.0045 22.426C9.25408 22.5701 9.53687 22.6468 9.82505 22.6484H9.82935C10.1183 22.6484 10.4035 22.5721 10.6561 22.4261L10.6564 22.426L12.0003 21.6484L13.3458 22.4261L13.3465 22.4265C13.7254 22.645 14.1756 22.7043 14.5982 22.5914C15.0208 22.4785 15.3814 22.2026 15.6008 21.8241L15.6015 21.823L16.3789 20.4768H17.9274C18.3653 20.4768 18.7852 20.3029 19.0949 19.9932C19.4045 19.6836 19.5785 19.2636 19.5785 18.8257V17.277L20.9248 16.4988C20.9248 16.4988 20.9248 16.4988 20.9249 16.4988C21.1127 16.3903 21.2773 16.2458 21.4092 16.0736C21.5412 15.9014 21.6379 15.7048 21.6939 15.4952C21.7498 15.2856 21.764 15.067 21.7354 14.852L20.9919 14.9507L21.7354 14.8519C21.7069 14.6371 21.6363 14.4299 21.5277 14.2423C21.5277 14.2423 21.5277 14.2422 21.5277 14.2422C21.5276 14.2421 21.5275 14.2419 21.5274 14.2418L20.7509 12.8986L21.5285 11.5548L21.5287 11.5545C21.7477 11.1755 21.8073 10.725 21.6943 10.302C21.5813 9.87908 21.305 9.51833 20.926 9.2991L20.9258 9.29895L19.5794 8.52072V6.9711C19.5794 6.53321 19.4054 6.11325 19.0958 5.80361C18.7861 5.49397 18.3662 5.32002 17.9283 5.32002H16.3797L15.6023 3.97464L15.6013 3.97284C15.3821 3.59597 15.0234 3.32055 14.6027 3.20621L14.6022 3.20608C14.3921 3.14913 14.1728 3.13444 13.957 3.16287ZM13.8276 15.6169L13.2975 15.0864L13.8276 15.6169C13.8836 15.561 13.9499 15.5167 14.023 15.4864C14.0961 15.4562 14.1744 15.4407 14.2534 15.4407C14.4131 15.4407 14.5662 15.5042 14.6791 15.6172C14.792 15.7301 14.8553 15.8833 14.8553 16.043C14.8552 16.2026 14.7918 16.3558 14.6788 16.4686L15.209 16.9991L14.6788 16.4686C14.5659 16.5815 14.4127 16.6449 14.253 16.6448C14.174 16.6448 14.0957 16.6292 14.0226 16.5989C13.9496 16.5686 13.8832 16.5243 13.8273 16.4683C13.7715 16.4124 13.7271 16.346 13.6969 16.273C13.6667 16.1999 13.6511 16.1216 13.6511 16.0426C13.6512 15.9635 13.6668 15.8852 13.697 15.8122C13.7273 15.7391 13.7717 15.6728 13.8276 15.6169ZM9.7471 9.134C9.90678 9.13405 10.0599 9.19754 10.1728 9.31049C10.2856 9.42344 10.349 9.5766 10.349 9.73628C10.3489 9.89596 10.2854 10.0491 10.1725 10.1619C10.0595 10.2748 9.90638 10.3382 9.7467 10.3382C9.58702 10.3381 9.4339 10.2746 9.32103 10.1617C9.20816 10.0487 9.14478 9.89556 9.14483 9.73587C9.14488 9.57619 9.20836 9.42308 9.32131 9.3102C9.43426 9.19733 9.58742 9.13395 9.7471 9.134ZM14.374 9.97597L9.8675 15.9846L9.62613 15.8038L14.1326 9.7951L14.374 9.97597Z" stroke="white" stroke-width="1.5" stroke-linecap="square"/>
</svg>
