<svg width="101" height="91" viewBox="0 0 101 91" fill="none" xmlns="http://www.w3.org/2000/svg">
<path d="M45.7193 28.655C47.2926 27.0623 47.3805 24.5691 45.9158 23.0862C44.451 21.6034 41.9883 21.6924 40.415 23.2851C38.8418 24.8778 38.7538 27.371 40.2186 28.8539C41.6833 30.3367 44.1461 30.2477 45.7193 28.655Z" fill="#A0C8D7"/>
<path d="M51.0866 11.9691C53.3616 9.6659 53.4888 6.0605 51.3707 3.91618C49.2526 1.77186 45.6912 1.90062 43.4162 4.20378C41.1412 6.50694 41.014 10.1123 43.1321 12.2567C45.2502 14.401 48.8116 14.2722 51.0866 11.9691Z" fill="#ABBD81"/>
<path d="M21.5772 84.949C23.368 83.136 23.4681 80.298 21.8008 78.6101C20.1335 76.9222 17.3302 77.0236 15.5394 78.8365C13.7486 80.6495 13.6485 83.4875 15.3158 85.1754C16.9831 86.8633 19.7864 86.7619 21.5772 84.949Z" fill="#F8B26A"/>
<path d="M88.5077 37.9932C89.863 36.6211 89.9388 34.4734 88.677 33.1959C87.4152 31.9185 85.2936 31.9952 83.9383 33.3673C82.583 34.7393 82.5073 36.8871 83.7691 38.1645C85.0309 39.4419 87.1525 39.3652 88.5077 37.9932Z" fill="#A0C8D7"/>
<path d="M40.2742 49.7124C40.0883 49.9009 39.8597 50.0394 39.6118 50.1139C39.3638 50.1885 39.1055 50.1963 38.8631 50.1366C38.6207 50.0769 38.4029 49.9518 38.232 49.7741C38.0611 49.5964 37.9433 49.3725 37.8905 49.1253C35.2132 36.6348 28.6154 29.2673 17.7227 26.6019C17.3593 26.5128 17.0561 26.2784 16.8798 25.9501C16.7035 25.6218 16.6686 25.2265 16.7828 24.8512C16.897 24.476 17.1509 24.1515 17.4886 23.9491C17.8263 23.7467 18.2202 23.683 18.5837 23.7721C30.3874 26.6592 37.8292 34.9182 40.7018 48.3162C40.8107 48.8267 40.6316 49.3506 40.2742 49.7124Z" fill="#A0C8D7"/>
<path d="M59.2451 50.6384C59.0672 50.8186 58.8501 50.9533 58.6143 51.0298C58.3784 51.1063 58.1314 51.1222 57.8965 51.076C57.6615 51.0297 57.4463 50.9228 57.2711 50.7653C57.0958 50.6078 56.9662 50.4049 56.8944 50.1755C52.5989 36.5365 57.6348 23.4093 69.4327 17.5035C69.6065 17.4166 69.7931 17.364 69.9818 17.3489C70.1706 17.3337 70.3578 17.3562 70.5327 17.4151C70.7077 17.474 70.867 17.5681 71.0015 17.6921C71.136 17.816 71.2432 17.9674 71.3168 18.1376C71.3905 18.3078 71.4291 18.4934 71.4307 18.6839C71.4322 18.8744 71.3965 19.066 71.3257 19.2478C71.2548 19.4296 71.1503 19.598 71.0179 19.7434C70.8855 19.8888 70.7279 20.0084 70.5541 20.0953C60.0283 25.3613 55.7422 36.7532 59.6375 49.1172C59.7185 49.3722 59.7245 49.6504 59.6551 49.9196C59.5856 50.1889 59.4435 50.4381 59.2451 50.6384Z" fill="#ABBD81"/>
<path d="M23.7284 62.7407C23.5613 62.9101 23.3595 63.0395 23.1396 63.1181C22.9198 63.1967 22.6883 63.2222 22.4644 63.1926C22.2405 63.1631 22.0307 63.0792 21.8523 62.948C21.6739 62.8168 21.5321 62.642 21.4388 62.4382C17.9602 54.8673 11.8031 50.4139 2.61688 48.8233C2.43359 48.7917 2.26086 48.7232 2.10855 48.6219C1.95624 48.5205 1.82733 48.3883 1.72918 48.2328C1.63103 48.0772 1.56557 47.9014 1.53653 47.7153C1.50749 47.5292 1.51544 47.3365 1.55992 47.1482C1.60441 46.9599 1.68456 46.7797 1.7958 46.6179C1.90705 46.456 2.0472 46.3157 2.20826 46.205C2.36932 46.0943 2.54814 46.0152 2.7345 45.9725C2.92086 45.9297 3.11112 45.924 3.29441 45.9557C13.2605 47.6798 20.2468 52.7618 24.059 61.06C24.1827 61.3274 24.2173 61.6335 24.158 61.9351C24.0987 62.2366 23.9484 62.5184 23.7284 62.7407Z" fill="#ABBD81"/>
<path d="M95.7467 61.7143C95.2254 62.2463 94.6236 62.6897 93.9677 63.025C91.3887 64.3372 88.1739 63.9249 84.1416 61.7627C81.3021 60.0629 79.0233 59.6004 77.3144 60.3571C75.4782 61.171 74.0087 63.4972 72.9553 67.2715C71.1933 73.1523 68.6987 76.6654 65.3219 78.0384C61.9786 79.396 58.0519 78.5232 53.3169 75.3679C53.0188 75.1587 52.822 74.8335 52.7686 74.4619C52.7153 74.0903 52.8097 73.7018 53.0316 73.3798C53.2534 73.0577 53.5852 72.8276 53.9557 72.7387C54.3263 72.6498 54.7062 72.7093 55.0141 72.9043C58.8908 75.4864 62.0552 76.3095 64.4195 75.3481C66.8179 74.375 68.7626 71.4429 70.2028 66.6406C71.5356 61.8696 73.5404 58.9398 76.3265 57.7032C78.9433 56.5448 82.0905 57.0472 85.681 59.1994C88.7633 60.851 91.1864 61.2793 92.8306 60.4434C94.2942 59.6956 95.3553 57.8029 95.9851 54.8129C96.0249 54.6238 96.1006 54.4419 96.2079 54.2775C96.3153 54.113 96.4521 53.9694 96.6107 53.8546C96.7692 53.7399 96.9464 53.6564 97.132 53.6089C97.3176 53.5613 97.508 53.5507 97.6925 53.5775C97.8769 53.6044 98.0517 53.6683 98.2068 53.7655C98.362 53.8626 98.4944 53.9913 98.5967 54.144C98.699 54.2967 98.769 54.4705 98.8028 54.6555C98.8366 54.8405 98.8336 55.033 98.7938 55.2221C98.1846 58.1052 97.1642 60.2793 95.7467 61.7143Z" fill="#F8B26A"/>
<path d="M82.7133 79.3309C83.9115 78.1179 83.9785 76.219 82.8629 75.0897C81.7473 73.9603 79.8716 74.0281 78.6734 75.2411C77.4752 76.4542 77.4083 78.353 78.5238 79.4824C79.6394 80.6118 81.5151 80.5439 82.7133 79.3309Z" fill="#ABBD81"/>
<path d="M12.6562 40.5361L18.5916 44.7712L25.482 41.0998L18.5063 37.5868L12.6562 40.5361Z" fill="#F8B26A"/>
<path d="M70.9038 29.3669L72.7473 34.2495L76.453 34.9848L77.7977 28.0056L70.9038 29.3669Z" fill="#F8B26A"/>
<path d="M75.477 51.2566L75.4773 51.2561C75.9748 50.3953 76.1102 49.3721 75.8535 48.4115C75.5968 47.4509 74.9692 46.6316 74.1085 46.1336L74.1081 46.1334L69.9575 43.7343V38.9556C69.9575 37.961 69.5625 37.0072 68.8592 36.3039C68.1559 35.6007 67.2021 35.2056 66.2075 35.2056H61.4314L59.0349 31.0577L59.0331 31.0547C58.5349 30.1979 57.7193 29.5718 56.7629 29.3119L56.7621 29.3116C56.2853 29.1824 55.7877 29.1491 55.298 29.2136L55.4612 30.4529L55.2979 29.2136C54.8089 29.278 54.3375 29.4388 53.9109 29.6865C53.9103 29.6868 53.9097 29.6872 53.9092 29.6875L49.7628 32.0841L45.6135 29.6836L45.6125 29.6831C44.7512 29.1858 43.7277 29.051 42.767 29.3084C41.8064 29.5658 40.9873 30.1943 40.49 31.0556L38.0913 35.2056H33.315C32.3205 35.2056 31.3666 35.6007 30.6634 36.3039C29.9601 37.0072 29.565 37.961 29.565 38.9556V43.7318L25.4168 46.1296C25.4164 46.1298 25.416 46.13 25.4157 46.1302C24.9885 46.3761 24.614 46.704 24.3138 47.0949C24.0133 47.4862 23.7931 47.9331 23.6658 48.4097C23.5385 48.8864 23.5067 49.3835 23.5721 49.8725C23.6375 50.361 23.7986 50.8317 24.0463 51.2578C24.0466 51.2583 24.0468 51.2588 24.0471 51.2592L26.4434 55.4006L24.0456 59.5446L24.0437 59.5479C23.5493 60.4084 23.4152 61.4295 23.6705 62.3885L24.8736 62.0681L23.6705 62.3885C23.9259 63.3475 24.55 64.1666 25.4069 64.6673L25.412 64.6703L29.5625 67.0694V71.8456C29.5625 72.8402 29.9576 73.794 30.6609 74.4972C31.3642 75.2005 32.318 75.5956 33.3125 75.5956H38.0913L40.4903 79.7461L40.4936 79.7518C40.8245 80.3174 41.2969 80.7872 41.8645 81.1149C42.432 81.4425 43.0751 81.6168 43.7304 81.6206H43.7375C44.3927 81.6206 45.0409 81.4474 45.6155 81.1154L45.6161 81.115L49.7604 78.7171L53.9095 81.1153L53.9106 81.1159C54.7714 81.6123 55.7939 81.7471 56.7539 81.4906C57.7139 81.234 58.5329 80.6072 59.0314 79.7477L59.0325 79.7457L61.4291 75.5956H66.205C67.1996 75.5956 68.1534 75.2005 68.8567 74.4972C69.56 73.794 69.955 72.8402 69.955 71.8456V67.0694L74.1055 64.6704C74.1055 64.6704 74.1055 64.6703 74.1056 64.6703C74.5322 64.4238 74.906 64.0956 75.2057 63.7045C75.5054 63.3134 75.7251 62.867 75.8522 62.3909C75.9794 61.9148 76.0114 61.4184 75.9465 60.9299C75.8817 60.4414 75.7212 59.9705 75.4742 59.5441L73.079 55.4009L75.477 51.2566ZM43.5096 44.1256C44.173 44.1258 44.8091 44.3896 45.278 44.8588C45.7469 45.328 46.0103 45.9643 46.01 46.6277C46.0098 47.2911 45.7461 47.9272 45.2768 48.3961C44.8076 48.865 44.1713 49.1283 43.508 49.1281C42.8446 49.1279 42.2085 48.8641 41.7395 48.3949C41.2706 47.9257 41.0073 47.2894 41.0075 46.626C41.0078 45.9626 41.2715 45.3265 41.7407 44.8576C42.21 44.3887 42.8463 44.1254 43.5096 44.1256ZM57.5097 47.126L44.0097 65.126L42.0103 63.6277L55.5103 45.6277L57.5097 47.126ZM56.0105 66.6256C55.682 66.6255 55.3568 66.5607 55.0533 66.4349C54.7499 66.3091 54.4742 66.1247 54.242 65.8924C54.0099 65.6601 53.8257 65.3843 53.7001 65.0808C53.5745 64.7773 53.5099 64.452 53.51 64.1235C53.5101 63.795 53.575 63.4698 53.7008 63.1664C53.8266 62.863 54.0109 62.5873 54.2432 62.3551C54.4756 62.1229 54.7514 61.9388 55.0549 61.8132C55.3584 61.6876 55.6837 61.623 56.0121 61.6231C56.6755 61.6233 57.3116 61.8871 57.7805 62.3563C58.2494 62.8255 58.5128 63.4618 58.5125 64.1252C58.5123 64.7886 58.2486 65.4247 57.7794 65.8936C57.3101 66.3625 56.6738 66.6258 56.0105 66.6256Z" fill="#E67817"/>
<path d="M75.477 51.2566L75.4773 51.2561C75.9748 50.3953 76.1102 49.3721 75.8535 48.4115C75.5968 47.4509 74.9692 46.6316 74.1085 46.1336L74.1081 46.1334L69.9575 43.7343V38.9556C69.9575 37.961 69.5625 37.0072 68.8592 36.3039C68.1559 35.6007 67.2021 35.2056 66.2075 35.2056H61.4314L59.0349 31.0577L59.0331 31.0547C58.5349 30.1979 57.7193 29.5718 56.7629 29.3119L56.7621 29.3116C56.2853 29.1824 55.7877 29.1491 55.298 29.2136L55.4612 30.4529L55.2979 29.2136C54.8089 29.278 54.3375 29.4388 53.9109 29.6865C53.9103 29.6868 53.9097 29.6872 53.9092 29.6875L49.7628 32.0841L45.6135 29.6836L45.6125 29.6831C44.7512 29.1858 43.7277 29.051 42.767 29.3084C41.8064 29.5658 40.9873 30.1943 40.49 31.0556L38.0913 35.2056H33.315C32.3205 35.2056 31.3666 35.6007 30.6634 36.3039C29.9601 37.0072 29.565 37.961 29.565 38.9556V43.7318L25.4168 46.1296C25.4164 46.1298 25.416 46.13 25.4157 46.1302C24.9885 46.3761 24.614 46.704 24.3138 47.0949C24.0133 47.4862 23.7931 47.9331 23.6658 48.4097C23.5385 48.8864 23.5067 49.3835 23.5721 49.8725C23.6375 50.361 23.7986 50.8317 24.0463 51.2578C24.0466 51.2583 24.0468 51.2588 24.0471 51.2592L26.4434 55.4006L24.0456 59.5446L24.0437 59.5479C23.5493 60.4084 23.4152 61.4295 23.6705 62.3885L24.8736 62.0681L23.6705 62.3885C23.9259 63.3475 24.55 64.1666 25.4069 64.6673L25.412 64.6703L29.5625 67.0694V71.8456C29.5625 72.8402 29.9576 73.794 30.6609 74.4972C31.3642 75.2005 32.318 75.5956 33.3125 75.5956H38.0913L40.4903 79.7461L40.4936 79.7518C40.8245 80.3174 41.2969 80.7872 41.8645 81.1149C42.432 81.4425 43.0751 81.6168 43.7304 81.6206H43.7375C44.3927 81.6206 45.0409 81.4474 45.6155 81.1154L45.6161 81.115L49.7604 78.7171L53.9095 81.1153L53.9106 81.1159C54.7714 81.6123 55.7939 81.7471 56.7539 81.4906C57.7139 81.234 58.5329 80.6072 59.0314 79.7477L59.0325 79.7457L61.4291 75.5956H66.205C67.1996 75.5956 68.1534 75.2005 68.8567 74.4972C69.56 73.794 69.955 72.8402 69.955 71.8456V67.0694L74.1055 64.6704C74.1055 64.6704 74.1055 64.6703 74.1056 64.6703C74.5322 64.4238 74.906 64.0956 75.2057 63.7045C75.5054 63.3134 75.7251 62.867 75.8522 62.3909C75.9794 61.9148 76.0114 61.4184 75.9465 60.9299C75.8817 60.4414 75.7212 59.9705 75.4742 59.5441L73.079 55.4009L75.477 51.2566ZM43.5096 44.1256C44.173 44.1258 44.8091 44.3896 45.278 44.8588C45.7469 45.328 46.0103 45.9643 46.01 46.6277C46.0098 47.2911 45.7461 47.9272 45.2768 48.3961C44.8076 48.865 44.1713 49.1283 43.508 49.1281C42.8446 49.1279 42.2085 48.8641 41.7395 48.3949C41.2706 47.9257 41.0073 47.2894 41.0075 46.626C41.0078 45.9626 41.2715 45.3265 41.7407 44.8576C42.21 44.3887 42.8463 44.1254 43.5096 44.1256ZM57.5097 47.126L44.0097 65.126L42.0103 63.6277L55.5103 45.6277L57.5097 47.126ZM56.0105 66.6256C55.682 66.6255 55.3568 66.5607 55.0533 66.4349C54.7499 66.3091 54.4742 66.1247 54.242 65.8924C54.0099 65.6601 53.8257 65.3843 53.7001 65.0808C53.5745 64.7773 53.5099 64.452 53.51 64.1235C53.5101 63.795 53.575 63.4698 53.7008 63.1664C53.8266 62.863 54.0109 62.5873 54.2432 62.3551C54.4756 62.1229 54.7514 61.9388 55.0549 61.8132C55.3584 61.6876 55.6837 61.623 56.0121 61.6231C56.6755 61.6233 57.3116 61.8871 57.7805 62.3563C58.2494 62.8255 58.5128 63.4618 58.5125 64.1252C58.5123 64.7886 58.2486 65.4247 57.7794 65.8936C57.3101 66.3625 56.6738 66.6258 56.0105 66.6256Z" fill="url(#paint0_radial_1160_17175)"/>
<path d="M75.477 51.2566L75.4773 51.2561C75.9748 50.3953 76.1102 49.3721 75.8535 48.4115C75.5968 47.4509 74.9692 46.6316 74.1085 46.1336L74.1081 46.1334L69.9575 43.7343V38.9556C69.9575 37.961 69.5625 37.0072 68.8592 36.3039C68.1559 35.6007 67.2021 35.2056 66.2075 35.2056H61.4314L59.0349 31.0577L59.0331 31.0547C58.5349 30.1979 57.7193 29.5718 56.7629 29.3119L56.7621 29.3116C56.2853 29.1824 55.7877 29.1491 55.298 29.2136L55.4612 30.4529L55.2979 29.2136C54.8089 29.278 54.3375 29.4388 53.9109 29.6865C53.9103 29.6868 53.9097 29.6872 53.9092 29.6875L49.7628 32.0841L45.6135 29.6836L45.6125 29.6831C44.7512 29.1858 43.7277 29.051 42.767 29.3084C41.8064 29.5658 40.9873 30.1943 40.49 31.0556L38.0913 35.2056H33.315C32.3205 35.2056 31.3666 35.6007 30.6634 36.3039C29.9601 37.0072 29.565 37.961 29.565 38.9556V43.7318L25.4168 46.1296C25.4164 46.1298 25.416 46.13 25.4157 46.1302C24.9885 46.3761 24.614 46.704 24.3138 47.0949C24.0133 47.4862 23.7931 47.9331 23.6658 48.4097C23.5385 48.8864 23.5067 49.3835 23.5721 49.8725C23.6375 50.361 23.7986 50.8317 24.0463 51.2578C24.0466 51.2583 24.0468 51.2588 24.0471 51.2592L26.4434 55.4006L24.0456 59.5446L24.0437 59.5479C23.5493 60.4084 23.4152 61.4295 23.6705 62.3885L24.8736 62.0681L23.6705 62.3885C23.9259 63.3475 24.55 64.1666 25.4069 64.6673L25.412 64.6703L29.5625 67.0694V71.8456C29.5625 72.8402 29.9576 73.794 30.6609 74.4972C31.3642 75.2005 32.318 75.5956 33.3125 75.5956H38.0913L40.4903 79.7461L40.4936 79.7518C40.8245 80.3174 41.2969 80.7872 41.8645 81.1149C42.432 81.4425 43.0751 81.6168 43.7304 81.6206H43.7375C44.3927 81.6206 45.0409 81.4474 45.6155 81.1154L45.6161 81.115L49.7604 78.7171L53.9095 81.1153L53.9106 81.1159C54.7714 81.6123 55.7939 81.7471 56.7539 81.4906C57.7139 81.234 58.5329 80.6072 59.0314 79.7477L59.0325 79.7457L61.4291 75.5956H66.205C67.1996 75.5956 68.1534 75.2005 68.8567 74.4972C69.56 73.794 69.955 72.8402 69.955 71.8456V67.0694L74.1055 64.6704C74.1055 64.6704 74.1055 64.6703 74.1056 64.6703C74.5322 64.4238 74.906 64.0956 75.2057 63.7045C75.5054 63.3134 75.7251 62.867 75.8522 62.3909C75.9794 61.9148 76.0114 61.4184 75.9465 60.9299C75.8817 60.4414 75.7212 59.9705 75.4742 59.5441L73.079 55.4009L75.477 51.2566ZM43.5096 44.1256C44.173 44.1258 44.8091 44.3896 45.278 44.8588C45.7469 45.328 46.0103 45.9643 46.01 46.6277C46.0098 47.2911 45.7461 47.9272 45.2768 48.3961C44.8076 48.865 44.1713 49.1283 43.508 49.1281C42.8446 49.1279 42.2085 48.8641 41.7395 48.3949C41.2706 47.9257 41.0073 47.2894 41.0075 46.626C41.0078 45.9626 41.2715 45.3265 41.7407 44.8576C42.21 44.3887 42.8463 44.1254 43.5096 44.1256ZM57.5097 47.126L44.0097 65.126L42.0103 63.6277L55.5103 45.6277L57.5097 47.126ZM56.0105 66.6256C55.682 66.6255 55.3568 66.5607 55.0533 66.4349C54.7499 66.3091 54.4742 66.1247 54.242 65.8924C54.0099 65.6601 53.8257 65.3843 53.7001 65.0808C53.5745 64.7773 53.5099 64.452 53.51 64.1235C53.5101 63.795 53.575 63.4698 53.7008 63.1664C53.8266 62.863 54.0109 62.5873 54.2432 62.3551C54.4756 62.1229 54.7514 61.9388 55.0549 61.8132C55.3584 61.6876 55.6837 61.623 56.0121 61.6231C56.6755 61.6233 57.3116 61.8871 57.7805 62.3563C58.2494 62.8255 58.5128 63.4618 58.5125 64.1252C58.5123 64.7886 58.2486 65.4247 57.7794 65.8936C57.3101 66.3625 56.6738 66.6258 56.0105 66.6256Z" stroke="#233F8C" stroke-width="2.5" stroke-linecap="square"/>
<defs>
<radialGradient id="paint0_radial_1160_17175" cx="0" cy="0" r="1" gradientUnits="userSpaceOnUse" gradientTransform="translate(70.175 62.2318) rotate(180) scale(32.6436 28.4333)">
<stop offset="0.0376345" stop-color="#FFCC5C"/>
<stop offset="1" stop-color="#F2A602"/>
</radialGradient>
</defs>
</svg>
