<svg width="16" height="9" viewBox="0 0 16 9" fill="none" xmlns="http://www.w3.org/2000/svg">
<path d="M15.1904 3.79002L12.1913 0.793729C12.003 0.605657 11.7477 0.5 11.4815 0.5C11.2153 0.5 10.96 0.605657 10.7717 0.793729C10.5835 0.9818 10.4777 1.23688 10.4777 1.50285C10.4777 1.76882 10.5835 2.0239 10.7717 2.21198L12.0713 3.50038H1.28584C1.0207 3.50038 0.766423 3.60561 0.578941 3.79291C0.391459 3.98022 0.286133 4.23426 0.286133 4.49915C0.286133 4.76404 0.391459 5.01808 0.578941 5.20538C0.766423 5.39269 1.0207 5.49791 1.28584 5.49791H12.0713L10.7717 6.78632C10.678 6.87917 10.6036 6.98963 10.5529 7.11134C10.5021 7.23305 10.476 7.3636 10.476 7.49544C10.476 7.62729 10.5021 7.75784 10.5529 7.87955C10.6036 8.00126 10.678 8.11172 10.7717 8.20457C10.8646 8.29818 10.9752 8.37248 11.097 8.42319C11.2189 8.4739 11.3495 8.5 11.4815 8.5C11.6135 8.5 11.7441 8.4739 11.866 8.42319C11.9878 8.37248 12.0984 8.29818 12.1913 8.20457L15.1904 5.20827C15.2841 5.11542 15.3585 5.00496 15.4093 4.88325C15.46 4.76154 15.4861 4.631 15.4861 4.49915C15.4861 4.3673 15.46 4.23676 15.4093 4.11505C15.3585 3.99334 15.2841 3.88287 15.1904 3.79002Z" fill="#F2A602"/>
</svg>
