<svg width="25" height="25" viewBox="0 0 25 25" fill="none" xmlns="http://www.w3.org/2000/svg">
<path d="M11.7031 21.6584H3.45312C2.90612 21.6584 2.38151 21.4412 1.99472 21.0545C1.60792 20.6677 1.39063 20.1432 1.39063 19.5963L1.39062 1.72456C1.3913 1.58886 1.43214 1.45639 1.508 1.34385C1.58385 1.23132 1.69132 1.14375 1.81687 1.09218C1.94208 1.03954 2.08007 1.02516 2.21343 1.05085C2.3468 1.07654 2.46957 1.14115 2.56625 1.23653L3.6525 2.32945C3.71641 2.39388 3.79245 2.44502 3.87623 2.47992C3.96001 2.51481 4.04987 2.53278 4.14062 2.53278C4.23138 2.53278 4.32124 2.51481 4.40502 2.47992C4.4888 2.44502 4.56484 2.39388 4.62875 2.32945L5.715 1.23653C5.77891 1.1721 5.85495 1.12096 5.93873 1.08607C6.02251 1.05117 6.11237 1.0332 6.20312 1.0332C6.29388 1.0332 6.38374 1.05117 6.46752 1.08607C6.5513 1.12096 6.62734 1.1721 6.69125 1.23653L7.7775 2.32945C7.84141 2.39388 7.91745 2.44502 8.00123 2.47992C8.08501 2.51481 8.17487 2.53278 8.26562 2.53278C8.35638 2.53278 8.44624 2.51481 8.53002 2.47992C8.6138 2.44502 8.68984 2.39388 8.75375 2.32945L9.84 1.23653C9.90391 1.1721 9.97995 1.12096 10.0637 1.08607C10.1475 1.05117 10.2374 1.0332 10.3281 1.0332C10.4189 1.0332 10.5087 1.05117 10.5925 1.08607C10.6763 1.12096 10.7523 1.1721 10.8162 1.23653L11.9025 2.32945C11.9664 2.39388 12.0424 2.44502 12.1262 2.47992C12.21 2.51481 12.2999 2.53278 12.3906 2.53278C12.4814 2.53278 12.5712 2.51481 12.655 2.47992C12.7388 2.44502 12.8148 2.39388 12.8787 2.32945L13.965 1.23653C14.0289 1.1721 14.1049 1.12096 14.1887 1.08607C14.2725 1.05117 14.3624 1.0332 14.4531 1.0332C14.5439 1.0332 14.6337 1.05117 14.7175 1.08607C14.8013 1.12096 14.8773 1.1721 14.9412 1.23653L16.0275 2.32945C16.0914 2.39388 16.1674 2.44502 16.2512 2.47992C16.335 2.51481 16.4249 2.53278 16.5156 2.53278C16.6064 2.53278 16.6962 2.51481 16.78 2.47992C16.8638 2.44502 16.9398 2.39388 17.0037 2.32945L18.09 1.23653C18.1867 1.14115 18.3094 1.07654 18.4428 1.05085C18.5762 1.02516 18.7142 1.03954 18.8394 1.09218C18.9649 1.14375 19.0724 1.23132 19.1483 1.34385C19.2241 1.45639 19.2649 1.58886 19.2656 1.72456V11.3478C19.2656 11.5301 19.1932 11.705 19.0643 11.8339C18.9353 11.9628 18.7605 12.0352 18.5781 12.0352C18.3958 12.0352 18.2209 11.9628 18.092 11.8339C17.9631 11.705 17.8906 11.5301 17.8906 11.3478V3.38114C17.4924 3.72118 16.9819 3.90106 16.4585 3.88581C15.935 3.87057 15.4359 3.66129 15.0581 3.29865L14.4531 2.69376L13.8481 3.29865C13.4563 3.67504 12.934 3.88524 12.3906 3.88524C11.8473 3.88524 11.325 3.67504 10.9331 3.29865L10.3281 2.69376L9.72312 3.29865C9.33129 3.67504 8.80899 3.88524 8.26562 3.88524C7.72225 3.88524 7.19996 3.67504 6.80812 3.29865L6.20312 2.69376L5.59812 3.29865C5.22036 3.66129 4.72125 3.87057 4.19778 3.88581C3.6743 3.90106 3.16385 3.72118 2.76562 3.38114V19.5963C2.76562 19.7786 2.83806 19.9535 2.96699 20.0824C3.09592 20.2113 3.27079 20.2837 3.45312 20.2837H11.7031C11.8855 20.2837 12.0603 20.3561 12.1893 20.485C12.3182 20.6139 12.3906 20.7888 12.3906 20.9711C12.3906 21.1534 12.3182 21.3282 12.1893 21.4571C12.0603 21.586 11.8855 21.6584 11.7031 21.6584Z" fill="#233F8C"/>
<path d="M11.7031 18.2227H5.51562C5.33329 18.2227 5.15842 18.1502 5.02949 18.0213C4.90056 17.8924 4.82812 17.7175 4.82812 17.5352C4.82812 17.3528 4.90056 17.178 5.02949 17.049C5.15842 16.9201 5.33329 16.8477 5.51562 16.8477H11.7031C11.8855 16.8477 12.0603 16.9201 12.1893 17.049C12.3182 17.178 12.3906 17.3528 12.3906 17.5352C12.3906 17.7175 12.3182 17.8924 12.1893 18.0213C12.0603 18.1502 11.8855 18.2227 11.7031 18.2227Z" fill="#F2A602"/>
<path d="M11.7031 15.4727H5.51562C5.33329 15.4727 5.15842 15.4002 5.02949 15.2713C4.90056 15.1424 4.82812 14.9675 4.82812 14.7852C4.82812 14.6028 4.90056 14.428 5.02949 14.299C5.15842 14.1701 5.33329 14.0977 5.51562 14.0977H11.7031C11.8855 14.0977 12.0603 14.1701 12.1893 14.299C12.3182 14.428 12.3906 14.6028 12.3906 14.7852C12.3906 14.9675 12.3182 15.1424 12.1893 15.2713C12.0603 15.4002 11.8855 15.4727 11.7031 15.4727Z" fill="#F2A602"/>
<path d="M13.0781 12.7236H5.51562C5.33329 12.7236 5.15842 12.6512 5.02949 12.5223C4.90056 12.3933 4.82812 12.2185 4.82812 12.0361C4.82812 11.8538 4.90056 11.6789 5.02949 11.55C5.15842 11.4211 5.33329 11.3486 5.51562 11.3486H13.0781C13.2605 11.3486 13.4353 11.4211 13.5643 11.55C13.6932 11.6789 13.7656 11.8538 13.7656 12.0361C13.7656 12.2185 13.6932 12.3933 13.5643 12.5223C13.4353 12.6512 13.2605 12.7236 13.0781 12.7236Z" fill="#F2A602"/>
<path d="M15.1406 9.97363H5.51562C5.33329 9.97363 5.15842 9.9012 5.02949 9.77227C4.90056 9.64334 4.82812 9.46847 4.82812 9.28613C4.82812 9.1038 4.90056 8.92893 5.02949 8.8C5.15842 8.67107 5.33329 8.59863 5.51562 8.59863H15.1406C15.323 8.59863 15.4978 8.67107 15.6268 8.8C15.7557 8.92893 15.8281 9.1038 15.8281 9.28613C15.8281 9.46847 15.7557 9.64334 15.6268 9.77227C15.4978 9.9012 15.323 9.97363 15.1406 9.97363Z" fill="#F2A602"/>
<path d="M15.1406 7.22559H5.51562C5.33329 7.22559 5.15842 7.15315 5.02949 7.02422C4.90056 6.89529 4.82812 6.72042 4.82812 6.53809C4.82812 6.35575 4.90056 6.18088 5.02949 6.05195C5.15842 5.92302 5.33329 5.85059 5.51562 5.85059H15.1406C15.323 5.85059 15.4978 5.92302 15.6268 6.05195C15.7557 6.18088 15.8281 6.35575 15.8281 6.53809C15.8281 6.72042 15.7557 6.89529 15.6268 7.02422C15.4978 7.15315 15.323 7.22559 15.1406 7.22559Z" fill="#F2A602"/>
<path d="M17.2031 14.0977H19.9531V16.1602C19.9531 16.3425 19.8807 16.5174 19.7518 16.6463C19.6228 16.7752 19.448 16.8477 19.2656 16.8477H17.8906C17.7083 16.8477 17.5334 16.7752 17.4045 16.6463C17.2756 16.5174 17.2031 16.3425 17.2031 16.1602V14.0977Z" fill="#F2A602"/>
<path d="M21.3281 23.0334H15.8281C15.2811 23.0334 14.7565 22.8162 14.3697 22.4294C13.9829 22.0427 13.7656 21.5182 13.7656 20.9713V15.4723C13.7656 14.9254 13.9829 14.4009 14.3697 14.0141C14.7565 13.6274 15.2811 13.4102 15.8281 13.4102H21.3281C21.8751 13.4102 22.3997 13.6274 22.7865 14.0141C23.1733 14.4009 23.3906 14.9254 23.3906 15.4723V20.9713C23.3906 21.5182 23.1733 22.0427 22.7865 22.4294C22.3997 22.8162 21.8751 23.0334 21.3281 23.0334ZM15.8281 14.7849C15.6458 14.7849 15.4709 14.8573 15.342 14.9862C15.2131 15.1151 15.1406 15.29 15.1406 15.4723V20.9713C15.1406 21.1536 15.2131 21.3284 15.342 21.4573C15.4709 21.5862 15.6458 21.6587 15.8281 21.6587H21.3281C21.5105 21.6587 21.6853 21.5862 21.8143 21.4573C21.9432 21.3284 22.0156 21.1536 22.0156 20.9713V15.4723C22.0156 15.29 21.9432 15.1151 21.8143 14.9862C21.6853 14.8573 21.5105 14.7849 21.3281 14.7849H15.8281Z" fill="#233F8C"/>
<path d="M17.8906 20.2852H17.2031C17.0208 20.2852 16.8459 20.2127 16.717 20.0838C16.5881 19.9549 16.5156 19.78 16.5156 19.5977C16.5156 19.4153 16.5881 19.2405 16.717 19.1115C16.8459 18.9826 17.0208 18.9102 17.2031 18.9102H17.8906C18.073 18.9102 18.2478 18.9826 18.3768 19.1115C18.5057 19.2405 18.5781 19.4153 18.5781 19.5977C18.5781 19.78 18.5057 19.9549 18.3768 20.0838C18.2478 20.2127 18.073 20.2852 17.8906 20.2852Z" fill="#F2A602"/>
</svg>
