<svg width="23" height="23" viewBox="0 0 23 23" fill="none" xmlns="http://www.w3.org/2000/svg">
<path d="M6.95785 1.0332C7.53339 1.0332 9.83554 6.21306 9.83554 6.7886C9.83554 7.93968 8.10893 9.09076 7.53339 10.2418C6.95785 11.3929 8.10893 12.544 9.26 13.6951C9.71388 14.1489 11.5622 15.9972 12.7132 15.4217C13.8643 14.8462 15.0154 13.1195 16.1665 13.1195C16.742 13.1195 21.9219 15.4217 21.9219 15.9972C21.9219 18.2994 20.1953 20.026 18.4686 20.6015C16.742 21.1771 15.5909 21.1771 13.2888 20.6015C10.9866 20.026 9.26 19.4505 6.38231 16.5728C3.50461 13.6951 2.92907 11.9685 2.35353 9.6663C1.77799 7.36414 1.77799 6.21306 2.35353 4.48644C2.92907 2.75982 4.65569 1.0332 6.95785 1.0332Z" stroke="#233F8C" stroke-width="2" stroke-linecap="round" stroke-linejoin="round"/>
<path d="M13.8672 5.69043C14.6278 6.03955 15.3142 6.52282 15.8958 7.10993C16.4624 7.68176 16.9297 8.35209 17.2698 9.09297" stroke="#F2A602" stroke-width="2" stroke-linecap="round" stroke-linejoin="round"/>
<path d="M21.632 7.94059C21.2169 6.32822 20.3763 4.88677 19.2369 3.74318C18.0895 2.59164 16.6392 1.74211 15.0156 1.32422" stroke="#F2A602" stroke-width="2" stroke-linecap="round" stroke-linejoin="round"/>
</svg>
