<svg width="18" height="19" viewBox="0 0 18 19" fill="none" xmlns="http://www.w3.org/2000/svg">
<path d="M7 8.14844H1C0.933696 8.14844 0.870108 8.1221 0.823223 8.07521C0.776339 8.02833 0.75 7.96474 0.75 7.89844V1.89844C0.75 1.83213 0.776339 1.76854 0.823223 1.72166C0.870107 1.67478 0.933696 1.64844 1 1.64844H7C7.0663 1.64844 7.12989 1.67478 7.17678 1.72166C7.22366 1.76855 7.25 1.83213 7.25 1.89844V7.89844C7.25 7.96474 7.22366 8.02833 7.17678 8.07521C7.12989 8.1221 7.0663 8.14844 7 8.14844ZM17 8.14844H11C10.9337 8.14844 10.8701 8.1221 10.8232 8.07521C10.7763 8.02833 10.75 7.96474 10.75 7.89844V1.89844C10.75 1.83213 10.7763 1.76855 10.8232 1.72166C10.8701 1.67478 10.9337 1.64844 11 1.64844H17C17.0663 1.64844 17.1299 1.67478 17.1768 1.72166C17.2237 1.76854 17.25 1.83213 17.25 1.89844V7.89844C17.25 7.96474 17.2237 8.02833 17.1768 8.07521C17.1299 8.1221 17.0663 8.14844 17 8.14844ZM7 18.1484H1C0.933695 18.1484 0.870106 18.1221 0.823223 18.0752C0.77634 18.0283 0.75 17.9647 0.75 17.8984V11.8984C0.75 11.8321 0.776339 11.7685 0.823223 11.7217C0.870108 11.6748 0.933696 11.6484 1 11.6484H7C7.0663 11.6484 7.12989 11.6748 7.17678 11.7217C7.22366 11.7685 7.25 11.8321 7.25 11.8984V17.8984C7.25 17.9647 7.22366 18.0283 7.17678 18.0752C7.12989 18.1221 7.06631 18.1484 7 18.1484ZM17.25 14.8984C17.25 16.6902 15.7918 18.1484 14 18.1484C12.2082 18.1484 10.75 16.6902 10.75 14.8984C10.75 13.1067 12.2082 11.6484 14 11.6484C15.7918 11.6484 17.25 13.1067 17.25 14.8984Z" stroke="white" stroke-width="1.5"/>
</svg>
