<svg width="19" height="18" viewBox="0 0 19 18" fill="none" xmlns="http://www.w3.org/2000/svg">
<path d="M7.11328 7.5H1.11328C0.980673 7.5 0.853496 7.44732 0.759728 7.35355C0.66596 7.25979 0.613281 7.13261 0.613281 7V1C0.613281 0.867392 0.66596 0.740215 0.759728 0.646447C0.853496 0.552678 0.980673 0.5 1.11328 0.5H7.11328C7.24589 0.5 7.37307 0.552678 7.46683 0.646446C7.5606 0.740215 7.61328 0.867392 7.61328 1V7C7.61328 7.13261 7.5606 7.25978 7.46683 7.35355C7.37307 7.44732 7.24589 7.5 7.11328 7.5ZM17.1133 7.5H11.1133C10.9807 7.5 10.8535 7.44732 10.7597 7.35355C10.666 7.25978 10.6133 7.13261 10.6133 7V1C10.6133 0.867392 10.666 0.740215 10.7597 0.646446C10.8535 0.552678 10.9807 0.5 11.1133 0.5H17.1133C17.2459 0.5 17.3731 0.552679 17.4668 0.646446C17.5606 0.740214 17.6133 0.867391 17.6133 1V7C17.6133 7.13261 17.5606 7.25979 17.4668 7.35355C17.3731 7.44732 17.2459 7.5 17.1133 7.5ZM7.11328 17.5H1.11328C0.980672 17.5 0.853495 17.4473 0.759728 17.3536C0.66596 17.2598 0.613281 17.1326 0.613281 17V11C0.613281 10.8674 0.66596 10.7402 0.759728 10.6464C0.853496 10.5527 0.980673 10.5 1.11328 10.5H7.11328C7.24589 10.5 7.37307 10.5527 7.46683 10.6464C7.5606 10.7402 7.61328 10.8674 7.61328 11V17C7.61328 17.1326 7.5606 17.2598 7.46683 17.3536C7.37307 17.4473 7.24589 17.5 7.11328 17.5ZM17.6133 14C17.6133 15.9299 16.0431 17.5 14.1133 17.5C12.1834 17.5 10.6133 15.9299 10.6133 14C10.6133 12.0701 12.1834 10.5 14.1133 10.5C16.0431 10.5 17.6133 12.0701 17.6133 14Z" fill="#F2A602" stroke="white"/>
</svg>
