<svg width="75" height="68" viewBox="0 0 75 68" fill="none" xmlns="http://www.w3.org/2000/svg">
<path d="M35.5586 22.5039H29.5586C29.426 22.5039 29.2988 22.4512 29.205 22.3575C29.1113 22.2637 29.0586 22.1365 29.0586 22.0039V16.0039C29.0586 15.8713 29.1113 15.7441 29.205 15.6504C29.2988 15.5566 29.426 15.5039 29.5586 15.5039H35.5586C35.6912 15.5039 35.8184 15.5566 35.9121 15.6504C36.0059 15.7441 36.0586 15.8713 36.0586 16.0039V22.0039C36.0586 22.1365 36.0059 22.2637 35.9121 22.3575C35.8184 22.4512 35.6912 22.5039 35.5586 22.5039ZM45.5586 22.5039H39.5586C39.426 22.5039 39.2988 22.4512 39.205 22.3575C39.1113 22.2637 39.0586 22.1365 39.0586 22.0039V16.0039C39.0586 15.8713 39.1113 15.7441 39.205 15.6504C39.2988 15.5566 39.426 15.5039 39.5586 15.5039H45.5586C45.6912 15.5039 45.8184 15.5566 45.9121 15.6504C46.0059 15.7441 46.0586 15.8713 46.0586 16.0039V22.0039C46.0586 22.1365 46.0059 22.2637 45.9121 22.3575C45.8184 22.4512 45.6912 22.5039 45.5586 22.5039ZM35.5586 32.5039H29.5586C29.426 32.5039 29.2988 32.4512 29.205 32.3575C29.1113 32.2637 29.0586 32.1365 29.0586 32.0039V26.0039C29.0586 25.8713 29.1113 25.7441 29.205 25.6504C29.2988 25.5566 29.426 25.5039 29.5586 25.5039H35.5586C35.6912 25.5039 35.8184 25.5566 35.9121 25.6504C36.0059 25.7441 36.0586 25.8713 36.0586 26.0039V32.0039C36.0586 32.1365 36.0059 32.2637 35.9121 32.3575C35.8184 32.4512 35.6912 32.5039 35.5586 32.5039ZM46.0586 29.0039C46.0586 30.9338 44.4885 32.5039 42.5586 32.5039C40.6287 32.5039 39.0586 30.9338 39.0586 29.0039C39.0586 27.074 40.6287 25.5039 42.5586 25.5039C44.4885 25.5039 46.0586 27.074 46.0586 29.0039Z" fill="#F2A602" stroke="white"/>
<path d="M13.7766 56.0039V46.1339H17.6826C18.7466 46.1339 19.5586 46.3906 20.1186 46.9039C20.6879 47.4172 20.9726 48.1499 20.9726 49.1019C20.9726 50.0446 20.6879 50.7772 20.1186 51.2999C19.5586 51.8132 18.7466 52.0699 17.6826 52.0699H14.9246V56.0039H13.7766ZM14.9246 51.1039H17.5426C19.0733 51.1039 19.8386 50.4366 19.8386 49.1019C19.8386 47.7579 19.0733 47.0859 17.5426 47.0859H14.9246V51.1039ZM22.4853 56.0039V49.1999H23.5913V50.4179C23.9553 49.5966 24.7019 49.1439 25.8313 49.0599L26.2373 49.0179L26.3213 49.9979L25.6073 50.0819C24.9633 50.1379 24.4733 50.3432 24.1373 50.6979C23.8013 51.0432 23.6333 51.5192 23.6333 52.1259V56.0039H22.4853ZM30.3888 56.1299C29.7261 56.1299 29.1521 55.9852 28.6668 55.6959C28.1815 55.4066 27.8035 55.0006 27.5328 54.4779C27.2715 53.9459 27.1408 53.3206 27.1408 52.6019C27.1408 51.8832 27.2715 51.2626 27.5328 50.7399C27.8035 50.2079 28.1815 49.7972 28.6668 49.5079C29.1521 49.2186 29.7261 49.0739 30.3888 49.0739C31.0421 49.0739 31.6115 49.2186 32.0968 49.5079C32.5915 49.7972 32.9695 50.2079 33.2308 50.7399C33.5015 51.2626 33.6368 51.8832 33.6368 52.6019C33.6368 53.3206 33.5015 53.9459 33.2308 54.4779C32.9695 55.0006 32.5915 55.4066 32.0968 55.6959C31.6115 55.9852 31.0421 56.1299 30.3888 56.1299ZM30.3888 55.2199C31.0235 55.2199 31.5321 54.9959 31.9148 54.5479C32.2975 54.0906 32.4888 53.4419 32.4888 52.6019C32.4888 51.7526 32.2975 51.1039 31.9148 50.6559C31.5321 50.2079 31.0235 49.9839 30.3888 49.9839C29.7448 49.9839 29.2315 50.2079 28.8488 50.6559C28.4755 51.1039 28.2888 51.7526 28.2888 52.6019C28.2888 53.4419 28.4755 54.0906 28.8488 54.5479C29.2315 54.9959 29.7448 55.2199 30.3888 55.2199ZM38.0701 56.1299C37.4634 56.1299 36.9314 55.9852 36.4741 55.6959C36.0261 55.4066 35.6761 55.0006 35.4241 54.4779C35.1814 53.9459 35.0601 53.3206 35.0601 52.6019C35.0601 51.8739 35.1814 51.2486 35.4241 50.7259C35.6761 50.1939 36.0261 49.7879 36.4741 49.5079C36.9314 49.2186 37.4634 49.0739 38.0701 49.0739C38.6021 49.0739 39.0688 49.1906 39.4701 49.4239C39.8808 49.6572 40.1841 49.9792 40.3801 50.3899V46.1339H41.5141V56.0039H40.4081V54.7579C40.2121 55.1872 39.9088 55.5232 39.4981 55.7659C39.0874 56.0086 38.6114 56.1299 38.0701 56.1299ZM38.3081 55.2199C38.9428 55.2199 39.4514 54.9959 39.8341 54.5479C40.2168 54.0906 40.4081 53.4419 40.4081 52.6019C40.4081 51.7526 40.2168 51.1039 39.8341 50.6559C39.4514 50.2079 38.9428 49.9839 38.3081 49.9839C37.6641 49.9839 37.1508 50.2079 36.7681 50.6559C36.3948 51.1039 36.2081 51.7526 36.2081 52.6019C36.2081 53.4419 36.3948 54.0906 36.7681 54.5479C37.1508 54.9959 37.6641 55.2199 38.3081 55.2199ZM46.1902 56.1299C44.5569 56.1299 43.7402 55.2292 43.7402 53.4279V49.1999H44.8742V53.4139C44.8742 54.0206 44.9955 54.4686 45.2382 54.7579C45.4902 55.0472 45.8822 55.1919 46.4142 55.1919C46.9929 55.1919 47.4642 55.0006 47.8282 54.6179C48.1922 54.2259 48.3742 53.7079 48.3742 53.0639V49.1999H49.5082V56.0039H48.4022V54.8559C48.1875 55.2666 47.8842 55.5839 47.4922 55.8079C47.1095 56.0226 46.6755 56.1299 46.1902 56.1299ZM54.6539 56.1299C53.9725 56.1299 53.3845 55.9852 52.8899 55.6959C52.3952 55.3972 52.0125 54.9819 51.7419 54.4499C51.4805 53.9086 51.3499 53.2786 51.3499 52.5599C51.3499 51.4772 51.6439 50.6279 52.2319 50.0119C52.8199 49.3866 53.6272 49.0739 54.6539 49.0739C55.0739 49.0739 55.4892 49.1486 55.8999 49.2979C56.3105 49.4472 56.6512 49.6572 56.9219 49.9279L56.5299 50.7539C56.2592 50.4926 55.9605 50.3012 55.6339 50.1799C55.3165 50.0586 55.0132 49.9979 54.7239 49.9979C54.0145 49.9979 53.4685 50.2219 53.0859 50.6699C52.7032 51.1086 52.5119 51.7432 52.5119 52.5739C52.5119 53.3859 52.7032 54.0299 53.0859 54.5059C53.4685 54.9726 54.0145 55.2059 54.7239 55.2059C55.0132 55.2059 55.3165 55.1452 55.6339 55.0239C55.9605 54.9026 56.2592 54.7066 56.5299 54.4359L56.9219 55.2619C56.6512 55.5326 56.3059 55.7472 55.8859 55.9059C55.4752 56.0552 55.0645 56.1299 54.6539 56.1299ZM61.1203 56.1299C60.3177 56.1299 59.7157 55.9199 59.3143 55.4999C58.913 55.0706 58.7123 54.4546 58.7123 53.6519V50.0819H57.3823V49.1999H58.7123V47.1139H59.8463V49.1999H62.0023V50.0819H59.8463V53.5399C59.8463 54.0719 59.9583 54.4779 60.1823 54.7579C60.4063 55.0286 60.7703 55.1639 61.2743 55.1639C61.4237 55.1639 61.573 55.1452 61.7223 55.1079C61.8717 55.0706 62.007 55.0332 62.1283 54.9959L62.3243 55.8639C62.203 55.9292 62.0257 55.9899 61.7923 56.0459C61.559 56.1019 61.335 56.1299 61.1203 56.1299Z" fill="white"/>
</svg>
