<svg width="28" height="29" viewBox="0 0 28 29" fill="none" xmlns="http://www.w3.org/2000/svg">
<path d="M13.9961 3H13.9971C16.6576 2.99932 19.2359 3.92119 21.293 5.6084C23.2215 7.1903 24.5804 9.35336 25.1709 11.7676L25.2783 12.2539C25.7655 14.7004 25.4436 17.2347 24.3682 19.4756L24.1426 19.9189C22.8887 22.2657 20.8604 24.1055 18.4023 25.124C16.098 26.0788 13.55 26.2572 11.1426 25.6396L10.6631 25.5049C8.27602 24.781 6.19274 23.3027 4.72363 21.2979L4.43848 20.8896C2.96015 18.6774 2.29492 16.0209 2.55566 13.373C2.80014 10.8905 3.84441 8.55945 5.52441 6.72754L5.86816 6.36816L5.86914 6.36719C6.93486 5.29796 8.20203 4.44996 9.59668 3.87207C10.817 3.36649 12.1141 3.0759 13.4307 3.0127L13.9961 3ZM13.8682 3.72754C12.0364 3.75028 10.2426 4.24025 8.65625 5.14844L8.3418 5.33496C6.78406 6.29849 5.49962 7.64268 4.6084 9.23828L4.43555 9.56152C3.59743 11.19 3.18938 13.0036 3.24805 14.8301L3.2666 15.1963C3.33333 16.2024 3.74721 17.5836 4.1582 18.6709C4.366 19.2206 4.58127 19.7165 4.76465 20.0732C4.85443 20.2479 4.94545 20.4072 5.03223 20.5254C5.07289 20.5807 5.1331 20.6551 5.20996 20.7158C5.24876 20.7465 5.46682 20.9118 5.74316 20.8105L5.74707 20.8174C6.59854 20.494 7.19456 20.2327 8.02539 19.8242L8.95312 19.3584C9.35559 19.1545 9.7484 18.9324 10.1309 18.6934C11.5824 20.5403 12.6121 22.4441 12.2422 24.5918L12.1533 25.1084L12.6738 25.1729C13.002 25.2135 13.3318 25.2387 13.6621 25.249L13.9922 25.2549H14.8301L14.8125 24.7383C14.727 22.1482 16.1546 20.1898 17.8584 18.4365C18.6109 18.9036 19.4058 19.2987 20.2334 19.6143L20.6455 19.7637L20.6504 19.7656C21.1062 19.9175 21.4429 20.0334 21.7031 20.1504C21.9605 20.2661 22.1046 20.367 22.1963 20.4678L22.6289 20.9434L22.9834 20.4062C23.9915 18.877 24.5919 17.1174 24.7295 15.2949L24.751 14.9297C24.8267 13.0995 24.4329 11.2821 23.6113 9.64941L23.4414 9.3252C22.5629 7.71786 21.2897 6.36335 19.7441 5.3877L19.4316 5.19727C17.8503 4.27266 16.0608 3.76793 14.2334 3.72852L13.8682 3.72754ZM14.1387 6.7373C15.0444 6.7373 15.9263 6.99655 16.5684 7.48535C17.1964 7.96355 17.6123 8.67138 17.6123 9.64062C17.6123 9.76453 17.6059 9.86536 17.5986 9.96387C17.5919 10.0554 17.5817 10.171 17.5859 10.2861C17.5963 10.5639 17.6838 10.8018 17.877 11.0898L18.292 10.8115L17.877 11.0908L17.8799 11.0957C18.0429 11.3322 18.1109 11.7148 18.0596 12.1729C18.0092 12.6224 17.8531 13.0567 17.6758 13.334L17.6436 13.3838L17.625 13.4395C17.5733 13.5878 17.4617 13.7985 17.3018 14.0625C17.1447 14.3217 16.9636 14.5963 16.7822 14.8779C16.6063 15.1511 16.4285 15.4333 16.3008 15.6816C16.2369 15.8059 16.1776 15.9367 16.1377 16.0635C16.1069 16.1613 16.0752 16.3001 16.0879 16.4512V16.4521C16.1007 16.8165 15.9267 17.0953 15.582 17.3076C15.2205 17.5302 14.6957 17.6565 14.1348 17.6523C13.5745 17.6481 13.0397 17.5142 12.6641 17.2852C12.345 17.0906 12.1678 16.8497 12.1299 16.5635L12.1221 16.4375V16.4307H12.1211C12.1261 16.2824 12.0883 16.1457 12.0566 16.0547C12.0156 15.9367 11.9579 15.8113 11.8955 15.6895C11.7707 15.4457 11.5996 15.1625 11.4316 14.8857C11.2595 14.6021 11.0872 14.321 10.9424 14.0615C10.7937 13.7952 10.6959 13.5879 10.6553 13.4502L10.6357 13.3838L10.5977 13.3242L10.5254 13.2002C10.3627 12.8998 10.2485 12.5223 10.2197 12.1367C10.1868 11.695 10.2685 11.2881 10.4629 10.9873L10.4619 10.9863C10.6334 10.7236 10.6805 10.4723 10.6855 10.2373C10.6879 10.1294 10.6819 10.0202 10.6768 9.92773C10.6713 9.83001 10.666 9.73928 10.666 9.64062C10.666 8.67135 11.0819 7.96355 11.71 7.48535C12.3519 6.99663 13.2331 6.73739 14.1387 6.7373Z" fill="#F2A602" stroke="#233F8C"/>
</svg>
