<svg width="24" height="25" viewBox="0 0 24 25" fill="none" xmlns="http://www.w3.org/2000/svg">
<path d="M11.9959 1.39845L11.9967 1.39845C14.6575 1.39769 17.2361 2.31958 19.2933 4.00703C21.3505 5.69448 22.7589 8.04306 23.2786 10.6526C23.7982 13.2621 23.3969 15.971 22.143 18.3178C20.8891 20.6646 18.8603 22.5039 16.4022 23.5225C13.9442 24.541 11.209 24.6757 8.66273 23.9035C6.11649 23.1314 3.91678 21.5002 2.43844 19.288C0.960101 17.0757 0.294614 14.4193 0.555382 11.7714C0.81615 9.12344 1.98704 6.64787 3.86852 4.76649L3.86911 4.76589C4.93486 3.6966 6.20153 2.84859 7.59624 2.27067C8.99095 1.69275 10.4862 1.39633 11.9959 1.39845ZM8.65513 11.8491L8.63527 11.7818L8.59765 11.7225C8.3967 11.406 8.25259 10.9758 8.21974 10.5351C8.18684 10.094 8.26806 9.68785 8.46191 9.38718C8.63436 9.12378 8.68039 8.87123 8.68545 8.63568C8.68771 8.53043 8.68177 8.42417 8.67667 8.33318L8.67628 8.32606C8.67081 8.22821 8.6658 8.13749 8.6658 8.0387C8.6658 7.06938 9.08223 6.36234 9.71034 5.88413C10.3524 5.39533 11.2334 5.13551 12.1391 5.13551C13.0449 5.13551 13.9259 5.39533 14.5679 5.88413C15.196 6.36234 15.6124 7.06938 15.6124 8.0387C15.6124 8.16277 15.6055 8.26349 15.5982 8.36209C15.5977 8.36835 15.5972 8.37473 15.5968 8.38122C15.5902 8.46955 15.5822 8.57743 15.5862 8.68485C15.5966 8.96266 15.6835 9.2006 15.8768 9.48875L15.8768 9.48878L15.8803 9.49391C16.0433 9.73043 16.1113 10.113 16.06 10.5711C16.0096 11.0209 15.853 11.4555 15.6756 11.7328L15.644 11.7822L15.6247 11.8376C15.573 11.986 15.4619 12.1966 15.3019 12.4606C15.1833 12.6563 15.0509 12.8606 14.9151 13.0701C14.8709 13.1382 14.8264 13.2069 14.7819 13.276C14.6059 13.5493 14.4282 13.832 14.3004 14.0805C14.2366 14.2048 14.1774 14.3352 14.1375 14.4619C14.105 14.5654 14.0692 14.7149 14.0884 14.876C14.0926 15.2281 13.9189 15.4987 13.5822 15.7061C13.2206 15.9288 12.6955 16.0546 12.1344 16.0503C11.5741 16.0461 11.0398 15.9125 10.6642 15.6835C10.3043 15.464 10.125 15.1858 10.1224 14.8498C10.1321 14.6935 10.0896 14.5481 10.0564 14.453C10.0154 14.335 9.95756 14.2101 9.89515 14.0882C9.77028 13.8444 9.59986 13.5607 9.43182 13.2838C9.41159 13.2505 9.39137 13.2172 9.37119 13.184C9.21954 12.9345 9.07035 12.689 8.94257 12.4601C8.79387 12.1936 8.69576 11.9868 8.65513 11.8491ZM15.8578 16.836C16.7344 17.3802 17.6694 17.8251 18.6455 18.1624L18.6455 18.1625L18.6507 18.1642C19.1065 18.3161 19.4426 18.4319 19.7028 18.5488C19.9604 18.6646 20.1045 18.765 20.1962 18.8659L20.6293 19.342L20.9835 18.8046C22.0589 17.1733 22.6698 15.2799 22.7505 13.3277C22.8312 11.3755 22.3788 9.43816 21.4417 7.72364C20.5047 6.00912 19.1184 4.58215 17.4317 3.59591C15.745 2.60968 13.8215 2.10141 11.8678 2.12566C9.91405 2.14991 8.00381 2.70577 6.34209 3.73358C4.68038 4.76138 3.32995 6.22232 2.43574 7.95958C1.54153 9.69683 1.13732 11.6448 1.26649 13.5944C1.39566 15.544 2.05333 17.4217 3.16891 19.0258L3.53555 18.7708L3.88201 19.1385L3.89177 19.1307L4.25683 18.8386L4.25275 18.8328C4.44861 18.7156 4.69951 18.6155 5.02946 18.5027C5.11637 18.473 5.20796 18.4427 5.30369 18.411C5.77432 18.2551 6.34512 18.066 6.95309 17.7569C7.35592 17.5529 7.74932 17.3309 8.13211 17.0916C9.58343 18.9384 10.6124 20.8424 10.2425 22.9899L10.1536 23.5065L10.6738 23.571C11.1112 23.6252 11.5515 23.6526 11.9923 23.6529H11.9927H11.9933H11.9939H11.9946H11.9952H11.9958H11.9964H11.9971H11.9977H11.9983H11.999H11.9996H12.0002H12.0009H12.0015H12.0021H12.0027H12.0034H12.004H12.0046H12.0053H12.0059H12.0065H12.0071H12.0078H12.0084H12.009H12.0096H12.0103H12.0109H12.0115H12.0122H12.0128H12.0134H12.014H12.0147H12.0153H12.0159H12.0166H12.0172H12.0178H12.0184H12.0191H12.0197H12.0203H12.0209H12.0216H12.0222H12.0228H12.0235H12.0241H12.0247H12.0253H12.026H12.0266H12.0272H12.0278H12.0285H12.0291H12.0297H12.0304H12.031H12.0316H12.0322H12.0329H12.0335H12.0341H12.0347H12.0354H12.036H12.0366H12.0372H12.0379H12.0385H12.0391H12.0398H12.0404H12.041H12.0416H12.0423H12.0429H12.0435H12.0441H12.0448H12.0454H12.046H12.0466H12.0473H12.0479H12.0485H12.0491H12.0498H12.0504H12.051H12.0516H12.0523H12.0529H12.0535H12.0542H12.0548H12.0554H12.056H12.0567H12.0573H12.0579H12.0585H12.0592H12.0598H12.0604H12.061H12.0617H12.0623H12.0629H12.0635H12.0642H12.0648H12.0654H12.066H12.0667H12.0673H12.0679H12.0685H12.0692H12.0698H12.0704H12.071H12.0717H12.0723H12.0729H12.0735H12.0742H12.0748H12.0754H12.076H12.0767H12.0773H12.0779H12.0785H12.0792H12.0798H12.0804H12.081H12.0817H12.0823H12.0829H12.0835H12.0842H12.0848H12.0854H12.086H12.0867H12.0873H12.0879H12.0885H12.0892H12.0898H12.0904H12.091H12.0916H12.0923H12.0929H12.0935H12.0941H12.0948H12.0954H12.096H12.0966H12.0973H12.0979H12.0985H12.0991H12.0998H12.1004H12.101H12.1016H12.1023H12.1029H12.1035H12.1041H12.1048H12.1054H12.106H12.1066H12.1073H12.1079H12.1085H12.1091H12.1097H12.1104H12.111H12.1116H12.1122H12.1129H12.1135H12.1141H12.1147H12.1154H12.116H12.1166H12.1172H12.1179H12.1185H12.1191H12.1197H12.1204H12.121H12.1216H12.1222H12.1228H12.1235H12.1241H12.1247H12.1253H12.126H12.1266H12.1272H12.1278H12.1285H12.1291H12.1297H12.1303H12.131H12.1316H12.1322H12.1328H12.1334H12.1341H12.1347H12.1353H12.1359H12.1366H12.1372H12.1378H12.1384H12.1391H12.1397H12.1403H12.1409H12.1416H12.1422H12.1428H12.1434H12.144H12.1447H12.1453H12.1459H12.1465H12.1472H12.1478H12.1484H12.149H12.1497H12.1503H12.1509H12.1515H12.1522H12.1528H12.1534H12.154H12.1546H12.1553H12.1559H12.1565H12.1571H12.1578H12.1584H12.159H12.1596H12.1603H12.1609H12.1615H12.1621H12.1628H12.1634H12.164H12.1646H12.1652H12.1659H12.1665H12.1671H12.1677H12.1684H12.169H12.1696H12.1702H12.1709H12.1715H12.1721H12.1727H12.1734H12.174H12.1746H12.1752H12.1758H12.1765H12.1771H12.1777H12.1783H12.179H12.1796H12.1802H12.1808H12.1815H12.1821H12.1827H12.1833H12.184H12.1846H12.1852H12.1858H12.1865H12.1871H12.1877H12.1883H12.1889H12.1896H12.1902H12.1908H12.1914H12.1921H12.1927H12.1933H12.1939H12.1946H12.1952H12.1958H12.1964H12.1971H12.1977H12.1983H12.1989H12.1996H12.2002H12.2008H12.2014H12.2021H12.2027H12.2033H12.2039H12.2045H12.2052H12.2058H12.2064H12.207H12.2077H12.2083H12.2089H12.2095H12.2102H12.2108H12.2114H12.212H12.2127H12.2133H12.2139H12.2145H12.2152H12.2158H12.2164H12.217H12.2177H12.2183H12.2189H12.2195H12.2202H12.2208H12.2214H12.222H12.2227H12.2233H12.2239H12.2245H12.2252H12.2258H12.2264H12.227H12.2276H12.2283H12.2289H12.2295H12.2301H12.2308H12.2314H12.232H12.2326H12.2333H12.2339H12.2345H12.2351H12.2358H12.2364H12.237H12.2376H12.2383H12.2389H12.2395H12.2401H12.2408H12.2414H12.242H12.2427H12.2433H12.2439H12.2445H12.2452H12.2458H12.2464H12.247H12.2477H12.2483H12.2489H12.2495H12.2502H12.2508H12.2514H12.252H12.2527H12.2533H12.2539H12.2545H12.2552H12.2558H12.2564H12.257H12.2577H12.2583H12.2589H12.2595H12.2602H12.2608H12.2614H12.262H12.2627H12.2633H12.2639H12.2646H12.2652H12.2658H12.2664H12.2671H12.2677H12.2683H12.2689H12.2696H12.2702H12.2708H12.2714H12.2721H12.2727H12.2733H12.274H12.2746H12.2752H12.2758H12.2765H12.2771H12.2777H12.2783H12.279H12.2796H12.2802H12.2808H12.2815H12.2821H12.2827H12.2834H12.284H12.2846H12.2852H12.2859H12.2865H12.2871H12.2877H12.2884H12.289H12.2896H12.2903H12.2909H12.2915H12.2921H12.2928H12.2934H12.294H12.2947H12.2953H12.2959H12.2965H12.2972H12.2978H12.2984H12.2991H12.2997H12.3003H12.3009H12.3016H12.3022H12.3028H12.3034H12.3041H12.3047H12.3053H12.306H12.3066H12.3072H12.3079H12.3085H12.3091H12.3097H12.3104H12.311H12.3116H12.3123H12.3129H12.8297L12.8126 23.1364C12.7271 20.5468 14.1543 18.589 15.8578 16.836Z" stroke="white"/>
</svg>
