<svg width="21" height="20" viewBox="0 0 21 20" fill="none" xmlns="http://www.w3.org/2000/svg">
<path d="M10.1101 0.50001L10.1109 0.50001C12.3097 0.499381 14.4406 1.26121 16.1406 2.65566C17.8406 4.05012 19.0045 5.99092 19.4339 8.14734C19.8633 10.3038 19.5317 12.5424 18.4955 14.4817C17.4593 16.421 15.7828 17.941 13.7515 18.7827C11.7202 19.6243 9.45993 19.7356 7.35579 19.0976C5.25165 18.4595 3.43388 17.1115 2.21222 15.2834C0.990565 13.4553 0.440626 11.2601 0.656117 9.07189C0.871609 6.88372 1.8392 4.83797 3.394 3.28326L3.39459 3.28266C4.27526 2.39906 5.32196 1.69832 6.47446 1.22076C7.62697 0.743204 8.86253 0.498256 10.1101 0.50001ZM7.40511 9.10496L7.38525 9.03765L7.34763 8.9784C7.18794 8.72691 7.07177 8.38159 7.04533 8.027C7.01886 7.67196 7.08496 7.35294 7.234 7.1216C7.3884 6.88567 7.42932 6.6588 7.43377 6.45159C7.43572 6.36056 7.43061 6.26916 7.4264 6.19397L7.42601 6.18706C7.42144 6.10528 7.4174 6.03186 7.4174 5.95216C7.4174 5.1716 7.7512 4.60612 8.25534 4.2223C8.7734 3.82788 9.48911 3.61524 10.2296 3.61524C10.97 3.61524 11.6858 3.82788 12.2038 4.2223C12.708 4.60612 13.0418 5.1716 13.0418 5.95216C13.0418 6.05235 13.0361 6.13376 13.0301 6.21562C13.0297 6.22099 13.0293 6.2265 13.0289 6.23214C13.0234 6.30509 13.0164 6.39948 13.0199 6.4939C13.0293 6.74455 13.1088 6.95763 13.2763 7.20728L13.2762 7.2073L13.2798 7.21244C13.3996 7.38626 13.457 7.68177 13.4153 8.05389C13.3746 8.41782 13.2477 8.76758 13.1075 8.98677L13.0759 9.03619L13.0566 9.09158C13.0166 9.20639 12.928 9.37556 12.7949 9.59515C12.6968 9.75712 12.5874 9.92591 12.4743 10.1003C12.4374 10.1573 12.4001 10.2148 12.3627 10.2729C12.2161 10.5006 12.0659 10.7394 11.9573 10.9506C11.903 11.0562 11.8513 11.1696 11.8161 11.2816C11.788 11.3709 11.7545 11.507 11.7714 11.657C11.773 11.9134 11.6488 12.1128 11.3889 12.2729C11.1043 12.4482 10.6832 12.551 10.2263 12.5475C9.77024 12.544 9.34062 12.4351 9.04343 12.2539C8.762 12.0822 8.63447 11.8748 8.63162 11.632C8.64007 11.4856 8.60027 11.3529 8.57202 11.2718C8.53599 11.1682 8.48588 11.0603 8.43306 10.9572C8.32736 10.7508 8.18371 10.5117 8.04388 10.2813C8.027 10.2535 8.01013 10.2258 7.99331 10.1981C7.86678 9.98991 7.74328 9.78671 7.63758 9.5973C7.5139 9.37569 7.43616 9.2102 7.40511 9.10496ZM13.3427 13.3915C14.0622 13.8324 14.8278 14.1941 15.6262 14.47L15.6262 14.47L15.6314 14.4717C16.0121 14.5987 16.2882 14.6939 16.5006 14.7894C16.7104 14.8836 16.8189 14.9616 16.8844 15.0337L17.3175 15.5098L17.6718 14.9725C18.5766 13.6 19.0905 12.007 19.1584 10.3646C19.2263 8.72208 18.8457 7.09212 18.0573 5.64962C17.2689 4.20713 16.1026 3.00657 14.6835 2.17681C13.2644 1.34705 11.6461 0.919423 10.0024 0.939828C8.35862 0.960233 6.75145 1.4279 5.35339 2.29263C3.95533 3.15736 2.81915 4.3865 2.06682 5.84813C1.31449 7.30975 0.974414 8.94866 1.08309 10.5889C1.19176 12.2292 1.74509 13.8089 2.68367 15.1585L3.05203 14.9024L3.39838 15.27L3.40652 15.2635L3.73695 14.9991C3.88581 14.916 4.0769 14.8402 4.32983 14.7538C4.40128 14.7293 4.47692 14.7043 4.55625 14.678C4.94866 14.5481 5.43144 14.3882 5.94448 14.1273C6.26009 13.9675 6.56879 13.7945 6.86979 13.6088C8.05146 15.1252 8.8648 16.67 8.56659 18.4015L8.47762 18.9181L8.99782 18.9825C9.36584 19.0282 9.73631 19.0512 10.1071 19.0514H10.1075H10.108H10.1086H10.1091H10.1096H10.1101H10.1107H10.1112H10.1117H10.1122H10.1128H10.1133H10.1138H10.1143H10.1148H10.1154H10.1159H10.1164H10.1169H10.1175H10.118H10.1185H10.119H10.1196H10.1201H10.1206H10.1211H10.1217H10.1222H10.1227H10.1232H10.1238H10.1243H10.1248H10.1253H10.1258H10.1264H10.1269H10.1274H10.1279H10.1285H10.129H10.1295H10.13H10.1306H10.1311H10.1316H10.1321H10.1326H10.1332H10.1337H10.1342H10.1347H10.1353H10.1358H10.1363H10.1368H10.1374H10.1379H10.1384H10.1389H10.1394H10.14H10.1405H10.141H10.1415H10.1421H10.1426H10.1431H10.1436H10.1441H10.1447H10.1452H10.1457H10.1462H10.1468H10.1473H10.1478H10.1483H10.1488H10.1494H10.1499H10.1504H10.1509H10.1515H10.152H10.1525H10.153H10.1535H10.1541H10.1546H10.1551H10.1556H10.1561H10.1567H10.1572H10.1577H10.1582H10.1588H10.1593H10.1598H10.1603H10.1608H10.1614H10.1619H10.1624H10.1629H10.1634H10.164H10.1645H10.165H10.1655H10.1661H10.1666H10.1671H10.1676H10.1681H10.1687H10.1692H10.1697H10.1702H10.1707H10.1713H10.1718H10.1723H10.1728H10.1734H10.1739H10.1744H10.1749H10.1754H10.176H10.1765H10.177H10.1775H10.178H10.1786H10.1791H10.1796H10.1801H10.1806H10.1812H10.1817H10.1822H10.1827H10.1832H10.1838H10.1843H10.1848H10.1853H10.1859H10.1864H10.1869H10.1874H10.1879H10.1885H10.189H10.1895H10.19H10.1905H10.1911H10.1916H10.1921H10.1926H10.1931H10.1937H10.1942H10.1947H10.1952H10.1957H10.1963H10.1968H10.1973H10.1978H10.1983H10.1989H10.1994H10.1999H10.2004H10.2009H10.2015H10.202H10.2025H10.203H10.2035H10.2041H10.2046H10.2051H10.2056H10.2061H10.2067H10.2072H10.2077H10.2082H10.2087H10.2093H10.2098H10.2103H10.2108H10.2113H10.2119H10.2124H10.2129H10.2134H10.2139H10.2145H10.215H10.2155H10.216H10.2165H10.2171H10.2176H10.2181H10.2186H10.2191H10.2197H10.2202H10.2207H10.2212H10.2217H10.2223H10.2228H10.2233H10.2238H10.2243H10.2249H10.2254H10.2259H10.2264H10.2269H10.2275H10.228H10.2285H10.229H10.2295H10.2301H10.2306H10.2311H10.2316H10.2321H10.2327H10.2332H10.2337H10.2342H10.2347H10.2353H10.2358H10.2363H10.2368H10.2373H10.2379H10.2384H10.2389H10.2394H10.2399H10.2405H10.241H10.2415H10.242H10.2425H10.2431H10.2436H10.2441H10.2446H10.2451H10.2457H10.2462H10.2467H10.2472H10.2477H10.2482H10.2488H10.2493H10.2498H10.2503H10.2508H10.2514H10.2519H10.2524H10.2529H10.2534H10.254H10.2545H10.255H10.2555H10.256H10.2566H10.2571H10.2576H10.2581H10.2586H10.2592H10.2597H10.2602H10.2607H10.2612H10.2618H10.2623H10.2628H10.2633H10.2638H10.2644H10.2649H10.2654H10.2659H10.2664H10.267H10.2675H10.268H10.2685H10.269H10.2696H10.2701H10.2706H10.2711H10.2716H10.2722H10.2727H10.2732H10.2737H10.2742H10.2748H10.2753H10.2758H10.2763H10.2768H10.2774H10.2779H10.2784H10.2789H10.2794H10.28H10.2805H10.281H10.2815H10.282H10.2826H10.2831H10.2836H10.2841H10.2846H10.2852H10.2857H10.2862H10.2867H10.2872H10.2878H10.2883H10.2888H10.2893H10.2899H10.2904H10.2909H10.2914H10.2919H10.2925H10.293H10.2935H10.294H10.2945H10.2951H10.2956H10.2961H10.2966H10.2971H10.2977H10.2982H10.2987H10.2992H10.2997H10.3003H10.3008H10.3013H10.3018H10.3023H10.3029H10.3034H10.3039H10.3044H10.3049H10.3055H10.306H10.3065H10.307H10.3076H10.3081H10.3086H10.3091H10.3096H10.3102H10.3107H10.3112H10.3117H10.3122H10.3128H10.3133H10.3138H10.3143H10.3148H10.3154H10.3159H10.3164H10.3169H10.3175H10.318H10.3185H10.319H10.3195H10.3201H10.3206H10.3211H10.3216H10.3221H10.3227H10.3232H10.3237H10.3242H10.3248H10.3253H10.3258H10.3263H10.3268H10.3274H10.3279H10.3284H10.3289H10.3294H10.33H10.3305H10.331H10.3315H10.3321H10.3326H10.3331H10.3336H10.3341H10.3347H10.3352H10.3357H10.3362H10.3368H10.3373H10.3378H10.3383H10.3388H10.3394H10.3399H10.3404H10.3409H10.3415H10.342H10.3425H10.343H10.3435H10.3441H10.3446H10.3451H10.3456H10.3462H10.3467H10.3472H10.3477H10.3483H10.3488H10.3493H10.3498H10.3503H10.3509H10.3514H10.3519H10.3524H10.353H10.3535H10.354H10.3545H10.3551H10.3556H10.3561H10.3566H10.3571H10.3577H10.3582H10.3587H10.3592H10.3598H10.3603H10.3608H10.3613H10.3619H10.3624H10.3629H10.3634H10.364H10.3645H10.365H10.3655H10.366H10.3666H10.3671H10.3676H10.3681H10.3687H10.3692H10.3697H10.3702H10.3708H10.3713H10.3718H10.3723H10.3729H10.3734H10.3739H10.3744H10.8912L10.8742 18.5349C10.8048 16.4347 11.9475 14.8364 13.3427 13.3915Z" fill="#F2A602" stroke="white"/>
</svg>
