<svg width="108" height="68" viewBox="0 0 108 68" fill="none" xmlns="http://www.w3.org/2000/svg">
<path d="M105.748 31.392C104.63 30.06 103.106 29.1943 101.358 28.8707L100.537 17.7289C101.347 17.7212 102.038 17.1379 102.179 16.3386L102.495 14.5432C102.835 12.6187 102.361 10.719 101.197 9.33132C100.033 7.94515 98.3305 7.18152 96.4011 7.18152H84.0441L84.6456 3.7707C84.8163 2.80194 84.569 1.83464 83.9672 1.11741C83.3713 0.407325 82.4754 0 81.5092 0H20.6823C18.8836 0 17.2278 1.39939 16.9127 3.18637L11.5312 33.7078C11.3699 34.6233 11.9811 35.4963 12.8965 35.6575C12.9952 35.675 13.0935 35.6834 13.1907 35.6834C13.9921 35.6834 14.7024 35.1087 14.8462 34.2922L20.228 3.7707C20.2635 3.56976 20.5221 3.3661 20.6821 3.3661L81.2984 3.36631L75.9484 33.7078C75.7869 34.6233 76.3981 35.4963 77.3138 35.6575C78.2281 35.8186 79.1022 35.2076 79.2635 34.2922L79.6515 32.092H99.7796C99.7803 32.092 99.7811 32.092 99.7819 32.092C99.7828 32.092 99.7836 32.092 99.7842 32.092C101.175 32.0922 102.377 32.6118 103.169 33.5552C103.714 34.2046 104.032 35.013 104.108 35.9072H98.5173C97.7004 35.9072 97.0016 36.4936 96.8597 37.2982L96.2267 40.8889C95.9715 42.3356 96.3318 43.769 97.2149 44.8215C98.0859 45.8598 99.408 46.455 100.842 46.455H102.427L101.121 53.861H96.6768C96.3843 52.3797 95.7442 51.0173 94.7739 49.8614C93.0525 47.8095 90.5191 46.6797 87.6411 46.6797C83.0264 46.6797 78.5742 49.6989 76.4899 53.8612H75.8132L77.9974 41.4737C78.1586 40.5583 77.5476 39.6852 76.632 39.524C75.717 39.3623 74.8436 39.9737 74.6823 40.8894L72.395 53.8614H41.2363C40.9438 52.3801 40.3036 51.0179 39.3334 49.8619C37.6117 47.8099 35.0785 46.6801 32.2004 46.6801C27.5857 46.6801 23.1334 49.6993 21.0491 53.8616L11.3955 53.8614L12.0682 50.0464H19.6329C20.5624 50.0464 21.3162 49.2929 21.3162 48.3631C21.3162 47.4336 20.5627 46.6799 19.6329 46.6799H1.67935C0.749855 46.6799 -0.00390625 47.4334 -0.00390625 48.3631C-0.00390625 49.2926 0.749645 50.0464 1.67935 50.0464H8.65028L8.04874 53.4572C7.87804 54.426 8.12538 55.3933 8.72713 56.1105C9.323 56.8206 10.2189 57.2279 11.1851 57.2279H19.9561C19.4998 60.0832 20.1856 62.773 21.902 64.8182C23.6237 66.8702 26.1569 68 29.035 68C34.7636 68 40.2442 63.3491 41.2523 57.6321C41.276 57.4967 41.2947 57.3621 41.3136 57.2277H75.3968C74.9403 60.0828 75.6261 62.7726 77.3427 64.818C79.0644 66.87 81.5976 67.9998 84.4757 67.9998C90.2043 67.9998 95.685 63.3489 96.693 57.6319C96.7167 57.4965 96.7354 57.3619 96.7543 57.2275H102.533C103.35 57.2275 104.049 56.6411 104.191 55.8365L107.357 37.8827C107.786 35.4457 107.215 33.1405 105.748 31.392ZM80.2454 28.7263L82.1844 17.7296H97.1622L97.9725 28.7263H80.2454ZM99.18 13.9589L99.1086 14.3633H82.7778L83.4505 10.548H96.4011C97.318 10.548 98.1054 10.8844 98.6177 11.4952C99.1489 12.128 99.3488 13.0027 99.18 13.9589ZM37.9372 57.048C37.1998 61.2311 33.2061 64.6339 29.035 64.6339C27.1693 64.6339 25.5518 63.9309 24.4807 62.6548C23.3789 61.3415 22.9589 59.5581 23.2985 57.6327C24.036 53.4497 28.0295 50.0468 32.2006 50.0468C34.0663 50.0468 35.6839 50.7498 36.7549 52.0261C37.8568 53.339 38.2767 55.1226 37.9372 57.048ZM93.3777 57.048C92.6401 61.2311 88.6466 64.6339 84.4755 64.6339C82.6098 64.6339 80.9923 63.931 79.9213 62.6546C78.8194 61.3413 78.3995 59.5579 78.739 57.6325C79.4763 53.4495 83.47 50.0466 87.6411 50.0466C89.5066 50.0466 91.1244 50.7496 92.1954 52.0259C93.2973 53.339 93.7172 55.1226 93.3777 57.048ZM103.02 43.0895H100.842V43.0893C100.393 43.0893 100.03 42.9403 99.7937 42.6585C99.5482 42.3658 99.4586 41.9453 99.5417 41.4743L99.9297 39.2745H103.693L103.02 43.0895Z" fill="#233F8C"/>
<path d="M33.3901 54.9778C32.7942 54.2677 31.8983 53.8604 30.9319 53.8604C29.1331 53.8604 27.4774 55.2598 27.1622 57.0467C26.9915 58.0155 27.2388 58.9828 27.8406 59.7C28.4365 60.4101 29.3324 60.8174 30.2986 60.8174C32.0973 60.8174 33.7531 59.4178 34.0683 57.6313C34.2392 56.6623 33.992 55.6952 33.3901 54.9778Z" fill="#F2A602"/>
<path d="M88.8292 54.9768C88.2331 54.2667 87.3372 53.8594 86.3711 53.8594C84.5724 53.8594 82.9166 55.2588 82.6017 57.0455C82.431 58.0145 82.6779 58.9816 83.2799 59.699C83.8758 60.4091 84.7717 60.8164 85.7379 60.8164C87.5366 60.8164 89.1924 59.4168 89.5076 57.6303C89.6785 56.6613 89.4311 55.6942 88.8292 54.9768Z" fill="#F2A602"/>
<path d="M67.8926 46.6807H46.5641C45.6346 46.6807 44.8809 47.4342 44.8809 48.3639C44.8809 49.2934 45.6344 50.0472 46.5641 50.0472H67.8926C68.8221 50.0472 69.5759 49.2936 69.5759 48.3639C69.5757 47.4342 68.8221 46.6807 67.8926 46.6807Z" fill="#F2A602"/>
<path d="M37.5813 39.4971H6.53092C5.60142 39.4971 4.84766 40.2506 4.84766 41.1803C4.84766 42.1098 5.601 42.8636 6.53092 42.8636H37.5813C38.5108 42.8636 39.2645 42.11 39.2645 41.1803C39.2645 40.2506 38.511 39.4971 37.5813 39.4971Z" fill="#F2A602"/>
<path d="M69.5806 32.7265L63.3489 27.3403C62.6456 26.7327 61.5827 26.8098 60.9747 27.5131C60.3666 28.2165 60.4441 29.2793 61.1475 29.8874L63.9585 32.3171H21.279C20.3495 32.3171 19.5957 33.0706 19.5957 34.0003C19.5957 34.9298 20.3493 35.6836 21.279 35.6836H62.891L59.4193 37.9835C58.6441 38.4966 58.4323 39.5412 58.9456 40.3162C59.2694 40.8052 59.8048 41.0699 60.3503 41.0699C60.6694 41.0699 60.9923 40.9792 61.2783 40.7896L69.4095 35.4035C69.8487 35.1129 70.1261 34.6334 70.1597 34.1076C70.1933 33.5817 69.9791 33.0706 69.5806 32.7265Z" fill="#F2A602"/>
</svg>
