<svg width="16" height="15" viewBox="0 0 16 15" fill="none" xmlns="http://www.w3.org/2000/svg">
<path fill-rule="evenodd" clip-rule="evenodd" d="M2.2832 7.49961C2.2832 4.66461 4.4932 1.84961 7.9332 1.84961C10.7112 1.84961 12.0852 3.90561 12.6702 4.99961H10.9332C10.8006 4.99961 10.6734 5.05229 10.5796 5.14606C10.4859 5.23982 10.4332 5.367 10.4332 5.49961C10.4332 5.63222 10.4859 5.75939 10.5796 5.85316C10.6734 5.94693 10.8006 5.99961 10.9332 5.99961H13.9332C14.0658 5.99961 14.193 5.94693 14.2868 5.85316C14.3805 5.75939 14.4332 5.63222 14.4332 5.49961V2.49961C14.4332 2.367 14.3805 2.23982 14.2868 2.14606C14.193 2.05229 14.0658 1.99961 13.9332 1.99961C13.8006 1.99961 13.6734 2.05229 13.5796 2.14606C13.4859 2.23982 13.4332 2.367 13.4332 2.49961V4.31261C12.7292 3.07061 11.0992 0.849609 7.9332 0.849609C3.8702 0.849609 1.2832 4.18461 1.2832 7.49961C1.2832 10.8146 3.8702 14.1496 7.9332 14.1496C9.8772 14.1496 11.4952 13.3796 12.6472 12.2076C13.2585 11.5841 13.7434 10.8483 14.0752 10.0406C14.1002 9.97987 14.1129 9.91482 14.1127 9.84916C14.1125 9.78349 14.0994 9.71851 14.0741 9.65792C14.0488 9.59733 14.0118 9.54232 13.9652 9.49602C13.9187 9.44973 13.8634 9.41306 13.8027 9.38811C13.742 9.36316 13.6769 9.35041 13.6112 9.35061C13.5456 9.3508 13.4806 9.36392 13.42 9.38922C13.3594 9.41453 13.3044 9.45152 13.2581 9.49808C13.2118 9.54465 13.1752 9.59987 13.1502 9.66061C12.8676 10.3486 12.4547 10.9754 11.9342 11.5066C10.9632 12.4966 9.5982 13.1496 7.9332 13.1496C4.4932 13.1496 2.2832 10.3346 2.2832 7.49961Z" fill="#F2A602" stroke="#F2A602" stroke-width="0.5"/>
</svg>
