<svg width="61" height="60" viewBox="0 0 61 60" fill="none" xmlns="http://www.w3.org/2000/svg">
<path d="M29.3251 7.27938L29.325 7.27939C17.7986 7.85127 8.40502 17.1958 7.77116 28.719L6.52318 28.6503L7.77116 28.719C7.49685 33.7055 8.8344 38.3562 11.3003 42.2194L11.6229 42.7248L11.4307 43.2927L8.49732 51.9583L29.3251 7.27938ZM29.3251 7.27938C42.8066 6.60986 53.8758 17.6795 53.2074 31.1618C52.6355 42.6882 43.291 52.0817 31.7678 52.7156C26.7813 52.9899 22.1306 51.6524 18.2674 49.1865L17.762 48.8639L17.1941 49.0561L8.52826 51.9895L8.52759 51.9897M29.3251 7.27938L8.52759 51.9897M8.52759 51.9897C8.52164 51.9918 8.51766 51.9926 8.51544 51.993M8.52759 51.9897L8.51544 51.993M8.51544 51.993C8.5132 51.9919 8.50868 51.9893 8.50328 51.9839C8.49756 51.9782 8.49494 51.9734 8.49392 51.9712C8.49425 51.9691 8.4951 51.9649 8.49725 51.9585L8.51544 51.993Z" fill="url(#paint0_linear_792_15057)" stroke="#233F8C" stroke-width="2.5"/>
<path d="M33.1467 42.9H27.8247C27.7014 42.9 27.5793 42.8757 27.4654 42.8285C27.3515 42.7813 27.248 42.7122 27.1608 42.625C27.0736 42.5378 27.0044 42.4343 26.9572 42.3203C26.91 42.2064 26.8857 42.0843 26.8857 41.961V29.439C26.8857 28.9206 27.3063 28.5 27.8247 28.5H33.1467C33.6651 28.5 34.0857 28.9206 34.0857 29.439V41.961C34.0857 42.4794 33.6651 42.9 33.1467 42.9Z" fill="#233F8C"/>
<path d="M30.4857 16.7998C29.3321 16.7998 28.2256 17.2581 27.4098 18.0739C26.594 18.8897 26.1357 19.9961 26.1357 21.1498C26.1357 22.3035 26.594 23.4099 27.4098 24.2257C28.2256 25.0415 29.3321 25.4998 30.4857 25.4998C31.6394 25.4998 32.7459 25.0415 33.5617 24.2257C34.3774 23.4099 34.8357 22.3035 34.8357 21.1498C34.8357 19.9961 34.3774 18.8897 33.5617 18.0739C32.7459 17.2581 31.6394 16.7998 30.4857 16.7998Z" fill="#233F8C"/>
<path opacity="0.1" d="M47.0692 12.6616C47.0758 13.0234 47.0932 13.3822 47.0932 13.7464C47.0932 30.1402 40.3018 44.7088 29.7742 53.9878C30.4552 54.0076 31.1422 54.001 31.8364 53.9626C43.9984 53.2936 53.8522 43.3882 54.4558 31.2226C54.8176 23.9182 51.9076 17.2906 47.0692 12.6616Z" fill="black"/>
<path d="M12.8914 24.4126C12.7749 24.7663 12.6665 25.1226 12.5662 25.4812" stroke="white" stroke-width="3" stroke-miterlimit="10" stroke-linecap="round" stroke-linejoin="round"/>
<path d="M19.8279 14.75C17.6343 16.3094 15.8559 18.296 14.5137 20.6948" stroke="white" stroke-width="3" stroke-miterlimit="10" stroke-linecap="round" stroke-linejoin="round"/>
<defs>
<linearGradient id="paint0_linear_792_15057" x1="14.1844" y1="18.8559" x2="41.4844" y2="47.6559" gradientUnits="userSpaceOnUse">
<stop stop-color="#FFCC5C"/>
<stop offset="1" stop-color="#F2A602"/>
</linearGradient>
</defs>
</svg>
