<svg width="17" height="17" viewBox="0 0 17 17" fill="none" xmlns="http://www.w3.org/2000/svg">
<rect x="0.894531" y="1.29102" width="15" height="15" rx="7.5" fill="white"/>
<rect x="0.894531" y="1.29102" width="15" height="15" rx="7.5" stroke="#FF543E"/>
<path d="M11.9515 6.25048L9.41096 8.79101L11.9515 11.3315C12.0862 11.4663 12.162 11.6491 12.162 11.8397C12.162 12.0302 12.0862 12.213 11.9515 12.3478C11.8167 12.4825 11.634 12.5582 11.4434 12.5582C11.2528 12.5582 11.07 12.4825 10.9353 12.3478L8.39474 9.80723L5.85421 12.3478C5.71945 12.4825 5.53668 12.5582 5.3461 12.5582C5.15553 12.5582 4.97275 12.4825 4.838 12.3478C4.70324 12.213 4.62753 12.0302 4.62753 11.8397C4.62753 11.6491 4.70324 11.4663 4.838 11.3315L7.37853 8.79101L4.838 6.25048C4.70324 6.11572 4.62753 5.93295 4.62753 5.74237C4.62753 5.5518 4.70324 5.36903 4.838 5.23427C4.97276 5.09951 5.15553 5.0238 5.3461 5.0238C5.53668 5.0238 5.71945 5.09951 5.85421 5.23427L8.39474 7.7748L10.9353 5.23427C11.07 5.09951 11.2528 5.0238 11.4434 5.0238C11.634 5.0238 11.8167 5.09951 11.9515 5.23427C12.0862 5.36903 12.162 5.5518 12.162 5.74237C12.162 5.93295 12.0862 6.11572 11.9515 6.25048Z" fill="#FF543E"/>
</svg>
