<svg width="17" height="17" viewBox="0 0 17 17" fill="none" xmlns="http://www.w3.org/2000/svg">
<g clip-path="url(#clip0_792_11507)">
<path d="M9.84797 12.1971L6.48908 10.3653C6.05056 10.8341 5.48116 11.1602 4.85489 11.3011C4.22862 11.4421 3.57444 11.3914 2.97735 11.1557C2.38026 10.9199 1.86788 10.51 1.5068 9.97929C1.14572 9.44853 0.952637 8.82144 0.952637 8.1795C0.952637 7.53757 1.14572 6.91047 1.5068 6.37972C1.86788 5.84896 2.38026 5.43908 2.97735 5.20335C3.57444 4.96762 4.22862 4.91694 4.85489 5.05789C5.48116 5.19884 6.05056 5.5249 6.48908 5.99371L9.84877 4.16188C9.65831 3.40672 9.74981 2.60802 10.1061 1.9155C10.4624 1.22299 11.0591 0.684194 11.7842 0.400126C12.5094 0.116059 13.3132 0.10622 14.0451 0.372455C14.777 0.638689 15.3867 1.16272 15.7598 1.84631C16.133 2.5299 16.244 3.32612 16.0721 4.08571C15.9002 4.8453 15.4571 5.51612 14.826 5.97241C14.1948 6.4287 13.4189 6.63913 12.6437 6.56427C11.8685 6.48941 11.1473 6.13438 10.6151 5.56575L7.25541 7.39758C7.38436 7.91062 7.38436 8.44759 7.25541 8.96063L10.6151 10.7925C11.1475 10.2241 11.869 9.86944 12.6442 9.79496C13.4194 9.72047 14.1952 9.93127 14.8261 10.3878C15.457 10.8444 15.8997 11.5154 16.0713 12.2751C16.2429 13.0347 16.1315 13.8309 15.7581 14.5143C15.3846 15.1977 14.7747 15.7215 14.0428 15.9874C13.3108 16.2533 12.5069 16.2431 11.7819 15.9588C11.0569 15.6744 10.4605 15.1354 10.1045 14.4428C9.74842 13.7501 9.65723 12.9514 9.84797 12.1963V12.1971ZM4.1525 9.77895C4.57681 9.77895 4.98374 9.6104 5.28377 9.31037C5.5838 9.01034 5.75235 8.60341 5.75235 8.1791C5.75235 7.7548 5.5838 7.34787 5.28377 7.04784C4.98374 6.74781 4.57681 6.57925 4.1525 6.57925C3.7282 6.57925 3.32127 6.74781 3.02124 7.04784C2.72121 7.34787 2.55265 7.7548 2.55265 8.1791C2.55265 8.60341 2.72121 9.01034 3.02124 9.31037C3.32127 9.6104 3.7282 9.77895 4.1525 9.77895ZM12.9517 4.9794C13.376 4.9794 13.7829 4.81085 14.0829 4.51082C14.383 4.21079 14.5515 3.80386 14.5515 3.37955C14.5515 2.95525 14.383 2.54832 14.0829 2.24829C13.7829 1.94826 13.376 1.7797 12.9517 1.7797C12.5274 1.7797 12.1204 1.94826 11.8204 2.24829C11.5204 2.54832 11.3518 2.95525 11.3518 3.37955C11.3518 3.80386 11.5204 4.21079 11.8204 4.51082C12.1204 4.81085 12.5274 4.9794 12.9517 4.9794ZM12.9517 14.5785C13.376 14.5785 13.7829 14.4099 14.0829 14.1099C14.383 13.8099 14.5515 13.403 14.5515 12.9787C14.5515 12.5543 14.383 12.1474 14.0829 11.8474C13.7829 11.5474 13.376 11.3788 12.9517 11.3788C12.5274 11.3788 12.1204 11.5474 11.8204 11.8474C11.5204 12.1474 11.3518 12.5543 11.3518 12.9787C11.3518 13.403 11.5204 13.8099 11.8204 14.1099C12.1204 14.4099 12.5274 14.5785 12.9517 14.5785Z" fill="#F2A602"/>
</g>
<defs>
<clipPath id="clip0_792_11507">
<rect width="15.1984" height="16" fill="white" transform="translate(0.952637 0.179688)"/>
</clipPath>
</defs>
</svg>
