<svg width="16" height="9" viewBox="0 0 16 9" fill="none" xmlns="http://www.w3.org/2000/svg">
<path d="M14.9473 3.88377L11.9481 0.887479C11.7599 0.699407 11.5046 0.59375 11.2383 0.59375C10.9721 0.59375 10.7168 0.699407 10.5285 0.887479C10.3403 1.07555 10.2345 1.33063 10.2345 1.5966C10.2345 1.86257 10.3403 2.11765 10.5285 2.30573L11.8282 3.59413H1.04268C0.777539 3.59413 0.523259 3.69936 0.335777 3.88666C0.148295 4.07397 0.0429688 4.32801 0.0429688 4.5929C0.0429688 4.85779 0.148295 5.11183 0.335777 5.29913C0.523259 5.48644 0.777539 5.59166 1.04268 5.59166H11.8282L10.5285 6.88007C10.4348 6.97292 10.3605 7.08338 10.3097 7.20509C10.259 7.3268 10.2328 7.45735 10.2328 7.58919C10.2328 7.72104 10.259 7.85159 10.3097 7.9733C10.3605 8.09501 10.4348 8.20547 10.5285 8.29832C10.6215 8.39193 10.732 8.46623 10.8539 8.51694C10.9757 8.56765 11.1064 8.59375 11.2383 8.59375C11.3703 8.59375 11.501 8.56765 11.6228 8.51694C11.7446 8.46623 11.8552 8.39193 11.9481 8.29832L14.9473 5.30202C15.041 5.20917 15.1153 5.09871 15.1661 4.977C15.2168 4.85529 15.243 4.72475 15.243 4.5929C15.243 4.46105 15.2168 4.33051 15.1661 4.2088C15.1153 4.08709 15.041 3.97662 14.9473 3.88377Z" fill="white"/>
</svg>
