<svg width="61" height="60" viewBox="0 0 61 60" fill="none" xmlns="http://www.w3.org/2000/svg">
<path d="M50.3534 46.5798L42.9334 39.2198C45.8136 35.6286 47.2084 31.0704 46.831 26.4824C46.4536 21.8944 44.3327 17.6254 40.9044 14.5531C37.4761 11.4808 33.001 9.83883 28.3993 9.96475C23.7975 10.0907 19.4188 11.9749 16.1637 15.2301C12.9085 18.4853 11.0243 22.8639 10.8983 27.4657C10.7724 32.0674 12.4144 36.5426 15.4867 39.9709C18.559 43.3992 22.828 45.5201 27.416 45.8974C32.004 46.2748 36.5622 44.88 40.1534 41.9998L47.5134 49.3598C47.6993 49.5473 47.9205 49.6961 48.1643 49.7976C48.408 49.8991 48.6694 49.9514 48.9334 49.9514C49.1974 49.9514 49.4588 49.8991 49.7026 49.7976C49.9463 49.6961 50.1675 49.5473 50.3534 49.3598C50.7139 48.9869 50.9154 48.4885 50.9154 47.9698C50.9154 47.4511 50.7139 46.9528 50.3534 46.5798ZM28.9334 41.9998C26.1645 41.9998 23.4577 41.1787 21.1554 39.6404C18.8531 38.1021 17.0587 35.9156 15.9991 33.3574C14.9395 30.7992 14.6622 27.9843 15.2024 25.2685C15.7426 22.5528 17.076 20.0583 19.0339 18.1003C20.9918 16.1424 23.4864 14.809 26.2021 14.2688C28.9179 13.7286 31.7328 14.0059 34.291 15.0655C36.8491 16.1251 39.0356 17.9195 40.574 20.2218C42.1123 22.5241 42.9334 25.2309 42.9334 27.9998C42.9334 31.7128 41.4584 35.2738 38.8329 37.8993C36.2074 40.5248 32.6464 41.9998 28.9334 41.9998Z" fill="#233F8C"/>
<path d="M28.7783 38.0977C34.3012 38.0977 38.7783 33.6205 38.7783 28.0977C38.7783 22.5748 34.3012 18.0977 28.7783 18.0977C23.2555 18.0977 18.7783 22.5748 18.7783 28.0977C18.7783 33.6205 23.2555 38.0977 28.7783 38.0977Z" fill="#E67817"/>
<path d="M28.7783 38.0977C34.3012 38.0977 38.7783 33.6205 38.7783 28.0977C38.7783 22.5748 34.3012 18.0977 28.7783 18.0977C23.2555 18.0977 18.7783 22.5748 18.7783 28.0977C18.7783 33.6205 23.2555 38.0977 28.7783 38.0977Z" fill="url(#paint0_radial_1155_5730)"/>
<defs>
<radialGradient id="paint0_radial_1155_5730" cx="0" cy="0" r="1" gradientUnits="userSpaceOnUse" gradientTransform="translate(36.954 30.8334) rotate(180) scale(13.0727 11.387)">
<stop offset="0.0376345" stop-color="#FFCC5C"/>
<stop offset="1" stop-color="#F2A602"/>
</radialGradient>
</defs>
</svg>
