<svg width="15" height="15" viewBox="0 0 15 15" fill="none" xmlns="http://www.w3.org/2000/svg">
<path fill-rule="evenodd" clip-rule="evenodd" d="M6.38654 0.5C5.3935 0.500085 4.41488 0.737646 3.53233 1.19286C2.64977 1.64808 1.88887 2.30775 1.31311 3.11685C0.737355 3.92594 0.363433 4.86099 0.222543 5.84398C0.0816532 6.82698 0.177881 7.82941 0.503199 8.76765C0.828517 9.70589 1.37349 10.5527 2.09265 11.2375C2.81182 11.9223 3.68431 12.4252 4.63735 12.7042C5.59039 12.9832 6.59633 13.0303 7.57125 12.8414C8.54617 12.6526 9.4618 12.2334 10.2417 11.6187L12.9174 14.2943C13.0556 14.4278 13.2406 14.5016 13.4327 14.5C13.6248 14.4983 13.8086 14.4213 13.9444 14.2854C14.0803 14.1496 14.1573 13.9658 14.159 13.7737C14.1607 13.5816 14.0868 13.3965 13.9534 13.2584L11.2777 10.5827C12.0016 9.66444 12.4523 8.56091 12.5782 7.39843C12.7042 6.23595 12.5004 5.06149 11.99 4.00946C11.4797 2.95743 10.6835 2.07033 9.69248 1.44968C8.70151 0.829038 7.55583 0.499922 6.38654 0.5ZM1.62432 6.72753C1.62432 5.46451 2.12605 4.25321 3.01914 3.36012C3.91223 2.46703 5.12352 1.9653 6.38654 1.9653C7.64956 1.9653 8.86085 2.46703 9.75394 3.36012C10.647 4.25321 11.1488 5.46451 11.1488 6.72753C11.1488 7.99055 10.647 9.20184 9.75394 10.0949C8.86085 10.988 7.64956 11.4898 6.38654 11.4898C5.12352 11.4898 3.91223 10.988 3.01914 10.0949C2.12605 9.20184 1.62432 7.99055 1.62432 6.72753Z" fill="#233F8C"/>
</svg>
