<svg width="25" height="25" viewBox="0 0 25 25" fill="none" xmlns="http://www.w3.org/2000/svg">
<path d="M22.3696 20.7948L18.6596 17.1148C20.0997 15.3192 20.7971 13.0401 20.6084 10.7461C20.4197 8.45209 19.3592 6.31757 17.6451 4.78143C15.9309 3.24529 13.6934 2.4243 11.3925 2.48726C9.09161 2.55022 6.90229 3.49235 5.27471 5.11993C3.64713 6.74751 2.705 8.93683 2.64204 11.2377C2.57908 13.5386 3.40008 15.7762 4.93622 17.4903C6.47235 19.2045 8.60687 20.2649 10.9009 20.4536C13.1949 20.6423 15.474 19.9449 17.2696 18.5048L20.9496 22.1848C21.0425 22.2785 21.1531 22.3529 21.275 22.4037C21.3969 22.4544 21.5276 22.4806 21.6596 22.4806C21.7916 22.4806 21.9223 22.4544 22.0441 22.4037C22.166 22.3529 22.2766 22.2785 22.3696 22.1848C22.5498 21.9983 22.6506 21.7491 22.6506 21.4898C22.6506 21.2304 22.5498 20.9813 22.3696 20.7948ZM11.6596 18.5048C10.2751 18.5048 8.92172 18.0942 7.77058 17.3251C6.61944 16.5559 5.72223 15.4627 5.19242 14.1836C4.6626 12.9045 4.52398 11.497 4.79408 10.1392C5.06417 8.78129 5.73086 7.53401 6.70983 6.55504C7.68879 5.57607 8.93607 4.90939 10.2939 4.63929C11.6518 4.36919 13.0593 4.50782 14.3384 5.03763C15.6174 5.56744 16.7107 6.46465 17.4799 7.6158C18.249 8.76694 18.6596 10.1203 18.6596 11.5048C18.6596 13.3613 17.9221 15.1418 16.6093 16.4545C15.2966 17.7673 13.5161 18.5048 11.6596 18.5048Z" fill="#233F8C"/>
<path d="M11.582 16.5537C14.3435 16.5537 16.582 14.3151 16.582 11.5537C16.582 8.79229 14.3435 6.55371 11.582 6.55371C8.82061 6.55371 6.58203 8.79229 6.58203 11.5537C6.58203 14.3151 8.82061 16.5537 11.582 16.5537Z" fill="#F2A602"/>
</svg>
