<svg width="25" height="24" viewBox="0 0 25 24" fill="none" xmlns="http://www.w3.org/2000/svg">
<path d="M14.1046 17.0232L9.90558 14.7332C9.35738 15.3193 8.64557 15.7269 7.86265 15.9031C7.07974 16.0793 6.26193 16.0159 5.5155 15.7212C4.76907 15.4266 4.12854 14.9142 3.67715 14.2506C3.22576 13.5871 2.98438 12.8032 2.98438 12.0007C2.98437 11.1982 3.22576 10.4143 3.67715 9.75076C4.12854 9.08725 4.76907 8.57486 5.5155 8.28017C6.26193 7.98548 7.07974 7.92211 7.86265 8.09832C8.64557 8.27452 9.35738 8.68214 9.90558 9.2682L14.1056 6.97821C13.8675 6.03417 13.9819 5.0357 14.4273 4.16997C14.8727 3.30424 15.6186 2.63069 16.5251 2.27557C17.4317 1.92046 18.4366 1.90816 19.3515 2.24098C20.2665 2.57381 21.0286 3.2289 21.4951 4.08347C21.9616 4.93804 22.1004 5.9334 21.8855 6.88299C21.6705 7.83257 21.1167 8.67116 20.3277 9.24158C19.5387 9.81199 18.5687 10.0751 17.5996 9.98147C16.6305 9.88789 15.7288 9.44406 15.0636 8.7332L10.8636 11.0232C11.0248 11.6646 11.0248 12.3358 10.8636 12.9772L15.0636 15.2672C15.7292 14.5567 16.6311 14.1133 17.6002 14.0202C18.5693 13.9271 19.5391 14.1906 20.3278 14.7614C21.1165 15.3322 21.67 16.171 21.8845 17.1207C22.099 18.0703 21.9597 19.0656 21.4929 19.9199C21.026 20.7743 20.2636 21.429 19.3486 21.7615C18.4335 22.0939 17.4286 22.0812 16.5222 21.7257C15.6159 21.3702 14.8703 20.6964 14.4252 19.8305C13.9801 18.9646 13.8661 17.9661 14.1046 17.0222V17.0232ZM6.98458 14.0002C7.51501 14.0002 8.02372 13.7895 8.39879 13.4144C8.77387 13.0393 8.98458 12.5306 8.98458 12.0002C8.98458 11.4698 8.77387 10.9611 8.39879 10.586C8.02372 10.2109 7.51501 10.0002 6.98458 10.0002C6.45415 10.0002 5.94544 10.2109 5.57037 10.586C5.19529 10.9611 4.98458 11.4698 4.98458 12.0002C4.98458 12.5306 5.19529 13.0393 5.57037 13.4144C5.94544 13.7895 6.45415 14.0002 6.98458 14.0002ZM17.9846 8.00021C18.515 8.00021 19.0237 7.78949 19.3988 7.41442C19.7739 7.03935 19.9846 6.53064 19.9846 6.00021C19.9846 5.46977 19.7739 4.96107 19.3988 4.58599C19.0237 4.21092 18.515 4.00021 17.9846 4.00021C17.4541 4.00021 16.9454 4.21092 16.5704 4.58599C16.1953 4.96107 15.9846 5.46977 15.9846 6.00021C15.9846 6.53064 16.1953 7.03935 16.5704 7.41442C16.9454 7.78949 17.4541 8.00021 17.9846 8.00021ZM17.9846 20.0002C18.515 20.0002 19.0237 19.7895 19.3988 19.4144C19.7739 19.0393 19.9846 18.5306 19.9846 18.0002C19.9846 17.4698 19.7739 16.9611 19.3988 16.586C19.0237 16.2109 18.515 16.0002 17.9846 16.0002C17.4541 16.0002 16.9454 16.2109 16.5704 16.586C16.1953 16.9611 15.9846 17.4698 15.9846 18.0002C15.9846 18.5306 16.1953 19.0393 16.5704 19.4144C16.9454 19.7895 17.4541 20.0002 17.9846 20.0002Z" fill="#F2A602"/>
</svg>
