<svg width="61" height="55" viewBox="0 0 61 55" fill="none" xmlns="http://www.w3.org/2000/svg">
<path d="M42.127 17.3472H57.3443C59.0697 17.3472 60.4865 18.596 60.4865 20.1169V22.7703C60.4865 24.2934 59.0702 25.54 57.3443 25.54H56.6935C58.6039 27.7962 60.3038 29.9015 60.2591 32.9834C60.2591 39.1087 60.2625 44.3434 60.2625 50.469C60.2625 53.0883 59.048 53.9999 55.9487 53.9999H43.4814C41.0709 53.9999 39.2335 53.504 39.2335 51.0097V33.6577C38.9849 30.1698 40.6663 28.0389 42.7643 25.54H42.127C40.3971 25.54 38.9849 24.2953 38.9849 22.7703V20.1169C38.9849 18.5936 40.3991 17.3472 42.127 17.3472Z" stroke="#233F8C" stroke-width="0.5"/>
<path fill-rule="evenodd" clip-rule="evenodd" d="M40.7992 32.3773C41.1931 30.0392 42.9037 28.226 44.4737 26.3877H54.9757C56.5484 28.217 58.2935 30.0681 58.6744 32.3773H40.7992ZM58.675 49.8644C58.6806 50.6275 58.7766 51.6115 58.1209 52.1974C57.6877 52.503 57.117 52.6608 56.4185 52.682L42.9226 52.647C42.21 52.645 41.7036 52.4752 41.3747 52.195C40.7045 51.6235 40.7848 50.6178 40.7978 49.8644H58.675Z" fill="#233F8C"/>
<path fill-rule="evenodd" clip-rule="evenodd" d="M56.4579 41.2881C56.4579 37.7494 53.3622 34.8809 49.5435 34.8809C45.7246 34.8809 42.6289 37.7494 42.6289 41.2881C42.6289 44.8268 45.7246 47.6953 49.5435 47.6953C53.3622 47.6953 56.4579 44.8268 56.4579 41.2881ZM50.2981 38.0898H48.7892C48.5072 38.0898 48.277 38.2731 48.277 38.497V40.2822H46.0277C45.8919 40.2825 45.7617 40.3256 45.6656 40.4018C45.5696 40.4781 45.5154 40.5815 45.515 40.6894V41.8879C45.5154 41.9958 45.5696 42.0991 45.6656 42.1754C45.7617 42.2517 45.8919 42.2947 46.0277 42.295H48.2763V44.0808C48.2768 44.1887 48.3309 44.2921 48.427 44.3684C48.5231 44.4446 48.6533 44.4876 48.7892 44.4879H50.2981C50.434 44.4876 50.5642 44.4446 50.6602 44.3684C50.7563 44.2921 50.8104 44.1887 50.8108 44.0808V42.295H53.0601C53.196 42.2947 53.3262 42.2517 53.4223 42.1754C53.5183 42.0991 53.5725 41.9958 53.573 41.8879V40.6899C53.5726 40.582 53.5184 40.4786 53.4223 40.4024C53.3262 40.3261 53.196 40.2831 53.0601 40.2827H50.8108V38.497C50.8104 38.3891 50.7563 38.2857 50.6602 38.2094C50.5642 38.1331 50.434 38.0901 50.2981 38.0898Z" fill="#F2A602"/>
<path fill-rule="evenodd" clip-rule="evenodd" d="M50.1367 2.81445C50.1673 5.49935 52.2202 6.61347 52.2202 7.72751C52.2202 8.84172 51.5472 9.95576 49.4839 9.95576C47.4209 9.95576 46.75 8.84155 46.75 7.72751C46.75 7.30935 49.5709 3.21191 50.1367 2.81445Z" fill="#F2A602"/>
<path d="M45.0198 0.203858C44.734 -0.0679526 44.2703 -0.0679526 43.9843 0.203858L34.6261 9.10086C34.5346 9.18789 34.4659 9.13736 34.4325 9.1115C33.1295 8.10392 31.6147 7.57542 30.0068 7.57542C27.8717 7.57542 25.6794 8.49836 23.7952 10.1813C23.7703 10.1996 23.7459 10.2188 23.7232 10.2406C23.7111 10.2522 23.7002 10.2643 23.6892 10.2764C23.6285 10.3319 23.5682 10.3881 23.5082 10.4451L20.3426 13.4547L20.3414 13.4558L16.9611 16.6695L13.5805 19.8835L13.5787 19.8852L11.4583 21.901C11.4583 21.901 11.0539 22.2855 10.9191 22.4137C10.6401 22.679 10.4374 22.4034 10.4374 22.4034L10.0696 22.0536C9.60846 21.6152 8.99523 21.3737 8.34309 21.3737C7.69095 21.3737 7.07773 21.6152 6.6165 22.0536C5.66455 22.9586 5.66455 24.4313 6.6165 25.3363C6.6165 25.3363 10.3153 28.8526 11.5481 30.025C11.6953 30.165 11.5252 30.2897 11.5252 30.2897L6.07891 35.4675C6.07891 35.4675 5.92848 35.5732 5.79772 35.4489C5.3481 35.0215 3.99957 33.7393 3.99957 33.7393C3.61063 33.3695 3.09354 33.1659 2.54361 33.1659C1.99357 33.1659 1.47648 33.3695 1.08744 33.7393C0.284657 34.5027 0.284657 35.7446 1.08744 36.5079L6.8342 41.9713C7.22314 42.3411 7.74022 42.5447 8.29027 42.5447C8.84031 42.5447 9.35739 42.3411 9.74633 41.9713C10.5491 41.208 10.5491 39.966 9.74633 39.2028C9.74633 39.2028 8.39571 37.9188 7.94568 37.4909C7.79525 37.3479 7.92831 37.2256 7.92831 37.2256L13.4237 32.0013C13.4237 32.0013 13.523 31.9023 13.6374 32.0111C14.8742 33.187 18.5847 36.7145 18.5847 36.7145C19.0459 37.1529 19.6591 37.3944 20.3112 37.3944C20.9634 37.3944 21.5766 37.1529 22.0377 36.7145C22.9897 35.8094 22.9897 34.3368 22.0377 33.4318L21.5698 32.9871C21.5698 32.9871 21.4454 32.8271 21.5891 32.6905C21.7414 32.5457 22.1982 32.1115 22.1982 32.1115L34.248 20.6555C35.9448 19.0424 37.0008 17.1174 37.2217 15.2354C37.4352 13.4158 36.89 11.7126 35.6443 10.2641C35.6188 10.2345 35.5654 10.1773 35.6635 10.084L45.0201 1.18836C45.3057 0.916553 45.3057 0.475768 45.0198 0.203858ZM33.2122 19.6709C33.2122 19.6709 24.3622 28.0848 21.4121 30.8895C21.1375 31.1505 20.9411 30.9164 20.9411 30.9164L12.7249 23.105C12.7249 23.105 12.4909 22.8885 12.7655 22.6274C13.0223 22.3832 13.6756 21.7621 13.9609 21.491C14.1113 21.3481 14.2378 21.4946 14.2378 21.4946L18.029 25.099C18.172 25.235 18.3593 25.3029 18.5468 25.3029C18.7341 25.3029 18.9216 25.2349 19.0646 25.099C19.3505 24.8272 19.3505 24.3863 19.0646 24.1145C19.0646 24.1145 16.1808 21.3733 15.22 20.4593C15.1306 20.3744 15.2323 20.2821 15.2323 20.2821C15.2323 20.2821 16.8359 18.7576 17.3703 18.2494C17.4684 18.1561 17.5655 18.2292 17.5655 18.2292L19.7607 20.3163C19.9037 20.4523 20.0911 20.5202 20.2785 20.5202C20.4658 20.5202 20.6533 20.4522 20.7963 20.3163C21.0822 20.0445 21.0822 19.6036 20.7963 19.3318L18.5726 17.2178C18.5726 17.2178 18.5079 17.1679 18.5831 17.0963C19.1522 16.5553 20.2478 15.5136 20.8028 14.986C20.8649 14.9269 20.9087 14.9785 20.9087 14.9785L24.7912 18.6697C24.9342 18.8057 25.1216 18.8736 25.309 18.8736C25.4963 18.8736 25.6838 18.8056 25.8268 18.6697C26.1127 18.3979 26.1127 17.957 25.8268 17.6852L21.9571 14.0061C21.9571 14.0061 21.8963 13.9463 21.9666 13.8796C22.4666 13.4041 23.8463 12.0925 24.1716 11.7833C24.2566 11.7024 24.3044 11.7778 24.3044 11.7778L26.5231 13.887C26.6661 14.023 26.8536 14.0909 27.0409 14.0909C27.2283 14.0909 27.4157 14.0229 27.5587 13.887C27.8446 13.6152 27.8446 13.1743 27.5587 12.9025L25.4202 10.8693C25.3123 10.7667 25.3913 10.7046 25.4311 10.6742C26.8811 9.5681 28.4733 8.96759 30.0067 8.96759C31.5099 8.96759 32.8657 9.5321 34.0367 10.6454C37.236 13.687 35.5921 17.4083 33.2122 19.6709Z" fill="#233F8C"/>
<rect x="39.4895" y="17.9492" width="20.2878" height="6.96745" rx="1.5" fill="#233F8C"/>
</svg>
