<svg width="95" height="94" viewBox="0 0 95 94" fill="none" xmlns="http://www.w3.org/2000/svg">
<path d="M35.0039 32.2852C35.0039 32.2852 38.084 33.1652 39.7139 34.2773C41.334 35.3827 42.98 37.7065 42.98 37.7065" stroke="#F2A602" stroke-width="2.5" stroke-linecap="round"/>
<path d="M61.373 32.2852C61.373 32.2852 58.293 33.1652 56.663 34.2773C55.043 35.3827 53.3969 37.7065 53.3969 37.7065" stroke="#F2A602" stroke-width="2.5" stroke-linecap="round"/>
<path d="M43.6543 27.3672C43.6543 27.3672 46.0066 29.3557 46.9397 30.9908C47.8671 32.616 48.2304 35.3498 48.2304 35.3498" stroke="#F2A602" stroke-width="2.5" stroke-linecap="round"/>
<path d="M52.8184 27.3672C52.8184 27.3672 50.4661 29.3557 49.533 30.9908C48.6055 32.616 48.2422 35.3498 48.2422 35.3498" stroke="#F2A602" stroke-width="2.5" stroke-linecap="round"/>
<path d="M28.8145 15.9643C35.1858 12.4213 42.4972 10.7904 49.8241 11.2778C57.1511 11.7652 64.1644 14.3492 69.9774 18.7028C75.7903 23.0564 80.1417 28.9842 82.4813 35.7366C84.8209 42.489 85.0436 49.7627 83.1213 56.6378" stroke="#233F8C" stroke-width="3.5"/>
<path d="M74.0894 71.6897C68.4368 77.8715 58.807 81.7492 49.7335 82.2209C40.66 82.6926 31.7271 79.8943 24.652 74.3641C17.5769 68.8338 12.8592 60.9619 11.4059 52.2618C9.95257 43.5618 11.8662 34.6477 16.7789 27.2334" stroke="#F2A602" stroke-width="3.5"/>
<mask id="path-7-outside-1_1157_6673" maskUnits="userSpaceOnUse" x="10.6095" y="10.0534" width="24.5711" height="23.0106" fill="black">
<rect fill="white" x="10.6095" y="10.0534" width="24.5711" height="23.0106"/>
<path d="M21.9257 18.6289C21.4833 18.7363 21.0681 18.9236 20.7036 19.1802C20.3391 19.4368 20.0325 19.7577 19.8014 20.1245C19.5703 20.4913 19.4191 20.8968 19.3565 21.3179C19.2939 21.739 19.3211 22.1675 19.4366 22.5788C19.5521 22.9902 19.7536 23.3763 20.0295 23.7153C20.3055 24.0542 20.6506 24.3393 21.045 24.5542C21.4394 24.7691 21.8755 24.9097 22.3284 24.9679C22.7813 25.0261 23.242 25.0008 23.6844 24.8935C24.5778 24.6766 25.3419 24.1386 25.8087 23.3979C26.2755 22.6571 26.4067 21.7743 26.1735 20.9435C25.9402 20.1128 25.3617 19.4022 24.5651 18.9681C23.7685 18.5341 22.819 18.412 21.9257 18.6289ZM20.5594 22.3063C20.4824 22.0321 20.4643 21.7464 20.506 21.4657C20.5477 21.1849 20.6485 20.9146 20.8026 20.67C20.9567 20.4255 21.1611 20.2116 21.4041 20.0405C21.647 19.8695 21.9239 19.7446 22.2188 19.673C22.5137 19.6014 22.8209 19.5845 23.1228 19.6233C23.4247 19.6621 23.7154 19.7559 23.9784 19.8992C24.2414 20.0424 24.4714 20.2325 24.6554 20.4584C24.8394 20.6844 24.9737 20.9418 25.0507 21.2161C25.2061 21.7699 25.1187 22.3585 24.8075 22.8523C24.4963 23.3461 23.9869 23.7048 23.3913 23.8494C22.7957 23.9939 22.1628 23.9126 21.6317 23.6232C21.1006 23.3338 20.7149 22.8601 20.5594 22.3063ZM30.2168 26.2037L28.775 25.9894C28.57 25.9597 28.3604 25.975 28.1629 26.034C27.9654 26.0931 27.7855 26.1942 27.6375 26.3294C27.3407 26.6022 27.2109 26.9884 27.2717 27.3729L27.4833 28.7193C27.5046 28.8546 27.4804 28.9927 27.414 29.1147C27.3477 29.2368 27.2424 29.3368 27.1127 29.4011C25.8638 30.0195 24.4761 30.3564 23.0616 30.3845C22.9146 30.3872 22.7704 30.3477 22.6485 30.2713C22.5267 30.195 22.4331 30.0856 22.3805 29.9579L21.858 28.6892C21.7841 28.5108 21.6662 28.3509 21.5137 28.2225C21.3613 28.0941 21.1787 28.0007 20.9804 27.9498C20.7824 27.8991 20.5744 27.8923 20.373 27.9301C20.1717 27.9678 19.9827 28.0491 19.8214 28.1672L18.6762 29.0095C18.5604 29.0947 18.4191 29.1443 18.2717 29.1514C18.1243 29.1586 17.9781 29.1229 17.8535 29.0494C16.662 28.3477 15.6571 27.404 14.9142 26.2893C14.8361 26.1721 14.7991 26.0353 14.8083 25.8977C14.8175 25.7601 14.8725 25.6286 14.9657 25.5214L15.8883 24.4587C16.0183 24.3098 16.1088 24.1344 16.1525 23.9468C16.1962 23.7593 16.1918 23.5648 16.1396 23.3791C16.0875 23.1935 15.9891 23.0218 15.8524 22.878C15.7158 22.7343 15.5446 22.6224 15.3528 22.5515L13.99 22.0459C13.8522 21.9947 13.735 21.9049 13.6545 21.7889C13.5741 21.6729 13.5345 21.5366 13.5412 21.3987C13.6045 20.0894 13.986 18.8105 14.657 17.658C14.7273 17.5373 14.8361 17.4399 14.9685 17.3792C15.1009 17.3186 15.2502 17.2977 15.3959 17.3195L16.8313 17.5339C17.0351 17.5627 17.2433 17.5468 17.4393 17.4874C17.6353 17.428 17.8136 17.3268 17.96 17.1918C18.1063 17.0569 18.2167 16.8919 18.2822 16.7102C18.3477 16.5285 18.3666 16.335 18.3372 16.1453L18.1275 14.7999C18.1059 14.6631 18.1309 14.5234 18.1989 14.4004C18.2668 14.2775 18.3744 14.1773 18.5065 14.1138C19.1277 13.8173 19.7803 13.5816 20.4698 13.4061C21.1469 13.2491 21.8397 13.159 22.5367 13.1356C22.6854 13.1307 22.8321 13.1693 22.9561 13.2459C23.0801 13.3224 23.1753 13.4331 23.2282 13.5625L23.7516 14.8317C23.8668 15.1134 24.0896 15.3457 24.3775 15.4841C24.6654 15.6225 24.9981 15.6572 25.3118 15.5816C25.4862 15.5393 25.6496 15.4632 25.7927 15.3579L26.9322 14.5184C27.0479 14.4332 27.1892 14.3835 27.3366 14.3762C27.4839 14.369 27.6301 14.4045 27.7548 14.4779C28.9458 15.1784 29.9507 16.1208 30.6938 17.2343C30.772 17.3514 30.8091 17.4882 30.8 17.6257C30.7909 17.7632 30.7361 17.8948 30.6431 18.002L29.7218 19.0636C29.4587 19.3654 29.3613 19.7675 29.467 20.144C29.5726 20.5199 29.8689 20.8264 30.258 20.9706L31.6203 21.4771C31.9026 21.5826 32.0826 21.8422 32.069 22.1243C32.006 23.4334 31.6251 24.7121 30.9547 25.8647C30.8846 25.9855 30.7759 26.083 30.6435 26.1438C30.5112 26.2046 30.3625 26.2254 30.2168 26.2037ZM26.1 27.0558C26.1326 26.4923 26.3893 25.9601 26.8202 25.5628C27.0978 25.3084 27.4357 25.1181 27.8067 25.0073C28.1778 24.8964 28.5716 24.8681 28.9566 24.9245L30.0779 25.091C30.5288 24.2383 30.8037 23.3146 30.8885 22.3678L29.8271 21.9734C29.466 21.84 29.1434 21.629 28.8858 21.3587C28.6281 21.0883 28.4423 20.7654 28.3433 20.4161C28.1426 19.7012 28.3284 18.9476 28.8182 18.3855L28.8195 18.3845L29.5367 17.5583C28.9648 16.771 28.2392 16.0905 27.3975 15.5519L26.5142 16.202L26.5129 16.2031C26.2442 16.4022 25.935 16.5456 25.6034 16.6261C25.0135 16.7684 24.3879 16.7035 23.8462 16.4438C23.3045 16.1841 22.8847 15.7478 22.6673 15.2184L22.6669 15.217L22.2595 14.2304C21.7546 14.2638 21.2536 14.3374 20.7622 14.4503C20.2678 14.5765 19.7859 14.7415 19.3215 14.9435L19.485 15.9901C19.5404 16.3472 19.505 16.7115 19.3815 17.0535C19.258 17.3956 19.05 17.706 18.7741 17.9597C18.4982 18.2135 18.1622 18.4035 17.793 18.5146C17.4238 18.6256 17.0317 18.6546 16.6483 18.5991L15.5333 18.4326C15.0821 19.285 14.8068 20.2085 14.7218 21.1553L15.7839 21.5495C16.1444 21.6832 16.4661 21.8937 16.723 22.1643C16.9799 22.4348 17.1648 22.7577 17.2628 23.1069C17.3609 23.4561 17.3693 23.8218 17.2874 24.1745C17.2055 24.5273 17.0355 24.8572 16.7913 25.1377L16.0721 25.9651C16.6437 26.7539 17.3695 27.436 18.2117 27.9758L19.1032 27.3208C19.4073 27.0977 19.7636 26.9442 20.1432 26.8727C20.5229 26.8012 20.9153 26.8137 21.2888 26.9092C21.6621 27.0047 22.0062 27.1804 22.2933 27.422C22.5804 27.6636 22.8025 27.9645 22.9418 28.3005L22.9428 28.304L23.3502 29.2936C24.3709 29.2354 25.3687 28.9932 26.2897 28.58L26.1243 27.5295C26.0993 27.372 26.0913 27.2126 26.1015 27.0554"/>
</mask>
<path d="M21.9257 18.6289C21.4833 18.7363 21.0681 18.9236 20.7036 19.1802C20.3391 19.4368 20.0325 19.7577 19.8014 20.1245C19.5703 20.4913 19.4191 20.8968 19.3565 21.3179C19.2939 21.739 19.3211 22.1675 19.4366 22.5788C19.5521 22.9902 19.7536 23.3763 20.0295 23.7153C20.3055 24.0542 20.6506 24.3393 21.045 24.5542C21.4394 24.7691 21.8755 24.9097 22.3284 24.9679C22.7813 25.0261 23.242 25.0008 23.6844 24.8935C24.5778 24.6766 25.3419 24.1386 25.8087 23.3979C26.2755 22.6571 26.4067 21.7743 26.1735 20.9435C25.9402 20.1128 25.3617 19.4022 24.5651 18.9681C23.7685 18.5341 22.819 18.412 21.9257 18.6289ZM20.5594 22.3063C20.4824 22.0321 20.4643 21.7464 20.506 21.4657C20.5477 21.1849 20.6485 20.9146 20.8026 20.67C20.9567 20.4255 21.1611 20.2116 21.4041 20.0405C21.647 19.8695 21.9239 19.7446 22.2188 19.673C22.5137 19.6014 22.8209 19.5845 23.1228 19.6233C23.4247 19.6621 23.7154 19.7559 23.9784 19.8992C24.2414 20.0424 24.4714 20.2325 24.6554 20.4584C24.8394 20.6844 24.9737 20.9418 25.0507 21.2161C25.2061 21.7699 25.1187 22.3585 24.8075 22.8523C24.4963 23.3461 23.9869 23.7048 23.3913 23.8494C22.7957 23.9939 22.1628 23.9126 21.6317 23.6232C21.1006 23.3338 20.7149 22.8601 20.5594 22.3063ZM30.2168 26.2037L28.775 25.9894C28.57 25.9597 28.3604 25.975 28.1629 26.034C27.9654 26.0931 27.7855 26.1942 27.6375 26.3294C27.3407 26.6022 27.2109 26.9884 27.2717 27.3729L27.4833 28.7193C27.5046 28.8546 27.4804 28.9927 27.414 29.1147C27.3477 29.2368 27.2424 29.3368 27.1127 29.4011C25.8638 30.0195 24.4761 30.3564 23.0616 30.3845C22.9146 30.3872 22.7704 30.3477 22.6485 30.2713C22.5267 30.195 22.4331 30.0856 22.3805 29.9579L21.858 28.6892C21.7841 28.5108 21.6662 28.3509 21.5137 28.2225C21.3613 28.0941 21.1787 28.0007 20.9804 27.9498C20.7824 27.8991 20.5744 27.8923 20.373 27.9301C20.1717 27.9678 19.9827 28.0491 19.8214 28.1672L18.6762 29.0095C18.5604 29.0947 18.4191 29.1443 18.2717 29.1514C18.1243 29.1586 17.9781 29.1229 17.8535 29.0494C16.662 28.3477 15.6571 27.404 14.9142 26.2893C14.8361 26.1721 14.7991 26.0353 14.8083 25.8977C14.8175 25.7601 14.8725 25.6286 14.9657 25.5214L15.8883 24.4587C16.0183 24.3098 16.1088 24.1344 16.1525 23.9468C16.1962 23.7593 16.1918 23.5648 16.1396 23.3791C16.0875 23.1935 15.9891 23.0218 15.8524 22.878C15.7158 22.7343 15.5446 22.6224 15.3528 22.5515L13.99 22.0459C13.8522 21.9947 13.735 21.9049 13.6545 21.7889C13.5741 21.6729 13.5345 21.5366 13.5412 21.3987C13.6045 20.0894 13.986 18.8105 14.657 17.658C14.7273 17.5373 14.8361 17.4399 14.9685 17.3792C15.1009 17.3186 15.2502 17.2977 15.3959 17.3195L16.8313 17.5339C17.0351 17.5627 17.2433 17.5468 17.4393 17.4874C17.6353 17.428 17.8136 17.3268 17.96 17.1918C18.1063 17.0569 18.2167 16.8919 18.2822 16.7102C18.3477 16.5285 18.3666 16.335 18.3372 16.1453L18.1275 14.7999C18.1059 14.6631 18.1309 14.5234 18.1989 14.4004C18.2668 14.2775 18.3744 14.1773 18.5065 14.1138C19.1277 13.8173 19.7803 13.5816 20.4698 13.4061C21.1469 13.2491 21.8397 13.159 22.5367 13.1356C22.6854 13.1307 22.8321 13.1693 22.9561 13.2459C23.0801 13.3224 23.1753 13.4331 23.2282 13.5625L23.7516 14.8317C23.8668 15.1134 24.0896 15.3457 24.3775 15.4841C24.6654 15.6225 24.9981 15.6572 25.3118 15.5816C25.4862 15.5393 25.6496 15.4632 25.7927 15.3579L26.9322 14.5184C27.0479 14.4332 27.1892 14.3835 27.3366 14.3762C27.4839 14.369 27.6301 14.4045 27.7548 14.4779C28.9458 15.1784 29.9507 16.1208 30.6938 17.2343C30.772 17.3514 30.8091 17.4882 30.8 17.6257C30.7909 17.7632 30.7361 17.8948 30.6431 18.002L29.7218 19.0636C29.4587 19.3654 29.3613 19.7675 29.467 20.144C29.5726 20.5199 29.8689 20.8264 30.258 20.9706L31.6203 21.4771C31.9026 21.5826 32.0826 21.8422 32.069 22.1243C32.006 23.4334 31.6251 24.7121 30.9547 25.8647C30.8846 25.9855 30.7759 26.083 30.6435 26.1438C30.5112 26.2046 30.3625 26.2254 30.2168 26.2037ZM26.1 27.0558C26.1326 26.4923 26.3893 25.9601 26.8202 25.5628C27.0978 25.3084 27.4357 25.1181 27.8067 25.0073C28.1778 24.8964 28.5716 24.8681 28.9566 24.9245L30.0779 25.091C30.5288 24.2383 30.8037 23.3146 30.8885 22.3678L29.8271 21.9734C29.466 21.84 29.1434 21.629 28.8858 21.3587C28.6281 21.0883 28.4423 20.7654 28.3433 20.4161C28.1426 19.7012 28.3284 18.9476 28.8182 18.3855L28.8195 18.3845L29.5367 17.5583C28.9648 16.771 28.2392 16.0905 27.3975 15.5519L26.5142 16.202L26.5129 16.2031C26.2442 16.4022 25.935 16.5456 25.6034 16.6261C25.0135 16.7684 24.3879 16.7035 23.8462 16.4438C23.3045 16.1841 22.8847 15.7478 22.6673 15.2184L22.6669 15.217L22.2595 14.2304C21.7546 14.2638 21.2536 14.3374 20.7622 14.4503C20.2678 14.5765 19.7859 14.7415 19.3215 14.9435L19.485 15.9901C19.5404 16.3472 19.505 16.7115 19.3815 17.0535C19.258 17.3956 19.05 17.706 18.7741 17.9597C18.4982 18.2135 18.1622 18.4035 17.793 18.5146C17.4238 18.6256 17.0317 18.6546 16.6483 18.5991L15.5333 18.4326C15.0821 19.285 14.8068 20.2085 14.7218 21.1553L15.7839 21.5495C16.1444 21.6832 16.4661 21.8937 16.723 22.1643C16.9799 22.4348 17.1648 22.7577 17.2628 23.1069C17.3609 23.4561 17.3693 23.8218 17.2874 24.1745C17.2055 24.5273 17.0355 24.8572 16.7913 25.1377L16.0721 25.9651C16.6437 26.7539 17.3695 27.436 18.2117 27.9758L19.1032 27.3208C19.4073 27.0977 19.7636 26.9442 20.1432 26.8727C20.5229 26.8012 20.9153 26.8137 21.2888 26.9092C21.6621 27.0047 22.0062 27.1804 22.2933 27.422C22.5804 27.6636 22.8025 27.9645 22.9418 28.3005L22.9428 28.304L23.3502 29.2936C24.3709 29.2354 25.3687 28.9932 26.2897 28.58L26.1243 27.5295C26.0993 27.372 26.0913 27.2126 26.1015 27.0554" fill="#233F8C"/>
<path d="M21.9257 18.6289L22.0608 19.1103L21.9257 18.6289ZM23.6844 24.8935L23.8195 25.3748L23.6844 24.8935ZM20.5594 22.3063L20.0735 22.4242L20.5594 22.3063ZM25.0507 21.2161L24.5648 21.334L25.0507 21.2161ZM30.2168 26.2037L30.2771 25.7137L30.277 25.7137L30.2168 26.2037ZM28.775 25.9894L28.8352 25.4994L28.8333 25.4991L28.775 25.9894ZM27.6375 26.3294L27.288 25.9616L27.287 25.9626L27.6375 26.3294ZM27.2717 27.3729L27.77 27.3121L27.77 27.3117L27.2717 27.3729ZM27.4833 28.7193L27.9817 28.6587L27.9817 28.6585L27.4833 28.7193ZM27.1127 29.4011L27.3506 29.8451L27.3508 29.845L27.1127 29.4011ZM23.0616 30.3845L23.0866 30.88L23.0874 30.88L23.0616 30.3845ZM22.3805 29.9579L22.8473 29.7844L22.8472 29.7844L22.3805 29.9579ZM21.858 28.6892L22.3247 28.5156L22.3243 28.5145L21.858 28.6892ZM20.9804 27.9498L21.0937 27.4705L21.0935 27.4705L20.9804 27.9498ZM19.8214 28.1672L19.512 27.7665L19.5112 27.7671L19.8214 28.1672ZM18.6762 29.0095L18.3661 28.6094L18.366 28.6095L18.6762 29.0095ZM17.8535 29.0494L18.103 28.6265L18.1028 28.6263L17.8535 29.0494ZM14.9142 26.2893L15.3335 26.0268L15.3335 26.0267L14.9142 26.2893ZM14.9657 25.5214L15.3535 25.8498L15.3536 25.8498L14.9657 25.5214ZM15.8883 24.4587L15.5012 24.1294L15.5004 24.1303L15.8883 24.4587ZM16.1396 23.3791L16.6255 23.2612L16.1396 23.3791ZM15.3528 22.5515L15.1876 23.0146L15.1883 23.0148L15.3528 22.5515ZM13.99 22.0459L13.8244 22.5088L13.8248 22.5089L13.99 22.0459ZM13.5412 21.3987L14.045 21.4376L14.045 21.4375L13.5412 21.3987ZM14.657 17.658L15.0967 17.914L15.0968 17.9139L14.657 17.658ZM15.3959 17.3195L15.3353 17.8094L15.3353 17.8094L15.3959 17.3195ZM16.8313 17.5339L16.7707 18.0238L16.7747 18.0244L16.8313 17.5339ZM18.3372 16.1453L18.8358 16.0858L18.8357 16.0851L18.3372 16.1453ZM18.1275 14.7999L18.6259 14.7397L18.6258 14.7392L18.1275 14.7999ZM18.5065 14.1138L18.2749 13.6667L18.274 13.6672L18.5065 14.1138ZM20.4698 13.4061L20.3397 12.9233L20.3292 12.926L20.4698 13.4061ZM22.5367 13.1356L22.5044 12.6402L22.5038 12.6402L22.5367 13.1356ZM23.2282 13.5625L22.7611 13.7351L22.7616 13.7363L23.2282 13.5625ZM23.7516 14.8317L24.2189 14.6594L24.2182 14.6579L23.7516 14.8317ZM25.3118 15.5816L25.4461 16.0632L25.447 16.063L25.3118 15.5816ZM25.7927 15.3579L26.103 15.7578L26.1031 15.7577L25.7927 15.3579ZM26.9322 14.5184L27.2427 14.9183L27.2427 14.9183L26.9322 14.5184ZM27.7548 14.4779L27.5057 14.901L27.5058 14.9011L27.7548 14.4779ZM30.6938 17.2343L30.2747 17.4971L30.2747 17.4971L30.6938 17.2343ZM30.6431 18.002L31.0311 18.3304L31.0313 18.3301L30.6431 18.002ZM29.7218 19.0636L30.1091 19.3927L30.1098 19.3919L29.7218 19.0636ZM30.258 20.9706L30.4235 20.5077L30.423 20.5075L30.258 20.9706ZM31.6203 21.4771L31.7866 21.0145L31.7858 21.0142L31.6203 21.4771ZM32.069 22.1243L32.5728 22.1631L32.5728 22.163L32.069 22.1243ZM30.9547 25.8647L30.515 25.6088L30.5148 25.6092L30.9547 25.8647ZM26.8202 25.5628L26.4702 25.1954L26.4691 25.1964L26.8202 25.5628ZM28.9566 24.9245L29.0167 24.4345L29.0157 24.4343L28.9566 24.9245ZM30.0779 25.091L30.0177 25.581L30.3669 25.6328L30.5269 25.3301L30.0779 25.091ZM30.8885 22.3678L31.3909 22.4264L31.4252 22.0428L31.0539 21.9048L30.8885 22.3678ZM29.8271 21.9734L29.9926 21.5104L29.9915 21.5101L29.8271 21.9734ZM28.3433 20.4161L27.8574 20.534L27.8577 20.5351L28.3433 20.4161ZM28.8182 18.3855L28.4895 17.9999L28.4577 18.0257L28.4309 18.0564L28.8182 18.3855ZM28.8195 18.3845L29.1483 18.7701L29.1804 18.744L29.2075 18.7128L28.8195 18.3845ZM29.5367 17.5583L29.9246 17.8867L30.1757 17.5975L29.9441 17.2788L29.5367 17.5583ZM27.3975 15.5519L27.6634 15.1391L27.3645 14.9479L27.0872 15.1519L27.3975 15.5519ZM26.5142 16.202L26.2039 15.802L26.1945 15.809L26.1853 15.8164L26.5142 16.202ZM26.5129 16.2031L26.8244 16.6022L26.8332 16.5957L26.8418 16.5887L26.5129 16.2031ZM25.6034 16.6261L25.7379 17.1077L25.7386 17.1075L25.6034 16.6261ZM22.6673 15.2184L22.1814 15.3363L22.1893 15.3644L22.2004 15.3915L22.6673 15.2184ZM22.6669 15.217L23.1528 15.099L23.1447 15.0705L23.1334 15.043L22.6669 15.217ZM22.2595 14.2304L22.7261 14.0564L22.5835 13.7111L22.2101 13.7358L22.2595 14.2304ZM20.7622 14.4503L20.633 13.9674L20.6213 13.9704L20.7622 14.4503ZM19.3215 14.9435L19.1055 14.4893L18.7658 14.6371L18.8231 15.0038L19.3215 14.9435ZM19.485 15.9901L19.9835 15.9303L19.9835 15.9298L19.485 15.9901ZM16.6483 18.5991L16.5877 19.0891L16.5901 19.0894L16.6483 18.5991ZM15.5333 18.4326L15.5939 17.9427L15.2447 17.8905L15.0844 18.1932L15.5333 18.4326ZM14.7218 21.1553L14.2194 21.0966L14.1849 21.4803L14.5565 21.6183L14.7218 21.1553ZM15.7839 21.5495L15.6187 22.0125L15.6188 22.0126L15.7839 21.5495ZM16.7913 25.1377L16.4038 24.8088L16.4035 24.8091L16.7913 25.1377ZM16.0721 25.9651L15.6844 25.6365L15.4333 25.9253L15.6643 26.2442L16.0721 25.9651ZM18.2117 27.9758L17.9455 28.3885L18.2442 28.5799L18.5217 28.376L18.2117 27.9758ZM19.1032 27.3208L18.7935 26.9203L18.7932 26.9205L19.1032 27.3208ZM21.2888 26.9092L21.4016 26.4298L21.4015 26.4298L21.2888 26.9092ZM22.9418 28.3005L23.4277 28.1825L23.4196 28.1536L23.4081 28.1258L22.9418 28.3005ZM22.9428 28.304L22.4569 28.4219L22.4649 28.4502L22.4761 28.4775L22.9428 28.304ZM23.3502 29.2936L22.8834 29.4671L23.0244 29.8095L23.3949 29.7884L23.3502 29.2936ZM26.2897 28.58L26.5108 29.032L26.8452 28.882L26.788 28.5191L26.2897 28.58ZM26.1243 27.5295L26.6226 27.4686L26.6225 27.4679L26.1243 27.5295ZM21.7905 18.1475C21.2885 18.2694 20.8165 18.4821 20.4015 18.7743L21.0056 19.5862C21.3196 19.3651 21.6782 19.2032 22.0608 19.1103L21.7905 18.1475ZM20.4015 18.7743C19.9865 19.0665 19.6357 19.433 19.3703 19.8542L20.2325 20.3948C20.4293 20.0824 20.6917 19.8072 21.0056 19.5862L20.4015 18.7743ZM19.3703 19.8542C19.1049 20.2754 18.93 20.7433 18.8574 21.2315L19.8556 21.4044C19.9082 21.0503 20.0356 20.7071 20.2325 20.3948L19.3703 19.8542ZM18.8574 21.2315C18.7848 21.7197 18.8163 22.2178 18.9507 22.6968L19.9225 22.4609C19.826 22.1172 19.803 21.7583 19.8556 21.4044L18.8574 21.2315ZM18.9507 22.6968C19.0852 23.1757 19.3196 23.6245 19.6396 24.0175L20.4195 23.413C20.1875 23.1281 20.019 22.8046 19.9225 22.4609L18.9507 22.6968ZM19.6396 24.0175C19.9595 24.4104 20.358 24.7391 20.811 24.9859L21.279 24.1225C20.9431 23.9395 20.6515 23.698 20.4195 23.413L19.6396 24.0175ZM20.811 24.9859C21.2639 25.2327 21.7626 25.3931 22.2783 25.4593L22.3785 24.4765C21.9885 24.4264 21.6149 24.3056 21.279 24.1225L20.811 24.9859ZM22.2783 25.4593C22.7939 25.5256 23.3175 25.4967 23.8195 25.3748L23.5493 24.4121C23.1666 24.505 22.7686 24.5267 22.3785 24.4765L22.2783 25.4593ZM23.8195 25.3748C24.8322 25.129 25.7041 24.5181 26.2397 23.6681L25.3776 23.1276C24.9796 23.7591 24.3233 24.2242 23.5493 24.4121L23.8195 25.3748ZM26.2397 23.6681C26.7761 22.8169 26.9313 21.7942 26.6594 20.8256L25.6876 21.0615C25.8821 21.7543 25.7748 22.4973 25.3776 23.1276L26.2397 23.6681ZM26.6594 20.8256C26.3874 19.857 25.7144 19.0352 24.7991 18.5364L24.3311 19.3999C25.0089 19.7692 25.4931 20.3686 25.6876 21.0615L26.6594 20.8256ZM24.7991 18.5364C23.885 18.0383 22.8032 17.9017 21.7905 18.1475L22.0608 19.1103C22.8349 18.9224 23.6519 19.0298 24.3311 19.3999L24.7991 18.5364ZM21.0453 22.1883C20.9873 21.9817 20.9734 21.7657 21.0051 21.5521L20.0069 21.3792C19.9552 21.7271 19.9776 22.0824 20.0735 22.4242L21.0453 22.1883ZM21.0051 21.5521C21.0369 21.3384 21.1139 21.1304 21.2337 20.9403L20.3715 20.3998C20.1831 20.6987 20.0586 21.0314 20.0069 21.3792L21.0051 21.5521ZM21.2337 20.9403C21.3535 20.7502 21.5136 20.582 21.7061 20.4465L21.102 19.6346C20.8085 19.8413 20.5599 20.1009 20.3715 20.3998L21.2337 20.9403ZM21.7061 20.4465C21.8986 20.311 22.1187 20.2115 22.3539 20.1544L22.0837 19.1916C21.7291 19.2777 21.3955 19.428 21.102 19.6346L21.7061 20.4465ZM22.3539 20.1544C22.5892 20.0973 22.8335 20.084 23.0727 20.1147L23.1729 19.1319C22.8082 19.085 22.4382 19.1055 22.0837 19.1916L22.3539 20.1544ZM23.0727 20.1147C23.3118 20.1455 23.5399 20.2195 23.7444 20.3309L24.2124 19.4674C23.8909 19.2923 23.5376 19.1788 23.1729 19.1319L23.0727 20.1147ZM23.7444 20.3309C23.9488 20.4422 24.1254 20.5887 24.2654 20.7607L25.0453 20.1562C24.8174 19.8763 24.5339 19.6426 24.2124 19.4674L23.7444 20.3309ZM24.2654 20.7607C24.4054 20.9326 24.5068 21.1274 24.5648 21.334L25.5365 21.0981C25.4406 20.7563 25.2733 20.4362 25.0453 20.1562L24.2654 20.7607ZM24.5648 21.334C24.6815 21.75 24.618 22.1986 24.3764 22.582L25.2385 23.1226C25.6193 22.5183 25.7307 21.7898 25.5365 21.0981L24.5648 21.334ZM24.3764 22.582C24.134 22.9666 23.7324 23.2524 23.2561 23.368L23.5264 24.3308C24.2413 24.1572 24.8585 23.7256 25.2385 23.1226L24.3764 22.582ZM23.2561 23.368C22.7798 23.4836 22.2793 23.4169 21.8657 23.1915L21.3977 24.0549C22.0462 24.4083 22.8116 24.5043 23.5264 24.3308L23.2561 23.368ZM21.8657 23.1915C21.4534 22.9668 21.1621 22.6043 21.0453 22.1883L20.0735 22.4242C20.2677 23.1159 20.7478 23.7008 21.3977 24.0549L21.8657 23.1915ZM30.277 25.7137L28.8352 25.4994L28.7147 26.4794L30.1565 26.6937L30.277 25.7137ZM28.8333 25.4991C28.5539 25.4586 28.2697 25.4796 28.0025 25.5594L28.3233 26.5086C28.4511 26.4704 28.5861 26.4608 28.7166 26.4797L28.8333 25.4991ZM28.0025 25.5594C27.7354 25.6393 27.4906 25.7765 27.288 25.9616L27.9871 26.6972C28.0804 26.6119 28.1954 26.5468 28.3233 26.5086L28.0025 25.5594ZM27.287 25.9626C26.873 26.3431 26.6871 26.8886 26.7733 27.4341L27.77 27.3117C27.7346 27.0881 27.8085 26.8613 27.9881 26.6963L27.287 25.9626ZM26.7733 27.4337L26.985 28.7801L27.9817 28.6585L27.77 27.3121L26.7733 27.4337ZM26.9849 28.7799C26.9891 28.8067 26.9852 28.8383 26.9675 28.8707L27.8605 29.3587C27.9756 29.1471 28.02 28.9025 27.9817 28.6587L26.9849 28.7799ZM26.9675 28.8707C26.9496 28.9036 26.9184 28.9354 26.8745 28.9571L27.3508 29.845C27.5664 29.7381 27.7457 29.5699 27.8605 29.3587L26.9675 28.8707ZM26.8747 28.9571C25.6914 29.5431 24.3761 29.8623 23.0358 29.8889L23.0874 30.88C24.5761 30.8504 26.0363 30.496 27.3506 29.8451L26.8747 28.9571ZM23.0365 29.8889C22.9868 29.8898 22.9429 29.8763 22.9101 29.8557L22.387 30.6869C22.5979 30.819 22.8425 30.8845 23.0866 30.88L23.0365 29.8889ZM22.9101 29.8557C22.8777 29.8355 22.8576 29.8097 22.8473 29.7844L21.9138 30.1314C22.0085 30.3614 22.1756 30.5545 22.387 30.6869L22.9101 29.8557ZM22.8472 29.7844L22.3247 28.5156L21.3914 28.8628L21.9138 30.1315L22.8472 29.7844ZM22.3243 28.5145C22.2182 28.2587 22.0499 28.0315 21.8351 27.8505L21.1924 28.5946C21.2824 28.6704 21.3499 28.7629 21.3918 28.8639L22.3243 28.5145ZM21.8351 27.8505C21.6205 27.6697 21.3661 27.5405 21.0937 27.4705L20.8672 28.4291C20.9913 28.461 21.1022 28.5186 21.1924 28.5946L21.8351 27.8505ZM21.0935 27.4705C20.8212 27.4007 20.5372 27.3918 20.2637 27.4431L20.4823 28.417C20.6116 28.3928 20.7437 28.3975 20.8674 28.4292L21.0935 27.4705ZM20.2637 27.4431C19.9903 27.4944 19.7329 27.6048 19.512 27.7665L20.1307 28.5679C20.2326 28.4933 20.3531 28.4413 20.4823 28.417L20.2637 27.4431ZM19.5112 27.7671L18.3661 28.6094L18.9863 29.4096L20.1315 28.5673L19.5112 27.7671ZM18.366 28.6095C18.3286 28.637 18.2812 28.654 18.2313 28.6564L18.3121 29.6464C18.557 29.6346 18.7923 29.5524 18.9864 29.4096L18.366 28.6095ZM18.2313 28.6564C18.1815 28.6588 18.1368 28.6464 18.103 28.6265L17.6039 29.4723C17.8194 29.5994 18.0671 29.6583 18.3121 29.6464L18.2313 28.6564ZM18.1028 28.6263C16.9778 27.9638 16.0317 27.0744 15.3335 26.0268L14.4949 26.5517C15.2825 27.7335 16.3463 28.7316 17.6042 29.4724L18.1028 28.6263ZM15.3335 26.0267C15.3172 26.0022 15.3096 25.9745 15.3116 25.9455L14.3051 25.8499C14.2886 26.096 14.355 26.3419 14.4949 26.5518L15.3335 26.0267ZM15.3116 25.9455C15.3135 25.916 15.3258 25.8818 15.3535 25.8498L14.5778 25.1929C14.4193 25.3754 14.3215 25.6043 14.3051 25.8499L15.3116 25.9455ZM15.3536 25.8498L16.2762 24.7871L15.5004 24.1303L14.5778 25.193L15.3536 25.8498ZM16.2754 24.7881C16.455 24.5822 16.5825 24.3372 16.6443 24.0715L15.6607 23.8221C15.6352 23.9316 15.5816 24.0373 15.5012 24.1294L16.2754 24.7881ZM16.6443 24.0715C16.7062 23.8056 16.7004 23.5278 16.6255 23.2612L15.6537 23.4971C15.6832 23.6019 15.6861 23.7129 15.6607 23.8221L16.6443 24.0715ZM16.6255 23.2612C16.5507 22.9946 16.4097 22.7495 16.216 22.5457L15.4889 23.2103C15.5685 23.294 15.6243 23.3923 15.6537 23.4971L16.6255 23.2612ZM16.216 22.5457C16.0223 22.342 15.7824 22.1862 15.5174 22.0883L15.1883 23.0148C15.3069 23.0586 15.4092 23.1265 15.4889 23.2103L16.216 22.5457ZM15.518 22.0885L14.1552 21.5829L13.8248 22.5089L15.1876 23.0146L15.518 22.0885ZM14.1555 21.583C14.1145 21.5678 14.0858 21.5435 14.0685 21.5186L13.2406 22.0592C13.3841 22.2663 13.5899 22.4216 13.8244 22.5088L14.1555 21.583ZM14.0685 21.5186C14.0516 21.4941 14.0436 21.4665 14.045 21.4376L13.0375 21.3598C13.0255 21.6067 13.0967 21.8517 13.2406 22.0592L14.0685 21.5186ZM14.045 21.4375C14.1045 20.2071 14.4631 19.0023 15.0967 17.914L14.2174 17.4019C13.5089 18.6187 13.1045 19.9718 13.0375 21.3599L14.045 21.4375ZM15.0968 17.9139C15.1158 17.8812 15.1483 17.8501 15.1931 17.8296L14.7439 16.9288C14.5239 17.0296 14.3387 17.1934 14.2173 17.402L15.0968 17.9139ZM15.1931 17.8296C15.2379 17.8091 15.2882 17.8024 15.3353 17.8094L15.4566 16.8295C15.2123 16.793 14.9638 16.8281 14.7439 16.9288L15.1931 17.8296ZM15.3353 17.8094L16.7707 18.0238L16.892 17.0439L15.4565 16.8295L15.3353 17.8094ZM16.7747 18.0244C17.0529 18.0638 17.3358 18.042 17.6015 17.9615L17.2772 17.0134C17.1508 17.0517 17.0173 17.0617 16.888 17.0434L16.7747 18.0244ZM17.6015 17.9615C17.8671 17.8809 18.1102 17.7434 18.3111 17.5582L17.6088 16.8255C17.517 16.9102 17.4035 16.9751 17.2772 17.0134L17.6015 17.9615ZM18.3111 17.5582C18.512 17.3729 18.666 17.1441 18.7582 16.8885L17.8062 16.5319C17.7673 16.6397 17.7007 16.7409 17.6088 16.8255L18.3111 17.5582ZM18.7582 16.8885C18.8504 16.6326 18.8778 16.3576 18.8358 16.0858L17.8387 16.2048C17.8553 16.3124 17.845 16.4243 17.8062 16.5319L18.7582 16.8885ZM18.8357 16.0851L18.6259 14.7397L17.629 14.8601L17.8388 16.2054L18.8357 16.0851ZM18.6258 14.7392C18.6216 14.7121 18.6257 14.68 18.6438 14.6473L17.7539 14.1536C17.6361 14.3668 17.5903 14.6141 17.6291 14.8607L18.6258 14.7392ZM18.6438 14.6473C18.6622 14.614 18.6942 14.582 18.7391 14.5605L18.274 13.6672C18.0545 13.7725 17.8715 13.9409 17.7539 14.1536L18.6438 14.6473ZM18.7381 14.561C19.3297 14.2786 19.9518 14.0538 20.6104 13.8861L20.3292 12.926C19.6088 13.1094 18.9257 13.3561 18.2749 13.6667L18.7381 14.561ZM20.5999 13.8886C21.2449 13.7391 21.9051 13.6533 22.5695 13.6309L22.5038 12.6402C21.7742 12.6648 21.049 12.7591 20.3397 12.9235L20.5999 13.8886ZM22.5689 13.6309C22.6193 13.6293 22.6639 13.6426 22.6974 13.6632L23.2148 12.8285C23.0002 12.696 22.7516 12.6322 22.5044 12.6402L22.5689 13.6309ZM22.6974 13.6632C22.7304 13.6836 22.7507 13.7096 22.7611 13.7351L23.6953 13.3899C23.5998 13.1566 23.4299 12.9613 23.2148 12.8285L22.6974 13.6632ZM22.7616 13.7363L23.285 15.0055L24.2182 14.6579L23.6948 13.3887L22.7616 13.7363ZM23.2844 15.004C23.4498 15.4087 23.7674 15.7358 24.1674 15.9281L24.5876 15.0402C24.4119 14.9557 24.2837 14.8182 24.2188 14.6594L23.2844 15.004ZM24.1674 15.9281C24.5665 16.1199 25.0214 16.1656 25.4461 16.0632L25.1775 15.1001C24.9748 15.1489 24.7643 15.1251 24.5876 15.0402L24.1674 15.9281ZM25.447 16.063C25.6853 16.0052 25.9081 15.9013 26.103 15.7578L25.4824 14.9579C25.391 15.0252 25.2871 15.0734 25.1767 15.1003L25.447 16.063ZM26.1031 15.7577L27.2427 14.9183L26.6218 14.1185L25.4823 14.958L26.1031 15.7577ZM27.2427 14.9183C27.2801 14.8907 27.3275 14.8737 27.3774 14.8713L27.2957 13.8812C27.0509 13.8933 26.8157 13.9757 26.6218 14.1185L27.2427 14.9183ZM27.3774 14.8713C27.4272 14.8688 27.4719 14.8811 27.5057 14.901L28.0038 14.0547C27.7883 13.9279 27.5407 13.8692 27.2957 13.8812L27.3774 14.8713ZM27.5058 14.9011C28.6303 15.5625 29.5763 16.4506 30.2747 17.4971L31.113 16.9716C30.325 15.7911 29.2613 14.7943 28.0038 14.0547L27.5058 14.9011ZM30.2747 17.4971C30.2911 17.5216 30.2986 17.5494 30.2967 17.5784L31.3033 17.6731C31.3195 17.427 31.2529 17.1812 31.1129 16.9715L30.2747 17.4971ZM30.2967 17.5784C30.2948 17.6079 30.2826 17.642 30.2549 17.674L31.0313 18.3301C31.1896 18.1475 31.2871 17.9186 31.3033 17.6731L30.2967 17.5784ZM30.2551 17.6737L29.3338 18.7353L30.1098 19.3919L31.0311 18.3304L30.2551 17.6737ZM29.3345 18.7345C28.973 19.1491 28.8279 19.716 28.9812 20.262L29.9529 20.0261C29.8948 19.8189 29.9444 19.5816 30.1091 19.3927L29.3345 18.7345ZM28.9812 20.262C29.1343 20.8076 29.5592 21.2359 30.0929 21.4337L30.423 20.5075C30.1786 20.4169 30.0108 20.2322 29.9529 20.0261L28.9812 20.262ZM30.0925 21.4335L31.4548 21.94L31.7858 21.0142L30.4235 20.5077L30.0925 21.4335ZM31.454 21.9397C31.5368 21.9707 31.5678 22.0337 31.5653 22.0857L32.5728 22.163C32.5974 21.6508 32.2683 21.1945 31.7866 21.0145L31.454 21.9397ZM31.5653 22.0856C31.506 23.3159 31.1479 24.5205 30.515 25.6088L31.3945 26.1206C32.1022 24.9037 32.506 23.5509 32.5728 22.1631L31.5653 22.0856ZM30.5148 25.6092C30.4957 25.642 30.4633 25.6731 30.4185 25.6936L30.8685 26.594C31.0885 26.493 31.2735 26.3291 31.3947 26.1203L30.5148 25.6092ZM30.4185 25.6936C30.3739 25.7141 30.3244 25.7207 30.2771 25.7137L30.1565 26.6937C30.4007 26.73 30.6485 26.6951 30.8685 26.594L30.4185 25.6936ZM26.6036 27.0992C26.6287 26.6653 26.827 26.2466 27.1714 25.9291L26.4691 25.1964C25.9516 25.6736 25.6366 26.3193 25.5965 27.0124L26.6036 27.0992ZM27.1703 25.9301C27.3931 25.7259 27.6659 25.5718 27.967 25.4819L27.6465 24.5327C27.2055 24.6644 26.8025 24.8909 26.4702 25.1954L27.1703 25.9301ZM27.967 25.4819C28.2681 25.3919 28.5871 25.3692 28.8974 25.4146L29.0157 24.4343C28.5561 24.367 28.0874 24.401 27.6465 24.5327L27.967 25.4819ZM28.8964 25.4145L30.0177 25.581L30.138 24.6009L29.0167 24.4345L28.8964 25.4145ZM30.5269 25.3301C31.0067 24.4228 31.3003 23.4379 31.3909 22.4264L30.3861 22.3092C30.3071 23.1913 30.0508 24.0539 29.6288 24.8518L30.5269 25.3301ZM31.0539 21.9048L29.9926 21.5104L29.6616 22.4363L30.723 22.8307L31.0539 21.9048ZM29.9915 21.5101C29.7039 21.4039 29.4499 21.2369 29.2488 21.0259L28.5227 21.6915C28.837 22.0212 29.2281 22.2762 29.6627 22.4367L29.9915 21.5101ZM29.2488 21.0259C29.0482 20.8154 28.905 20.5657 28.8289 20.297L27.8577 20.5351C27.9795 20.9652 28.2079 21.3612 28.5227 21.6915L29.2488 21.0259ZM28.8292 20.2981C28.676 19.7525 28.8142 19.1637 29.2056 18.7146L28.4309 18.0564C27.8426 18.7315 27.6092 19.6499 27.8574 20.534L28.8292 20.2981ZM29.147 18.7712L29.1483 18.7701L28.4908 17.9988L28.4895 17.9999L29.147 18.7712ZM29.2075 18.7128L29.9246 17.8867L29.1487 17.23L28.4316 18.0561L29.2075 18.7128ZM29.9441 17.2788C29.3331 16.4376 28.5591 15.7122 27.6634 15.1391L27.1316 15.9648C27.9193 16.4688 28.5965 17.1045 29.1293 17.8379L29.9441 17.2788ZM27.0872 15.1519L26.2039 15.802L26.8245 16.6021L27.7078 15.952L27.0872 15.1519ZM26.1853 15.8164L26.184 15.8175L26.8418 16.5887L26.8431 16.5877L26.1853 15.8164ZM26.2015 15.804C25.9858 15.9637 25.7368 16.0795 25.4683 16.1447L25.7386 17.1075C26.1333 17.0117 26.5025 16.8406 26.8244 16.6022L26.2015 15.804ZM25.469 16.1446C24.99 16.2601 24.4864 16.2061 24.0558 15.9996L23.6365 16.888C24.2893 17.201 25.0371 17.2767 25.7379 17.1077L25.469 16.1446ZM24.0558 15.9996C23.6262 15.7937 23.3012 15.4519 23.1341 15.0452L22.2004 15.3915C22.4683 16.0437 22.9827 16.5745 23.6365 16.888L24.0558 15.9996ZM23.1531 15.1004L23.1528 15.099L22.181 15.3349L22.1814 15.3363L23.1531 15.1004ZM23.1334 15.043L22.7261 14.0564L21.793 14.4043L22.2003 15.391L23.1334 15.043ZM22.2101 13.7358C21.6782 13.7711 21.1506 13.8486 20.633 13.9675L20.8913 14.9331C21.3567 14.8262 21.831 14.7566 22.309 14.7249L22.2101 13.7358ZM20.6213 13.9704C20.1012 14.1031 19.5942 14.2767 19.1055 14.4893L19.5375 15.3978C19.9776 15.2063 20.4344 15.0499 20.9031 14.9303L20.6213 13.9704ZM18.8231 15.0038L18.9866 16.0504L19.9835 15.9298L19.82 14.8832L18.8231 15.0038ZM18.9865 16.0499C19.0291 16.3248 19.0022 16.6073 18.9056 16.8751L19.8574 17.232C20.0077 16.8156 20.0517 16.3697 19.9835 15.9303L18.9865 16.0499ZM18.9056 16.8751C18.8088 17.1431 18.6446 17.3896 18.4235 17.593L19.1248 18.3265C19.4554 18.0224 19.7072 17.6481 19.8574 17.232L18.9056 16.8751ZM18.4235 17.593C18.2022 17.7965 17.9312 17.9502 17.6318 18.0402L17.9541 18.9889C18.3932 18.8568 18.7942 18.6305 19.1248 18.3265L18.4235 17.593ZM17.6318 18.0402C17.3325 18.1303 17.0153 18.1535 16.7065 18.1088L16.5901 19.0894C17.0482 19.1557 17.5151 19.1209 17.9541 18.9889L17.6318 18.0402ZM16.7089 18.1092L15.5939 17.9427L15.4727 18.9226L16.5877 19.0891L16.7089 18.1092ZM15.0844 18.1932C14.6041 19.1003 14.3102 20.085 14.2194 21.0966L15.2242 21.214C15.3034 20.332 15.56 19.4696 15.9823 18.672L15.0844 18.1932ZM14.5565 21.6183L15.6187 22.0125L15.9492 21.0865L14.887 20.6923L14.5565 21.6183ZM15.6188 22.0126C15.9062 22.1191 16.1592 22.2857 16.3593 22.4964L17.0867 21.8322C16.773 21.5018 16.3826 21.2472 15.949 21.0864L15.6188 22.0126ZM16.3593 22.4964C16.5592 22.7069 16.7016 22.9564 16.777 23.2248L17.7487 22.9889C17.628 22.5589 17.4006 22.1627 17.0867 21.8322L16.3593 22.4964ZM16.777 23.2248C16.8523 23.4932 16.8592 23.7756 16.7955 24.0501L17.7792 24.299C17.8793 23.8679 17.8695 23.4189 17.7487 22.9889L16.777 23.2248ZM16.7955 24.0501C16.7317 24.3248 16.5986 24.5851 16.4038 24.8088L17.1787 25.4666C17.4725 25.1293 17.6792 24.7298 17.7792 24.299L16.7955 24.0501ZM16.4035 24.8091L15.6844 25.6365L16.4598 26.2937L17.179 25.4663L16.4035 24.8091ZM15.6643 26.2442C16.275 27.0869 17.0492 27.814 17.9455 28.3885L18.4779 27.5632C17.6897 27.058 17.0124 26.4209 16.4798 25.686L15.6643 26.2442ZM18.5217 28.376L19.4131 27.721L18.7932 26.9205L17.9017 27.5756L18.5217 28.376ZM19.4129 27.7212C19.6575 27.5417 19.9453 27.4175 20.2528 27.3596L20.0336 26.3858C19.5818 26.4709 19.1571 26.6536 18.7935 26.9203L19.4129 27.7212ZM20.2528 27.3596C20.5604 27.3016 20.8768 27.3121 21.176 27.3886L21.4015 26.4298C20.9537 26.3153 20.4853 26.3007 20.0336 26.3858L20.2528 27.3596ZM21.176 27.3886C21.4751 27.4651 21.7473 27.605 21.9721 27.7942L22.6144 27.0498C22.265 26.7557 21.8491 26.5443 21.4016 26.4298L21.176 27.3886ZM21.9721 27.7942C22.1968 27.9833 22.3684 28.2168 22.4756 28.4752L23.4081 28.1258C23.2366 27.7123 22.964 27.344 22.6144 27.0498L21.9721 27.7942ZM22.456 28.4184L22.4569 28.4219L23.4287 28.186L23.4277 28.1825L22.456 28.4184ZM22.4761 28.4775L22.8834 29.4671L23.8169 29.1201L23.4095 28.1305L22.4761 28.4775ZM23.3949 29.7884C24.4769 29.7267 25.5344 29.47 26.5108 29.032L26.0686 28.128C25.2029 28.5164 24.2648 28.7441 23.3054 28.7988L23.3949 29.7884ZM26.788 28.5191L26.6226 27.4686L25.6259 27.5904L25.7913 28.6409L26.788 28.5191ZM26.6225 27.4679C26.603 27.3452 26.597 27.2222 26.6048 27.1024L25.5982 27.0085C25.5855 27.2029 25.5955 27.3988 25.626 27.591L26.6225 27.4679Z" fill="#233F8C" mask="url(#path-7-outside-1_1157_6673)"/>
<mask id="path-9-outside-2_1157_6673" maskUnits="userSpaceOnUse" x="64.0617" y="50.0312" width="29.6577" height="27.8292" fill="black">
<rect fill="white" x="64.0617" y="50.0312" width="29.6577" height="27.8292"/>
<path d="M80.7308 60.8927C80.3063 60.6601 79.8367 60.5075 79.3488 60.4437C78.8609 60.3798 78.3642 60.406 77.8872 60.5206C77.4102 60.6352 76.9621 60.8361 76.5685 61.1118C76.1749 61.3875 75.8436 61.7325 75.5935 62.1272C75.3433 62.522 75.1792 62.9586 75.1106 63.4123C75.0419 63.866 75.07 64.3278 75.1933 64.7714C75.3166 65.215 75.5326 65.6317 75.8291 65.9976C76.1255 66.3636 76.4966 66.6716 76.9211 66.9042C77.7784 67.374 78.8013 67.5078 79.7647 67.2763C80.7282 67.0448 81.5532 66.4668 82.0585 65.6697C82.5637 64.8725 82.7076 63.9213 82.4586 63.0255C82.2096 62.1296 81.5881 61.3624 80.7308 60.8927ZM76.671 62.7176C76.8377 62.4545 77.0586 62.2245 77.321 62.0407C77.5834 61.8569 77.8821 61.723 78.2001 61.6466C78.5182 61.5701 78.8493 61.5527 79.1745 61.5953C79.4998 61.6378 79.8129 61.7395 80.0959 61.8946C80.3789 62.0497 80.6263 62.255 80.8239 62.499C81.0215 62.743 81.1656 63.0207 81.2477 63.3165C81.3299 63.6122 81.3487 63.9201 81.3029 64.2225C81.2571 64.525 81.1477 64.8161 80.981 65.0793C80.6442 65.6107 80.0941 65.996 79.4518 66.1503C78.8095 66.3047 78.1276 66.2155 77.5561 65.9023C76.9845 65.5891 76.5702 65.0777 76.4042 64.4804C76.2382 63.8832 76.3342 63.2491 76.671 62.7176ZM80.8107 72.5406L79.8907 71.3535C79.7592 71.1853 79.5873 71.048 79.3887 70.9526C79.19 70.8572 78.9702 70.8063 78.7466 70.804C78.2968 70.8005 77.8809 71.0018 77.6112 71.3373L76.6659 72.5112C76.5709 72.6291 76.4391 72.7169 76.2884 72.7625C76.1377 72.8082 75.9755 72.8094 75.824 72.7661C74.3665 72.3492 73.0349 71.6195 71.9364 70.636C71.8225 70.5337 71.7453 70.4012 71.7154 70.2566C71.6854 70.112 71.7042 69.9623 71.7691 69.828L72.4142 68.4923C72.5046 68.3042 72.5463 68.0989 72.5359 67.893C72.5255 67.6871 72.4634 67.4864 72.3545 67.3069C72.2457 67.1276 72.0931 66.9747 71.909 66.8604C71.7249 66.7461 71.5145 66.6736 71.2947 66.6488L69.7322 66.4756C69.5742 66.4581 69.426 66.3954 69.3081 66.2961C69.1902 66.1968 69.1084 66.0659 69.074 65.9215C68.7447 64.5417 68.7561 63.1105 69.1071 61.7353C69.144 61.5908 69.2283 61.4605 69.3483 61.3624C69.4684 61.2644 69.6182 61.2035 69.7771 61.1881L71.3515 61.0357C71.5728 61.0149 71.7857 60.9458 71.973 60.8343C72.1602 60.7227 72.3167 60.5718 72.4296 60.3936C72.5425 60.2154 72.6087 60.015 72.6229 59.8086C72.6371 59.6023 72.5989 59.3957 72.5114 59.2055L71.8907 57.8531C71.828 57.7163 71.8127 57.5647 71.8469 57.4194C71.881 57.2741 71.9629 57.1423 72.0813 57.0423C73.205 56.0919 74.5458 55.3907 76.0028 54.9913C76.1553 54.9494 76.3181 54.9527 76.4685 55.0006C76.619 55.0485 76.7497 55.1388 76.8426 55.2588L77.7577 56.4415C77.8889 56.6082 78.0602 56.744 78.258 56.838C78.4558 56.9321 78.6745 56.9818 78.8967 56.9832C79.1188 56.9846 79.3382 56.9376 79.5373 56.8459C79.7364 56.7543 79.9097 56.6207 80.0433 56.4556L80.9891 55.2839C81.0852 55.1646 81.2189 55.0761 81.3716 55.0309C81.5243 54.9857 81.6884 54.9859 81.8409 55.0316C82.5568 55.2474 83.2466 55.5318 83.915 55.8882C84.5587 56.2499 85.1593 56.6735 85.7084 57.1508C85.8255 57.2528 85.9053 57.3863 85.9367 57.5325C85.968 57.6788 85.9494 57.8306 85.8834 57.9665L85.2386 59.3032C85.0946 59.5991 85.0732 59.934 85.1784 60.2437C85.2836 60.5534 85.5079 60.8162 85.8085 60.9816C85.9759 61.0733 86.1626 61.1315 86.3579 61.153L87.9139 61.3244C88.0719 61.3418 88.2201 61.4044 88.3381 61.5035C88.4561 61.6027 88.538 61.7335 88.5725 61.8779C88.9024 63.2565 88.8921 64.6867 88.5422 66.0611C88.5055 66.2056 88.4213 66.3359 88.3014 66.434C88.1815 66.5321 88.0318 66.5931 87.8729 66.6086L86.3004 66.7612C85.8525 66.8037 85.4481 67.0402 85.2191 67.4015C84.9905 67.7622 84.964 68.2057 85.1413 68.5917L85.7608 69.9445C85.8888 70.2252 85.8123 70.5504 85.5702 70.7553C84.4469 71.7056 83.1067 72.4071 81.6502 72.8071C81.4976 72.8491 81.3348 72.846 81.1843 72.7982C81.0338 72.7504 80.9036 72.6606 80.8107 72.5406ZM76.981 70.264C77.4688 69.8587 78.1011 69.6365 78.7551 69.6406C79.1751 69.6444 79.5883 69.7398 79.9614 69.9191C80.3346 70.0984 80.6573 70.3566 80.9036 70.6729L81.6193 71.596C82.6625 71.2681 83.6304 70.7613 84.4728 70.1017L83.9899 69.0479C83.8249 68.6901 83.7531 68.3005 83.7793 67.9119C83.8055 67.5234 83.9295 67.1459 84.1413 66.8101C84.576 66.1241 85.3365 65.6831 86.1706 65.6039L86.1725 65.604L87.3964 65.4854C87.6084 64.4807 87.6159 63.4479 87.4185 62.4406L86.2129 62.3073L86.211 62.3072C85.8432 62.2676 85.4904 62.1571 85.1721 61.9827C84.6067 61.6718 84.1844 61.1781 83.986 60.5958C83.7876 60.0136 83.8269 59.3838 84.0965 58.8268L84.0974 58.8255L84.5983 57.7861C84.1869 57.4529 83.7456 57.153 83.2793 56.8897C82.7998 56.6345 82.2978 56.4175 81.7789 56.2412L81.0433 57.153C80.7921 57.4638 80.4659 57.7155 80.091 57.8878C79.7161 58.0602 79.3029 58.1484 78.8847 58.1453C78.4665 58.1422 78.0549 58.0479 77.683 57.8701C77.3111 57.6922 76.9893 57.4357 76.7433 57.1212L76.0325 56.2026C74.9892 56.53 74.0212 57.0365 73.1787 57.6959L73.6623 58.75C73.8266 59.1077 73.8981 59.4963 73.8711 59.8845C73.8442 60.2726 73.7195 60.6494 73.5071 60.9845C73.2948 61.3196 73.0007 61.6036 72.6486 61.8135C72.2965 62.0235 71.8963 62.1536 71.4802 62.1933L70.2537 62.3114C70.0402 63.3171 70.0316 64.3512 70.2283 65.3598L71.4442 65.4951C71.8587 65.5416 72.2556 65.6779 72.603 65.8933C72.9503 66.1086 73.2384 66.3969 73.4439 66.7348C73.6492 67.0726 73.7665 67.4505 73.7862 67.8382C73.8059 68.2258 73.7276 68.6123 73.5575 68.9667L73.5554 68.9701L73.052 70.0117C73.8758 70.6925 74.8333 71.2172 75.8729 71.5574L76.6103 70.6413C76.7206 70.5038 76.8456 70.3769 76.9824 70.2648"/>
</mask>
<path d="M80.7308 60.8927C80.3063 60.6601 79.8367 60.5075 79.3488 60.4437C78.8609 60.3798 78.3642 60.406 77.8872 60.5206C77.4102 60.6352 76.9621 60.8361 76.5685 61.1118C76.1749 61.3875 75.8436 61.7325 75.5935 62.1272C75.3433 62.522 75.1792 62.9586 75.1106 63.4123C75.0419 63.866 75.07 64.3278 75.1933 64.7714C75.3166 65.215 75.5326 65.6317 75.8291 65.9976C76.1255 66.3636 76.4966 66.6716 76.9211 66.9042C77.7784 67.374 78.8013 67.5078 79.7647 67.2763C80.7282 67.0448 81.5532 66.4668 82.0585 65.6697C82.5637 64.8725 82.7076 63.9213 82.4586 63.0255C82.2096 62.1296 81.5881 61.3624 80.7308 60.8927ZM76.671 62.7176C76.8377 62.4545 77.0586 62.2245 77.321 62.0407C77.5834 61.8569 77.8821 61.723 78.2001 61.6466C78.5182 61.5701 78.8493 61.5527 79.1745 61.5953C79.4998 61.6378 79.8129 61.7395 80.0959 61.8946C80.3789 62.0497 80.6263 62.255 80.8239 62.499C81.0215 62.743 81.1656 63.0207 81.2477 63.3165C81.3299 63.6122 81.3487 63.9201 81.3029 64.2225C81.2571 64.525 81.1477 64.8161 80.981 65.0793C80.6442 65.6107 80.0941 65.996 79.4518 66.1503C78.8095 66.3047 78.1276 66.2155 77.5561 65.9023C76.9845 65.5891 76.5702 65.0777 76.4042 64.4804C76.2382 63.8832 76.3342 63.2491 76.671 62.7176ZM80.8107 72.5406L79.8907 71.3535C79.7592 71.1853 79.5873 71.048 79.3887 70.9526C79.19 70.8572 78.9702 70.8063 78.7466 70.804C78.2968 70.8005 77.8809 71.0018 77.6112 71.3373L76.6659 72.5112C76.5709 72.6291 76.4391 72.7169 76.2884 72.7625C76.1377 72.8082 75.9755 72.8094 75.824 72.7661C74.3665 72.3492 73.0349 71.6195 71.9364 70.636C71.8225 70.5337 71.7453 70.4012 71.7154 70.2566C71.6854 70.112 71.7042 69.9623 71.7691 69.828L72.4142 68.4923C72.5046 68.3042 72.5463 68.0989 72.5359 67.893C72.5255 67.6871 72.4634 67.4864 72.3545 67.3069C72.2457 67.1276 72.0931 66.9747 71.909 66.8604C71.7249 66.7461 71.5145 66.6736 71.2947 66.6488L69.7322 66.4756C69.5742 66.4581 69.426 66.3954 69.3081 66.2961C69.1902 66.1968 69.1084 66.0659 69.074 65.9215C68.7447 64.5417 68.7561 63.1105 69.1071 61.7353C69.144 61.5908 69.2283 61.4605 69.3483 61.3624C69.4684 61.2644 69.6182 61.2035 69.7771 61.1881L71.3515 61.0357C71.5728 61.0149 71.7857 60.9458 71.973 60.8343C72.1602 60.7227 72.3167 60.5718 72.4296 60.3936C72.5425 60.2154 72.6087 60.015 72.6229 59.8086C72.6371 59.6023 72.5989 59.3957 72.5114 59.2055L71.8907 57.8531C71.828 57.7163 71.8127 57.5647 71.8469 57.4194C71.881 57.2741 71.9629 57.1423 72.0813 57.0423C73.205 56.0919 74.5458 55.3907 76.0028 54.9913C76.1553 54.9494 76.3181 54.9527 76.4685 55.0006C76.619 55.0485 76.7497 55.1388 76.8426 55.2588L77.7577 56.4415C77.8889 56.6082 78.0602 56.744 78.258 56.838C78.4558 56.9321 78.6745 56.9818 78.8967 56.9832C79.1188 56.9846 79.3382 56.9376 79.5373 56.8459C79.7364 56.7543 79.9097 56.6207 80.0433 56.4556L80.9891 55.2839C81.0852 55.1646 81.2189 55.0761 81.3716 55.0309C81.5243 54.9857 81.6884 54.9859 81.8409 55.0316C82.5568 55.2474 83.2466 55.5318 83.915 55.8882C84.5587 56.2499 85.1593 56.6735 85.7084 57.1508C85.8255 57.2528 85.9053 57.3863 85.9367 57.5325C85.968 57.6788 85.9494 57.8306 85.8834 57.9665L85.2386 59.3032C85.0946 59.5991 85.0732 59.934 85.1784 60.2437C85.2836 60.5534 85.5079 60.8162 85.8085 60.9816C85.9759 61.0733 86.1626 61.1315 86.3579 61.153L87.9139 61.3244C88.0719 61.3418 88.2201 61.4044 88.3381 61.5035C88.4561 61.6027 88.538 61.7335 88.5725 61.8779C88.9024 63.2565 88.8921 64.6867 88.5422 66.0611C88.5055 66.2056 88.4213 66.3359 88.3014 66.434C88.1815 66.5321 88.0318 66.5931 87.8729 66.6086L86.3004 66.7612C85.8525 66.8037 85.4481 67.0402 85.2191 67.4015C84.9905 67.7622 84.964 68.2057 85.1413 68.5917L85.7608 69.9445C85.8888 70.2252 85.8123 70.5504 85.5702 70.7553C84.4469 71.7056 83.1067 72.4071 81.6502 72.8071C81.4976 72.8491 81.3348 72.846 81.1843 72.7982C81.0338 72.7504 80.9036 72.6606 80.8107 72.5406ZM76.981 70.264C77.4688 69.8587 78.1011 69.6365 78.7551 69.6406C79.1751 69.6444 79.5883 69.7398 79.9614 69.9191C80.3346 70.0984 80.6573 70.3566 80.9036 70.6729L81.6193 71.596C82.6625 71.2681 83.6304 70.7613 84.4728 70.1017L83.9899 69.0479C83.8249 68.6901 83.7531 68.3005 83.7793 67.9119C83.8055 67.5234 83.9295 67.1459 84.1413 66.8101C84.576 66.1241 85.3365 65.6831 86.1706 65.6039L86.1725 65.604L87.3964 65.4854C87.6084 64.4807 87.6159 63.4479 87.4185 62.4406L86.2129 62.3073L86.211 62.3072C85.8432 62.2676 85.4904 62.1571 85.1721 61.9827C84.6067 61.6718 84.1844 61.1781 83.986 60.5958C83.7876 60.0136 83.8269 59.3838 84.0965 58.8268L84.0974 58.8255L84.5983 57.7861C84.1869 57.4529 83.7456 57.153 83.2793 56.8897C82.7998 56.6345 82.2978 56.4175 81.7789 56.2412L81.0433 57.153C80.7921 57.4638 80.4659 57.7155 80.091 57.8878C79.7161 58.0602 79.3029 58.1484 78.8847 58.1453C78.4665 58.1422 78.0549 58.0479 77.683 57.8701C77.3111 57.6922 76.9893 57.4357 76.7433 57.1212L76.0325 56.2026C74.9892 56.53 74.0212 57.0365 73.1787 57.6959L73.6623 58.75C73.8266 59.1077 73.8981 59.4963 73.8711 59.8845C73.8442 60.2726 73.7195 60.6494 73.5071 60.9845C73.2948 61.3196 73.0007 61.6036 72.6486 61.8135C72.2965 62.0235 71.8963 62.1536 71.4802 62.1933L70.2537 62.3114C70.0402 63.3171 70.0316 64.3512 70.2283 65.3598L71.4442 65.4951C71.8587 65.5416 72.2556 65.6779 72.603 65.8933C72.9503 66.1086 73.2384 66.3969 73.4439 66.7348C73.6492 67.0726 73.7665 67.4505 73.7862 67.8382C73.8059 68.2258 73.7276 68.6123 73.5575 68.9667L73.5554 68.9701L73.052 70.0117C73.8758 70.6925 74.8333 71.2172 75.8729 71.5574L76.6103 70.6413C76.7206 70.5038 76.8456 70.3769 76.9824 70.2648" fill="#F2A602"/>
<path d="M80.7308 60.8927L80.4632 61.315L80.7308 60.8927ZM76.9211 66.9042L76.6535 67.3266L76.9211 66.9042ZM76.671 62.7176L76.2325 62.4774L76.671 62.7176ZM80.981 65.0793L80.5425 64.839L80.981 65.0793ZM80.8107 72.5406L81.2283 72.2456L81.2282 72.2456L80.8107 72.5406ZM79.8907 71.3535L80.3083 71.0584L80.3071 71.0569L79.8907 71.3535ZM78.7466 70.804L78.7681 70.3181L78.7666 70.3181L78.7466 70.804ZM77.6112 71.3373L78.0163 71.6241L78.0166 71.6238L77.6112 71.3373ZM76.6659 72.5112L77.071 72.7981L77.0711 72.7979L76.6659 72.5112ZM75.824 72.7661L75.6615 73.2316L75.6617 73.2317L75.824 72.7661ZM71.9364 70.636L71.5767 70.9932L71.5772 70.9936L71.9364 70.636ZM71.7691 69.828L72.2352 70.0186L72.2352 70.0185L71.7691 69.828ZM72.4142 68.4923L72.8804 68.6829L72.8809 68.6819L72.4142 68.4923ZM72.3545 67.3069L72.8021 67.0554L72.802 67.0552L72.3545 67.3069ZM71.2947 66.6488L71.371 66.1663L71.37 66.1662L71.2947 66.6488ZM69.7322 66.4756L69.8074 65.993L69.8074 65.993L69.7322 66.4756ZM69.074 65.9215L69.5753 65.801L69.5753 65.8007L69.074 65.9215ZM69.1071 61.7353L69.6063 61.8355L69.6063 61.8355L69.1071 61.7353ZM69.7771 61.1881L69.8137 61.6715L69.8138 61.6715L69.7771 61.1881ZM71.3515 61.0357L71.3161 60.5522L71.3148 60.5524L71.3515 61.0357ZM72.4296 60.3936L72.8681 60.6339L72.4296 60.3936ZM72.5114 59.2055L72.0391 59.4104L72.0394 59.411L72.5114 59.2055ZM71.8907 57.8531L71.4183 58.0577L71.4184 58.058L71.8907 57.8531ZM72.0813 57.0423L72.417 57.4001L72.4171 57.4001L72.0813 57.0423ZM76.0028 54.9913L76.1317 55.4576L76.1318 55.4576L76.0028 54.9913ZM76.8426 55.2588L76.4247 55.5535L76.4248 55.5536L76.8426 55.2588ZM77.7577 56.4415L77.3399 56.7362L77.3423 56.7393L77.7577 56.4415ZM80.0433 56.4556L80.4476 56.7434L80.4481 56.7429L80.0433 56.4556ZM80.9891 55.2839L81.3939 55.5711L81.3943 55.5707L80.9891 55.2839ZM81.8409 55.0316L82.0105 54.5682L82.0095 54.5679L81.8409 55.0316ZM83.915 55.8882L84.1873 55.4683L84.1775 55.4631L83.915 55.8882ZM85.7084 57.1508L86.0627 56.7888L86.0623 56.7884L85.7084 57.1508ZM85.8834 57.9665L85.4177 57.7751L85.4171 57.7762L85.8834 57.9665ZM85.2386 59.3032L85.7041 59.4949L85.7048 59.4935L85.2386 59.3032ZM85.8085 60.9816L85.5401 61.4035L85.5409 61.4039L85.8085 60.9816ZM86.3579 61.153L86.283 61.6357L86.2831 61.6357L86.3579 61.153ZM87.9139 61.3244L87.8391 61.8071L87.8391 61.8071L87.9139 61.3244ZM88.5725 61.8779L88.0713 61.9989L88.0713 61.9989L88.5725 61.8779ZM88.5422 66.0611L88.043 65.9612L88.0429 65.9612L88.5422 66.0611ZM87.8729 66.6086L87.9097 67.092L87.9101 67.0919L87.8729 66.6086ZM86.3004 66.7612L86.3361 67.2446L86.3372 67.2445L86.3004 66.7612ZM85.1413 68.5917L85.6137 68.3872L85.6135 68.3867L85.1413 68.5917ZM85.7608 69.9445L86.2336 69.7407L86.2332 69.7399L85.7608 69.9445ZM85.5702 70.7553L85.9061 71.113L85.9062 71.1129L85.5702 70.7553ZM81.6502 72.8071L81.521 72.3408L81.5206 72.3409L81.6502 72.8071ZM78.7551 69.6406L78.7759 69.1547L78.7743 69.1547L78.7551 69.6406ZM80.9036 70.6729L81.3211 70.3778L81.3205 70.3771L80.9036 70.6729ZM81.6193 71.596L81.2017 71.8911L81.4158 72.1672L81.7676 72.0567L81.6193 71.596ZM84.4728 70.1017L84.7931 70.4721L85.0989 70.2326L84.9451 69.8971L84.4728 70.1017ZM83.9899 69.0479L84.4623 68.8433L84.4618 68.8423L83.9899 69.0479ZM84.1413 66.8101L83.7028 66.5698L83.7022 66.5708L84.1413 66.8101ZM86.1706 65.6039L86.221 65.1191L86.178 65.1163L86.1349 65.1204L86.1706 65.6039ZM86.1725 65.604L86.122 66.0888L86.1656 66.0916L86.2092 66.0873L86.1725 65.604ZM87.3964 65.4854L87.4331 65.9687L87.8231 65.931L87.9 65.5663L87.3964 65.4854ZM87.4185 62.4406L87.9237 62.3379L87.8571 61.9981L87.4936 61.9579L87.4185 62.4406ZM86.2129 62.3073L86.288 61.8247L86.2756 61.8233L86.2632 61.8225L86.2129 62.3073ZM86.211 62.3072L86.1375 62.79L86.1491 62.7912L86.1608 62.792L86.211 62.3072ZM85.1721 61.9827L84.9038 62.4047L84.9045 62.405L85.1721 61.9827ZM84.0965 58.8268L83.6581 58.5866L83.6429 58.6105L83.6306 58.6359L84.0965 58.8268ZM84.0974 58.8255L84.5359 59.0658L84.5513 59.0414L84.5637 59.0157L84.0974 58.8255ZM84.5983 57.7861L85.0647 57.9763L85.2247 57.6442L84.9393 57.413L84.5983 57.7861ZM83.2793 56.8897L83.5526 56.4703L83.5416 56.4645L83.2793 56.8897ZM81.7789 56.2412L81.9656 55.7834L81.6094 55.6624L81.374 55.9541L81.7789 56.2412ZM81.0433 57.153L81.4479 57.4405L81.4482 57.4401L81.0433 57.153ZM76.7433 57.1212L76.3255 57.416L76.327 57.4179L76.7433 57.1212ZM76.0325 56.2026L76.4503 55.9079L76.2364 55.6314L75.8844 55.7419L76.0325 56.2026ZM73.1787 57.6959L72.8586 57.3254L72.5525 57.5649L72.7065 57.9007L73.1787 57.6959ZM73.6623 58.75L73.19 58.9549L73.1901 58.955L73.6623 58.75ZM71.4802 62.1933L71.4442 61.7099L71.4438 61.7099L71.4802 62.1933ZM70.2537 62.3114L70.2173 61.828L69.8275 61.8655L69.7502 62.2299L70.2537 62.3114ZM70.2283 65.3598L69.723 65.4621L69.7893 65.802L70.1529 65.8424L70.2283 65.3598ZM71.4442 65.4951L71.5201 65.0126L71.5197 65.0125L71.4442 65.4951ZM73.4439 66.7348L73.8912 66.483L73.8911 66.4829L73.4439 66.7348ZM73.5575 68.9667L73.996 69.207L74.0116 69.1823L74.0242 69.1562L73.5575 68.9667ZM73.5554 68.9701L73.1169 68.7298L73.1016 68.7539L73.0893 68.7794L73.5554 68.9701ZM73.052 70.0117L72.5859 69.8211L72.427 70.1501L72.7073 70.3818L73.052 70.0117ZM75.8729 71.5574L75.6917 72.0171L76.0457 72.1329L76.2782 71.8441L75.8729 71.5574ZM76.6103 70.6413L77.0155 70.928L77.0159 70.9274L76.6103 70.6413ZM80.9985 60.4703C80.5185 60.2073 79.9872 60.0346 79.4345 59.9623L79.2631 60.925C79.6863 60.9804 80.0942 61.1128 80.4632 61.315L80.9985 60.4703ZM79.4345 59.9623C78.8818 59.89 78.318 59.9194 77.7752 60.0499L77.9992 60.9913C78.4105 60.8925 78.84 60.8696 79.2631 60.925L79.4345 59.9623ZM77.7752 60.0499C77.2323 60.1803 76.7211 60.4093 76.2711 60.7245L76.8659 61.4991C77.2031 61.263 77.588 61.0901 77.9992 60.9913L77.7752 60.0499ZM76.2711 60.7245C75.821 61.0397 75.4416 61.4347 75.155 61.887L76.032 62.3675C76.2456 62.0303 76.5288 61.7352 76.8659 61.4991L76.2711 60.7245ZM75.155 61.887C74.8684 62.3393 74.6806 62.8392 74.6021 63.358L75.6191 63.4666C75.6779 63.078 75.8183 62.7047 76.032 62.3675L75.155 61.887ZM74.6021 63.358C74.5236 63.8768 74.5559 64.4036 74.6962 64.9084L75.6904 64.6345C75.5841 64.2521 75.5603 63.8552 75.6191 63.4666L74.6021 63.358ZM74.6962 64.9084C74.8365 65.4131 75.0819 65.886 75.4178 66.3005L76.2404 65.6947C75.9833 65.3773 75.7967 65.0169 75.6904 64.6345L74.6962 64.9084ZM75.4178 66.3005C75.7536 66.7151 76.1735 67.0636 76.6535 67.3266L77.1887 66.4819C76.8197 66.2797 76.4975 66.0121 76.2404 65.6947L75.4178 66.3005ZM76.6535 67.3266C77.6222 67.8574 78.7809 68.0104 79.8767 67.747L79.6527 66.8056C78.8217 67.0053 77.9346 66.8906 77.1887 66.4819L76.6535 67.3266ZM79.8767 67.747C80.9734 67.4835 81.9177 66.824 82.4969 65.9099L81.62 65.4294C81.1888 66.1097 80.4829 66.6061 79.6527 66.8056L79.8767 67.747ZM82.4969 65.9099C83.0762 64.9959 83.2391 63.9083 82.9557 62.8885L81.9615 63.1624C82.1761 63.9344 82.0511 64.7491 81.62 65.4294L82.4969 65.9099ZM82.9557 62.8885C82.6725 61.8695 81.9672 61.0011 80.9985 60.4703L80.4632 61.315C81.2091 61.7237 81.7468 62.3897 81.9615 63.1624L82.9557 62.8885ZM77.1095 62.9579C77.2398 62.7523 77.4125 62.5722 77.6184 62.428L77.0236 61.6534C76.7047 61.8767 76.4357 62.1567 76.2325 62.4774L77.1095 62.9579ZM77.6184 62.428C77.8244 62.2838 78.0599 62.1779 78.3121 62.1173L78.0881 61.1758C77.7043 61.2681 77.3424 61.4301 77.0236 61.6534L77.6184 62.428ZM78.3121 62.1173C78.5644 62.0566 78.8283 62.0425 79.0888 62.0766L79.2602 61.1139C78.8702 61.0629 78.4719 61.0836 78.0881 61.1758L78.3121 62.1173ZM79.0888 62.0766C79.3494 62.1107 79.6007 62.1923 79.8282 62.3169L80.3635 61.4723C80.025 61.2868 79.6503 61.1649 79.2602 61.1139L79.0888 62.0766ZM79.8282 62.3169C80.0557 62.4416 80.2543 62.6065 80.4126 62.8019L81.2352 62.1961C80.9982 61.9035 80.702 61.6577 80.3635 61.4723L79.8282 62.3169ZM80.4126 62.8019C80.5708 62.9973 80.6854 63.2189 80.7506 63.4534L81.7449 63.1795C81.6457 62.8226 81.4722 62.4886 81.2352 62.1961L80.4126 62.8019ZM80.7506 63.4534C80.8158 63.688 80.8303 63.9308 80.7944 64.1683L81.8114 64.2768C81.867 63.9093 81.844 63.5364 81.7449 63.1795L80.7506 63.4534ZM80.7944 64.1683C80.7585 64.4056 80.6728 64.6334 80.5425 64.839L81.4194 65.3195C81.6227 64.9988 81.7558 64.6444 81.8114 64.2768L80.7944 64.1683ZM80.5425 64.839C80.2798 65.2535 79.8488 65.5573 79.3398 65.6796L79.5638 66.6211C80.3394 66.4347 81.0086 65.9679 81.4194 65.3195L80.5425 64.839ZM79.3398 65.6796C78.8299 65.8022 78.2838 65.7321 77.8237 65.48L77.2884 66.3246C77.9714 66.6989 78.7891 66.8072 79.5638 66.6211L79.3398 65.6796ZM77.8237 65.48C77.3636 65.2278 77.0331 64.8176 76.9013 64.3435L75.9071 64.6174C76.1073 65.3378 76.6055 65.9504 77.2884 66.3246L77.8237 65.48ZM76.9013 64.3435C76.7698 63.8701 76.8467 63.3725 77.1095 62.9579L76.2325 62.4774C75.8216 63.1257 75.7067 63.8962 75.9071 64.6174L76.9013 64.3435ZM81.2282 72.2456L80.3083 71.0584L79.4731 71.6485L80.3931 72.8356L81.2282 72.2456ZM80.3071 71.0569C80.13 70.8303 79.8989 70.646 79.6324 70.518L79.145 71.3872C79.2758 71.45 79.3885 71.5402 79.4742 71.65L80.3071 71.0569ZM79.6324 70.518C79.3658 70.3899 79.07 70.3212 78.7681 70.3181L78.7251 71.2898C78.8703 71.2913 79.0143 71.3244 79.145 71.3872L79.6324 70.518ZM78.7666 70.3181C78.1483 70.3133 77.5751 70.5914 77.2058 71.0508L78.0166 71.6238C78.1866 71.4123 78.4454 71.2877 78.7266 71.2898L78.7666 70.3181ZM77.206 71.0505L76.2608 72.2244L77.0711 72.7979L78.0163 71.6241L77.206 71.0505ZM76.2609 72.2243C76.2335 72.2583 76.194 72.2855 76.1455 72.3002L76.4313 73.2249C76.6841 73.1483 76.9084 72.9999 77.071 72.7981L76.2609 72.2243ZM76.1455 72.3002C76.0967 72.315 76.0409 72.3162 75.9863 72.3006L75.6617 73.2317C75.9101 73.3026 76.1787 73.3014 76.4313 73.2249L76.1455 72.3002ZM75.9865 72.3007C74.6028 71.9048 73.3384 71.212 72.2956 70.2783L71.5772 70.9936C72.7313 72.027 74.1302 72.7935 75.6615 73.2316L75.9865 72.3007ZM72.2961 70.2788C72.2551 70.2419 72.2293 70.1959 72.2196 70.1491L71.2111 70.364C71.2613 70.6064 71.3899 70.8254 71.5767 70.9932L72.2961 70.2788ZM72.2196 70.1491C72.21 70.1026 72.2165 70.0573 72.2352 70.0186L71.303 69.6373C71.1919 69.8673 71.1609 70.1213 71.2111 70.364L72.2196 70.1491ZM72.2352 70.0185L72.8804 68.6829L71.9481 68.3018L71.3029 69.6374L72.2352 70.0185ZM72.8809 68.6819C73.0061 68.4211 73.0633 68.1377 73.049 67.855L72.0227 67.931C72.0292 68.06 72.0031 68.1872 71.9476 68.3028L72.8809 68.6819ZM73.049 67.855C73.0348 67.5724 72.9496 67.2987 72.8021 67.0554L71.907 67.5583C71.9772 67.6741 72.0162 67.8019 72.0227 67.931L73.049 67.855ZM72.802 67.0552C72.6544 66.8121 72.448 66.6057 72.2001 66.4517L71.6179 67.269C71.7381 67.3437 71.837 67.4431 71.9071 67.5585L72.802 67.0552ZM72.2001 66.4517C71.9521 66.2977 71.6683 66.1998 71.371 66.1663L71.2185 67.1313C71.3607 67.1473 71.4977 67.1944 71.6179 67.269L72.2001 66.4517ZM71.37 66.1662L69.8074 65.993L69.657 66.9582L71.2195 67.1314L71.37 66.1662ZM69.8074 65.993C69.7518 65.9868 69.6986 65.9645 69.6562 65.9288L68.96 66.6634C69.1534 66.8262 69.3966 66.9294 69.657 66.9582L69.8074 65.993ZM69.6562 65.9288C69.6138 65.8931 69.5865 65.8477 69.5753 65.801L68.5726 66.042C68.6302 66.2841 68.7665 66.5005 68.96 66.6634L69.6562 65.9288ZM69.5753 65.8007C69.2631 64.4922 69.2742 63.1366 69.6063 61.8355L68.608 61.6351C68.238 63.0843 68.2264 64.5912 68.5727 66.0422L69.5753 65.8007ZM69.6063 61.8355C69.6172 61.7929 69.6417 61.755 69.6772 61.726L69.0195 60.9989C68.8149 61.166 68.6708 61.3886 68.6079 61.6352L69.6063 61.8355ZM69.6772 61.726C69.7128 61.6969 69.7599 61.6767 69.8137 61.6715L69.7405 60.7048C69.4766 60.7303 69.224 60.8319 69.0195 60.9989L69.6772 61.726ZM69.8138 61.6715L71.3882 61.5191L71.3148 60.5524L69.7404 60.7048L69.8138 61.6715ZM71.3869 61.5192C71.6877 61.4908 71.9791 61.3968 72.237 61.2432L71.7089 60.4254C71.5922 60.4949 71.4579 60.5389 71.3161 60.5522L71.3869 61.5192ZM72.237 61.2432C72.495 61.0895 72.7115 60.8809 72.8681 60.6339L71.9911 60.1533C71.9218 60.2627 71.8254 60.356 71.7089 60.4254L72.237 61.2432ZM72.8681 60.6339C73.0246 60.3868 73.116 60.1097 73.1356 59.8253L72.1103 59.792C72.1015 59.9204 72.0604 60.044 71.9911 60.1533L72.8681 60.6339ZM73.1356 59.8253C73.1551 59.5411 73.1024 59.2585 72.9834 59.0001L72.0394 59.411C72.0955 59.5328 72.1192 59.6634 72.1103 59.792L73.1356 59.8253ZM72.9836 59.0007L72.3629 57.6482L71.4184 58.058L72.0391 59.4104L72.9836 59.0007ZM72.3631 57.6485C72.3419 57.6021 72.338 57.554 72.3482 57.5109L71.3455 57.328C71.2874 57.5754 71.3142 57.8304 71.4183 58.0577L72.3631 57.6485ZM72.3482 57.5109C72.3583 57.468 72.3821 57.4296 72.417 57.4001L71.7456 56.6845C71.5437 56.8551 71.4038 57.0803 71.3455 57.328L72.3482 57.5109ZM72.4171 57.4001C73.4803 56.5009 74.75 55.8364 76.1317 55.4576L75.8739 54.5249C74.3416 54.945 72.9298 55.683 71.7455 56.6845L72.4171 57.4001ZM76.1318 55.4576C76.1812 55.444 76.2371 55.4443 76.2912 55.4616L76.6459 54.5396C76.399 54.461 76.1294 54.4548 75.8738 54.5249L76.1318 55.4576ZM76.2912 55.4616C76.3454 55.4788 76.3921 55.5113 76.4247 55.5535L77.2604 54.9641C77.1073 54.7662 76.8927 54.6183 76.6459 54.5396L76.2912 55.4616ZM76.4248 55.5536L77.3399 56.7362L78.1755 56.1467L77.2604 54.9641L76.4248 55.5536ZM77.3423 56.7393C77.5194 56.9643 77.7502 57.147 78.0161 57.2735L78.5 56.4026C78.3703 56.3409 78.2584 56.252 78.1731 56.1437L77.3423 56.7393ZM78.0161 57.2735C78.282 57.4 78.5768 57.4672 78.8775 57.4691L78.9158 56.4973C78.7722 56.4964 78.6296 56.4642 78.5 56.4026L78.0161 57.2735ZM78.8775 57.4691C79.1783 57.4709 79.4773 57.4073 79.7504 57.2816L79.3242 56.4102C79.1991 56.4678 79.0593 56.4982 78.9158 56.4973L78.8775 57.4691ZM79.7504 57.2816C80.0236 57.156 80.2627 56.9719 80.4476 56.7434L79.639 56.1678C79.5567 56.2695 79.4492 56.3527 79.3242 56.4102L79.7504 57.2816ZM80.4481 56.7429L81.3939 55.5711L80.5843 54.9966L79.6385 56.1683L80.4481 56.7429ZM81.3943 55.5707C81.422 55.5363 81.462 55.5088 81.5112 55.4942L81.232 54.5676C80.9758 54.6435 80.7484 54.7929 80.584 54.9971L81.3943 55.5707ZM81.5112 55.4942C81.5608 55.4796 81.6173 55.4788 81.6724 55.4953L82.0095 54.5679C81.7595 54.4931 81.4878 54.4918 81.232 54.5676L81.5112 55.4942ZM81.6713 55.495C82.3543 55.7009 83.013 55.9724 83.6524 56.3132L84.1775 55.4631C83.4801 55.0913 82.7592 54.794 82.0105 54.5682L81.6713 55.495ZM83.6426 56.3079C84.2568 56.653 84.8301 57.0573 85.3546 57.5131L86.0623 56.7884C85.4884 56.2896 84.8605 55.8467 84.1873 55.4684L83.6426 56.3079ZM85.3541 57.5127C85.3963 57.5495 85.4229 57.5958 85.4331 57.6431L86.4403 57.422C86.3877 57.1767 86.2547 56.956 86.0627 56.7888L85.3541 57.5127ZM85.4331 57.6431C85.4432 57.6902 85.4367 57.736 85.4177 57.7751L86.3491 58.158C86.4622 57.9252 86.4929 57.6675 86.4403 57.422L85.4331 57.6431ZM85.4171 57.7762L84.7723 59.1129L85.7048 59.4935L86.3496 58.1569L85.4171 57.7762ZM84.773 59.1115C84.5734 59.5219 84.5454 59.9829 84.6888 60.4051L85.668 60.0824C85.601 59.8852 85.6159 59.6764 85.7041 59.4949L84.773 59.1115ZM84.6888 60.4051C84.832 60.8268 85.1361 61.1812 85.5401 61.4035L86.0769 60.5597C85.8798 60.4512 85.7351 60.2801 85.668 60.0824L84.6888 60.4051ZM85.5409 61.4039C85.7677 61.5282 86.02 61.6067 86.283 61.6357L86.4329 60.6704C86.3051 60.6563 86.1841 60.6184 86.0762 60.5592L85.5409 61.4039ZM86.2831 61.6357L87.8391 61.8071L87.9888 60.8417L86.4328 60.6704L86.2831 61.6357ZM87.8391 61.8071C87.8946 61.8132 87.9479 61.8354 87.9903 61.8711L88.6858 61.1359C88.4923 60.9733 88.2491 60.8704 87.9887 60.8417L87.8391 61.8071ZM87.9903 61.8711C88.0327 61.9068 88.0601 61.9521 88.0713 61.9989L89.0738 61.7569C89.0159 61.5149 88.8794 61.2986 88.6858 61.1359L87.9903 61.8711ZM88.0713 61.9989C88.3841 63.3063 88.3739 64.6609 88.043 65.9612L89.0415 66.161C89.4102 64.7125 89.4207 63.2067 89.0738 61.7568L88.0713 61.9989ZM88.0429 65.9612C88.0321 66.0038 88.0076 66.0418 87.9722 66.0707L88.6306 66.7973C88.835 66.63 88.9788 66.4074 89.0415 66.1609L88.0429 65.9612ZM87.9722 66.0707C87.9366 66.0998 87.8896 66.1201 87.8358 66.1253L87.9101 67.0919C88.1739 67.0662 88.4264 66.9644 88.6306 66.7973L87.9722 66.0707ZM87.8361 66.1253L86.2636 66.2778L86.3372 67.2445L87.9097 67.092L87.8361 66.1253ZM86.2647 66.2777C85.659 66.3352 85.1005 66.6565 84.7806 67.1613L85.6576 67.6418C85.7957 67.4238 86.046 67.2722 86.3361 67.2446L86.2647 66.2777ZM84.7806 67.1613C84.4609 67.6657 84.4297 68.2756 84.6691 68.7968L85.6135 68.3867C85.4983 68.1359 85.5201 67.8587 85.6576 67.6418L84.7806 67.1613ZM84.6689 68.7963L85.2884 70.1491L86.2332 69.7399L85.6137 68.3872L84.6689 68.7963ZM85.2881 70.1483C85.3313 70.2431 85.3025 70.3399 85.2343 70.3976L85.9062 71.1129C86.3221 70.761 86.4462 70.2073 86.2336 69.7407L85.2881 70.1483ZM85.2344 70.3976C84.1715 71.2967 82.9023 71.9614 81.521 72.3408L81.7793 73.2734C83.3111 72.8527 84.7222 72.1145 85.9061 71.113L85.2344 70.3976ZM81.5206 72.3409C81.4712 72.3545 81.4153 72.3543 81.3612 72.3371L81.0074 73.2593C81.2544 73.3377 81.524 73.3437 81.7797 73.2733L81.5206 72.3409ZM81.3612 72.3371C81.3072 72.3199 81.2611 72.2879 81.2283 72.2456L80.393 72.8356C80.5462 73.0333 80.7603 73.1808 81.0074 73.2593L81.3612 72.3371ZM77.3133 70.6247C77.7007 70.3028 78.2068 70.1232 78.736 70.1265L78.7743 69.1547C77.9954 69.1499 77.2368 69.4146 76.6487 69.9032L77.3133 70.6247ZM78.7344 70.1265C79.0757 70.1295 79.4127 70.2071 79.7177 70.3537L80.2052 69.4845C79.7639 69.2724 79.2746 69.1592 78.7759 69.1547L78.7344 70.1265ZM79.7177 70.3537C80.0227 70.5002 80.286 70.7111 80.4866 70.9688L81.3205 70.3771C81.0285 70.002 80.6465 69.6965 80.2052 69.4845L79.7177 70.3537ZM80.486 70.968L81.2017 71.8911L82.0368 71.3009L81.3211 70.3778L80.486 70.968ZM81.7676 72.0567C82.8727 71.7094 83.899 71.1721 84.7931 70.4721L84.1525 69.7313C83.3618 70.3505 82.4524 70.8269 81.4709 71.1354L81.7676 72.0567ZM84.9451 69.8971L84.4623 68.8433L83.5175 69.2526L84.0004 70.3064L84.9451 69.8971ZM84.4618 68.8423C84.3285 68.553 84.271 68.2393 84.292 67.928L83.2666 67.8959C83.2352 68.3617 83.3214 68.8271 83.518 69.2535L84.4618 68.8423ZM84.292 67.928C84.313 67.6172 84.412 67.3164 84.5804 67.0494L83.7022 66.5708C83.4471 66.9754 83.2981 67.4295 83.2666 67.8959L84.292 67.928ZM84.5798 67.0503C84.9237 66.5076 85.5301 66.1516 86.2063 66.0873L86.1349 65.1204C85.1428 65.2147 84.2284 65.7405 83.7028 66.5698L84.5798 67.0503ZM86.1202 66.0886L86.122 66.0888L86.2229 65.1192L86.221 65.1191L86.1202 66.0886ZM86.2092 66.0873L87.4331 65.9687L87.3596 65.002L86.1357 65.1206L86.2092 66.0873ZM87.9 65.5663C88.1251 64.5 88.1328 63.4048 87.9237 62.3379L86.9133 62.5433C87.099 63.4909 87.0918 64.4614 86.8927 65.4045L87.9 65.5663ZM87.4936 61.9579L86.288 61.8247L86.1378 62.79L87.3434 62.9232L87.4936 61.9579ZM86.2632 61.8225L86.2613 61.8224L86.1608 62.792L86.1626 62.7921L86.2632 61.8225ZM86.2846 61.8244C85.9862 61.7923 85.6993 61.7026 85.4398 61.5604L84.9045 62.405C85.2814 62.6116 85.7002 62.743 86.1375 62.79L86.2846 61.8244ZM85.4404 61.5607C84.9784 61.3067 84.6357 60.9044 84.4754 60.434L83.4966 60.7577C83.7331 61.4518 84.2351 62.037 84.9038 62.4047L85.4404 61.5607ZM84.4754 60.434C84.3153 59.9641 84.3483 59.4603 84.5625 59.0178L83.6306 58.6359C83.3056 59.3073 83.2598 60.0631 83.4966 60.7577L84.4754 60.434ZM84.535 59.0671L84.5359 59.0658L83.6589 58.5852L83.6581 58.5866L84.535 59.0671ZM84.5637 59.0157L85.0647 57.9763L84.132 57.596L83.6311 58.6353L84.5637 59.0157ZM84.9393 57.413C84.5068 57.0626 84.0428 56.7473 83.5525 56.4705L83.0061 57.3089C83.4485 57.5587 83.8671 57.8432 84.2573 58.1593L84.9393 57.413ZM83.5416 56.4645C83.038 56.1964 82.5107 55.9685 81.9656 55.7834L81.5922 56.6991C82.0849 56.8665 82.5616 57.0725 83.017 57.3149L83.5416 56.4645ZM81.374 55.9541L80.6385 56.8658L81.4482 57.4401L82.1837 56.5284L81.374 55.9541ZM80.6388 56.8654C80.4389 57.1127 80.1787 57.3139 79.878 57.4521L80.3039 58.3236C80.753 58.1172 81.1452 57.8149 81.4479 57.4405L80.6388 56.8654ZM79.878 57.4521C79.5773 57.5903 79.244 57.6619 78.9045 57.6594L78.8649 58.6311C79.3619 58.6348 79.8548 58.53 80.3039 58.3236L79.878 57.4521ZM78.9045 57.6594C78.565 57.6569 78.2297 57.5803 77.9259 57.4351L77.4401 58.3051C77.8802 58.5155 78.368 58.6275 78.8649 58.6311L78.9045 57.6594ZM77.9259 57.4351C77.6222 57.2898 77.3598 57.0805 77.1597 56.8246L76.327 57.4179C76.6188 57.791 77 58.0946 77.4401 58.3051L77.9259 57.4351ZM77.1611 56.8265L76.4503 55.9079L75.6147 56.4974L76.3255 57.416L77.1611 56.8265ZM75.8844 55.7419C74.7792 56.0887 73.7527 56.6256 72.8586 57.3254L73.4989 58.0663C74.2897 57.4474 75.1992 56.9713 76.1807 56.6633L75.8844 55.7419ZM72.7065 57.9007L73.19 58.9549L74.1346 58.5452L73.651 57.491L72.7065 57.9007ZM73.1901 58.955C73.323 59.2445 73.3801 59.5571 73.3585 59.8675L74.3838 59.9014C74.4161 59.4355 74.3301 58.971 74.1345 58.545L73.1901 58.955ZM73.3585 59.8675C73.337 60.1778 73.2374 60.4779 73.0687 60.7442L73.9456 61.2248C74.2016 60.8209 74.3514 60.3674 74.3838 59.9014L73.3585 59.8675ZM73.0687 60.7442C72.8999 61.0106 72.6658 61.2369 72.3843 61.4048L72.9129 62.2223C73.3356 61.9702 73.6897 61.6286 73.9456 61.2248L73.0687 60.7442ZM72.3843 61.4048C72.1027 61.5727 71.7809 61.6778 71.4442 61.7099L71.5161 62.6767C72.0116 62.6295 72.4903 62.4743 72.9129 62.2223L72.3843 61.4048ZM71.4438 61.7099L70.2173 61.828L70.2901 62.7948L71.5166 62.6767L71.4438 61.7099ZM69.7502 62.2299C69.5235 63.2973 69.5146 64.3937 69.723 65.4621L70.7336 65.2575C70.5485 64.3086 70.5568 63.3369 70.7573 62.3929L69.7502 62.2299ZM70.1529 65.8424L71.3688 65.9777L71.5197 65.0125L70.3038 64.8772L70.1529 65.8424ZM71.3684 65.9777C71.7053 66.0154 72.0288 66.1264 72.3122 66.3021L72.8937 65.4844C72.4825 65.2295 72.0121 65.0677 71.5201 65.0126L71.3684 65.9777ZM72.3122 66.3021C72.5956 66.4778 72.8299 66.7126 72.9966 66.9867L73.8911 66.4829C73.6468 66.0812 73.305 65.7394 72.8937 65.4844L72.3122 66.3021ZM72.9965 66.9866C73.1631 67.2607 73.2572 67.5656 73.2731 67.8764L74.2993 67.7999C74.2757 67.3355 74.1353 66.8846 73.8912 66.483L72.9965 66.9866ZM73.2731 67.8764C73.2889 68.1871 73.2261 68.4955 73.0908 68.7773L74.0242 69.1562C74.2291 68.7292 74.323 68.2645 74.2993 67.7999L73.2731 67.8764ZM73.119 68.7265L73.1169 68.7298L73.9939 69.2103L73.996 69.207L73.119 68.7265ZM73.0893 68.7794L72.5859 69.8211L73.5182 70.2023L74.0215 69.1607L73.0893 68.7794ZM72.7073 70.3818C73.5788 71.1021 74.5918 71.6572 75.6917 72.0171L76.0541 71.0977C75.0748 70.7772 74.1727 70.2829 73.3968 69.6416L72.7073 70.3818ZM76.2782 71.8441L77.0155 70.928L76.2051 70.3546L75.4677 71.2707L76.2782 71.8441ZM77.0159 70.9274C77.1046 70.817 77.2042 70.7161 77.3119 70.6278L76.653 69.9017C76.4869 70.0378 76.3367 70.1906 76.2046 70.3551L77.0159 70.9274Z" fill="#F2A602" mask="url(#path-9-outside-2_1157_6673)"/>
<path d="M41.5078 2.88014C48.3978 2.26214 55.3545 3.04341 61.8619 5.16601C68.3693 7.28861 74.2604 10.6981 79.0982 15.1415C83.936 19.5849 87.5964 24.9482 89.8078 30.8336C92.0192 36.719 92.7249 42.9754 91.8725 49.1388" stroke="#F2A602" stroke-width="3.5"/>
<path d="M52.9375 90.7214C46.0475 91.3394 39.0908 90.5581 32.5834 88.4356C26.076 86.313 20.1849 82.9035 15.3471 78.4601C10.5093 74.0167 6.84893 68.6534 4.63754 62.768C2.42614 56.8826 1.72046 50.6262 2.57283 44.4628" stroke="#233F8C" stroke-width="3.5"/>
<ellipse cx="38.7847" cy="3.44861" rx="3.35701" ry="3.01111" fill="#233F8C"/>
<ellipse cx="54.9789" cy="90.153" rx="3.35701" ry="3.01111" transform="rotate(180 54.9789 90.153)" fill="#F2A602"/>
<path d="M52.0957 51.406C53.8833 51.406 55.3325 52.7202 55.3325 54.3413V62.3067C55.3325 66.4761 51.6051 69.8562 47.0074 69.8562C42.4095 69.8562 38.6822 66.4761 38.6822 62.3067V54.3413C38.6822 52.7202 40.1314 51.406 41.919 51.406H52.0957ZM37.9967 51.4045C37.3503 52.1135 36.9333 53.0008 36.8486 53.973L36.8326 54.3413V62.3067C36.8326 63.7267 37.1864 65.0719 37.8184 66.2735C37.2097 66.4228 36.5682 66.5016 35.9066 66.5016C31.8193 66.5016 28.5059 63.4969 28.5059 59.7904V54.3413C28.5059 52.8012 29.8137 51.5382 31.4772 51.4158L31.7427 51.406L37.9967 51.4045ZM56.0181 51.4045L62.2611 51.406C64.0487 51.406 65.4979 52.7202 65.4979 54.3413V59.7925C65.4979 63.4978 62.1854 66.5016 58.0995 66.5016C57.4403 66.5016 56.801 66.4234 56.1927 66.2767C56.7487 65.2235 57.0892 64.0615 57.1656 62.8357L57.1821 62.3067V54.3413C57.1821 53.2254 56.7452 52.2022 56.0181 51.4045ZM47.0019 39.665C50.0665 39.665 52.5507 41.9179 52.5507 44.6969C52.5507 47.4759 50.0665 49.7287 47.0019 49.7287C43.9373 49.7287 41.4531 47.4759 41.4531 44.6969C41.4531 41.9179 43.9373 39.665 47.0019 39.665ZM59.0243 41.3423C61.578 41.3423 63.6483 43.2197 63.6483 45.5355C63.6483 47.8514 61.578 49.7287 59.0243 49.7287C56.4705 49.7287 54.4003 47.8514 54.4003 45.5355C54.4003 43.2197 56.4705 41.3423 59.0243 41.3423ZM34.9795 41.3423C37.5332 41.3423 39.6035 43.2197 39.6035 45.5355C39.6035 47.8514 37.5332 49.7287 34.9795 49.7287C32.4257 49.7287 30.3555 47.8514 30.3555 45.5355C30.3555 43.2197 32.4257 41.3423 34.9795 41.3423Z" fill="#233F8C"/>
</svg>
