<svg width="23" height="17" viewBox="0 0 23 17" fill="none" xmlns="http://www.w3.org/2000/svg">
<path d="M22.2903 7.54685L16.292 1.55425C15.9155 1.17811 15.4049 0.966797 14.8724 0.966797C14.34 0.966797 13.8293 1.17811 13.4528 1.55425C13.0763 1.9304 12.8648 2.44056 12.8648 2.9725C12.8648 3.50445 13.0763 4.01461 13.4528 4.39075L16.0521 6.96756H2.48111C1.95083 6.96756 1.44227 7.17802 1.06731 7.55263C0.692342 7.92724 0.481689 8.43532 0.481689 8.96509C0.481689 9.49487 0.692342 10.003 1.06731 10.3776C1.44227 10.7522 1.95083 10.9626 2.48111 10.9626H16.0521L13.4528 13.5394C13.2654 13.7251 13.1167 13.9461 13.0152 14.1895C12.9137 14.4329 12.8614 14.694 12.8614 14.9577C12.8614 15.2214 12.9137 15.4825 13.0152 15.7259C13.1167 15.9693 13.2654 16.1902 13.4528 16.3759C13.6387 16.5632 13.8598 16.7118 14.1035 16.8132C14.3471 16.9146 14.6085 16.9668 14.8724 16.9668C15.1364 16.9668 15.3977 16.9146 15.6413 16.8132C15.885 16.7118 16.1061 16.5632 16.292 16.3759L22.2903 10.3833C22.4777 10.1976 22.6264 9.97672 22.7279 9.7333C22.8294 9.48988 22.8817 9.22879 22.8817 8.96509C22.8817 8.7014 22.8294 8.44031 22.7279 8.19689C22.6264 7.95347 22.4777 7.73254 22.2903 7.54685Z" fill="#F2A602"/>
</svg>
