<svg width="23" height="17" viewBox="0 0 23 17" fill="none" xmlns="http://www.w3.org/2000/svg">
<path d="M0.673115 7.54685L6.67138 1.55425C7.04787 1.17811 7.55851 0.966797 8.09096 0.966797C8.62341 0.966797 9.13405 1.17811 9.51055 1.55425C9.88705 1.9304 10.0986 2.44056 10.0986 2.9725C10.0986 3.50445 9.88705 4.01461 9.51055 4.39075L6.9113 6.96756H20.4823C21.0125 6.96756 21.5211 7.17802 21.8961 7.55263C22.271 7.92724 22.4817 8.43532 22.4817 8.96509C22.4817 9.49487 22.271 10.003 21.8961 10.3776C21.5211 10.7522 21.0125 10.9626 20.4823 10.9626H6.9113L9.51055 13.5394C9.69795 13.7251 9.8467 13.9461 9.94821 14.1895C10.0497 14.4329 10.102 14.694 10.102 14.9577C10.102 15.2214 10.0497 15.4825 9.94821 15.7259C9.8467 15.9693 9.69795 16.1902 9.51055 16.3759C9.32468 16.5632 9.10354 16.7118 8.85989 16.8132C8.61624 16.9146 8.35491 16.9668 8.09096 16.9668C7.82701 16.9668 7.56568 16.9146 7.32203 16.8132C7.07838 16.7118 6.85725 16.5632 6.67138 16.3759L0.673115 10.3833C0.485712 10.1976 0.33696 9.97672 0.235453 9.7333C0.133945 9.48988 0.081686 9.22879 0.081686 8.96509C0.081686 8.7014 0.133945 8.44031 0.235453 8.19689C0.33696 7.95347 0.485712 7.73254 0.673115 7.54685Z" fill="#F2A602"/>
</svg>
