<svg width="25" height="25" viewBox="0 0 25 25" fill="none" xmlns="http://www.w3.org/2000/svg">
<path d="M18.8415 10.7026H22.1642C22.3824 10.7026 22.564 10.8842 22.564 11.1023V17.127C22.564 18.9953 21.9178 20.3905 20.9265 21.3216C19.9276 22.2597 18.5198 22.7811 16.9099 22.7811H7.87286C6.26291 22.7811 4.85511 22.2597 3.85629 21.3216C2.8649 20.3905 2.21875 18.9953 2.21875 17.127V6.94024C2.21875 5.07192 2.8649 3.67677 3.85629 2.74565C4.85511 1.80755 6.26291 1.28613 7.87286 1.28613H12.7478C12.9659 1.28613 13.1475 1.46773 13.1475 1.68588V5.00866C13.1475 8.14778 15.7024 10.7026 18.8415 10.7026Z" stroke="#233F8C" stroke-width="1.5"/>
<path d="M16.7565 0.778724C16.2851 0.307326 15.4688 0.629256 15.4688 1.28461V5.29724C15.4688 6.97588 16.8944 8.36707 18.6306 8.36707C19.7228 8.37857 21.2405 8.37857 22.5397 8.37857C23.1951 8.37857 23.54 7.60824 23.0801 7.14834C21.4245 5.4812 18.4581 2.48035 16.7565 0.778724Z" fill="#F2A602"/>
<path d="M14.1124 14.0469H7.21387C6.74248 14.0469 6.35156 13.656 6.35156 13.1846C6.35156 12.7132 6.74248 12.3223 7.21387 12.3223H14.1124C14.5838 12.3223 14.9747 12.7132 14.9747 13.1846C14.9747 13.656 14.5838 14.0469 14.1124 14.0469Z" fill="#F2A602"/>
<path d="M11.8129 18.6445H7.21387C6.74248 18.6445 6.35156 18.2536 6.35156 17.7822C6.35156 17.3108 6.74248 16.9199 7.21387 16.9199H11.8129C12.2843 16.9199 12.6752 17.3108 12.6752 17.7822C12.6752 18.2536 12.2843 18.6445 11.8129 18.6445Z" fill="#F2A602"/>
</svg>
