<?xml version="1.0" encoding="UTF-8"?>
<svg xmlns="http://www.w3.org/2000/svg" xmlns:xlink="http://www.w3.org/1999/xlink" width="45px" height="23px" viewBox="0 0 46 23" version="1.1">
<g id="surface1">
<path style=" stroke:none;fill-rule:evenodd;fill:rgb(3.529412%,47.450981%,22.352941%);fill-opacity:1;" d="M 36.675781 16.445312 L 42.167969 11.4375 L 39.566406 6.253906 Z M 36.675781 16.445312 "/>
<path style=" stroke:none;fill-rule:evenodd;fill:rgb(92.941177%,45.882353%,18.039216%);fill-opacity:1;" d="M 34.828125 16.445312 L 40.316406 11.4375 L 37.71875 6.253906 Z M 34.828125 16.445312 "/>
<path style=" stroke:none;fill-rule:evenodd;fill:rgb(45.490196%,45.490196%,45.490196%);fill-opacity:1;" d="M 8.589844 6.3125 L 6.277344 14.546875 L 14.484375 14.601562 L 16.738281 6.3125 L 18.820312 6.3125 L 16.117188 15.949219 C 16.011719 16.320312 15.621094 16.617188 15.238281 16.617188 L 4.71875 16.617188 C 4.082031 16.617188 3.703125 16.121094 3.875 15.503906 L 6.453125 6.3125 Z M 33.960938 6.257812 L 36.039062 6.257812 L 33.152344 16.617188 L 31.011719 16.617188 Z M 19.050781 10.574219 L 29.453125 10.515625 L 30.148438 8.328125 L 19.570312 8.328125 L 20.207031 6.3125 L 31.476562 6.210938 C 32.179688 6.203125 32.59375 6.746094 32.410156 7.421875 L 31.347656 11.304688 C 31.164062 11.980469 30.445312 12.53125 29.742188 12.53125 L 20.4375 12.53125 L 19.339844 16.789062 L 17.316406 16.789062 Z M 19.050781 10.574219 "/>
</g>
</svg>
