<svg width="17" height="16" viewBox="0 0 17 16" fill="none" xmlns="http://www.w3.org/2000/svg">
<path d="M12.2586 5.86426C13.8077 5.8728 14.6467 5.94189 15.1937 6.48888C15.8197 7.11493 15.8197 8.12201 15.8197 10.1362V10.8484C15.8197 12.8633 15.8197 13.8704 15.1937 14.4964C14.5683 15.1218 13.5605 15.1218 11.5463 15.1218H5.84855C3.83437 15.1218 2.82658 15.1218 2.20124 14.4964C1.5752 13.8697 1.5752 12.8633 1.5752 10.8484V10.1362C1.5752 8.12201 1.5752 7.11493 2.20124 6.48888C2.74823 5.94189 3.58723 5.8728 5.13632 5.86426" stroke="#233F8C" stroke-width="1.5" stroke-linecap="round"/>
<path d="M8.69722 10.1369V0.87793M8.69722 0.87793L10.8339 3.37072M8.69722 0.87793L6.56055 3.37072" stroke="#F2A602" stroke-width="1.5" stroke-linecap="round" stroke-linejoin="round"/>
</svg>
