<svg width="13" height="13" viewBox="0 0 13 13" fill="none" xmlns="http://www.w3.org/2000/svg">
<path d="M12.0647 6.89035H7.77902V11.1761C7.77902 11.4034 7.68871 11.6214 7.52797 11.7822C7.36722 11.9429 7.1492 12.0332 6.92188 12.0332C6.69455 12.0332 6.47653 11.9429 6.31578 11.7822C6.15504 11.6214 6.06473 11.4034 6.06473 11.1761V6.89035H1.77902C1.55169 6.89035 1.33367 6.80004 1.17293 6.6393C1.01218 6.47855 0.921875 6.26053 0.921875 6.0332C0.921875 5.80588 1.01218 5.58786 1.17293 5.42711C1.33367 5.26637 1.55169 5.17606 1.77902 5.17606H6.06473V0.890346C6.06473 0.663018 6.15504 0.445 6.31578 0.284254C6.47653 0.123509 6.69455 0.0332031 6.92188 0.0332031C7.1492 0.0332031 7.36722 0.123509 7.52797 0.284254C7.68871 0.445 7.77902 0.663018 7.77902 0.890346V5.17606H12.0647C12.2921 5.17606 12.5101 5.26637 12.6708 5.42711C12.8316 5.58786 12.9219 5.80588 12.9219 6.0332C12.9219 6.26053 12.8316 6.47855 12.6708 6.6393C12.5101 6.80004 12.2921 6.89035 12.0647 6.89035Z" fill="#B6B3B3"/>
</svg>
