<?xml version="1.0" encoding="UTF-8"?>
<svg version="1.1" xmlns="http://www.w3.org/2000/svg" width="42" height="14">
<path d="M0 0 C1.27875 -0.061875 2.5575 -0.12375 3.875 -0.1875 C4.95394531 -0.23970703 4.95394531 -0.23970703 6.0546875 -0.29296875 C6.69664062 -0.19628906 7.33859375 -0.09960938 8 0 C8.66 0.99 9.32 1.98 10 3 C10.33 2.01 10.66 1.02 11 0 C17.6 0 24.2 0 31 0 C31 1.32 31 2.64 31 4 C30.01 4.495 30.01 4.495 29 5 C29.66 5.66 30.32 6.32 31 7 C31.99 4.69 32.98 2.38 34 0 C35.98 0 37.96 0 40 0 C41.5912689 4.873261 42.21192221 8.80790596 42 14 C41.236875 13.814375 40.47375 13.62875 39.6875 13.4375 C36.91032625 12.77180827 36.91032625 12.77180827 34 14 C32.44578271 14.08106686 30.88832973 14.10756898 29.33203125 14.09765625 C28.43935547 14.09443359 27.54667969 14.09121094 26.62695312 14.08789062 C25.23379883 14.07532227 25.23379883 14.07532227 23.8125 14.0625 C22.87212891 14.05798828 21.93175781 14.05347656 20.96289062 14.04882812 C18.64186288 14.03704626 16.32096356 14.02059558 14 14 C14 12.02 14 10.04 14 8 C13.01 9.98 12.02 11.96 11 14 C9.35 14 7.7 14 6 14 C5.01 10.04 4.02 6.08 3 2 C2.01 2 1.02 2 0 2 C0 1.34 0 0.68 0 0 Z M15 3 C16 5 16 5 16 5 Z M20 5 C20 6.65 20 8.3 20 10 C21.65 10 23.3 10 25 10 C23.35 8.35 21.7 6.7 20 5 Z " fill="#1434CB" transform="translate(0,0)"/>
</svg>
