<svg width="117" height="114" viewBox="0 0 117 114" fill="none" xmlns="http://www.w3.org/2000/svg">
<g opacity="0.1" filter="url(#filter0_f_1239_1017)">
<path d="M53.7066 109.296C79.4159 109.296 100.257 107.855 100.257 106.08C100.257 104.303 79.4159 102.863 53.7066 102.863C27.9974 102.863 7.15625 104.303 7.15625 106.078C7.15625 107.854 27.9974 109.296 53.7066 109.296Z" fill="#233F8C"/>
</g>
<path d="M60.9859 0.533203H89.8027C91.3092 0.533203 92.7607 1.14279 93.8276 2.22445C94.8969 3.31178 95.4961 4.77638 95.4959 6.30209V11.8388C95.4959 12.1443 95.4348 12.4422 95.3234 12.7249C95.208 13.0042 95.0395 13.2584 94.8274 13.4735C94.6165 13.688 94.3645 13.8576 94.0865 13.9721C93.8084 14.0866 93.5101 14.1435 93.2095 14.1396H60.9844L60.9859 0.533203Z" fill="#17327D"/>
<path d="M79.7133 1.29365H80.0242L80.0288 1.28906H85.3598C84.4547 2.02319 83.8307 2.92772 83.4077 3.82955C82.5948 5.56264 82.515 7.29035 82.515 7.82351V86.4032V86.4053C82.5172 87.1815 82.369 87.9507 82.0788 88.6704C81.7848 89.388 81.3571 90.0445 80.8197 90.5932L80.8179 90.5951C80.2827 91.1455 79.6428 91.5829 78.936 91.8816L78.9346 91.8821C78.225 92.1837 77.4758 92.3419 76.7156 92.3419H12.2949L12.2949 8.63629L12.2949 8.63534C12.2925 6.69297 13.0542 4.82787 14.415 3.4436L14.4158 3.44286C15.0818 2.76348 15.8762 2.2236 16.7527 1.85463C17.629 1.48573 18.5698 1.29504 19.5204 1.29365H79.7133Z" fill="#F9EFDB" stroke="#233F8C" stroke-width="1.5"/>
<path d="M9.81009 93.0921H76.5254C74.0024 93.0921 71.9586 90.4185 71.9586 86.353V82.6971C71.9595 82.3639 71.8289 82.0438 71.5954 81.8064C71.4813 81.6892 71.3451 81.596 71.1947 81.532C71.0443 81.468 70.8827 81.4345 70.7193 81.4336H6.6552C6.46691 81.4347 6.2807 81.473 6.10728 81.5464C5.93387 81.6198 5.77668 81.7269 5.64478 81.8614C5.37575 82.1357 5.2255 82.5051 5.22657 82.8896V88.4323C5.22657 89.0419 5.34409 89.65 5.57304 90.2137C5.91531 91.0606 6.50155 91.7863 7.25716 92.2986C8.01277 92.8109 8.90358 93.0866 9.8162 93.0905H9.80857L9.81009 93.0921Z" fill="#233F8C"/>
<path d="M32.0156 33.0908C38.1208 33.0908 43.0624 28.0727 43.0624 21.9056C43.0624 15.7369 38.1209 10.7188 32.0156 10.7188C25.9087 10.7188 20.9688 15.737 20.9688 21.9056C20.9688 28.0726 25.9088 33.0908 32.0156 33.0908Z" fill="#F2A602" fill-opacity="0.5" stroke="#233F8C"/>
<path d="M58.7922 40.3633H18.1235C17.9607 40.3639 17.7997 40.3966 17.6495 40.4595C17.4994 40.5224 17.3631 40.6142 17.2484 40.7299C17.1338 40.8455 17.043 40.9826 16.9813 41.1333C16.9195 41.2841 16.8881 41.4455 16.8887 41.6084V42.0255C16.8887 42.713 17.4427 43.2722 18.1235 43.2722H58.7922C58.955 43.2716 59.1162 43.2388 59.2664 43.1758C59.4167 43.1128 59.553 43.0208 59.6677 42.905C59.7824 42.7893 59.8732 42.652 59.9348 42.5011C59.9964 42.3501 60.0277 42.1885 60.0269 42.0255V41.6084C60.0275 41.4455 59.9961 41.2841 59.9343 41.1333C59.8726 40.9826 59.7818 40.8455 59.6672 40.7299C59.5525 40.6142 59.4162 40.5224 59.2661 40.4595C59.1159 40.3966 58.9549 40.3639 58.7922 40.3633ZM76.7981 49.1083H18.3249C17.5313 49.1083 16.8902 49.7561 16.8902 50.5627V50.575C16.8902 51.3755 17.5313 52.0294 18.3249 52.0294H76.7981C77.5918 52.0294 78.2328 51.3801 78.2328 50.5734V50.5627C78.2349 50.1795 78.0849 49.8112 77.816 49.5385C77.547 49.2658 77.1809 49.1111 76.7981 49.1083ZM76.7981 57.8441H18.3249C17.5313 57.8441 16.8902 58.4919 16.8902 59.2986V59.3093C16.8902 60.1113 17.5313 60.7652 18.3249 60.7652H76.7981C77.5918 60.7652 78.2328 60.1159 78.2328 59.3093V59.2986C78.2349 58.9154 78.0849 58.547 77.816 58.2744C77.547 58.0017 77.1809 57.8469 76.7981 57.8441ZM76.7981 66.5891H18.3249C17.5313 66.5891 16.8902 67.2369 16.8902 68.0436V68.0558C16.8902 68.8563 17.5313 69.5102 18.3249 69.5102H76.7981C77.5918 69.5102 78.2328 68.8609 78.2328 68.0543V68.0436C78.2349 67.6604 78.0849 67.292 77.816 67.0194C77.547 66.7467 77.1809 66.5919 76.7981 66.5891Z" fill="#F2A602"/>
<path d="M25.5508 25.7333V17.2572H28.8217C29.3803 17.2419 29.9328 17.3595 30.4411 17.607C30.8776 17.8209 31.2348 18.1723 31.4637 18.6047C31.7079 19.0508 31.8316 19.558 31.8255 20.0652C31.8381 20.5743 31.7131 21.0774 31.4637 21.5212C31.2099 21.9136 30.847 22.2232 30.4197 22.4119C29.9048 22.6389 29.3459 22.7485 28.7835 22.7327H26.5658V21.2951H28.4935C28.7942 21.3058 29.0903 21.2554 29.3742 21.1545C29.5803 21.0695 29.7559 20.9241 29.8779 20.7375C29.991 20.52 30.0448 20.2765 30.0336 20.0316C30.0386 19.7858 29.9852 19.5423 29.8779 19.3212C29.758 19.1287 29.5823 18.9773 29.3742 18.8873C29.0946 18.7751 28.7945 18.7231 28.4935 18.7345H27.2984V25.744H25.5554L25.5508 25.7333ZM30.0733 21.8818L32.149 25.7318H30.1954L28.1638 21.8818H30.0733ZM34.5225 19.4113L35.6733 21.6388L36.8501 19.4113H38.6099L36.7936 22.5922L38.6603 25.7669H36.9005L35.6611 23.573L34.4553 25.7333H32.697L34.5499 22.5586L32.7916 19.3777L34.5164 19.4113H34.5225Z" fill="#233F8C"/>
<path d="M99.4048 87.2277L99.3941 92.3366C99.3941 92.5443 99.4781 92.7307 99.6124 92.8713C99.718 92.9749 99.8518 93.045 99.9971 93.0729C100.142 93.1009 100.293 93.0853 100.429 93.0283C100.565 92.9712 100.682 92.8752 100.764 92.7522C100.847 92.6291 100.891 92.4846 100.891 92.3366L100.904 87.2277H99.4048ZM100.266 22.5996C101.505 22.5996 102.505 23.6141 102.505 24.8668L102.489 34.8478H98.0098L98.0266 24.8607C98.0266 23.6079 99.0324 22.5996 100.27 22.5996H100.266Z" fill="#233F8C"/>
<path d="M103.47 32.151L99.6336 30.1328H96.7534C96.4982 30.1328 96.2535 30.2117 96.0731 30.3521C95.8927 30.4925 95.7914 30.6829 95.7914 30.8814L95.7266 60.2957L104.683 63.8249L103.476 32.1464L103.47 32.151Z" fill="#7EA6E0"/>
<path d="M102.494 30.1426H106.229C106.641 30.1487 106.977 30.4863 106.977 30.9034L106.943 50.459C106.943 51.6888 105.994 52.7323 104.782 52.772C104.479 52.7815 104.178 52.7297 103.896 52.6198C103.614 52.5099 103.357 52.3441 103.141 52.1323C102.925 51.9206 102.753 51.6673 102.637 51.3876C102.521 51.108 102.462 50.8077 102.465 50.5048L102.499 30.1426H102.494Z" fill="#233F8C"/>
<path d="M101.689 62.319L98.7061 60.3008H95.7191L95.6855 79.5065L101.649 84.7391L101.689 62.3129V62.319Z" fill="#233F8C"/>
<path d="M98.7064 60.2995L98.6621 84.7348L104.648 79.519L104.682 60.3056L98.7064 60.2949V60.2995Z" fill="#233F8C"/>
<path d="M97.7797 89.472C97.8141 89.641 97.9059 89.793 98.0394 89.9021C98.1729 90.0112 98.3399 90.0708 98.5123 90.0709H100.147L101.655 81.5275L98.6725 79.5078H95.6855L97.7797 89.4674V89.472Z" fill="#233F8C"/>
<path d="M101.784 90.0767C101.956 90.077 102.122 90.0182 102.256 89.9103C102.389 89.8024 102.481 89.6519 102.517 89.484L104.649 79.5244L98.6738 79.5137L100.148 90.0752L101.784 90.0767Z" fill="#233F8C"/>
<defs>
<filter id="filter0_f_1239_1017" x="3.15625" y="98.8633" width="101.102" height="14.4336" filterUnits="userSpaceOnUse" color-interpolation-filters="sRGB">
<feFlood flood-opacity="0" result="BackgroundImageFix"/>
<feBlend mode="normal" in="SourceGraphic" in2="BackgroundImageFix" result="shape"/>
<feGaussianBlur stdDeviation="2" result="effect1_foregroundBlur_1239_1017"/>
</filter>
</defs>
</svg>
