<svg width="57" height="57" viewBox="0 0 57 57" fill="none" xmlns="http://www.w3.org/2000/svg">
<path d="M35.8448 22.6434C31.0221 17.8207 25.0699 15.9548 22.5493 18.4754C22.024 19.0006 21.6998 19.6816 21.5424 20.4639L9.13285 44.9785C8.32365 45.7877 8.64789 47.4234 9.85637 48.6319C11.0648 49.8404 12.7006 50.1646 13.5098 49.3554L38.0244 36.9458C38.8067 36.7885 39.4876 36.4648 40.0129 35.939C42.5335 33.4184 40.6676 27.4656 35.8448 22.6434Z" fill="#E15B64"/>
<path d="M35.9527 22.5356C31.0174 17.6003 24.9252 15.6907 22.3458 18.2701C21.8082 18.8077 21.4761 19.5043 21.3154 20.3051C20.7044 23.3453 22.7048 27.9704 26.6113 31.8769C30.5179 35.7835 35.1424 37.7838 38.1832 37.1729C38.984 37.0121 39.6806 36.6801 40.2182 36.1425C42.7976 33.5631 40.888 27.4709 35.9527 22.5356Z" fill="#C33737"/>
<path d="M37.6837 17.7229C38.8423 17.7229 39.7815 16.7837 39.7815 15.6251C39.7815 14.4665 38.8423 13.5273 37.6837 13.5273C36.5251 13.5273 35.5859 14.4665 35.5859 15.6251C35.5859 16.7837 36.5251 17.7229 37.6837 17.7229Z" fill="#A0C8D7"/>
<path d="M45.9749 13.7858C47.6503 13.7858 49.0084 12.4276 49.0084 10.7523C49.0084 9.0769 47.6503 7.71875 45.9749 7.71875C44.2996 7.71875 42.9414 9.0769 42.9414 10.7523C42.9414 12.4276 44.2996 13.7858 45.9749 13.7858Z" fill="#ABBD81"/>
<path d="M7.76675 28.5013C9.08551 28.5013 10.1546 27.4322 10.1546 26.1134C10.1546 24.7947 9.08551 23.7256 7.76675 23.7256C6.44798 23.7256 5.37891 24.7947 5.37891 26.1134C5.37891 27.4322 6.44798 28.5013 7.76675 28.5013Z" fill="#F8B26A"/>
<path d="M49.0102 38.957C50.0083 38.957 50.8174 38.1479 50.8174 37.1499C50.8174 36.1518 50.0083 35.3428 49.0102 35.3428C48.0122 35.3428 47.2031 36.1518 47.2031 37.1499C47.2031 38.1479 48.0122 38.957 49.0102 38.957Z" fill="#A0C8D7"/>
<path d="M28.0987 23.3379C27.9617 23.338 27.8271 23.3017 27.7087 23.2328C27.5903 23.1639 27.4923 23.0647 27.4248 22.9456C27.3573 22.8264 27.3226 22.6914 27.3243 22.5544C27.326 22.4174 27.364 22.2833 27.4345 22.1659C30.9916 16.2276 31.2419 10.7402 28.2006 5.39105C28.0991 5.21253 28.0728 5.00102 28.1273 4.80306C28.1818 4.6051 28.3127 4.43689 28.4912 4.33545C28.6697 4.23401 28.8812 4.20765 29.0792 4.26215C29.2772 4.31666 29.4454 4.44757 29.5468 4.62609C32.843 10.4221 32.5792 16.5916 28.7639 22.9616C28.6183 23.2041 28.3619 23.3379 28.0987 23.3379Z" fill="#A0C8D7"/>
<path d="M34.118 31.9119C33.9869 31.9119 33.858 31.8787 33.7433 31.8153C33.6286 31.7519 33.5319 31.6605 33.4622 31.5495C33.3925 31.4385 33.3522 31.3116 33.3449 31.1808C33.3377 31.0499 33.3638 30.9194 33.4208 30.8014C36.7998 23.7745 43.4285 20.638 49.9206 22.9967C50.0162 23.0315 50.104 23.0847 50.179 23.1535C50.254 23.2222 50.3148 23.305 50.3578 23.3972C50.4008 23.4894 50.4252 23.5892 50.4297 23.6908C50.4341 23.7924 50.4185 23.894 50.3837 23.9896C50.3489 24.0852 50.2957 24.173 50.2269 24.248C50.1582 24.323 50.0754 24.3838 49.9832 24.4268C49.891 24.4698 49.7912 24.4942 49.6896 24.4986C49.588 24.5031 49.4865 24.4875 49.3908 24.4527C43.5999 22.3471 37.8784 25.1023 34.8157 31.4728C34.7528 31.6045 34.6538 31.7156 34.5303 31.7933C34.4068 31.871 34.2639 31.9121 34.118 31.9119Z" fill="#ABBD81"/>
<path d="M17.2534 21.1563C17.1303 21.1564 17.009 21.1271 16.8994 21.0708C16.7899 21.0146 16.6954 20.933 16.6237 20.8329C16.552 20.7328 16.5052 20.6171 16.4873 20.4953C16.4693 20.3735 16.4807 20.2491 16.5204 20.1326C17.9932 15.7993 17.3458 11.6245 14.5419 7.37019C14.486 7.28532 14.4473 7.19026 14.428 7.09044C14.4088 6.99062 14.4094 6.88799 14.4299 6.78841C14.4503 6.68883 14.4902 6.59424 14.5471 6.51006C14.6041 6.42588 14.6771 6.35375 14.762 6.29779C14.8469 6.24182 14.9419 6.20312 15.0418 6.18389C15.1416 6.16467 15.2442 6.16529 15.3438 6.18573C15.4434 6.20616 15.5379 6.24601 15.6221 6.303C15.7063 6.35999 15.7784 6.433 15.8344 6.51787C18.8769 11.1328 19.601 15.8811 17.9865 20.6304C17.9348 20.7838 17.8362 20.9171 17.7047 21.0114C17.5731 21.1058 17.4153 21.1564 17.2534 21.1563Z" fill="#ABBD81"/>
<path d="M42.6896 50.2716C42.3041 50.2733 41.9213 50.2085 41.5578 50.0801C40.131 49.5728 39.0972 48.1403 38.3989 45.7009C37.9716 43.914 37.3007 42.832 36.3963 42.4518C35.4242 42.0436 34.037 42.3712 32.2764 43.429C29.4887 45.0295 27.2924 45.4153 25.5497 44.6162C23.8249 43.8244 22.6965 41.9304 22.1006 38.8252C22.067 38.6256 22.1128 38.4207 22.2283 38.2544C22.3438 38.0882 22.5198 37.9738 22.7187 37.9357C22.9175 37.8976 23.1234 37.9389 23.2921 38.0508C23.4609 38.1626 23.5792 38.3361 23.6216 38.534C24.1099 41.0759 24.9757 42.6489 26.1959 43.2084C27.433 43.7768 29.2154 43.4004 31.4924 42.094C33.7184 40.7572 35.5222 40.4056 36.9978 41.0244C38.3826 41.6068 39.3587 43.0476 39.898 45.3084C40.4322 47.1726 41.1686 48.2982 42.0781 48.6219C42.889 48.9086 43.9681 48.5888 45.2874 47.6699C45.3709 47.6117 45.4649 47.5706 45.5643 47.5488C45.6636 47.527 45.7662 47.525 45.8663 47.5429C45.9664 47.5608 46.062 47.5983 46.1477 47.6531C46.2333 47.7079 46.3073 47.7791 46.3654 47.8625C46.4236 47.9459 46.4647 48.04 46.4865 48.1393C46.5083 48.2387 46.5103 48.3413 46.4924 48.4414C46.4745 48.5415 46.4371 48.6371 46.3822 48.7227C46.3274 48.8084 46.2562 48.8824 46.1728 48.9405C44.8999 49.8259 43.7334 50.2716 42.6896 50.2716Z" fill="#F8B26A"/>
<path d="M31.1797 51.8331C32.0621 51.8331 32.7774 51.1178 32.7774 50.2354C32.7774 49.353 32.0621 48.6377 31.1797 48.6377C30.2973 48.6377 29.582 49.353 29.582 50.2354C29.582 51.1178 30.2973 51.8331 31.1797 51.8331Z" fill="#ABBD81"/>
<path d="M21.3867 8.49316L22.0318 12.4949L25.9042 13.7857L24.6134 9.6546L21.3867 8.49316Z" fill="#F8B26A"/>
<path d="M45.9759 28.501L44.8789 31.1375L45.9759 32.8903L49.0095 30.6956L45.9759 28.501Z" fill="#F8B26A"/>
</svg>
