<svg width="91" height="91" viewBox="0 0 91 91" fill="none" xmlns="http://www.w3.org/2000/svg">
<g clip-path="url(#clip0_1157_6657)">
<path d="M80.0176 13.4541C80.0176 16.5612 77.499 19.0791 74.3926 19.0791C71.2855 19.0791 68.7676 16.5612 68.7676 13.4541C68.7676 10.3477 71.2855 7.8291 74.3926 7.8291C77.499 7.8291 80.0176 10.3477 80.0176 13.4541Z" fill="#233F8C"/>
<path d="M21.6777 77.4209C21.6777 80.5273 19.1598 83.0459 16.0527 83.0459C12.9463 83.0459 10.4277 80.5273 10.4277 77.4209C10.4277 74.3138 12.9463 71.7959 16.0527 71.7959C19.1598 71.7959 21.6777 74.3138 21.6777 77.4209Z" fill="#F2A602"/>
<path d="M68.6234 40.5868C68.0316 37.8349 66.9488 35.2655 65.4695 32.9762L68.4433 30.0018L61.5784 23.1424L58.6071 26.1138C56.3178 24.6344 53.7484 23.5516 50.9965 22.9599V18.7578H41.2918V22.9599C38.5394 23.5516 35.97 24.6344 33.6807 26.1138L30.7093 23.1424L23.8444 30.0018L26.8182 32.9762C25.3389 35.2655 24.2561 37.8349 23.6644 40.5868H19.4508L19.4453 50.2914H23.6644C24.2555 53.0439 25.3383 55.6133 26.8182 57.9026L23.8329 60.8879L30.6929 67.7528L33.6807 64.765C35.97 66.2449 38.5394 67.3278 41.2918 67.9189V72.1489H50.9965V67.9189C53.7484 67.3278 56.3178 66.2449 58.6077 64.765L61.5954 67.7528L68.4548 60.8879L65.4695 57.9026C66.9494 55.6133 68.0322 53.0439 68.6234 50.2914H72.8424V40.5868H68.6234ZM46.1439 56.7258C39.918 56.7258 34.8714 51.6792 34.8714 45.4533C34.8714 39.2275 39.918 34.1809 46.1439 34.1809C52.3697 34.1809 57.4164 39.2275 57.4164 45.4533C57.4164 51.6792 52.3697 56.7258 46.1439 56.7258Z" fill="#FFCC5C"/>
<path d="M16.0519 70.0379C14.7919 70.0379 13.5807 70.3524 12.5061 70.9429C6.84535 63.6864 3.73828 54.6722 3.73828 45.4375C3.73828 22.5626 22.3477 3.95312 45.2227 3.95312C48.0036 3.95312 50.7831 4.22984 53.4844 4.77572C54.4347 4.96798 55.363 4.35275 55.5553 3.40106C55.7476 2.44937 55.1323 1.5224 54.1806 1.32945C51.2507 0.737564 48.237 0.4375 45.2227 0.4375C33.2029 0.4375 21.9021 5.11836 13.4028 13.6177C4.90352 22.1169 0.222656 33.4178 0.222656 45.4375C0.222656 55.5483 3.65588 65.4154 9.90642 73.3256C9.10167 74.5279 8.66908 75.941 8.66908 77.4207C8.66908 79.3928 9.43744 81.2467 10.832 82.6406C12.2259 84.0352 14.0799 84.8035 16.0519 84.8035C18.0239 84.8035 19.8779 84.0352 21.2725 82.6406C22.667 81.2467 23.4347 79.3921 23.4347 77.42C23.4347 75.4487 22.667 73.594 21.2725 72.2002C19.8779 70.8056 18.0239 70.0379 16.0519 70.0379ZM18.7861 80.1549C18.0562 80.8855 17.0846 81.2879 16.0519 81.2879C15.0192 81.2879 14.0483 80.8855 13.3177 80.1549C12.5871 79.4244 12.1847 78.4534 12.1847 77.4207C12.1847 76.3873 12.5871 75.4164 13.3177 74.6858C14.0476 73.9552 15.0192 73.5535 16.0519 73.5535C17.0846 73.5535 18.0555 73.9559 18.7861 74.6858C19.5167 75.4164 19.9191 76.3873 19.9191 77.4207C19.9191 78.4534 19.5167 79.4244 18.7861 80.1549Z" fill="#233F8C"/>
<path d="M80.5384 17.5472C82.4493 14.6804 82.1424 10.7611 79.6148 8.23353C78.2202 6.83965 76.3663 6.07129 74.3943 6.07129C72.4222 6.07129 70.5683 6.83965 69.1737 8.23353C67.7791 9.62811 67.0115 11.4821 67.0115 13.4541C67.0115 15.4261 67.7791 17.2801 69.1737 18.6747C70.5683 20.0692 72.4222 20.8369 74.3943 20.8369C75.6543 20.8369 76.8655 20.5224 77.9401 19.9319C83.6008 27.1891 86.7079 36.2027 86.7079 45.4373C86.7079 68.3122 68.0984 86.9217 45.2235 86.9217C42.4701 86.9217 39.7166 86.6505 37.0408 86.1149C36.0891 85.9247 35.1628 86.542 34.9719 87.4937C34.7817 88.4461 35.399 89.3716 36.3507 89.5625C39.2531 90.1427 42.2387 90.4373 45.2235 90.4373C57.2432 90.4373 68.544 85.7565 77.0433 77.2572C85.5426 68.7579 90.2235 57.4571 90.2235 45.4373C90.2235 35.3258 86.7896 25.458 80.5384 17.5472ZM71.66 16.189C70.9295 15.4584 70.5271 14.4875 70.5271 13.4541C70.5271 12.4214 70.9295 11.4505 71.66 10.7199C72.3899 9.98929 73.3615 9.58691 74.3943 9.58691C75.427 9.58691 76.3986 9.98929 77.1292 10.7199C78.6364 12.2277 78.6364 14.6811 77.1292 16.189C76.3986 16.9189 75.427 17.3213 74.3943 17.3213C73.3609 17.3213 72.3899 16.9189 71.66 16.189Z" fill="#F2A602"/>
<path d="M39.7399 72.1492C39.7399 73.0064 40.4353 73.7012 41.2919 73.7012H50.9966C51.8539 73.7012 52.5486 73.0064 52.5486 72.1492V69.1402C54.5894 68.5909 56.5404 67.7822 58.3737 66.726L60.4981 68.8504C60.7891 69.1414 61.1838 69.3051 61.5961 69.3051C62.0071 69.3051 62.4024 69.1414 62.6935 68.8498L69.5529 61.9856C70.1585 61.3793 70.1585 60.3965 69.5529 59.7908L67.4309 57.6689C68.487 55.8355 69.2958 53.8845 69.8451 51.8438H72.8425C73.6998 51.8438 74.3946 51.149 74.3946 50.2917V40.5871C74.3946 39.7298 73.6998 39.035 72.8425 39.035H69.8445C69.2952 36.9949 68.487 35.0439 67.4309 33.2105L69.5413 31.1001C69.8323 30.8091 69.996 30.4138 69.996 30.0021C69.9954 29.5904 69.8317 29.1952 69.5407 28.9041L62.6759 22.0447C62.0702 21.4391 61.0874 21.4391 60.4812 22.0453L58.3737 24.1534C56.5404 23.0972 54.5894 22.2885 52.5486 21.7392V18.7581C52.5486 17.9008 51.8539 17.2061 50.9966 17.2061H41.2919C40.4353 17.2061 39.7399 17.9008 39.7399 18.7581V21.7398C37.6997 22.2885 35.7487 23.0972 33.9154 24.1534L31.8073 22.0453C31.2017 21.4397 30.2189 21.4391 29.6126 22.0447L22.7484 28.9047C22.4568 29.1958 22.2931 29.5904 22.2931 30.0021C22.2931 30.4138 22.4568 30.8091 22.7478 31.1001L24.8582 33.2105C23.8021 35.0439 22.9933 36.9943 22.444 39.035H19.4521C18.5948 39.035 17.9 39.7298 17.9 40.5865L17.8945 50.2911C17.8939 50.7028 18.0576 51.0981 18.3486 51.3891C18.6396 51.6801 19.0343 51.8438 19.4466 51.8438H22.444C22.9933 53.8845 23.8021 55.8355 24.8582 57.6689L22.7363 59.7908C22.1306 60.3965 22.13 61.3793 22.7363 61.9856L29.5957 68.8498C29.8867 69.1408 30.2814 69.3051 30.693 69.3051H30.6936C31.1053 69.3051 31.5 69.1414 31.791 68.8504L33.9148 66.726C35.7487 67.7822 37.6997 68.5909 39.7399 69.1402V72.1492ZM34.5235 63.4618C33.9093 63.0647 33.1011 63.1508 32.5834 63.668L30.6936 65.5577L26.0283 60.8888L27.9163 59.0003C28.4334 58.4831 28.5195 57.6749 28.1224 57.0608C26.7152 54.883 25.7258 52.4961 25.1826 49.9655C25.0286 49.2507 24.3968 48.7397 23.6651 48.7397H20.9993L21.0029 42.1391H23.6651C24.3968 42.1391 25.0286 41.6287 25.1826 40.9132C25.7258 38.3833 26.7152 35.9964 28.1224 33.8186C28.5195 33.2045 28.4334 32.3963 27.9163 31.8791L26.0405 30.0027L30.7094 25.3374L32.5834 27.212C33.1011 27.7292 33.9087 27.8147 34.5235 27.4182C36.7006 26.011 39.0875 25.0216 41.6181 24.4783C42.3329 24.3243 42.844 23.692 42.844 22.9608V20.3102H49.4445V22.9602C49.4445 23.692 49.955 24.3243 50.6704 24.4777C53.2004 25.0216 55.5879 26.0104 57.765 27.4176C58.3792 27.8147 59.1874 27.7292 59.7045 27.2114L61.5791 25.3374L66.248 30.0027L64.3722 31.8785C63.8545 32.3963 63.769 33.2045 64.1661 33.8186C65.5733 35.9964 66.5621 38.3833 67.1059 40.9132C67.2593 41.6287 67.8917 42.1391 68.6234 42.1391H71.2904V48.7397H68.6234C67.8917 48.7397 67.2599 49.2507 67.1059 49.9655C66.5627 52.4955 65.5733 54.883 64.1661 57.0602C63.769 57.6749 63.8551 58.4831 64.3722 59.0003L66.2602 60.8882L61.5949 65.5571L59.7051 63.668C59.1874 63.1502 58.3792 63.0647 57.765 63.4618C55.5873 64.869 53.2004 65.8578 50.6704 66.4017C49.955 66.5557 49.4445 67.1874 49.4445 67.9192V70.5971H42.844V67.9192C42.844 67.188 42.3329 66.5557 41.6181 66.4017C39.0881 65.8585 36.7012 64.869 34.5235 63.4618Z" fill="#233F8C"/>
<path d="M58.9694 45.4554C58.9694 38.3838 53.2165 32.6309 46.1449 32.6309C39.0733 32.6309 33.3203 38.3838 33.3203 45.4554C33.3203 52.527 39.0733 58.2799 46.1449 58.2799C53.2165 58.2799 58.9694 52.527 58.9694 45.4554ZM36.4244 45.4554C36.4244 40.0953 40.7848 35.735 46.1449 35.735C51.5049 35.735 55.8653 40.0959 55.8653 45.4554C55.8653 50.8149 51.5049 55.1758 46.1449 55.1758C40.7848 55.1758 36.4244 50.8155 36.4244 45.4554Z" fill="#233F8C"/>
<path d="M61.4082 7.08409C61.871 7.08409 62.3242 6.89595 62.651 6.56911C62.9779 6.2402 63.166 5.78702 63.166 5.32422C63.166 4.86417 62.9786 4.41029 62.651 4.08139C62.3242 3.75455 61.871 3.56641 61.4082 3.56641C60.944 3.56641 60.4929 3.75455 60.1661 4.08139C59.8385 4.41029 59.6504 4.86211 59.6504 5.32422C59.6504 5.78839 59.8385 6.2402 60.1661 6.56911C60.4929 6.89595 60.944 7.08409 61.4082 7.08409Z" fill="#233F8C"/>
<path d="M29.1133 83.8193C28.6512 83.8193 28.1973 84.0075 27.8705 84.3343C27.5436 84.6612 27.3555 85.115 27.3555 85.5771C27.3555 86.0413 27.5436 86.4931 27.8705 86.82C28.1973 87.1468 28.6512 87.335 29.1133 87.335C29.5754 87.335 30.0293 87.1468 30.3561 86.82C30.683 86.4931 30.8711 86.0393 30.8711 85.5771C30.8711 85.115 30.683 84.6612 30.3561 84.3343C30.0293 84.0075 29.5754 83.8193 29.1133 83.8193Z" fill="#F2A602"/>
</g>
<defs>
<clipPath id="clip0_1157_6657">
<rect width="90" height="90" fill="white" transform="translate(0.222656 0.4375)"/>
</clipPath>
</defs>
</svg>
