<svg width="49" height="49" viewBox="0 0 49 49" fill="none" xmlns="http://www.w3.org/2000/svg">
<rect x="0.23877" y="0.179688" width="48" height="48" rx="8" fill="#233F8C" fill-opacity="0.1"/>
<path d="M12.7511 24.4909C12.7505 26.5141 13.2815 28.4895 14.2912 30.2307L12.6545 36.1799L18.77 34.5836C20.4615 35.5003 22.3567 35.9806 24.2825 35.9807H24.2876C30.6453 35.9807 35.8205 30.8304 35.8233 24.5C35.8245 21.4324 34.6256 18.5479 32.4474 16.3778C30.2696 14.2078 27.3732 13.0121 24.2871 13.0107C17.9287 13.0107 12.7538 18.1608 12.7512 24.4909" fill="url(#paint0_linear_784_3301)"/>
<path d="M12.3391 24.0717C12.3384 26.1676 12.8885 28.2137 13.9341 30.0173L12.2388 36.1797L18.5736 34.5261C20.319 35.4735 22.2842 35.973 24.2839 35.9738H24.289C30.8748 35.9738 36.236 30.6382 36.2388 24.0812C36.2399 20.9034 34.9979 17.9152 32.7419 15.6673C30.4856 13.4197 27.4856 12.181 24.289 12.1797C17.7021 12.1797 12.3417 17.5145 12.3391 24.0717ZM16.1117 29.7067L15.8751 29.3329C14.8808 27.7589 14.356 25.9401 14.3568 24.0724C14.3588 18.6223 18.8142 14.1882 24.2928 14.1882C26.9459 14.1893 29.4393 15.2189 31.3146 17.0871C33.1899 18.9554 34.2218 21.439 34.2212 24.0804C34.2187 29.5305 29.7633 33.9652 24.289 33.9652H24.2851C22.5026 33.9643 20.7545 33.4877 19.2299 32.5872L18.8671 32.373L15.1079 33.3542L16.1117 29.7067Z" fill="url(#paint1_linear_784_3301)"/>
<path d="M21.3024 19.0996C21.0787 18.6047 20.8433 18.5947 20.6305 18.586C20.4564 18.5786 20.2572 18.5791 20.0583 18.5791C19.8592 18.5791 19.5356 18.6537 19.2622 18.9509C18.9884 19.2485 18.217 19.9675 18.217 21.4299C18.217 22.8924 19.287 24.3058 19.4362 24.5043C19.5855 24.7024 21.5018 27.7995 24.5366 28.991C27.0589 29.9812 27.5722 29.7842 28.1196 29.7346C28.6671 29.6851 29.8862 29.0158 30.1349 28.3216C30.3838 27.6276 30.3838 27.0327 30.3092 26.9084C30.2346 26.7846 30.0354 26.7102 29.7369 26.5616C29.4382 26.4129 27.9702 25.6938 27.6966 25.5946C27.4228 25.4955 27.2238 25.446 27.0247 25.7436C26.8255 26.0408 26.2538 26.7102 26.0795 26.9084C25.9054 27.1071 25.7311 27.1319 25.4326 26.9832C25.1338 26.834 24.1722 26.5205 23.0314 25.508C22.1438 24.7201 21.5445 23.7471 21.3703 23.4494C21.1961 23.1523 21.3517 22.9912 21.5014 22.8431C21.6355 22.7099 21.8001 22.496 21.9495 22.3225C22.0984 22.1489 22.1481 22.025 22.2476 21.8268C22.3473 21.6284 22.2974 21.4548 22.2229 21.3061C22.1481 21.1574 21.5679 19.6873 21.3024 19.0996Z" fill="white"/>
<defs>
<linearGradient id="paint0_linear_784_3301" x1="1171.09" y1="2329.93" x2="1171.09" y2="13.0107" gradientUnits="userSpaceOnUse">
<stop stop-color="#1FAF38"/>
<stop offset="1" stop-color="#60D669"/>
</linearGradient>
<linearGradient id="paint1_linear_784_3301" x1="1212.24" y1="2412.18" x2="1212.24" y2="12.1797" gradientUnits="userSpaceOnUse">
<stop stop-color="#F9F9F9"/>
<stop offset="1" stop-color="white"/>
</linearGradient>
</defs>
</svg>
