<svg width="91" height="96" viewBox="0 0 91 96" fill="none" xmlns="http://www.w3.org/2000/svg">
<path d="M48.1679 24.9023C48.1609 24.9023 48.1537 24.9023 48.1458 24.9023C48.1428 24.9023 48.1394 24.9023 48.1356 24.9023C48.1254 24.9023 48.1153 24.9045 48.1051 24.9045C33.8286 24.9381 22.2676 36.9538 22.2676 51.772C22.2676 66.586 33.8286 78.6039 48.1051 78.6395C48.1153 78.6395 48.1254 78.6416 48.1356 78.6416C48.1394 78.6416 48.1426 78.6416 48.1458 78.6416C48.1537 78.6416 48.1609 78.6416 48.1679 78.6416C62.4694 78.6416 74.0679 66.609 74.0679 51.772C74.0679 36.9328 62.4694 24.9023 48.1679 24.9023ZM49.2034 40.9822C51.9492 40.9045 54.6223 40.5287 57.194 39.878C57.9711 43.0457 58.4507 46.6962 58.5275 50.6972H49.2033L49.2034 40.9822ZM49.2034 38.8326V27.222C51.9978 28.0239 54.8267 31.8864 56.6297 37.8103C54.2378 38.4085 51.755 38.757 49.2034 38.8326ZM47.1319 27.1967V38.8326C44.5602 38.757 42.0571 38.4022 39.6462 37.7935C41.4642 31.8338 44.3204 27.9566 47.1319 27.1967ZM47.1319 40.98V50.6971H37.7441C37.8199 46.6897 38.3026 43.035 39.0785 39.8653C41.6716 40.5223 44.3638 40.9045 47.1319 40.98ZM35.6589 50.6972H24.3659C24.5945 45.1722 26.5785 40.1089 29.7553 36.0994C32.0621 37.4178 34.5095 38.4968 37.0733 39.3029C36.2366 42.7307 35.7347 46.5953 35.6589 50.6972ZM35.6589 52.8468C35.7347 56.9465 36.2366 60.8111 37.0734 64.2391C34.5105 65.0472 32.0622 66.1262 29.7554 67.4444C26.5787 63.435 24.5946 58.3719 24.366 52.8468H35.6589ZM37.7441 52.8468H47.1319V62.5514C44.3639 62.6269 41.6706 63.0112 39.0776 63.6702C38.3015 60.5026 37.8199 56.85 37.7441 52.8468ZM47.1319 64.6988V76.3473C44.3184 75.5852 41.4602 71.7038 39.6431 65.7378C42.055 65.1291 44.5591 64.7744 47.1319 64.6988ZM49.2034 76.322V64.6988C51.755 64.7744 54.2378 65.1249 56.6317 65.7232C54.8286 71.6513 51.9978 75.5201 49.2034 76.322ZM49.2034 62.5514V52.8468H58.5276C58.4508 56.8436 57.9711 60.4898 57.1981 63.6555C54.6223 63.0047 51.9513 62.6269 49.2034 62.5514ZM60.6117 52.8468H71.9694C71.7409 58.3719 69.7578 63.4331 66.5811 67.4425C64.2559 66.1157 61.7873 65.0284 59.2014 64.2181C60.0369 60.7943 60.5367 56.9381 60.6117 52.8468ZM60.6117 50.6972C60.5367 46.5996 60.035 42.7413 59.1994 39.3154C61.7834 38.5051 64.2521 37.4198 66.575 36.0932C69.7558 40.1026 71.7409 45.168 71.9694 50.6972H60.6117ZM65.1484 34.4515C63.0866 35.5892 60.9112 36.5297 58.6389 37.2435C57.4269 33.2004 55.727 29.9005 53.7158 27.7341C58.1269 28.8321 62.0665 31.1999 65.1484 34.4515ZM42.5377 27.7552C40.5375 29.9174 38.8449 33.2026 37.6379 37.2246C35.3877 36.5129 33.2307 35.5809 31.1881 34.4515C34.2495 31.2209 38.1589 28.8593 42.5377 27.7552ZM31.181 69.084C33.2256 67.9526 35.3837 67.0206 37.6358 66.3089C38.8428 70.3351 40.5354 73.6246 42.5376 75.7888C38.1559 74.6826 34.2445 72.3189 31.181 69.084ZM53.7158 75.8077C55.7292 73.6413 57.4288 70.3392 58.6409 66.2899C60.9153 67.0059 63.0925 67.9442 65.1546 69.0861C62.0727 72.3399 58.1309 74.7119 53.7158 75.8077Z" fill="#233F8C"/>
<path d="M75.916 66.4509C77.7742 62.6808 78.8984 58.568 79.2245 54.3473C79.5505 50.1265 79.072 45.8805 77.8163 41.8516" stroke="#F2A602" stroke-width="2.5"/>
<path d="M64.082 79.5134C68.017 77.0955 71.389 73.8064 73.9577 69.8809" stroke="#F2A602" stroke-width="2.5"/>
<path d="M39.2187 20.9141C34.8423 22.2917 30.8129 24.6543 27.418 27.8333" stroke="#F2A602" stroke-width="2.5"/>
<path d="M17.1644 51.7704C17.1644 47.5361 17.9683 43.3432 19.5302 39.4313C21.0922 35.5193 23.3815 31.9648 26.2676 28.9707" stroke="#F2A602" stroke-width="2.5"/>
<path d="M59.6621 81.7607C55.866 83.3162 51.8117 84.0809 47.7308 84.0109C43.6498 83.941 39.6221 83.0379 35.8776 81.3531C32.1331 79.6683 28.7451 77.2349 25.9071 74.1918C23.0691 71.1486 20.8367 67.5554 19.3372 63.6172" stroke="#233F8C" stroke-width="2.5"/>
<path d="M41.0244 20.4111C47.1944 18.8826 53.6674 19.3492 59.5742 21.7484C65.4811 24.1475 70.5389 28.3643 74.0684 33.8324" stroke="#233F8C" stroke-width="2.5"/>
<path d="M70.6035 40.3701C70.6035 40.3701 76.0692 39.3984 78.9082 37.4008C81.7446 35.405 84.6351 30.502 84.6351 30.502" stroke="#233F8C" stroke-width="2" stroke-linecap="round"/>
<path d="M24.0114 56.0016C19.2454 56.0016 12.9786 58.5916 9.93361 63.7552M66.1223 68.7881C71.5153 72.1716 73.4464 74.912 75.623 80.7754M30.174 34.6907C30.174 34.6907 25.5899 30.7341 24.0114 27.8844C21.1985 22.8062 20.6777 17.8281 20.6777 17.8281" stroke="#233F8C" stroke-width="2.5" stroke-linecap="round"/>
<path d="M24.6286 13.3247C24.6286 15.7868 22.7115 17.7353 20.4041 17.7353C18.0968 17.7353 16.1797 15.7868 16.1797 13.3247C16.1797 10.8626 18.0968 8.91406 20.4041 8.91406C22.7115 8.91406 24.6286 10.8626 24.6286 13.3247Z" fill="#F2A602" stroke="#233F8C" stroke-width="1.5"/>
<path d="M79.0513 83.5441C79.0513 85.3821 77.622 86.8246 75.9163 86.8246C74.2106 86.8246 72.7812 85.3821 72.7812 83.5441C72.7812 81.7062 74.2106 80.2637 75.9163 80.2637C77.622 80.2637 79.0513 81.7062 79.0513 83.5441Z" fill="#F2A602" stroke="#233F8C" stroke-width="1.5"/>
<mask id="path-12-inside-1_1157_6693" fill="white">
<ellipse cx="76.0657" cy="66.7001" rx="1.55401" ry="1.61218"/>
</mask>
<ellipse cx="76.0657" cy="66.7001" rx="1.55401" ry="1.61218" fill="#233F8C"/>
<path d="M74.6197 66.7001C74.6197 66.0385 75.1642 65.3122 76.0657 65.3122V71.3122C78.6838 71.3122 80.6197 69.1424 80.6197 66.7001H74.6197ZM76.0657 65.3122C76.9673 65.3122 77.5117 66.0385 77.5117 66.7001H71.5117C71.5117 69.1424 73.4477 71.3122 76.0657 71.3122V65.3122ZM77.5117 66.7001C77.5117 67.3617 76.9673 68.0879 76.0657 68.0879V62.0879C73.4477 62.0879 71.5117 64.2577 71.5117 66.7001H77.5117ZM76.0657 68.0879C75.1642 68.0879 74.6197 67.3617 74.6197 66.7001H80.6197C80.6197 64.2577 78.6838 62.0879 76.0657 62.0879V68.0879Z" fill="#233F8C" mask="url(#path-12-inside-1_1157_6693)"/>
<mask id="path-14-inside-2_1157_6693" fill="white">
<ellipse cx="38.1829" cy="21.1415" rx="1.55401" ry="1.61218"/>
</mask>
<ellipse cx="38.1829" cy="21.1415" rx="1.55401" ry="1.61218" fill="#233F8C"/>
<path d="M36.7369 21.1415C36.7369 20.4799 37.2814 19.7537 38.1829 19.7537V25.7537C40.801 25.7537 42.7369 23.5838 42.7369 21.1415H36.7369ZM38.1829 19.7537C39.0845 19.7537 39.6289 20.4799 39.6289 21.1415H33.6289C33.6289 23.5838 35.5648 25.7537 38.1829 25.7537V19.7537ZM39.6289 21.1415C39.6289 21.8031 39.0845 22.5293 38.1829 22.5293V16.5293C35.5648 16.5293 33.6289 18.6991 33.6289 21.1415H39.6289ZM38.1829 22.5293C37.2814 22.5293 36.7369 21.8031 36.7369 21.1415H42.7369C42.7369 18.6991 40.801 16.5293 38.1829 16.5293V22.5293Z" fill="#233F8C" mask="url(#path-14-inside-2_1157_6693)"/>
<mask id="path-16-inside-3_1157_6693" fill="white">
<ellipse cx="19.3372" cy="64.3739" rx="1.55401" ry="1.61218"/>
</mask>
<ellipse cx="19.3372" cy="64.3739" rx="1.55401" ry="1.61218" fill="#F2A602"/>
<path d="M17.8912 64.3739C17.8912 63.7123 18.4357 62.9861 19.3372 62.9861V68.9861C21.9553 68.9861 23.8912 66.8163 23.8912 64.3739H17.8912ZM19.3372 62.9861C20.2388 62.9861 20.7832 63.7123 20.7832 64.3739H14.7832C14.7832 66.8163 16.7191 68.9861 19.3372 68.9861V62.9861ZM20.7832 64.3739C20.7832 65.0355 20.2388 65.7617 19.3372 65.7617V59.7617C16.7191 59.7617 14.7832 61.9315 14.7832 64.3739H20.7832ZM19.3372 65.7617C18.4357 65.7617 17.8912 65.0355 17.8912 64.3739H23.8912C23.8912 61.9315 21.9553 59.7617 19.3372 59.7617V65.7617Z" fill="#F2A602" mask="url(#path-16-inside-3_1157_6693)"/>
<mask id="path-18-inside-4_1157_6693" fill="white">
<ellipse cx="74.1028" cy="33.8251" rx="1.55401" ry="1.61218"/>
</mask>
<ellipse cx="74.1028" cy="33.8251" rx="1.55401" ry="1.61218" fill="#F2A602"/>
<path d="M72.6568 33.8251C72.6568 33.1635 73.2013 32.4372 74.1028 32.4372V38.4372C76.7209 38.4372 78.6568 36.2674 78.6568 33.8251H72.6568ZM74.1028 32.4372C75.0044 32.4372 75.5488 33.1635 75.5488 33.8251H69.5488C69.5488 36.2674 71.4848 38.4372 74.1028 38.4372V32.4372ZM75.5488 33.8251C75.5488 34.4867 75.0044 35.2129 74.1028 35.2129V29.2129C71.4848 29.2129 69.5488 31.3827 69.5488 33.8251H75.5488ZM74.1028 35.2129C73.2013 35.2129 72.6568 34.4867 72.6568 33.8251H78.6568C78.6568 31.3827 76.7209 29.2129 74.1028 29.2129V35.2129Z" fill="#F2A602" mask="url(#path-18-inside-4_1157_6693)"/>
<path d="M12.6887 69.8823C12.6887 73.165 10.135 75.7471 7.08069 75.7471C4.02636 75.7471 1.47266 73.165 1.47266 69.8823C1.47266 66.5996 4.02636 64.0176 7.08069 64.0176C10.135 64.0176 12.6887 66.5996 12.6887 69.8823Z" fill="#F2A602" stroke="#233F8C" stroke-width="2.5"/>
<path d="M89.4727 29.1042C89.4727 31.327 87.7427 33.0814 85.666 33.0814C83.5894 33.0814 81.8594 31.327 81.8594 29.1042C81.8594 26.8814 83.5894 25.127 85.666 25.127C87.7427 25.127 89.4727 26.8814 89.4727 29.1042Z" fill="#F2A602" stroke="#233F8C" stroke-width="1.5"/>
</svg>
