<svg width="94" height="96" viewBox="0 0 94 96" fill="none" xmlns="http://www.w3.org/2000/svg">
<path d="M31.0332 80.3576L37.1 28.459C37.1 28.459 41.375 33.7393 47.0324 33.7278C52.6605 33.7165 56.8847 28.459 56.8847 28.459L62.7835 80.3576H31.0332Z" stroke="#233F8C" stroke-width="2.5" stroke-linecap="round" stroke-linejoin="round"/>
<path d="M22.2441 87.5747L28.311 80.3564L46.3433 80.3555L65.1956 80.3564L71.0944 87.5747H22.2441Z" fill="#F9EFDB" stroke="#233F8C" stroke-width="2.5" stroke-linecap="round" stroke-linejoin="round"/>
<rect x="11.1326" y="19.8181" width="71.7663" height="0.937037" rx="0.468519" stroke="#233F8C" stroke-width="0.937037"/>
<rect x="33.4434" y="6.91406" width="26.931" height="27.4735" rx="13.4655" fill="#F2A602" stroke="#233F8C" stroke-width="2.5"/>
<path d="M48.4293 14.8227H45.3879C45.1363 14.8227 44.9316 14.6134 44.9316 14.3563V14.0454C44.9316 13.7883 45.1363 13.5791 45.3879 13.5791H48.4293C48.6808 13.5791 48.8855 13.7883 48.8855 14.0454V14.3563C48.8855 14.6134 48.6808 14.8227 48.4293 14.8227ZM45.3879 13.89C45.3475 13.89 45.3088 13.9064 45.2803 13.9355C45.2518 13.9647 45.2358 14.0042 45.2358 14.0454V14.3563C45.2358 14.3976 45.2518 14.4371 45.2803 14.4663C45.3088 14.4954 45.3475 14.5118 45.3879 14.5118H48.4293C48.4696 14.5118 48.5083 14.4954 48.5368 14.4663C48.5653 14.4371 48.5813 14.3976 48.5813 14.3563V14.0454C48.5813 14.0042 48.5653 13.9647 48.5368 13.9355C48.5083 13.9064 48.4696 13.89 48.4293 13.89H45.3879Z" fill="#233F8C" stroke="#233F8C" stroke-width="0.5"/>
<path d="M49.7979 15.6004C49.7576 15.6004 49.7189 15.584 49.6904 15.5548C49.6619 15.5257 49.6459 15.4862 49.6459 15.4449V14.9786C49.6459 14.6357 49.373 14.3568 49.0376 14.3568H48.7334C48.6931 14.3568 48.6544 14.3404 48.6259 14.3113C48.5974 14.2821 48.5814 14.2426 48.5814 14.2013C48.5814 14.1601 48.5974 14.1206 48.6259 14.0914C48.6544 14.0623 48.6931 14.0459 48.7334 14.0459H49.0376C49.5406 14.0459 49.95 14.4644 49.95 14.9786V15.4449C49.95 15.4862 49.934 15.5257 49.9055 15.5548C49.8769 15.584 49.8383 15.6004 49.7979 15.6004ZM44.0193 15.6004C43.9789 15.6004 43.9402 15.584 43.9117 15.5548C43.8832 15.5257 43.8672 15.4862 43.8672 15.4449V14.9786C43.8672 14.4644 44.2766 14.0459 44.7796 14.0459H45.0837C45.1241 14.0459 45.1628 14.0623 45.1913 14.0914C45.2198 14.1206 45.2358 14.1601 45.2358 14.2013C45.2358 14.2426 45.2198 14.2821 45.1913 14.3113C45.1628 14.3404 45.1241 14.3568 45.0837 14.3568H44.7796C44.4441 14.3568 44.1713 14.6357 44.1713 14.9786V15.4449C44.1713 15.4862 44.1553 15.5257 44.1268 15.5548C44.0983 15.584 44.0596 15.6004 44.0193 15.6004Z" fill="#233F8C" stroke="#233F8C" stroke-width="0.5"/>
<path d="M49.2822 21.9684L54.5098 20.5734V16.8427C54.5098 16.6365 54.4296 16.4388 54.2871 16.2931C54.1445 16.1473 53.9511 16.0654 53.7494 16.0654H40.0631C39.8614 16.0654 39.668 16.1473 39.5254 16.2931C39.3828 16.4388 39.3027 16.6365 39.3027 16.8427V20.5734L44.5303 21.9684H49.2822Z" fill="#233F8C" stroke="#233F8C" stroke-width="0.5"/>
<path d="M53.7511 27.729H40.0648C39.5617 27.729 39.1523 27.3106 39.1523 26.7963V16.8477C39.1523 16.3335 39.5617 15.915 40.0648 15.915H53.7511C54.2541 15.915 54.6635 16.3335 54.6635 16.8477V26.7963C54.6635 27.3106 54.2541 27.729 53.7511 27.729ZM40.0648 16.2259C39.7293 16.2259 39.4565 16.5048 39.4565 16.8477V26.7963C39.4565 27.1393 39.7293 27.4181 40.0648 27.4181H53.7511C54.0866 27.4181 54.3594 27.1393 54.3594 26.7963V16.8477C54.3594 16.5048 54.0866 16.2259 53.7511 16.2259H40.0648Z" fill="#233F8C" stroke="#233F8C" stroke-width="0.5"/>
<path d="M48.4295 22.5971H45.3881C45.3075 22.5971 45.2301 22.5643 45.1731 22.506C45.116 22.4477 45.084 22.3687 45.084 22.2862V21.6644C45.084 21.582 45.116 21.5029 45.1731 21.4446C45.2301 21.3863 45.3075 21.3535 45.3881 21.3535H48.4295C48.5102 21.3535 48.5876 21.3863 48.6446 21.4446C48.7016 21.5029 48.7337 21.582 48.7337 21.6644V22.2862C48.7337 22.3687 48.7016 22.4477 48.6446 22.506C48.5876 22.5643 48.5102 22.5971 48.4295 22.5971Z" fill="#FFCC5C" stroke="#233F8C" stroke-width="0.5"/>
<path d="M48.4293 22.7498H45.3879C45.1363 22.7498 44.9316 22.5406 44.9316 22.2834V21.6617C44.9316 21.4045 45.1363 21.1953 45.3879 21.1953H48.4293C48.6808 21.1953 48.8855 21.4045 48.8855 21.6617V22.2834C48.8855 22.5406 48.6808 22.7498 48.4293 22.7498ZM45.3879 21.5062C45.3475 21.5062 45.3088 21.5226 45.2803 21.5517C45.2518 21.5809 45.2358 21.6204 45.2358 21.6617V22.2834C45.2358 22.3247 45.2518 22.3642 45.2803 22.3934C45.3088 22.4225 45.3475 22.4389 45.3879 22.4389H48.4293C48.4696 22.4389 48.5083 22.4225 48.5368 22.3934C48.5653 22.3642 48.5813 22.3247 48.5813 22.2834V21.6617C48.5813 21.6204 48.5653 21.5809 48.5368 21.5517C48.5083 21.5226 48.4696 21.5062 48.4293 21.5062H45.3879Z" fill="#233F8C" stroke="#233F8C" stroke-width="0.5"/>
<path d="M49.2839 22.1289C49.2465 22.1296 49.2102 22.1161 49.1819 22.0911C49.1536 22.0662 49.1354 22.0314 49.1306 21.9935C49.1259 21.9556 49.135 21.9172 49.1562 21.8857C49.1774 21.8543 49.2092 21.8319 49.2456 21.823L54.3594 20.4581V16.8477C54.3594 16.5048 54.0866 16.2259 53.7511 16.2259H40.0648C39.7293 16.2259 39.4565 16.5048 39.4565 16.8477V20.4584L44.5703 21.8233C44.6518 21.845 44.7005 21.9299 44.6789 22.0129C44.6739 22.0327 44.6651 22.0512 44.6531 22.0675C44.6411 22.0838 44.626 22.0974 44.6088 22.1078C44.5916 22.1181 44.5726 22.1248 44.5528 22.1276C44.5331 22.1304 44.513 22.1291 44.4937 22.1239L39.2661 20.7289C39.2335 20.7203 39.2047 20.7008 39.1841 20.6735C39.1635 20.6463 39.1523 20.6129 39.1523 20.5785V16.8477C39.1523 16.3335 39.5617 15.915 40.0648 15.915H53.7511C54.2541 15.915 54.6635 16.3335 54.6635 16.8477V20.5785C54.6635 20.6129 54.6524 20.6463 54.6318 20.6735C54.6112 20.7008 54.5823 20.7203 54.5498 20.7289L49.3222 22.1239C49.3097 22.1272 49.2968 22.1289 49.2839 22.1289Z" fill="#233F8C" stroke="#233F8C" stroke-width="0.5"/>
<path d="M46.9068 23.8393C46.7052 23.8393 46.5118 23.7574 46.3692 23.6116C46.2266 23.4659 46.1465 23.2682 46.1465 23.062V22.5957H47.6672V23.062C47.6672 23.2682 47.5871 23.4659 47.4445 23.6116C47.3019 23.7574 47.1085 23.8393 46.9068 23.8393Z" fill="#FFCC5C" stroke="#233F8C" stroke-width="0.5"/>
<path d="M46.9078 23.992C46.4047 23.992 45.9954 23.5735 45.9954 23.0593V22.5929C45.9954 22.5517 46.0114 22.5122 46.0399 22.483C46.0684 22.4539 46.1071 22.4375 46.1474 22.4375H47.6681C47.7085 22.4375 47.7472 22.4539 47.7757 22.483C47.8042 22.5122 47.8202 22.5517 47.8202 22.5929V23.0593C47.8202 23.5735 47.4108 23.992 46.9078 23.992ZM46.2995 22.7484V23.0593C46.2995 23.4022 46.5723 23.6811 46.9078 23.6811C47.2433 23.6811 47.5161 23.4022 47.5161 23.0593V22.7484H46.2995ZM52.9526 27.1009C52.9123 27.1009 52.8736 27.0845 52.8451 27.0554C52.8165 27.0262 52.8005 26.9867 52.8005 26.9455C52.8005 26.6026 52.5277 26.3237 52.1922 26.3237H41.6234C41.2879 26.3237 41.0151 26.6026 41.0151 26.9455C41.0151 26.9867 40.9991 27.0262 40.9705 27.0554C40.942 27.0845 40.9033 27.1009 40.863 27.1009C40.8227 27.1009 40.784 27.0845 40.7555 27.0554C40.727 27.0262 40.7109 26.9867 40.7109 26.9455C40.7109 26.4313 41.1203 26.0128 41.6234 26.0128H52.1922C52.6953 26.0128 53.1047 26.4313 53.1047 26.9455C53.1047 26.9867 53.0886 27.0262 53.0601 27.0554C53.0316 27.0845 52.9929 27.1009 52.9526 27.1009Z" fill="#233F8C" stroke="#233F8C" stroke-width="0.5"/>
<path d="M47.6689 19.1763H46.1482C46.1078 19.1763 46.0692 19.1599 46.0406 19.1307C46.0121 19.1016 45.9961 19.062 45.9961 19.0208C45.9961 18.9795 46.0121 18.9399 46.0406 18.9108C46.0692 18.8816 46.1078 18.8652 46.1482 18.8652H47.6689C47.7092 18.8652 47.7479 18.8816 47.7764 18.9108C47.8049 18.9399 47.8209 18.9795 47.8209 19.0208C47.8209 19.062 47.8049 19.1016 47.7764 19.1307C47.7479 19.1599 47.7092 19.1763 47.6689 19.1763Z" fill="#FFCC5C"/>
<path d="M53.5986 18.7062C53.5582 18.7062 53.5195 18.6898 53.491 18.6607C53.4625 18.6315 53.4465 18.592 53.4465 18.5507V17.3072C53.4465 17.2659 53.4305 17.2264 53.4019 17.1972C53.3734 17.1681 53.3347 17.1517 53.2944 17.1517H52.0779C52.0375 17.1517 51.9988 17.1353 51.9703 17.1062C51.9418 17.077 51.9258 17.0375 51.9258 16.9963C51.9258 16.955 51.9418 16.9155 51.9703 16.8863C51.9988 16.8572 52.0375 16.8408 52.0779 16.8408H53.2944C53.5459 16.8408 53.7506 17.0501 53.7506 17.3072V18.5507C53.7506 18.592 53.7346 18.6315 53.7061 18.6607C53.6776 18.6898 53.6389 18.7062 53.5986 18.7062Z" fill="#FFCC5C"/>
<path d="M5.46492 39.5814L12.2297 19.8781C12.2297 19.8781 12.5504 18.7695 15.2988 18.7695C18.0473 18.7695 18.368 19.8781 18.368 19.8781L24.9092 39.5814H27.3819C27.3819 39.5814 27.7783 39.5802 27.9321 39.7466C28.0804 39.907 28.0689 40.294 28.0689 40.294V42.9082C28.0689 42.9082 28.244 44.4706 26.8964 45.7961C25.5488 47.1216 23.7558 47.2781 23.7558 47.2781H18.5265H6.31216C6.31216 47.2781 4.78114 47.1806 3.21753 45.2908C2.09003 43.8161 2.22799 40.6062 2.22799 40.6062C2.22799 40.6062 2.27205 40.2527 2.32684 40.032C2.40628 39.7121 2.64786 39.5814 2.64786 39.5814H5.46492Z" stroke="#F2A602" stroke-width="2.5" stroke-linejoin="round"/>
<path d="M69.6114 39.6302L76.3762 19.927C76.3762 19.927 76.6969 18.8184 79.4453 18.8184C82.1937 18.8184 82.5145 19.927 82.5145 19.927L89.0557 39.6302H91.5284C91.5284 39.6302 91.9248 39.6291 92.0786 39.7955C92.2269 39.9558 92.2154 40.3429 92.2154 40.3429V42.957C92.2154 42.957 92.3905 44.5194 91.0429 45.8449C89.6953 47.1704 87.9022 47.327 87.9022 47.327H82.673H70.4586C70.4586 47.327 68.9276 47.2295 67.364 45.3396C66.2365 43.865 66.3745 40.655 66.3745 40.655C66.3745 40.655 66.4185 40.3015 66.4733 40.0809C66.5528 39.7609 66.7943 39.6302 66.7943 39.6302H69.6114Z" stroke="#F2A602" stroke-width="2.5" stroke-linejoin="round"/>
<path d="M5.46492 39.627L14.774 39.6565H15.8236L24.9092 39.627H27.3819C27.3819 39.627 27.7783 39.6258 27.9321 39.7922C28.0804 39.9526 28.0689 40.3396 28.0689 40.3396V42.9538C28.0689 42.9538 28.244 44.5161 26.8964 45.8416C25.5488 47.1672 23.7558 47.3237 23.7558 47.3237H18.5265H6.31216C6.31216 47.3237 4.78114 47.2262 3.21753 45.3363C2.09003 43.8617 2.22799 40.6517 2.22799 40.6517C2.22799 40.6517 2.27205 40.2983 2.32684 40.0776C2.40628 39.7576 2.64786 39.627 2.64786 39.627H5.46492Z" fill="#233F8C"/>
<path d="M69.6114 39.627L78.9205 39.6565H79.9701L89.0557 39.627H91.5284C91.5284 39.627 91.9248 39.6258 92.0786 39.7922C92.2269 39.9526 92.2154 40.3396 92.2154 40.3396V42.9538C92.2154 42.9538 92.3905 44.5161 91.0429 45.8416C89.6953 47.1672 87.9022 47.3237 87.9022 47.3237H82.673H70.4586C70.4586 47.3237 68.9276 47.2262 67.364 45.3363C66.2365 43.8617 66.3745 40.6517 66.3745 40.6517C66.3745 40.6517 66.4185 40.2983 66.4733 40.0776C66.5528 39.7576 66.7943 39.627 66.7943 39.627H69.6114Z" fill="#233F8C"/>
<rect x="9.04297" y="19.3496" width="6.9803" height="1.87383" rx="0.936917" fill="#233F8C"/>
<rect x="78.2617" y="19.3496" width="6.9803" height="1.87383" rx="0.936917" fill="#233F8C"/>
<path d="M18.0297 34.2365H12.7464C12.5712 34.2365 12.4032 34.1624 12.2794 34.0305C12.1555 33.8986 12.0859 33.7198 12.0859 33.5333C12.0859 33.3468 12.1555 33.1679 12.2794 33.036C12.4032 32.9042 12.5712 32.8301 12.7464 32.8301H18.0297C18.2048 32.8301 18.3728 32.9042 18.4967 33.036C18.6205 33.1679 18.6901 33.3468 18.6901 33.5333C18.6901 33.7198 18.6205 33.8986 18.4967 34.0305C18.3728 34.1624 18.2048 34.2365 18.0297 34.2365ZM82.7053 36.7333H77.4219C77.2468 36.7333 77.0788 36.6593 76.9549 36.5274C76.8311 36.3955 76.7615 36.2166 76.7615 36.0301C76.7615 35.8436 76.8311 35.6648 76.9549 35.5329C77.0788 35.401 77.2468 35.3269 77.4219 35.3269H82.7053C82.8804 35.3269 83.0484 35.401 83.1723 35.5329C83.2961 35.6648 83.3657 35.8436 83.3657 36.0301C83.3657 36.2166 83.2961 36.3955 83.1723 36.5274C83.0484 36.6593 82.8804 36.7333 82.7053 36.7333Z" fill="#F2A602"/>
<path d="M14.8155 30.7161V36.3417C14.8155 36.5282 14.8856 36.7071 15.0104 36.839C15.1352 36.9708 15.3045 37.0449 15.481 37.0449C15.6575 37.0449 15.8268 36.9708 15.9516 36.839C16.0764 36.7071 16.1465 36.5282 16.1465 36.3417V30.7161C16.1465 30.5296 16.0764 30.3507 15.9516 30.2188C15.8268 30.087 15.6575 30.0129 15.481 30.0129C15.3045 30.0129 15.1352 30.087 15.0104 30.2188C14.8856 30.3507 14.8155 30.5296 14.8155 30.7161Z" fill="#233F8C"/>
</svg>
