<svg width="17" height="17" viewBox="0 0 17 17" fill="none" xmlns="http://www.w3.org/2000/svg">
<g clip-path="url(#clip0_792_11503)">
<path d="M16.4227 8.00969C15.8346 6.48851 14.8137 5.173 13.4861 4.22573C12.1585 3.27847 10.5824 2.74097 8.95267 2.67969C7.32293 2.74097 5.74686 3.27847 4.41927 4.22573C3.09168 5.173 2.07075 6.48851 1.48267 8.00969C1.44295 8.11954 1.44295 8.23983 1.48267 8.34969C2.07075 9.87086 3.09168 11.1864 4.41927 12.1336C5.74686 13.0809 7.32293 13.6184 8.95267 13.6797C10.5824 13.6184 12.1585 13.0809 13.4861 12.1336C14.8137 11.1864 15.8346 9.87086 16.4227 8.34969C16.4624 8.23983 16.4624 8.11954 16.4227 8.00969ZM8.95267 12.6797C6.30267 12.6797 3.50267 10.7147 2.48767 8.17969C3.50267 5.64469 6.30267 3.67969 8.95267 3.67969C11.6027 3.67969 14.4027 5.64469 15.4177 8.17969C14.4027 10.7147 11.6027 12.6797 8.95267 12.6797Z" fill="#504D4D"/>
<path d="M8.95264 5.17969C8.35929 5.17969 7.77927 5.35563 7.28593 5.68528C6.79258 6.01492 6.40806 6.48346 6.181 7.03164C5.95394 7.57982 5.89453 8.18302 6.01028 8.76496C6.12604 9.3469 6.41176 9.88145 6.83132 10.301C7.25088 10.7206 7.78542 11.0063 8.36737 11.122C8.94931 11.2378 9.55251 11.1784 10.1007 10.9513C10.6489 10.7243 11.1174 10.3397 11.447 9.8464C11.7767 9.35305 11.9526 8.77303 11.9526 8.17969C11.9526 7.38404 11.6366 6.62098 11.074 6.05837C10.5113 5.49576 9.74829 5.17969 8.95264 5.17969ZM8.95264 10.1797C8.55708 10.1797 8.1704 10.0624 7.8415 9.84263C7.5126 9.62286 7.25625 9.31051 7.10488 8.94505C6.9535 8.5796 6.9139 8.17747 6.99107 7.78951C7.06824 7.40154 7.25872 7.04518 7.53842 6.76547C7.81813 6.48577 8.1745 6.29529 8.56246 6.21812C8.95042 6.14095 9.35255 6.18055 9.718 6.33193C10.0835 6.4833 10.3958 6.73965 10.6156 7.06855C10.8353 7.39745 10.9526 7.78412 10.9526 8.17969C10.9526 8.71012 10.7419 9.21883 10.3669 9.5939C9.99178 9.96897 9.48307 10.1797 8.95264 10.1797Z" fill="#504D4D"/>
</g>
<defs>
<clipPath id="clip0_792_11503">
<rect width="16" height="16" fill="white" transform="translate(0.952637 0.179688)"/>
</clipPath>
</defs>
</svg>
